<?xml version="1.0" encoding="UTF-8"?>
<svg xmlns="http://www.w3.org/2000/svg" xmlns:xlink="http://www.w3.org/1999/xlink" width="369.3pt" height="142.53pt" viewBox="0 0 369.3 142.53">
<defs>
<g>
<g id="glyph-0-0">
<path d="M 4.390625 -3.640625 L 2.921875 -2.15625 L 1.4375 -3.640625 C 1.359375 -3.71875 1.234375 -3.71875 1.15625 -3.640625 C 1.078125 -3.5625 1.078125 -3.4375 1.15625 -3.359375 L 2.625 -1.875 L 1.15625 -0.390625 C 1.078125 -0.3125 1.078125 -0.1875 1.15625 -0.109375 C 1.234375 -0.03125 1.359375 -0.03125 1.4375 -0.109375 L 2.921875 -1.59375 L 4.390625 -0.109375 C 4.484375 -0.03125 4.59375 -0.03125 4.6875 -0.109375 C 4.765625 -0.1875 4.765625 -0.3125 4.6875 -0.390625 L 3.203125 -1.875 L 4.6875 -3.359375 C 4.765625 -3.4375 4.765625 -3.5625 4.6875 -3.640625 C 4.609375 -3.703125 4.46875 -3.703125 4.390625 -3.640625 Z M 4.390625 -3.640625 "/>
</g>
<g id="glyph-0-1">
<path d="M 5.21875 -2.046875 L 0.609375 -2.046875 C 0.46875 -2.046875 0.421875 -1.96875 0.421875 -1.875 C 0.421875 -1.78125 0.46875 -1.703125 0.609375 -1.703125 L 5.21875 -1.703125 C 5.375 -1.703125 5.421875 -1.78125 5.421875 -1.875 C 5.421875 -1.96875 5.375 -2.046875 5.21875 -2.046875 Z M 5.21875 -2.046875 "/>
</g>
<g id="glyph-0-2">
<path d="M 2.265625 -4.984375 C 1.953125 -4.671875 1.46875 -4.5 0.8125 -4.5 L 0.8125 -4.171875 C 1.265625 -4.171875 1.609375 -4.25 1.875 -4.375 L 1.875 -0.640625 C 1.875 -0.546875 1.875 -0.484375 1.859375 -0.453125 C 1.8125 -0.375 1.59375 -0.328125 1.171875 -0.328125 L 0.875 -0.328125 L 0.875 0 L 2.203125 -0.03125 L 3.546875 0 L 3.546875 -0.328125 L 3.234375 -0.328125 C 2.828125 -0.328125 2.609375 -0.375 2.5625 -0.453125 C 2.546875 -0.484375 2.53125 -0.546875 2.53125 -0.640625 L 2.53125 -4.734375 C 2.53125 -4.9375 2.5 -4.984375 2.265625 -4.984375 Z M 2.265625 -4.984375 "/>
</g>
<g id="glyph-0-3">
<path d="M 3.875 -2.390625 C 3.875 -3.234375 3.71875 -3.890625 3.421875 -4.328125 C 3.1875 -4.703125 2.703125 -4.984375 2.125 -4.984375 C 1.890625 -4.984375 1.671875 -4.9375 1.484375 -4.859375 C 0.65625 -4.515625 0.390625 -3.5625 0.390625 -2.390625 C 0.390625 -2.140625 0.40625 -1.890625 0.421875 -1.671875 C 0.5625 -0.6875 1.015625 0.15625 2.125 0.15625 C 2.375 0.15625 2.59375 0.109375 2.78125 0.03125 C 3.59375 -0.3125 3.875 -1.25 3.875 -2.390625 Z M 3.015625 -4.0625 C 3.09375 -3.78125 3.140625 -3.265625 3.140625 -2.484375 C 3.140625 -1.75 3.109375 -1.234375 3.046875 -0.9375 C 2.953125 -0.484375 2.640625 -0.125 2.125 -0.125 C 1.9375 -0.125 1.75 -0.1875 1.578125 -0.3125 C 1.34375 -0.484375 1.203125 -0.8125 1.140625 -1.328125 C 1.125 -1.5 1.125 -1.890625 1.125 -2.484375 C 1.125 -3.21875 1.15625 -3.71875 1.234375 -3.984375 C 1.359375 -4.46875 1.65625 -4.703125 2.125 -4.703125 C 2.578125 -4.703125 2.90625 -4.421875 3.015625 -4.0625 Z M 3.015625 -4.0625 "/>
</g>
<g id="glyph-1-0">
<path d="M 2.828125 -7 C 2.390625 -6.546875 1.765625 -6.328125 0.9375 -6.328125 L 0.9375 -5.921875 C 1.484375 -5.921875 1.9375 -6 2.28125 -6.171875 L 2.28125 -0.859375 C 2.28125 -0.671875 2.234375 -0.546875 2.140625 -0.5 C 2.046875 -0.4375 1.78125 -0.40625 1.359375 -0.40625 L 1 -0.40625 L 1 0 C 1.265625 -0.015625 1.828125 -0.03125 2.703125 -0.03125 C 3.5625 -0.03125 4.140625 -0.015625 4.40625 0 L 4.40625 -0.40625 L 4.03125 -0.40625 C 3.59375 -0.40625 3.34375 -0.4375 3.25 -0.5 C 3.171875 -0.546875 3.125 -0.671875 3.125 -0.859375 L 3.125 -6.671875 C 3.125 -6.9375 3.09375 -7 2.828125 -7 Z M 2.828125 -7 "/>
</g>
<g id="glyph-1-1">
<path d="M 2.484375 -7 C 1.953125 -7 1.5 -6.796875 1.109375 -6.421875 C 0.71875 -6.046875 0.53125 -5.609375 0.53125 -5.078125 C 0.53125 -4.71875 0.78125 -4.453125 1.109375 -4.453125 C 1.421875 -4.453125 1.6875 -4.71875 1.6875 -5.046875 C 1.6875 -5.390625 1.4375 -5.625 1.109375 -5.625 C 1.078125 -5.625 1.046875 -5.625 1.03125 -5.625 C 1.234375 -6.125 1.6875 -6.578125 2.359375 -6.578125 C 3.21875 -6.578125 3.703125 -5.84375 3.703125 -4.9375 C 3.703125 -4.234375 3.34375 -3.46875 2.625 -2.671875 L 0.65625 -0.453125 C 0.515625 -0.296875 0.53125 -0.296875 0.53125 0 L 4.421875 0 L 4.71875 -1.890625 L 4.375 -1.890625 C 4.296875 -1.359375 4.21875 -1.046875 4.15625 -0.953125 C 4.109375 -0.90625 3.796875 -0.875 3.21875 -0.875 L 1.453125 -0.875 L 2.484375 -1.875 C 3.1875 -2.546875 4.09375 -3.28125 4.40625 -3.828125 C 4.609375 -4.203125 4.71875 -4.5625 4.71875 -4.9375 C 4.71875 -6.171875 3.75 -7 2.484375 -7 Z M 2.484375 -7 "/>
</g>
<g id="glyph-1-2">
<path d="M 2.609375 0.234375 C 4.09375 0.234375 4.828125 -0.96875 4.828125 -3.359375 C 4.828125 -4.96875 4.5 -6.03125 3.828125 -6.5625 C 3.46875 -6.84375 3.0625 -7 2.625 -7 C 1.140625 -7 0.40625 -5.78125 0.40625 -3.359375 C 0.40625 -1.421875 0.921875 0.234375 2.609375 0.234375 Z M 3.796875 -5.5 C 3.859375 -5.140625 3.890625 -4.46875 3.890625 -3.484375 C 3.890625 -2.515625 3.859375 -1.8125 3.78125 -1.34375 C 3.640625 -0.5 3.25 -0.078125 2.609375 -0.078125 C 2.375 -0.078125 2.125 -0.171875 1.90625 -0.359375 C 1.625 -0.59375 1.453125 -1.09375 1.390625 -1.84375 C 1.359375 -2.109375 1.34375 -2.65625 1.34375 -3.484375 C 1.34375 -4.40625 1.375 -5.046875 1.421875 -5.390625 C 1.515625 -5.96875 1.71875 -6.328125 2 -6.484375 C 2.234375 -6.609375 2.4375 -6.671875 2.609375 -6.671875 C 3.296875 -6.671875 3.671875 -6.125 3.796875 -5.5 Z M 3.796875 -5.5 "/>
</g>
<g id="glyph-1-3">
<path d="M 7.328125 -2.828125 L 0.84375 -2.828125 C 0.671875 -2.828125 0.59375 -2.765625 0.59375 -2.625 C 0.59375 -2.484375 0.671875 -2.421875 0.84375 -2.421875 L 7.328125 -2.421875 C 7.5 -2.421875 7.578125 -2.484375 7.578125 -2.625 C 7.578125 -2.75 7.453125 -2.828125 7.328125 -2.828125 Z M 7.328125 -2.828125 "/>
</g>
<g id="glyph-1-4">
<path d="M 3.1875 -3.703125 C 3.875 -3.96875 4.53125 -4.625 4.53125 -5.515625 C 4.53125 -5.96875 4.3125 -6.34375 3.875 -6.625 C 3.5 -6.859375 3.0625 -7 2.578125 -7 C 2.109375 -7 1.703125 -6.859375 1.328125 -6.625 C 0.921875 -6.359375 0.71875 -6 0.71875 -5.546875 C 0.71875 -5.203125 0.9375 -4.953125 1.28125 -4.953125 C 1.609375 -4.953125 1.84375 -5.203125 1.84375 -5.53125 C 1.84375 -5.875 1.65625 -6.0625 1.25 -6.09375 C 1.515625 -6.453125 1.953125 -6.640625 2.546875 -6.640625 C 3.171875 -6.640625 3.484375 -6.28125 3.484375 -5.53125 C 3.484375 -5.09375 3.40625 -4.71875 3.25 -4.421875 C 2.96875 -3.921875 2.578125 -3.828125 1.921875 -3.828125 C 1.796875 -3.796875 1.734375 -3.75 1.734375 -3.65625 C 1.734375 -3.5 1.8125 -3.5 2.015625 -3.5 L 2.46875 -3.5 C 3.25 -3.5 3.65625 -2.9375 3.65625 -1.8125 C 3.65625 -0.921875 3.328125 -0.140625 2.53125 -0.140625 C 1.84375 -0.140625 1.34375 -0.375 1.046875 -0.84375 C 1.40625 -0.828125 1.6875 -1.109375 1.6875 -1.453125 C 1.6875 -1.8125 1.421875 -2.078125 1.0625 -2.078125 C 0.65625 -2.078125 0.4375 -1.875 0.4375 -1.4375 C 0.4375 -0.921875 0.671875 -0.515625 1.140625 -0.1875 C 1.546875 0.09375 2.03125 0.234375 2.5625 0.234375 C 3.15625 0.234375 3.671875 0.03125 4.125 -0.359375 C 4.578125 -0.75 4.796875 -1.234375 4.796875 -1.8125 C 4.796875 -2.796875 4.015625 -3.484375 3.1875 -3.703125 Z M 3.1875 -3.703125 "/>
</g>
<g id="glyph-1-5">
<path d="M 0.5 -2.609375 C 0.5 -0.625 2.109375 0.96875 4.09375 0.96875 C 6.078125 0.96875 7.6875 -0.625 7.6875 -2.609375 C 7.6875 -4.59375 6.078125 -6.203125 4.09375 -6.203125 C 2.109375 -6.203125 0.5 -4.59375 0.5 -2.609375 Z M 6.453125 -0.609375 L 4.4375 -2.625 L 6.453125 -4.625 C 6.90625 -4.078125 7.1875 -3.375 7.1875 -2.609375 C 7.1875 -1.84375 6.921875 -1.15625 6.453125 -0.609375 Z M 2.078125 -4.984375 C 2.625 -5.453125 3.3125 -5.71875 4.078125 -5.71875 C 4.84375 -5.71875 5.546875 -5.453125 6.09375 -4.984375 L 4.078125 -2.984375 Z M 6.09375 -0.25 C 5.546875 0.203125 4.84375 0.5 4.078125 0.5 C 3.3125 0.5 2.609375 0.203125 2.0625 -0.25 L 4.078125 -2.265625 Z M 1.71875 -4.625 L 3.734375 -2.625 L 1.71875 -0.609375 C 1.25 -1.15625 0.96875 -1.84375 0.96875 -2.609375 C 0.96875 -3.375 1.265625 -4.078125 1.71875 -4.625 Z M 1.71875 -4.625 "/>
</g>
<g id="glyph-1-6">
<path d="M 7.328125 -3.859375 L 0.84375 -3.859375 C 0.671875 -3.859375 0.59375 -3.765625 0.59375 -3.609375 C 0.59375 -3.453125 0.671875 -3.375 0.84375 -3.375 L 7.328125 -3.375 C 7.5 -3.375 7.578125 -3.453125 7.578125 -3.609375 C 7.578125 -3.734375 7.46875 -3.859375 7.328125 -3.859375 Z M 7.328125 -1.875 L 0.84375 -1.875 C 0.671875 -1.875 0.59375 -1.796875 0.59375 -1.640625 C 0.59375 -1.484375 0.671875 -1.390625 0.84375 -1.390625 L 7.328125 -1.390625 C 7.5 -1.390625 7.578125 -1.484375 7.578125 -1.640625 C 7.578125 -1.78125 7.46875 -1.875 7.328125 -1.875 Z M 7.328125 -1.875 "/>
</g>
<g id="glyph-1-7">
<path d="M 3.703125 -7.109375 C 3.609375 -7.109375 3.53125 -7.0625 3.46875 -6.96875 L 0.296875 -2.09375 L 0.296875 -1.71875 L 3.03125 -1.71875 L 3.03125 -0.84375 C 3.03125 -0.65625 3 -0.53125 2.921875 -0.484375 C 2.84375 -0.4375 2.640625 -0.40625 2.296875 -0.40625 L 2.03125 -0.40625 L 2.03125 0 C 2.34375 -0.015625 2.828125 -0.03125 3.46875 -0.03125 C 4.125 -0.03125 4.609375 -0.015625 4.90625 0 L 4.90625 -0.40625 L 4.65625 -0.40625 C 4.3125 -0.40625 4.109375 -0.4375 4.03125 -0.484375 C 3.953125 -0.53125 3.921875 -0.65625 3.921875 -0.84375 L 3.921875 -1.71875 L 4.953125 -1.71875 L 4.953125 -2.125 L 3.921875 -2.125 L 3.921875 -6.9375 C 3.921875 -7.03125 3.84375 -7.109375 3.703125 -7.109375 Z M 3.09375 -5.8125 L 3.09375 -2.125 L 0.703125 -2.125 Z M 3.09375 -5.8125 "/>
</g>
</g>
<clipPath id="clip-0">
<path clip-rule="nonzero" d="M 0 0 L 1 0 L 1 142.53125 L 0 142.53125 Z M 0 0 "/>
</clipPath>
<clipPath id="clip-1">
<path clip-rule="nonzero" d="M 0 141 L 143 141 L 143 142.53125 L 0 142.53125 Z M 0 141 "/>
</clipPath>
<clipPath id="clip-2">
<path clip-rule="nonzero" d="M 28 0 L 30 0 L 30 142.53125 L 28 142.53125 Z M 28 0 "/>
</clipPath>
<clipPath id="clip-3">
<path clip-rule="nonzero" d="M 56 0 L 58 0 L 58 142.53125 L 56 142.53125 Z M 56 0 "/>
</clipPath>
<clipPath id="clip-4">
<path clip-rule="nonzero" d="M 85 0 L 86 0 L 86 142.53125 L 85 142.53125 Z M 85 0 "/>
</clipPath>
<clipPath id="clip-5">
<path clip-rule="nonzero" d="M 113 0 L 115 0 L 115 142.53125 L 113 142.53125 Z M 113 0 "/>
</clipPath>
<clipPath id="clip-6">
<path clip-rule="nonzero" d="M 141 0 L 143 0 L 143 142.53125 L 141 142.53125 Z M 141 0 "/>
</clipPath>
<clipPath id="clip-7">
<path clip-rule="nonzero" d="M 283 113 L 369.300781 113 L 369.300781 115 L 283 115 Z M 283 113 "/>
</clipPath>
<clipPath id="clip-8">
<path clip-rule="nonzero" d="M 283 85 L 369.300781 85 L 369.300781 86 L 283 86 Z M 283 85 "/>
</clipPath>
<clipPath id="clip-9">
<path clip-rule="nonzero" d="M 283 56 L 369.300781 56 L 369.300781 58 L 283 58 Z M 283 56 "/>
</clipPath>
<clipPath id="clip-10">
<path clip-rule="nonzero" d="M 368 28 L 369.300781 28 L 369.300781 115 L 368 115 Z M 368 28 "/>
</clipPath>
<clipPath id="clip-11">
<path clip-rule="nonzero" d="M 283 28 L 369.300781 28 L 369.300781 30 L 283 30 Z M 283 28 "/>
</clipPath>
</defs>
<path fill-rule="nonzero" fill="rgb(93.331909%, 90.979004%, 83.529663%)" fill-opacity="1" stroke-width="0.3985" stroke-linecap="butt" stroke-linejoin="miter" stroke="rgb(0%, 0%, 0%)" stroke-opacity="1" stroke-miterlimit="10" d="M 0.0004375 56.6945 L 85.0395 56.6945 L 85.0395 141.733563 L 0.0004375 141.733563 L 0.0004375 56.6945 " transform="matrix(1, 0, 0, -1, 0.398, 142.132)"/>
<g fill="rgb(70.999146%, 53.69873%, 0%)" fill-opacity="1">
<use xlink:href="#glyph-0-0" x="7.192" y="26.983"/>
</g>
<g fill="rgb(70.999146%, 53.69873%, 0%)" fill-opacity="1">
<use xlink:href="#glyph-0-1" x="14.692" y="26.983"/>
</g>
<g fill="rgb(70.999146%, 53.69873%, 0%)" fill-opacity="1">
<use xlink:href="#glyph-0-2" x="22.192" y="26.983"/>
</g>
<g fill="rgb(70.999146%, 53.69873%, 0%)" fill-opacity="1">
<use xlink:href="#glyph-0-0" x="44.707" y="26.908"/>
<use xlink:href="#glyph-0-3" x="50.542" y="26.908"/>
</g>
<g fill="rgb(70.999146%, 53.69873%, 0%)" fill-opacity="1">
<use xlink:href="#glyph-0-0" x="73.054" y="26.908"/>
<use xlink:href="#glyph-0-3" x="78.889" y="26.908"/>
</g>
<g fill="rgb(70.999146%, 53.69873%, 0%)" fill-opacity="1">
<use xlink:href="#glyph-0-0" x="16.361" y="55.255"/>
<use xlink:href="#glyph-0-3" x="22.196" y="55.255"/>
</g>
<g fill="rgb(70.999146%, 53.69873%, 0%)" fill-opacity="1">
<use xlink:href="#glyph-0-0" x="44.707" y="55.255"/>
<use xlink:href="#glyph-0-3" x="50.542" y="55.255"/>
</g>
<g fill="rgb(70.999146%, 53.69873%, 0%)" fill-opacity="1">
<use xlink:href="#glyph-0-0" x="73.054" y="55.255"/>
<use xlink:href="#glyph-0-3" x="78.889" y="55.255"/>
</g>
<g fill="rgb(70.999146%, 53.69873%, 0%)" fill-opacity="1">
<use xlink:href="#glyph-0-0" x="16.361" y="83.602"/>
<use xlink:href="#glyph-0-3" x="22.196" y="83.602"/>
</g>
<g fill="rgb(70.999146%, 53.69873%, 0%)" fill-opacity="1">
<use xlink:href="#glyph-0-0" x="44.707" y="83.602"/>
<use xlink:href="#glyph-0-3" x="50.542" y="83.602"/>
</g>
<g fill="rgb(70.999146%, 53.69873%, 0%)" fill-opacity="1">
<use xlink:href="#glyph-0-0" x="73.054" y="83.677"/>
<use xlink:href="#glyph-0-2" x="78.889" y="83.677"/>
</g>
<path fill-rule="nonzero" fill="rgb(93.331909%, 90.979004%, 83.529663%)" fill-opacity="1" stroke-width="0.3985" stroke-linecap="butt" stroke-linejoin="miter" stroke="rgb(0%, 0%, 0%)" stroke-opacity="1" stroke-miterlimit="10" d="M 283.469187 85.042156 L 311.816844 85.042156 L 311.816844 113.385906 L 283.469187 113.385906 L 283.469187 85.042156 " transform="matrix(1, 0, 0, -1, 0.398, 142.132)"/>
<g clip-path="url(#clip-0)">
<path fill="none" stroke-width="0.79701" stroke-linecap="butt" stroke-linejoin="miter" stroke="rgb(34.510803%, 43.136597%, 45.881653%)" stroke-opacity="1" stroke-miterlimit="10" d="M 0.0004375 -0.0008125 L 0.0004375 141.733563 " transform="matrix(1, 0, 0, -1, 0.398, 142.132)"/>
</g>
<g clip-path="url(#clip-1)">
<path fill="none" stroke-width="0.79701" stroke-linecap="butt" stroke-linejoin="miter" stroke="rgb(34.510803%, 43.136597%, 45.881653%)" stroke-opacity="1" stroke-miterlimit="10" d="M 0.0004375 -0.0008125 L 141.734812 -0.0008125 " transform="matrix(1, 0, 0, -1, 0.398, 142.132)"/>
</g>
<g clip-path="url(#clip-2)">
<path fill="none" stroke-width="0.79701" stroke-linecap="butt" stroke-linejoin="miter" stroke="rgb(34.510803%, 43.136597%, 45.881653%)" stroke-opacity="1" stroke-miterlimit="10" d="M 28.348094 -0.0008125 L 28.348094 141.733563 " transform="matrix(1, 0, 0, -1, 0.398, 142.132)"/>
</g>
<path fill="none" stroke-width="0.79701" stroke-linecap="butt" stroke-linejoin="miter" stroke="rgb(34.510803%, 43.136597%, 45.881653%)" stroke-opacity="1" stroke-miterlimit="10" d="M 0.0004375 28.346844 L 141.734812 28.346844 " transform="matrix(1, 0, 0, -1, 0.398, 142.132)"/>
<g clip-path="url(#clip-3)">
<path fill="none" stroke-width="0.79701" stroke-linecap="butt" stroke-linejoin="miter" stroke="rgb(34.510803%, 43.136597%, 45.881653%)" stroke-opacity="1" stroke-miterlimit="10" d="M 56.691844 -0.0008125 L 56.691844 141.733563 " transform="matrix(1, 0, 0, -1, 0.398, 142.132)"/>
</g>
<path fill="none" stroke-width="0.79701" stroke-linecap="butt" stroke-linejoin="miter" stroke="rgb(34.510803%, 43.136597%, 45.881653%)" stroke-opacity="1" stroke-miterlimit="10" d="M 0.0004375 56.6945 L 141.734812 56.6945 " transform="matrix(1, 0, 0, -1, 0.398, 142.132)"/>
<g clip-path="url(#clip-4)">
<path fill="none" stroke-width="0.79701" stroke-linecap="butt" stroke-linejoin="miter" stroke="rgb(34.510803%, 43.136597%, 45.881653%)" stroke-opacity="1" stroke-miterlimit="10" d="M 85.0395 -0.0008125 L 85.0395 141.733563 " transform="matrix(1, 0, 0, -1, 0.398, 142.132)"/>
</g>
<path fill="none" stroke-width="0.79701" stroke-linecap="butt" stroke-linejoin="miter" stroke="rgb(34.510803%, 43.136597%, 45.881653%)" stroke-opacity="1" stroke-miterlimit="10" d="M 0.0004375 85.042156 L 141.734812 85.042156 " transform="matrix(1, 0, 0, -1, 0.398, 142.132)"/>
<g clip-path="url(#clip-5)">
<path fill="none" stroke-width="0.79701" stroke-linecap="butt" stroke-linejoin="miter" stroke="rgb(34.510803%, 43.136597%, 45.881653%)" stroke-opacity="1" stroke-miterlimit="10" d="M 113.387156 -0.0008125 L 113.387156 141.733563 " transform="matrix(1, 0, 0, -1, 0.398, 142.132)"/>
</g>
<path fill="none" stroke-width="0.79701" stroke-linecap="butt" stroke-linejoin="miter" stroke="rgb(34.510803%, 43.136597%, 45.881653%)" stroke-opacity="1" stroke-miterlimit="10" d="M 0.0004375 113.385906 L 141.734812 113.385906 " transform="matrix(1, 0, 0, -1, 0.398, 142.132)"/>
<g clip-path="url(#clip-6)">
<path fill="none" stroke-width="0.79701" stroke-linecap="butt" stroke-linejoin="miter" stroke="rgb(34.510803%, 43.136597%, 45.881653%)" stroke-opacity="1" stroke-miterlimit="10" d="M 141.734812 -0.0008125 L 141.734812 141.733563 " transform="matrix(1, 0, 0, -1, 0.398, 142.132)"/>
</g>
<path fill="none" stroke-width="0.79701" stroke-linecap="butt" stroke-linejoin="miter" stroke="rgb(34.510803%, 43.136597%, 45.881653%)" stroke-opacity="1" stroke-miterlimit="10" d="M 0.0004375 141.733563 L 141.734812 141.733563 " transform="matrix(1, 0, 0, -1, 0.398, 142.132)"/>
<g fill="rgb(82.699585%, 21.199036%, 50.999451%)" fill-opacity="1">
<use xlink:href="#glyph-1-0" x="11.946" y="131.455"/>
</g>
<g fill="rgb(82.699585%, 21.199036%, 50.999451%)" fill-opacity="1">
<use xlink:href="#glyph-1-1" x="40.293" y="131.455"/>
</g>
<g fill="rgb(82.699585%, 21.199036%, 50.999451%)" fill-opacity="1">
<use xlink:href="#glyph-1-0" x="68.64" y="131.455"/>
</g>
<g fill="rgb(82.699585%, 21.199036%, 50.999451%)" fill-opacity="1">
<use xlink:href="#glyph-1-0" x="96.987" y="131.455"/>
</g>
<g fill="rgb(82.699585%, 21.199036%, 50.999451%)" fill-opacity="1">
<use xlink:href="#glyph-1-0" x="125.334" y="131.455"/>
</g>
<g fill="rgb(82.699585%, 21.199036%, 50.999451%)" fill-opacity="1">
<use xlink:href="#glyph-1-2" x="11.946" y="102.993"/>
</g>
<g fill="rgb(82.699585%, 21.199036%, 50.999451%)" fill-opacity="1">
<use xlink:href="#glyph-1-3" x="36.209" y="103.108"/>
<use xlink:href="#glyph-1-0" x="44.378" y="103.108"/>
</g>
<g fill="rgb(82.699585%, 21.199036%, 50.999451%)" fill-opacity="1">
<use xlink:href="#glyph-1-0" x="68.64" y="103.108"/>
</g>
<g fill="rgb(82.699585%, 21.199036%, 50.999451%)" fill-opacity="1">
<use xlink:href="#glyph-1-1" x="96.987" y="103.108"/>
</g>
<g fill="rgb(82.699585%, 21.199036%, 50.999451%)" fill-opacity="1">
<use xlink:href="#glyph-1-0" x="125.334" y="103.108"/>
</g>
<g fill="rgb(82.699585%, 21.199036%, 50.999451%)" fill-opacity="1">
<use xlink:href="#glyph-1-1" x="11.946" y="74.762"/>
</g>
<g fill="rgb(82.699585%, 21.199036%, 50.999451%)" fill-opacity="1">
<use xlink:href="#glyph-1-0" x="40.293" y="74.762"/>
</g>
<g fill="rgb(82.699585%, 21.199036%, 50.999451%)" fill-opacity="1">
<use xlink:href="#glyph-1-0" x="68.64" y="74.762"/>
</g>
<g fill="rgb(82.699585%, 21.199036%, 50.999451%)" fill-opacity="1">
<use xlink:href="#glyph-1-3" x="92.902" y="74.762"/>
<use xlink:href="#glyph-1-0" x="101.071" y="74.762"/>
</g>
<g fill="rgb(82.699585%, 21.199036%, 50.999451%)" fill-opacity="1">
<use xlink:href="#glyph-1-2" x="125.334" y="74.646"/>
</g>
<g fill="rgb(82.699585%, 21.199036%, 50.999451%)" fill-opacity="1">
<use xlink:href="#glyph-1-3" x="7.862" y="46.415"/>
<use xlink:href="#glyph-1-0" x="16.031" y="46.415"/>
</g>
<g fill="rgb(82.699585%, 21.199036%, 50.999451%)" fill-opacity="1">
<use xlink:href="#glyph-1-2" x="40.293" y="46.299"/>
</g>
<g fill="rgb(82.699585%, 21.199036%, 50.999451%)" fill-opacity="1">
<use xlink:href="#glyph-1-3" x="64.555" y="46.299"/>
<use xlink:href="#glyph-1-4" x="72.724" y="46.299"/>
</g>
<g fill="rgb(82.699585%, 21.199036%, 50.999451%)" fill-opacity="1">
<use xlink:href="#glyph-1-2" x="96.987" y="46.299"/>
</g>
<g fill="rgb(82.699585%, 21.199036%, 50.999451%)" fill-opacity="1">
<use xlink:href="#glyph-1-0" x="125.334" y="46.415"/>
</g>
<g fill="rgb(82.699585%, 21.199036%, 50.999451%)" fill-opacity="1">
<use xlink:href="#glyph-1-0" x="11.946" y="18.068"/>
</g>
<g fill="rgb(82.699585%, 21.199036%, 50.999451%)" fill-opacity="1">
<use xlink:href="#glyph-1-0" x="40.293" y="18.068"/>
</g>
<g fill="rgb(82.699585%, 21.199036%, 50.999451%)" fill-opacity="1">
<use xlink:href="#glyph-1-0" x="68.64" y="18.068"/>
</g>
<g fill="rgb(82.699585%, 21.199036%, 50.999451%)" fill-opacity="1">
<use xlink:href="#glyph-1-0" x="96.987" y="18.068"/>
</g>
<g fill="rgb(82.699585%, 21.199036%, 50.999451%)" fill-opacity="1">
<use xlink:href="#glyph-1-0" x="125.334" y="18.068"/>
</g>
<g fill="rgb(82.699585%, 21.199036%, 50.999451%)" fill-opacity="1">
<use xlink:href="#glyph-1-5" x="152.2" y="73.88"/>
</g>
<path fill="none" stroke-width="0.79701" stroke-linecap="butt" stroke-linejoin="miter" stroke="rgb(34.510803%, 43.136597%, 45.881653%)" stroke-opacity="1" stroke-miterlimit="10" d="M 170.082469 28.346844 L 170.082469 113.385906 " transform="matrix(1, 0, 0, -1, 0.398, 142.132)"/>
<path fill="none" stroke-width="0.79701" stroke-linecap="butt" stroke-linejoin="miter" stroke="rgb(34.510803%, 43.136597%, 45.881653%)" stroke-opacity="1" stroke-miterlimit="10" d="M 170.082469 28.346844 L 255.121531 28.346844 " transform="matrix(1, 0, 0, -1, 0.398, 142.132)"/>
<path fill="none" stroke-width="0.79701" stroke-linecap="butt" stroke-linejoin="miter" stroke="rgb(34.510803%, 43.136597%, 45.881653%)" stroke-opacity="1" stroke-miterlimit="10" d="M 198.426219 28.346844 L 198.426219 113.385906 " transform="matrix(1, 0, 0, -1, 0.398, 142.132)"/>
<path fill="none" stroke-width="0.79701" stroke-linecap="butt" stroke-linejoin="miter" stroke="rgb(34.510803%, 43.136597%, 45.881653%)" stroke-opacity="1" stroke-miterlimit="10" d="M 170.082469 56.6945 L 255.121531 56.6945 " transform="matrix(1, 0, 0, -1, 0.398, 142.132)"/>
<path fill="none" stroke-width="0.79701" stroke-linecap="butt" stroke-linejoin="miter" stroke="rgb(34.510803%, 43.136597%, 45.881653%)" stroke-opacity="1" stroke-miterlimit="10" d="M 226.773875 28.346844 L 226.773875 113.385906 " transform="matrix(1, 0, 0, -1, 0.398, 142.132)"/>
<path fill="none" stroke-width="0.79701" stroke-linecap="butt" stroke-linejoin="miter" stroke="rgb(34.510803%, 43.136597%, 45.881653%)" stroke-opacity="1" stroke-miterlimit="10" d="M 170.082469 85.042156 L 255.121531 85.042156 " transform="matrix(1, 0, 0, -1, 0.398, 142.132)"/>
<path fill="none" stroke-width="0.79701" stroke-linecap="butt" stroke-linejoin="miter" stroke="rgb(34.510803%, 43.136597%, 45.881653%)" stroke-opacity="1" stroke-miterlimit="10" d="M 255.121531 28.346844 L 255.121531 113.385906 " transform="matrix(1, 0, 0, -1, 0.398, 142.132)"/>
<path fill="none" stroke-width="0.79701" stroke-linecap="butt" stroke-linejoin="miter" stroke="rgb(34.510803%, 43.136597%, 45.881653%)" stroke-opacity="1" stroke-miterlimit="10" d="M 170.082469 113.385906 L 255.121531 113.385906 " transform="matrix(1, 0, 0, -1, 0.398, 142.132)"/>
<g fill="rgb(82.699585%, 21.199036%, 50.999451%)" fill-opacity="1">
<use xlink:href="#glyph-1-2" x="182.027" y="102.993"/>
</g>
<g fill="rgb(82.699585%, 21.199036%, 50.999451%)" fill-opacity="1">
<use xlink:href="#glyph-1-2" x="210.374" y="102.993"/>
</g>
<g fill="rgb(82.699585%, 21.199036%, 50.999451%)" fill-opacity="1">
<use xlink:href="#glyph-1-0" x="238.721" y="103.108"/>
</g>
<g fill="rgb(82.699585%, 21.199036%, 50.999451%)" fill-opacity="1">
<use xlink:href="#glyph-1-2" x="182.027" y="74.646"/>
</g>
<g fill="rgb(82.699585%, 21.199036%, 50.999451%)" fill-opacity="1">
<use xlink:href="#glyph-1-2" x="210.374" y="74.646"/>
</g>
<g fill="rgb(82.699585%, 21.199036%, 50.999451%)" fill-opacity="1">
<use xlink:href="#glyph-1-2" x="238.721" y="74.646"/>
</g>
<g fill="rgb(82.699585%, 21.199036%, 50.999451%)" fill-opacity="1">
<use xlink:href="#glyph-1-3" x="177.943" y="46.415"/>
<use xlink:href="#glyph-1-0" x="186.112" y="46.415"/>
</g>
<g fill="rgb(82.699585%, 21.199036%, 50.999451%)" fill-opacity="1">
<use xlink:href="#glyph-1-2" x="210.374" y="46.299"/>
</g>
<g fill="rgb(82.699585%, 21.199036%, 50.999451%)" fill-opacity="1">
<use xlink:href="#glyph-1-2" x="238.721" y="46.299"/>
</g>
<g fill="rgb(82.699585%, 21.199036%, 50.999451%)" fill-opacity="1">
<use xlink:href="#glyph-1-6" x="265.608" y="73.192"/>
</g>
<path fill="none" stroke-width="0.79701" stroke-linecap="butt" stroke-linejoin="miter" stroke="rgb(34.510803%, 43.136597%, 45.881653%)" stroke-opacity="1" stroke-miterlimit="10" d="M 283.469187 28.346844 L 283.469187 113.385906 " transform="matrix(1, 0, 0, -1, 0.398, 142.132)"/>
<g clip-path="url(#clip-7)">
<path fill="none" stroke-width="0.79701" stroke-linecap="butt" stroke-linejoin="miter" stroke="rgb(34.510803%, 43.136597%, 45.881653%)" stroke-opacity="1" stroke-miterlimit="10" d="M 283.469187 28.346844 L 368.50825 28.346844 " transform="matrix(1, 0, 0, -1, 0.398, 142.132)"/>
</g>
<path fill="none" stroke-width="0.79701" stroke-linecap="butt" stroke-linejoin="miter" stroke="rgb(34.510803%, 43.136597%, 45.881653%)" stroke-opacity="1" stroke-miterlimit="10" d="M 311.816844 28.346844 L 311.816844 113.385906 " transform="matrix(1, 0, 0, -1, 0.398, 142.132)"/>
<g clip-path="url(#clip-8)">
<path fill="none" stroke-width="0.79701" stroke-linecap="butt" stroke-linejoin="miter" stroke="rgb(34.510803%, 43.136597%, 45.881653%)" stroke-opacity="1" stroke-miterlimit="10" d="M 283.469187 56.6945 L 368.50825 56.6945 " transform="matrix(1, 0, 0, -1, 0.398, 142.132)"/>
</g>
<path fill="none" stroke-width="0.79701" stroke-linecap="butt" stroke-linejoin="miter" stroke="rgb(34.510803%, 43.136597%, 45.881653%)" stroke-opacity="1" stroke-miterlimit="10" d="M 340.160594 28.346844 L 340.160594 113.385906 " transform="matrix(1, 0, 0, -1, 0.398, 142.132)"/>
<g clip-path="url(#clip-9)">
<path fill="none" stroke-width="0.79701" stroke-linecap="butt" stroke-linejoin="miter" stroke="rgb(34.510803%, 43.136597%, 45.881653%)" stroke-opacity="1" stroke-miterlimit="10" d="M 283.469187 85.042156 L 368.50825 85.042156 " transform="matrix(1, 0, 0, -1, 0.398, 142.132)"/>
</g>
<g clip-path="url(#clip-10)">
<path fill="none" stroke-width="0.79701" stroke-linecap="butt" stroke-linejoin="miter" stroke="rgb(34.510803%, 43.136597%, 45.881653%)" stroke-opacity="1" stroke-miterlimit="10" d="M 368.50825 28.346844 L 368.50825 113.385906 " transform="matrix(1, 0, 0, -1, 0.398, 142.132)"/>
</g>
<g clip-path="url(#clip-11)">
<path fill="none" stroke-width="0.79701" stroke-linecap="butt" stroke-linejoin="miter" stroke="rgb(34.510803%, 43.136597%, 45.881653%)" stroke-opacity="1" stroke-miterlimit="10" d="M 283.469187 113.385906 L 368.50825 113.385906 " transform="matrix(1, 0, 0, -1, 0.398, 142.132)"/>
</g>
<g fill="rgb(82.699585%, 21.199036%, 50.999451%)" fill-opacity="1">
<use xlink:href="#glyph-1-3" x="291.33" y="103.108"/>
<use xlink:href="#glyph-1-0" x="299.499" y="103.108"/>
</g>
<g fill="rgb(82.699585%, 21.199036%, 50.999451%)" fill-opacity="1">
<use xlink:href="#glyph-1-2" x="323.761" y="102.993"/>
</g>
<g fill="rgb(82.699585%, 21.199036%, 50.999451%)" fill-opacity="1">
<use xlink:href="#glyph-1-2" x="352.108" y="102.993"/>
</g>
<g fill="rgb(82.699585%, 21.199036%, 50.999451%)" fill-opacity="1">
<use xlink:href="#glyph-1-1" x="295.414" y="74.762"/>
</g>
<g fill="rgb(82.699585%, 21.199036%, 50.999451%)" fill-opacity="1">
<use xlink:href="#glyph-1-1" x="323.761" y="74.762"/>
</g>
<g fill="rgb(82.699585%, 21.199036%, 50.999451%)" fill-opacity="1">
<use xlink:href="#glyph-1-7" x="352.108" y="74.819"/>
</g>
<g fill="rgb(82.699585%, 21.199036%, 50.999451%)" fill-opacity="1">
<use xlink:href="#glyph-1-2" x="295.414" y="46.299"/>
</g>
<g fill="rgb(82.699585%, 21.199036%, 50.999451%)" fill-opacity="1">
<use xlink:href="#glyph-1-3" x="319.677" y="46.415"/>
<use xlink:href="#glyph-1-1" x="327.846" y="46.415"/>
</g>
<g fill="rgb(82.699585%, 21.199036%, 50.999451%)" fill-opacity="1">
<use xlink:href="#glyph-1-3" x="348.024" y="46.415"/>
<use xlink:href="#glyph-1-0" x="356.193" y="46.415"/>
</g>
</svg>
