<?xml version="1.0" encoding="UTF-8" standalone="no"?>
<!-- Created with Inkscape (http://www.inkscape.org/) -->

<svg
   version="1.1"
   id="svg2"
   xml:space="preserve"
   width="1216.6666"
   height="726.66663"
   viewBox="0 0 1216.6666 726.66663"
   xmlns="http://www.w3.org/2000/svg"
   xmlns:svg="http://www.w3.org/2000/svg"><defs
     id="defs6" /><g
     id="g8"
     transform="matrix(1.3333333,0,0,1.3333333,-52.666665,-52.666665)"><g
       id="g598"><g
         id="g10"><path
           d="m 610,40 c 0,0 -108,0 -108,0 -6,0 -12,6 -12,12 0,0 0,59 0,59 0,6 6,12 12,12 0,0 108,0 108,0 6,0 12,-6 12,-12 0,0 0,-59 0,-59 0,-6 -6,-12 -12,-12"
           style="fill:#ffffff;fill-opacity:1;fill-rule:nonzero;stroke:none"
           id="path12" /><path
           d="m 610,40 c 0,0 -108,0 -108,0 -6,0 -12,6 -12,12 0,0 0,59 0,59 0,6 6,12 12,12 0,0 108,0 108,0 6,0 12,-6 12,-12 0,0 0,-59 0,-59 0,-6 -6,-12 -12,-12"
           style="fill:none;stroke:#000000;stroke-width:1;stroke-linecap:butt;stroke-linejoin:miter;stroke-miterlimit:10;stroke-dasharray:none;stroke-opacity:1"
           id="path14" /><text
           transform="translate(506.5,55.199219)"
           style="font-variant:normal;font-weight:normal;font-size:14.0002px;font-family:'Noto Sans CJK SC';-inkscape-font-specification:NotoSansCJKsc-Regular;writing-mode:lr-tb;fill:#000000;fill-opacity:1;fill-rule:nonzero;stroke:none"
           id="text18"><tspan
             x="0 14.252249 28.504498 42.756744"
             y="0"
             id="tspan16">花瓣长度</tspan></text><text
           transform="translate(567.24972,54.415527)"
           style="font-variant:normal;font-weight:normal;font-size:14.0002px;font-family:Helvetica;-inkscape-font-specification:Helvetica;writing-mode:lr-tb;fill:#000000;fill-opacity:1;fill-rule:nonzero;stroke:none"
           id="text22"><tspan
             x="0"
             y="0"
             id="tspan20">≤</tspan></text><text
           transform="translate(578.50116,54.415527)"
           style="font-variant:normal;font-weight:normal;font-size:14.0002px;font-family:Helvetica;-inkscape-font-specification:Helvetica;writing-mode:lr-tb;fill:#000000;fill-opacity:1;fill-rule:nonzero;stroke:none"
           id="text34"><tspan
             x="0 7.4922633 11.241977 18.748241"
             y="0"
             id="tspan24">2.45</tspan><tspan
             x="-70.001152 -62.494888 -55.002625 -51.252911 -46.744724 -39.25246 -31.746197 -24.998079 -21.248365 -13.00244 -9.2527266 -1.7464631 2.0032508 9.4955139 17.001778"
             y="15.783693"
             id="tspan26">entropy = 1.585</tspan><tspan
             x="-67.50116 -60.75304 -53.246777 -41.248459 -33.756195 -30.75779 -23.251526 -16.503408 -12.753695 -4.5077701 -0.75805634 6.7482071 14.254471"
             y="30.783695"
             id="tspan28">samples = 150</tspan><tspan
             x="-80.501152 -73.753036 -66.246773 -63.248367 -55.756104 -48.24984 -44.500126 -36.254204 -32.50449 -28.754776 -21.248512 -13.756248 -10.006535 -6.2568207 1.2494431 8.7557068 12.505421 16.255135 23.747398 31.253662"
             y="45.783695"
             id="tspan30">value = [50, 50, 50]</tspan><tspan
             x="-67.50116 -60.75304 -57.754635 -50.248371 -43.500256 -36.752136 -33.002422 -24.756498"
             y="60.783695"
             id="tspan32">class = </tspan></text><text
           transform="translate(557.49437,115.19922)"
           style="font-variant:normal;font-weight:normal;font-size:14.0002px;font-family:'Noto Sans CJK SC';-inkscape-font-specification:NotoSansCJKsc-Regular;writing-mode:lr-tb;fill:#000000;fill-opacity:1;fill-rule:nonzero;stroke:none"
           id="text38"><tspan
             x="0 14.252249 28.504498"
             y="0"
             id="tspan36">山鸢尾</tspan></text><path
           d="m 533.5,166.5 c 0,0 -93,0 -93,0 -6,0 -12,6 -12,12 0,0 0,44 0,44 0,6 6,12 12,12 0,0 93,0 93,0 6,0 12,-6 12,-12 0,0 0,-44 0,-44 0,-6 -6,-12 -12,-12"
           style="fill:#e58139;fill-opacity:1;fill-rule:nonzero;stroke:#000000;stroke-width:1;stroke-linecap:butt;stroke-linejoin:miter;stroke-miterlimit:10;stroke-dasharray:none;stroke-opacity:1"
           id="path40" /><text
           transform="translate(447,181.69922)"
           style="font-variant:normal;font-weight:normal;font-size:14.0002px;font-family:Helvetica;-inkscape-font-specification:Helvetica;writing-mode:lr-tb;fill:#000000;fill-opacity:1;fill-rule:nonzero;stroke:none"
           id="text50"><tspan
             x="0 7.5062637 14.998527 18.748241 23.25643 30.748692 38.254955 45.003075 48.752789 56.998711 60.748425 68.254692 72.004402"
             y="0"
             id="tspan42">entropy = 0.0</tspan><tspan
             x="-0.99999964 5.7481179 13.254381 25.252701 32.744965 35.743366 43.24963 49.997749 53.747463 61.993389 65.743103 73.249367"
             y="15.000001"
             id="tspan44">samples = 50</tspan><tspan
             x="-10.500005 -3.7518876 3.7543759 6.75278 14.245043 21.751307 25.50102 33.746944 37.496658 41.246372 48.752636 56.2449 59.994614 63.744328 71.250595 75.000305 78.750015 86.256279"
             y="30.000004"
             id="tspan46">value = [50, 0, 0]</tspan><tspan
             x="-5.0000095 1.7481083 4.7465119 12.252776 19.000893 25.74901 29.498724 37.744648"
             y="45.000004"
             id="tspan48">class = </tspan></text><text
           transform="translate(488.49436,226.69922)"
           style="font-variant:normal;font-weight:normal;font-size:14.0002px;font-family:'Noto Sans CJK SC';-inkscape-font-specification:NotoSansCJKsc-Regular;writing-mode:lr-tb;fill:#000000;fill-opacity:1;fill-rule:nonzero;stroke:none"
           id="text54"><tspan
             x="0 14.252249 28.504498"
             y="0"
             id="tspan52">山鸢尾</tspan></text><path
           d="m 532.062,123.094 c -6.574,11.144 -13.71,23.25 -20.328,34.468"
           style="fill:none;stroke:#000000;stroke-width:1;stroke-linecap:butt;stroke-linejoin:miter;stroke-miterlimit:10;stroke-dasharray:none;stroke-opacity:1"
           id="path56" /><path
           d="m 514.656,159.496 -8.097,6.836 2.066,-10.391 z"
           style="fill:#000000;fill-opacity:1;fill-rule:nonzero;stroke:#000000;stroke-width:1;stroke-linecap:butt;stroke-linejoin:miter;stroke-miterlimit:10;stroke-dasharray:none;stroke-opacity:1"
           id="path58" /><text
           transform="translate(486.3125,145.82422)"
           style="font-variant:normal;font-weight:normal;font-size:14.0002px;font-family:Helvetica;-inkscape-font-specification:Helvetica;writing-mode:lr-tb;fill:#000000;fill-opacity:1;fill-rule:nonzero;stroke:none"
           id="text62"><tspan
             x="0 7.9918971 12.75209 20.244352"
             y="0"
             id="tspan60">True</tspan></text><path
           d="m 676.5,159 c 0,0 -101,0 -101,0 -6,0 -12,6 -12,12 0,0 0,59 0,59 0,6 6,12 12,12 0,0 101,0 101,0 6,0 12,-6 12,-12 0,0 0,-59 0,-59 0,-6 -6,-12 -12,-12"
           style="fill:#ffffff;fill-opacity:1;fill-rule:nonzero;stroke:#000000;stroke-width:1;stroke-linecap:butt;stroke-linejoin:miter;stroke-miterlimit:10;stroke-dasharray:none;stroke-opacity:1"
           id="path64" /><text
           transform="translate(576.5,174.19922)"
           style="font-variant:normal;font-weight:normal;font-size:14.0002px;font-family:'Noto Sans CJK SC';-inkscape-font-specification:NotoSansCJKsc-Regular;writing-mode:lr-tb;fill:#000000;fill-opacity:1;fill-rule:nonzero;stroke:none"
           id="text68"><tspan
             x="0 14.252249 28.504498 42.756744"
             y="0"
             id="tspan66">花瓣宽度</tspan></text><text
           transform="translate(637.24972,173.41553)"
           style="font-variant:normal;font-weight:normal;font-size:14.0002px;font-family:Helvetica;-inkscape-font-specification:Helvetica;writing-mode:lr-tb;fill:#000000;fill-opacity:1;fill-rule:nonzero;stroke:none"
           id="text72"><tspan
             x="0"
             y="0"
             id="tspan70">≤</tspan></text><text
           transform="translate(648.50116,173.41553)"
           style="font-variant:normal;font-weight:normal;font-size:14.0002px;font-family:Helvetica;-inkscape-font-specification:Helvetica;writing-mode:lr-tb;fill:#000000;fill-opacity:1;fill-rule:nonzero;stroke:none"
           id="text84"><tspan
             x="0 7.4922633 11.241977 18.748241"
             y="0"
             id="tspan74">1.75</tspan><tspan
             x="-62.501152 -54.994888 -47.502625 -43.752911 -39.244724 -31.75246 -24.246197 -17.498079 -13.748364 -5.50244 -1.752726 5.7535377 9.5032511"
             y="15.783693"
             id="tspan76">entropy = 1.0</tspan><tspan
             x="-67.50116 -60.75304 -53.246777 -41.248459 -33.756195 -30.75779 -23.251526 -16.503408 -12.753695 -4.5077701 -0.75805634 6.7482071 14.254471"
             y="30.783695"
             id="tspan78">samples = 100</tspan><tspan
             x="-77.00116 -70.253044 -62.74678 -59.748379 -52.256115 -44.749851 -41.000137 -32.754211 -29.004498 -25.254784 -17.74852 -13.998807 -10.249093 -2.7568295 4.749434 8.4991474 12.248861 19.755125 27.247389"
             y="45.783695"
             id="tspan80">value = [0, 50, 50]</tspan><tspan
             x="-74.501167 -67.753052 -64.754646 -57.248383 -50.500263 -43.752148 -40.002434 -31.756508"
             y="60.783695"
             id="tspan82">class = </tspan></text><text
           transform="translate(620.49436,234.19922)"
           style="font-variant:normal;font-weight:normal;font-size:14.0002px;font-family:'Noto Sans CJK SC';-inkscape-font-specification:NotoSansCJKsc-Regular;writing-mode:lr-tb;fill:#000000;fill-opacity:1;fill-rule:nonzero;stroke:none"
           id="text88"><tspan
             x="0 14.252249 28.504498 42.756744"
             y="0"
             id="tspan86">杂色鸢尾</tspan></text><path
           d="m 580.285,123.094 c 5.27,8.801 10.891,18.203 16.332,27.293"
           style="fill:none;stroke:#000000;stroke-width:1;stroke-linecap:butt;stroke-linejoin:miter;stroke-miterlimit:10;stroke-dasharray:none;stroke-opacity:1"
           id="path90" /><path
           d="m 599.625,148.602 2.133,10.378 -8.141,-6.785 z"
           style="fill:#000000;fill-opacity:1;fill-rule:nonzero;stroke:#000000;stroke-width:1;stroke-linecap:butt;stroke-linejoin:miter;stroke-miterlimit:10;stroke-dasharray:none;stroke-opacity:1"
           id="path92" /><text
           transform="translate(590.85156,138.43359)"
           style="font-variant:normal;font-weight:normal;font-size:14.0002px;font-family:Helvetica;-inkscape-font-specification:Helvetica;writing-mode:lr-tb;fill:#000000;fill-opacity:1;fill-rule:nonzero;stroke:none"
           id="text96"><tspan
             x="0 8.2439013 15.750165 18.748569 25.496687"
             y="0"
             id="tspan94">False</tspan></text><path
           d="m 529,278 c 0,0 -96,0 -96,0 -6,0 -12,6 -12,12 0,0 0,59 0,59 0,6 6,12 12,12 0,0 96,0 96,0 6,0 12,-6 12,-12 0,0 0,-59 0,-59 0,-6 -6,-12 -12,-12"
           style="fill:#4de88e;fill-opacity:1;fill-rule:nonzero;stroke:#000000;stroke-width:1;stroke-linecap:butt;stroke-linejoin:miter;stroke-miterlimit:10;stroke-dasharray:none;stroke-opacity:1"
           id="path98" /><text
           transform="translate(431.5,293.19922)"
           style="font-variant:normal;font-weight:normal;font-size:14.0002px;font-family:'Noto Sans CJK SC';-inkscape-font-specification:NotoSansCJKsc-Regular;writing-mode:lr-tb;fill:#000000;fill-opacity:1;fill-rule:nonzero;stroke:none"
           id="text102"><tspan
             x="0 14.252249 28.504498 42.756744"
             y="0"
             id="tspan100">花瓣长度</tspan></text><text
           transform="translate(492.24972,292.41553)"
           style="font-variant:normal;font-weight:normal;font-size:14.0002px;font-family:Helvetica;-inkscape-font-specification:Helvetica;writing-mode:lr-tb;fill:#000000;fill-opacity:1;fill-rule:nonzero;stroke:none"
           id="text106"><tspan
             x="0"
             y="0"
             id="tspan104">≤</tspan></text><text
           transform="translate(503.50116,292.41553)"
           style="font-variant:normal;font-weight:normal;font-size:14.0002px;font-family:Helvetica;-inkscape-font-specification:Helvetica;writing-mode:lr-tb;fill:#000000;fill-opacity:1;fill-rule:nonzero;stroke:none"
           id="text118"><tspan
             x="0 7.4922633 11.241977 18.748241"
             y="0"
             id="tspan108">4.95</tspan><tspan
             x="-70.001152 -62.494888 -55.002625 -51.252911 -46.744724 -39.25246 -31.746197 -24.998079 -21.248365 -13.00244 -9.2527266 -1.7464631 2.0032508 9.4955139 17.001778"
             y="15.783693"
             id="tspan110">entropy = 0.445</tspan><tspan
             x="-63.501148 -56.753029 -49.246765 -37.248447 -29.756184 -26.75778 -19.251516 -12.503399 -8.753685 -0.50776041 3.2419534 10.748217"
             y="30.783695"
             id="tspan112">samples = 54</tspan><tspan
             x="-73.001152 -66.253036 -58.746773 -55.748367 -48.256104 -40.74984 -37.000126 -28.754202 -25.004488 -21.254774 -13.748511 -9.9987974 -6.249083 1.2431802 8.749444 12.499158 16.248871 23.755135"
             y="45.783695"
             id="tspan114">value = [0, 49, 5]</tspan><tspan
             x="-74.501152 -67.753036 -64.754631 -57.248367 -50.500252 -43.752132 -40.002419 -31.756495"
             y="60.783695"
             id="tspan116">class = </tspan></text><text
           transform="translate(475.49438,353.19922)"
           style="font-variant:normal;font-weight:normal;font-size:14.0002px;font-family:'Noto Sans CJK SC';-inkscape-font-specification:NotoSansCJKsc-Regular;writing-mode:lr-tb;fill:#000000;fill-opacity:1;fill-rule:nonzero;stroke:none"
           id="text122"><tspan
             x="0 14.252249 28.504498 42.756744"
             y="0"
             id="tspan120">杂色鸢尾</tspan></text><path
           d="m 575.691,242.094 c -11.808,9.527 -24.488,19.758 -36.605,29.535"
           style="fill:none;stroke:#000000;stroke-width:1;stroke-linecap:butt;stroke-linejoin:miter;stroke-miterlimit:10;stroke-dasharray:none;stroke-opacity:1"
           id="path124" /><path
           d="m 541.199,274.422 -9.98,3.558 5.582,-9.003 z"
           style="fill:#000000;fill-opacity:1;fill-rule:nonzero;stroke:#000000;stroke-width:1;stroke-linecap:butt;stroke-linejoin:miter;stroke-miterlimit:10;stroke-dasharray:none;stroke-opacity:1"
           id="path126" /><path
           d="m 772.5,278 c 0,0 -125,0 -125,0 -6,0 -12,6 -12,12 0,0 0,59 0,59 0,6 6,12 12,12 0,0 125,0 125,0 6,0 12,-6 12,-12 0,0 0,-59 0,-59 0,-6 -6,-12 -12,-12"
           style="fill:#843de6;fill-opacity:1;fill-rule:nonzero;stroke:#000000;stroke-width:1;stroke-linecap:butt;stroke-linejoin:miter;stroke-miterlimit:10;stroke-dasharray:none;stroke-opacity:1"
           id="path128" /><text
           transform="translate(660.5,293.19922)"
           style="font-variant:normal;font-weight:normal;font-size:14.0002px;font-family:'Noto Sans CJK SC';-inkscape-font-specification:NotoSansCJKsc-Regular;writing-mode:lr-tb;fill:#000000;fill-opacity:1;fill-rule:nonzero;stroke:none"
           id="text132"><tspan
             x="0 14.252249 28.504498 42.756744"
             y="0"
             id="tspan130">花瓣长度</tspan></text><text
           transform="translate(721.24972,292.41553)"
           style="font-variant:normal;font-weight:normal;font-size:14.0002px;font-family:Helvetica;-inkscape-font-specification:Helvetica;writing-mode:lr-tb;fill:#000000;fill-opacity:1;fill-rule:nonzero;stroke:none"
           id="text136"><tspan
             x="0"
             y="0"
             id="tspan134">≤</tspan></text><text
           transform="translate(732.50116,292.41553)"
           style="font-variant:normal;font-weight:normal;font-size:14.0002px;font-family:Helvetica;-inkscape-font-specification:Helvetica;writing-mode:lr-tb;fill:#000000;fill-opacity:1;fill-rule:nonzero;stroke:none"
           id="text148"><tspan
             x="0 7.4922633 11.241977 18.748241"
             y="0"
             id="tspan138">4.85</tspan><tspan
             x="-70.001152 -62.494888 -55.002625 -51.252911 -46.744724 -39.25246 -31.746197 -24.998079 -21.248365 -13.00244 -9.2527266 -1.7464631 2.0032508 9.4955139 17.001778"
             y="15.783693"
             id="tspan140">entropy = 0.151</tspan><tspan
             x="-63.501148 -56.753029 -49.246765 -37.248447 -29.756184 -26.75778 -19.251516 -12.503399 -8.753685 -0.50776041 3.2419534 10.748217"
             y="30.783695"
             id="tspan142">samples = 46</tspan><tspan
             x="-73.001152 -66.253036 -58.746773 -55.748367 -48.256104 -40.74984 -37.000126 -28.754202 -25.004488 -21.254774 -13.748511 -9.9987974 -6.249083 1.2431802 4.9928937 8.7426081 16.248871 23.755135"
             y="45.783695"
             id="tspan144">value = [0, 1, 45]</tspan><tspan
             x="-89.001152 -82.253029 -79.254631 -71.748367 -65.000244 -58.252129 -54.502415 -46.256493"
             y="60.783695"
             id="tspan146">class = </tspan></text><text
           transform="translate(689.99438,353.19922)"
           style="font-variant:normal;font-weight:normal;font-size:14.0002px;font-family:'Noto Sans CJK SC';-inkscape-font-specification:NotoSansCJKsc-Regular;writing-mode:lr-tb;fill:#000000;fill-opacity:1;fill-rule:nonzero;stroke:none"
           id="text152"><tspan
             x="0 14.252249 28.504498 42.756744 57.008995 71.261246"
             y="0"
             id="tspan150">维吉尼亚鸢尾</tspan></text><path
           d="m 655.145,242.094 c 6.382,8.89 13.207,18.398 19.796,27.574"
           style="fill:none;stroke:#000000;stroke-width:1;stroke-linecap:butt;stroke-linejoin:miter;stroke-miterlimit:10;stroke-dasharray:none;stroke-opacity:1"
           id="path154" /><path
           d="m 677.918,267.816 2.988,10.164 -8.672,-6.082 z"
           style="fill:#000000;fill-opacity:1;fill-rule:nonzero;stroke:#000000;stroke-width:1;stroke-linecap:butt;stroke-linejoin:miter;stroke-miterlimit:10;stroke-dasharray:none;stroke-opacity:1"
           id="path156" /><path
           d="m 301,397 c 0,0 -96,0 -96,0 -6,0 -12,6 -12,12 0,0 0,59 0,59 0,6 6,12 12,12 0,0 96,0 96,0 6,0 12,-6 12,-12 0,0 0,-59 0,-59 0,-6 -6,-12 -12,-12"
           style="fill:#3de684;fill-opacity:1;fill-rule:nonzero;stroke:#000000;stroke-width:1;stroke-linecap:butt;stroke-linejoin:miter;stroke-miterlimit:10;stroke-dasharray:none;stroke-opacity:1"
           id="path158" /><text
           transform="translate(203.5,412.19922)"
           style="font-variant:normal;font-weight:normal;font-size:14.0002px;font-family:'Noto Sans CJK SC';-inkscape-font-specification:NotoSansCJKsc-Regular;writing-mode:lr-tb;fill:#000000;fill-opacity:1;fill-rule:nonzero;stroke:none"
           id="text162"><tspan
             x="0 14.252249 28.504498 42.756744"
             y="0"
             id="tspan160">花瓣宽度</tspan></text><text
           transform="translate(264.24972,411.41553)"
           style="font-variant:normal;font-weight:normal;font-size:14.0002px;font-family:Helvetica;-inkscape-font-specification:Helvetica;writing-mode:lr-tb;fill:#000000;fill-opacity:1;fill-rule:nonzero;stroke:none"
           id="text166"><tspan
             x="0"
             y="0"
             id="tspan164">≤</tspan></text><text
           transform="translate(275.50116,411.41553)"
           style="font-variant:normal;font-weight:normal;font-size:14.0002px;font-family:Helvetica;-inkscape-font-specification:Helvetica;writing-mode:lr-tb;fill:#000000;fill-opacity:1;fill-rule:nonzero;stroke:none"
           id="text178"><tspan
             x="0 7.4922633 11.241977 18.748241"
             y="0"
             id="tspan168">1.65</tspan><tspan
             x="-70.001152 -62.494888 -55.002625 -51.252911 -46.744724 -39.25246 -31.746197 -24.998079 -21.248365 -13.00244 -9.2527266 -1.7464631 2.0032508 9.4955139 17.001778"
             y="15.783693"
             id="tspan170">entropy = 0.146</tspan><tspan
             x="-63.501148 -56.753029 -49.246765 -37.248447 -29.756184 -26.75778 -19.251516 -12.503399 -8.753685 -0.50776041 3.2419534 10.748217"
             y="30.783695"
             id="tspan172">samples = 48</tspan><tspan
             x="-73.001152 -66.253036 -58.746773 -55.748367 -48.256104 -40.74984 -37.000126 -28.754202 -25.004488 -21.254774 -13.748511 -9.9987974 -6.249083 1.2431802 8.749444 12.499158 16.248871 23.755135"
             y="45.783695"
             id="tspan174">value = [0, 47, 1]</tspan><tspan
             x="-74.501152 -67.753036 -64.754631 -57.248367 -50.500252 -43.752132 -40.002419 -31.756495"
             y="60.783695"
             id="tspan176">class = </tspan></text><text
           transform="translate(247.49438,472.19922)"
           style="font-variant:normal;font-weight:normal;font-size:14.0002px;font-family:'Noto Sans CJK SC';-inkscape-font-specification:NotoSansCJKsc-Regular;writing-mode:lr-tb;fill:#000000;fill-opacity:1;fill-rule:nonzero;stroke:none"
           id="text182"><tspan
             x="0 14.252249 28.504498 42.756744"
             y="0"
             id="tspan180">杂色鸢尾</tspan></text><path
           d="m 420.797,351.395 c -30.258,15.527 -67.082,34.421 -98.512,50.55"
           style="fill:none;stroke:#000000;stroke-width:1;stroke-linecap:butt;stroke-linejoin:miter;stroke-miterlimit:10;stroke-dasharray:none;stroke-opacity:1"
           id="path184" /><path
           d="m 323.641,405.184 -10.496,1.453 7.296,-7.68 z"
           style="fill:#000000;fill-opacity:1;fill-rule:nonzero;stroke:#000000;stroke-width:1;stroke-linecap:butt;stroke-linejoin:miter;stroke-miterlimit:10;stroke-dasharray:none;stroke-opacity:1"
           id="path186" /><path
           d="m 543.5,397 c 0,0 -125,0 -125,0 -6,0 -12,6 -12,12 0,0 0,59 0,59 0,6 6,12 12,12 0,0 125,0 125,0 6,0 12,-6 12,-12 0,0 0,-59 0,-59 0,-6 -6,-12 -12,-12"
           style="fill:#c09cf2;fill-opacity:1;fill-rule:nonzero;stroke:#000000;stroke-width:1;stroke-linecap:butt;stroke-linejoin:miter;stroke-miterlimit:10;stroke-dasharray:none;stroke-opacity:1"
           id="path188" /><text
           transform="translate(431.5,412.19922)"
           style="font-variant:normal;font-weight:normal;font-size:14.0002px;font-family:'Noto Sans CJK SC';-inkscape-font-specification:NotoSansCJKsc-Regular;writing-mode:lr-tb;fill:#000000;fill-opacity:1;fill-rule:nonzero;stroke:none"
           id="text192"><tspan
             x="0 14.252249 28.504498 42.756744"
             y="0"
             id="tspan190">花瓣宽度</tspan></text><text
           transform="translate(492.24972,411.41553)"
           style="font-variant:normal;font-weight:normal;font-size:14.0002px;font-family:Helvetica;-inkscape-font-specification:Helvetica;writing-mode:lr-tb;fill:#000000;fill-opacity:1;fill-rule:nonzero;stroke:none"
           id="text196"><tspan
             x="0"
             y="0"
             id="tspan194">≤</tspan></text><text
           transform="translate(503.50116,411.41553)"
           style="font-variant:normal;font-weight:normal;font-size:14.0002px;font-family:Helvetica;-inkscape-font-specification:Helvetica;writing-mode:lr-tb;fill:#000000;fill-opacity:1;fill-rule:nonzero;stroke:none"
           id="text208"><tspan
             x="0 7.4922633 11.241977 18.748241"
             y="0"
             id="tspan198">1.55</tspan><tspan
             x="-70.001152 -62.494888 -55.002625 -51.252911 -46.744724 -39.25246 -31.746197 -24.998079 -21.248365 -13.00244 -9.2527266 -1.7464631 2.0032508 9.4955139 17.001778"
             y="15.783693"
             id="tspan200">entropy = 0.918</tspan><tspan
             x="-60.001156 -53.25304 -45.746777 -33.748455 -26.256193 -23.25779 -15.751526 -9.0034084 -5.2536945 2.9922307 6.7419443"
             y="30.783695"
             id="tspan202">samples = 6</tspan><tspan
             x="-69.50116 -62.753044 -55.24678 -52.248375 -44.756115 -37.249851 -33.500137 -25.254211 -21.504498 -17.754784 -10.24852 -6.498806 -2.7490923 4.7431712 8.4928846 12.242599 19.748863"
             y="45.783695"
             id="tspan204">value = [0, 2, 4]</tspan><tspan
             x="-89.001167 -82.253044 -79.254639 -71.748375 -65.000259 -58.252144 -54.50243 -46.256504"
             y="60.783695"
             id="tspan206">class = </tspan></text><text
           transform="translate(460.99437,472.19922)"
           style="font-variant:normal;font-weight:normal;font-size:14.0002px;font-family:'Noto Sans CJK SC';-inkscape-font-specification:NotoSansCJKsc-Regular;writing-mode:lr-tb;fill:#000000;fill-opacity:1;fill-rule:nonzero;stroke:none"
           id="text212"><tspan
             x="0 14.252249 28.504498 42.756744 57.008995 71.261246"
             y="0"
             id="tspan210">维吉尼亚鸢尾</tspan></text><path
           d="m 481,361.094 c 0,8.258 0,17.043 0,25.605"
           style="fill:none;stroke:#000000;stroke-width:1;stroke-linecap:butt;stroke-linejoin:miter;stroke-miterlimit:10;stroke-dasharray:none;stroke-opacity:1"
           id="path214" /><path
           d="m 484.5,386.98 -3.5,10 -3.5,-10 z"
           style="fill:#000000;fill-opacity:1;fill-rule:nonzero;stroke:#000000;stroke-width:1;stroke-linecap:butt;stroke-linejoin:miter;stroke-miterlimit:10;stroke-dasharray:none;stroke-opacity:1"
           id="path216" /><path
           d="m 148,516 c 0,0 -96,0 -96,0 -6,0 -12,6 -12,12 0,0 0,44 0,44 0,6 6,12 12,12 0,0 96,0 96,0 6,0 12,-6 12,-12 0,0 0,-44 0,-44 0,-6 -6,-12 -12,-12"
           style="fill:#39e581;fill-opacity:1;fill-rule:nonzero;stroke:none"
           id="path218" /><path
           d="m 148,516 c 0,0 -96,0 -96,0 -6,0 -12,6 -12,12 0,0 0,44 0,44 0,6 6,12 12,12 0,0 96,0 96,0 6,0 12,-6 12,-12 0,0 0,-44 0,-44 0,-6 -6,-12 -12,-12"
           style="fill:none;stroke:#000000;stroke-width:1;stroke-linecap:butt;stroke-linejoin:miter;stroke-miterlimit:10;stroke-dasharray:none;stroke-opacity:1"
           id="path220" /><text
           transform="translate(60,531.19922)"
           style="font-variant:normal;font-weight:normal;font-size:14.0002px;font-family:Helvetica;-inkscape-font-specification:Helvetica;writing-mode:lr-tb;fill:#000000;fill-opacity:1;fill-rule:nonzero;stroke:none"
           id="text230"><tspan
             x="0 7.5062637 14.998527 18.748241 23.25643 30.748692 38.254955 45.003075 48.752789 56.998711 60.748425 68.254692 72.004402"
             y="0"
             id="tspan222">entropy = 0.0</tspan><tspan
             x="-0.99999964 5.7481179 13.254381 25.252701 32.744965 35.743366 43.24963 49.997749 53.747463 61.993389 65.743103 73.249367"
             y="15.000001"
             id="tspan224">samples = 47</tspan><tspan
             x="-10.500005 -3.7518876 3.7543759 6.75278 14.245043 21.751307 25.50102 33.746944 37.496658 41.246372 48.752636 52.50235 56.252064 63.744328 71.250595 75.000305 78.750015 86.256279"
             y="30.000004"
             id="tspan226">value = [0, 47, 0]</tspan><tspan
             x="-12.000006 -5.2518878 -2.253484 5.25278 12.000897 18.749016 22.498728 30.744654"
             y="45.000004"
             id="tspan228">class = </tspan></text><text
           transform="translate(94.494367,576.19922)"
           style="font-variant:normal;font-weight:normal;font-size:14.0002px;font-family:'Noto Sans CJK SC';-inkscape-font-specification:NotoSansCJKsc-Regular;writing-mode:lr-tb;fill:#000000;fill-opacity:1;fill-rule:nonzero;stroke:none"
           id="text234"><tspan
             x="0 14.252249 28.504498 42.756744"
             y="0"
             id="tspan232">杂色鸢尾</tspan></text><path
           d="m 196.027,480.273 c -13.507,9.668 -27.886,19.961 -41.293,29.555"
           style="fill:none;stroke:#000000;stroke-width:1;stroke-linecap:butt;stroke-linejoin:miter;stroke-miterlimit:10;stroke-dasharray:none;stroke-opacity:1"
           id="path236" /><path
           d="m 156.695,512.727 -10.168,2.972 6.098,-8.664 z"
           style="fill:#000000;fill-opacity:1;fill-rule:nonzero;stroke:#000000;stroke-width:1;stroke-linecap:butt;stroke-linejoin:miter;stroke-miterlimit:10;stroke-dasharray:none;stroke-opacity:1"
           id="path238" /><path
           d="m 315.5,516 c 0,0 -125,0 -125,0 -6,0 -12,6 -12,12 0,0 0,44 0,44 0,6 6,12 12,12 0,0 125,0 125,0 6,0 12,-6 12,-12 0,0 0,-44 0,-44 0,-6 -6,-12 -12,-12"
           style="fill:#8139e5;fill-opacity:1;fill-rule:nonzero;stroke:none"
           id="path240" /><path
           d="m 315.5,516 c 0,0 -125,0 -125,0 -6,0 -12,6 -12,12 0,0 0,44 0,44 0,6 6,12 12,12 0,0 125,0 125,0 6,0 12,-6 12,-12 0,0 0,-44 0,-44 0,-6 -6,-12 -12,-12"
           style="fill:none;stroke:#000000;stroke-width:1;stroke-linecap:butt;stroke-linejoin:miter;stroke-miterlimit:10;stroke-dasharray:none;stroke-opacity:1"
           id="path242" /><text
           transform="translate(213,531.19922)"
           style="font-variant:normal;font-weight:normal;font-size:14.0002px;font-family:Helvetica;-inkscape-font-specification:Helvetica;writing-mode:lr-tb;fill:#000000;fill-opacity:1;fill-rule:nonzero;stroke:none"
           id="text252"><tspan
             x="0 7.5062637 14.998527 18.748241 23.25643 30.748692 38.254955 45.003075 48.752789 56.998711 60.748425 68.254692 72.004402"
             y="0"
             id="tspan244">entropy = 0.0</tspan><tspan
             x="2.4999955 9.2481136 16.754377 28.752695 36.244957 39.243362 46.749626 53.497746 57.247459 65.493385 69.243095"
             y="15.000001"
             id="tspan246">samples = 1</tspan><tspan
             x="-7.00001 -0.25189239 7.2543712 10.252775 17.745039 25.251303 29.001017 37.246941 40.996655 44.746368 52.252632 56.002346 59.75206 67.244324 70.994034 74.743752 82.250015"
             y="30.000004"
             id="tspan248">value = [0, 0, 1]</tspan><tspan
             x="-26.500011 -19.751894 -16.75349 -9.2472267 -2.4991093 4.2490087 7.9987221 16.244648"
             y="45.000004"
             id="tspan250">class = </tspan></text><text
           transform="translate(232.99436,576.19922)"
           style="font-variant:normal;font-weight:normal;font-size:14.0002px;font-family:'Noto Sans CJK SC';-inkscape-font-specification:NotoSansCJKsc-Regular;writing-mode:lr-tb;fill:#000000;fill-opacity:1;fill-rule:nonzero;stroke:none"
           id="text256"><tspan
             x="0 14.252249 28.504498 42.756744 57.008995 71.261246"
             y="0"
             id="tspan254">维吉尼亚鸢尾</tspan></text><path
           d="m 253,480.273 c 0,8.211 0,16.868 0,25.168"
           style="fill:none;stroke:#000000;stroke-width:1;stroke-linecap:butt;stroke-linejoin:miter;stroke-miterlimit:10;stroke-dasharray:none;stroke-opacity:1"
           id="path258" /><path
           d="m 256.5,505.699 -3.5,10 -3.5,-10 z"
           style="fill:#000000;fill-opacity:1;fill-rule:nonzero;stroke:#000000;stroke-width:1;stroke-linecap:butt;stroke-linejoin:miter;stroke-miterlimit:10;stroke-dasharray:none;stroke-opacity:1"
           id="path260" /><path
           d="m 482.5,516 c 0,0 -125,0 -125,0 -6,0 -12,6 -12,12 0,0 0,44 0,44 0,6 6,12 12,12 0,0 125,0 125,0 6,0 12,-6 12,-12 0,0 0,-44 0,-44 0,-6 -6,-12 -12,-12"
           style="fill:#8139e5;fill-opacity:1;fill-rule:nonzero;stroke:none"
           id="path262" /><path
           d="m 482.5,516 c 0,0 -125,0 -125,0 -6,0 -12,6 -12,12 0,0 0,44 0,44 0,6 6,12 12,12 0,0 125,0 125,0 6,0 12,-6 12,-12 0,0 0,-44 0,-44 0,-6 -6,-12 -12,-12"
           style="fill:none;stroke:#000000;stroke-width:1;stroke-linecap:butt;stroke-linejoin:miter;stroke-miterlimit:10;stroke-dasharray:none;stroke-opacity:1"
           id="path264" /><text
           transform="translate(380,531.19922)"
           style="font-variant:normal;font-weight:normal;font-size:14.0002px;font-family:Helvetica;-inkscape-font-specification:Helvetica;writing-mode:lr-tb;fill:#000000;fill-opacity:1;fill-rule:nonzero;stroke:none"
           id="text274"><tspan
             x="0 7.5062637 14.998527 18.748241 23.25643 30.748692 38.254955 45.003075 48.752789 56.998711 60.748425 68.254692 72.004402"
             y="0"
             id="tspan266">entropy = 0.0</tspan><tspan
             x="2.4999955 9.2481136 16.754377 28.752695 36.244957 39.243362 46.749626 53.497746 57.247459 65.493385 69.243095"
             y="15.000001"
             id="tspan268">samples = 3</tspan><tspan
             x="-7.00001 -0.25189239 7.2543712 10.252775 17.745039 25.251303 29.001017 37.246941 40.996655 44.746368 52.252632 56.002346 59.75206 67.244324 70.994034 74.743752 82.250015"
             y="30.000004"
             id="tspan270">value = [0, 0, 3]</tspan><tspan
             x="-26.500011 -19.751894 -16.75349 -9.2472267 -2.4991093 4.2490087 7.9987221 16.244648"
             y="45.000004"
             id="tspan272">class = </tspan></text><text
           transform="translate(399.99436,576.19922)"
           style="font-variant:normal;font-weight:normal;font-size:14.0002px;font-family:'Noto Sans CJK SC';-inkscape-font-specification:NotoSansCJKsc-Regular;writing-mode:lr-tb;fill:#000000;fill-opacity:1;fill-rule:nonzero;stroke:none"
           id="text278"><tspan
             x="0 14.252249 28.504498 42.756744 57.008995 71.261246"
             y="0"
             id="tspan276">维吉尼亚鸢尾</tspan></text><path
           d="m 458.285,480.273 c -4.828,8.665 -9.933,17.832 -14.789,26.547"
           style="fill:none;stroke:#000000;stroke-width:1;stroke-linecap:butt;stroke-linejoin:miter;stroke-miterlimit:10;stroke-dasharray:none;stroke-opacity:1"
           id="path280" /><path
           d="m 446.477,508.668 -7.926,7.031 1.808,-10.437 z"
           style="fill:#000000;fill-opacity:1;fill-rule:nonzero;stroke:#000000;stroke-width:1;stroke-linecap:butt;stroke-linejoin:miter;stroke-miterlimit:10;stroke-dasharray:none;stroke-opacity:1"
           id="path282" /><path
           d="m 620,516 c 0,0 -96,0 -96,0 -6,0 -12,6 -12,12 0,0 0,44 0,44 0,6 6,12 12,12 0,0 96,0 96,0 6,0 12,-6 12,-12 0,0 0,-44 0,-44 0,-6 -6,-12 -12,-12"
           style="fill:#9cf2c0;fill-opacity:1;fill-rule:nonzero;stroke:none"
           id="path284" /><path
           d="m 620,516 c 0,0 -96,0 -96,0 -6,0 -12,6 -12,12 0,0 0,44 0,44 0,6 6,12 12,12 0,0 96,0 96,0 6,0 12,-6 12,-12 0,0 0,-44 0,-44 0,-6 -6,-12 -12,-12"
           style="fill:none;stroke:#000000;stroke-width:1;stroke-linecap:butt;stroke-linejoin:miter;stroke-miterlimit:10;stroke-dasharray:none;stroke-opacity:1"
           id="path286" /><text
           transform="translate(524.5,531.19922)"
           style="font-variant:normal;font-weight:normal;font-size:14.0002px;font-family:Helvetica;-inkscape-font-specification:Helvetica;writing-mode:lr-tb;fill:#000000;fill-opacity:1;fill-rule:nonzero;stroke:none"
           id="text296"><tspan
             x="0 7.5062637 14.998527 18.748241 23.25643 30.748692 38.254955 45.003075 48.752789 56.998711 60.748425 68.254692 72.004402 79.496666 87.00293"
             y="0"
             id="tspan288">entropy = 0.918</tspan><tspan
             x="9.9999962 16.748114 24.254377 36.252697 43.744961 46.743362 54.249626 60.997746 64.747459 72.993385 76.743095"
             y="15.000001"
             id="tspan290">samples = 3</tspan><tspan
             x="0.4999907 7.2481084 14.754372 17.752775 25.245039 32.751305 36.501015 44.746941 48.496655 52.246368 59.752632 63.502346 67.25206 74.744324 78.494034 82.243752 89.750015"
             y="30.000004"
             id="tspan292">value = [0, 2, 1]</tspan><tspan
             x="-4.5000143 2.2481031 5.2465072 12.75277 19.500889 26.249006 29.99872 38.244644"
             y="45.000004"
             id="tspan294">class = </tspan></text><text
           transform="translate(566.49436,576.19922)"
           style="font-variant:normal;font-weight:normal;font-size:14.0002px;font-family:'Noto Sans CJK SC';-inkscape-font-specification:NotoSansCJKsc-Regular;writing-mode:lr-tb;fill:#000000;fill-opacity:1;fill-rule:nonzero;stroke:none"
           id="text300"><tspan
             x="0 14.252249 28.504498 42.756744"
             y="0"
             id="tspan298">杂色鸢尾</tspan></text><path
           d="m 514.887,480.273 c 7.504,9.032 15.457,18.602 22.972,27.645"
           style="fill:none;stroke:#000000;stroke-width:1;stroke-linecap:butt;stroke-linejoin:miter;stroke-miterlimit:10;stroke-dasharray:none;stroke-opacity:1"
           id="path302" /><path
           d="m 540.625,505.773 3.703,9.926 -9.086,-5.453 z"
           style="fill:#000000;fill-opacity:1;fill-rule:nonzero;stroke:#000000;stroke-width:1;stroke-linecap:butt;stroke-linejoin:miter;stroke-miterlimit:10;stroke-dasharray:none;stroke-opacity:1"
           id="path304" /><path
           d="m 772.5,397 c 0,0 -125,0 -125,0 -6,0 -12,6 -12,12 0,0 0,59 0,59 0,6 6,12 12,12 0,0 125,0 125,0 6,0 12,-6 12,-12 0,0 0,-59 0,-59 0,-6 -6,-12 -12,-12"
           style="fill:#c09cf2;fill-opacity:1;fill-rule:nonzero;stroke:#000000;stroke-width:1;stroke-linecap:butt;stroke-linejoin:miter;stroke-miterlimit:10;stroke-dasharray:none;stroke-opacity:1"
           id="path306" /><text
           transform="translate(660.5,412.19922)"
           style="font-variant:normal;font-weight:normal;font-size:14.0002px;font-family:'Noto Sans CJK SC';-inkscape-font-specification:NotoSansCJKsc-Regular;writing-mode:lr-tb;fill:#000000;fill-opacity:1;fill-rule:nonzero;stroke:none"
           id="text310"><tspan
             x="0 14.252249 28.504498 42.756744"
             y="0"
             id="tspan308">花萼长度</tspan></text><text
           transform="translate(721.24972,411.41553)"
           style="font-variant:normal;font-weight:normal;font-size:14.0002px;font-family:Helvetica;-inkscape-font-specification:Helvetica;writing-mode:lr-tb;fill:#000000;fill-opacity:1;fill-rule:nonzero;stroke:none"
           id="text314"><tspan
             x="0"
             y="0"
             id="tspan312">≤</tspan></text><text
           transform="translate(732.50116,411.41553)"
           style="font-variant:normal;font-weight:normal;font-size:14.0002px;font-family:Helvetica;-inkscape-font-specification:Helvetica;writing-mode:lr-tb;fill:#000000;fill-opacity:1;fill-rule:nonzero;stroke:none"
           id="text326"><tspan
             x="0 7.4922633 11.241977 18.748241"
             y="0"
             id="tspan316">5.95</tspan><tspan
             x="-70.001152 -62.494888 -55.002625 -51.252911 -46.744724 -39.25246 -31.746197 -24.998079 -21.248365 -13.00244 -9.2527266 -1.7464631 2.0032508 9.4955139 17.001778"
             y="15.783693"
             id="tspan318">entropy = 0.918</tspan><tspan
             x="-60.001156 -53.25304 -45.746777 -33.748455 -26.256193 -23.25779 -15.751526 -9.0034084 -5.2536945 2.9922307 6.7419443"
             y="30.783695"
             id="tspan320">samples = 3</tspan><tspan
             x="-69.50116 -62.753044 -55.24678 -52.248375 -44.756115 -37.249851 -33.500137 -25.254211 -21.504498 -17.754784 -10.24852 -6.498806 -2.7490923 4.7431712 8.4928846 12.242599 19.748863"
             y="45.783695"
             id="tspan322">value = [0, 1, 2]</tspan><tspan
             x="-89.001167 -82.253044 -79.254639 -71.748375 -65.000259 -58.252144 -54.50243 -46.256504"
             y="60.783695"
             id="tspan324">class = </tspan></text><text
           transform="translate(689.99437,472.19922)"
           style="font-variant:normal;font-weight:normal;font-size:14.0002px;font-family:'Noto Sans CJK SC';-inkscape-font-specification:NotoSansCJKsc-Regular;writing-mode:lr-tb;fill:#000000;fill-opacity:1;fill-rule:nonzero;stroke:none"
           id="text330"><tspan
             x="0 14.252249 28.504498 42.756744 57.008995 71.261246"
             y="0"
             id="tspan328">维吉尼亚鸢尾</tspan></text><path
           d="m 710,361.094 c 0,8.258 0,17.043 0,25.605"
           style="fill:none;stroke:#000000;stroke-width:1;stroke-linecap:butt;stroke-linejoin:miter;stroke-miterlimit:10;stroke-dasharray:none;stroke-opacity:1"
           id="path332" /><path
           d="m 713.5,386.98 -3.5,10 -3.5,-10 z"
           style="fill:#000000;fill-opacity:1;fill-rule:nonzero;stroke:#000000;stroke-width:1;stroke-linecap:butt;stroke-linejoin:miter;stroke-miterlimit:10;stroke-dasharray:none;stroke-opacity:1"
           id="path334" /><path
           d="m 939.5,404.5 c 0,0 -125,0 -125,0 -6,0 -12,6 -12,12 0,0 0,44 0,44 0,6 6,12 12,12 0,0 125,0 125,0 6,0 12,-6 12,-12 0,0 0,-44 0,-44 0,-6 -6,-12 -12,-12"
           style="fill:#8139e5;fill-opacity:1;fill-rule:nonzero;stroke:none"
           id="path336" /><path
           d="m 939.5,404.5 c 0,0 -125,0 -125,0 -6,0 -12,6 -12,12 0,0 0,44 0,44 0,6 6,12 12,12 0,0 125,0 125,0 6,0 12,-6 12,-12 0,0 0,-44 0,-44 0,-6 -6,-12 -12,-12"
           style="fill:none;stroke:#000000;stroke-width:1;stroke-linecap:butt;stroke-linejoin:miter;stroke-miterlimit:10;stroke-dasharray:none;stroke-opacity:1"
           id="path338" /><text
           transform="translate(837,419.69922)"
           style="font-variant:normal;font-weight:normal;font-size:14.0002px;font-family:Helvetica;-inkscape-font-specification:Helvetica;writing-mode:lr-tb;fill:#000000;fill-opacity:1;fill-rule:nonzero;stroke:none"
           id="text348"><tspan
             x="0 7.5062637 14.998527 18.748241 23.25643 30.748692 38.254955 45.003075 48.752789 56.998711 60.748425 68.254692 72.004402"
             y="0"
             id="tspan340">entropy = 0.0</tspan><tspan
             x="-0.99999964 5.7481179 13.254381 25.252701 32.744965 35.743366 43.24963 49.997749 53.747463 61.993389 65.743103 73.249367"
             y="15.000001"
             id="tspan342">samples = 43</tspan><tspan
             x="-10.500005 -3.7518876 3.7543759 6.75278 14.245043 21.751307 25.50102 33.746944 37.496658 41.246372 48.752636 52.50235 56.252064 63.744328 67.494041 71.243759 78.750015 86.256279"
             y="30.000004"
             id="tspan344">value = [0, 0, 43]</tspan><tspan
             x="-26.500002 -19.751884 -16.753481 -9.2472172 -2.4990993 4.2490182 7.9987321 16.244658"
             y="45.000004"
             id="tspan346">class = </tspan></text><text
           transform="translate(856.99437,464.69922)"
           style="font-variant:normal;font-weight:normal;font-size:14.0002px;font-family:'Noto Sans CJK SC';-inkscape-font-specification:NotoSansCJKsc-Regular;writing-mode:lr-tb;fill:#000000;fill-opacity:1;fill-rule:nonzero;stroke:none"
           id="text352"><tspan
             x="0 14.252249 28.504498 42.756744 57.008995 71.261246"
             y="0"
             id="tspan350">维吉尼亚鸢尾</tspan></text><path
           d="m 767.941,361.094 c 17.325,12.136 36.274,25.414 53.446,37.445"
           style="fill:none;stroke:#000000;stroke-width:1;stroke-linecap:butt;stroke-linejoin:miter;stroke-miterlimit:10;stroke-dasharray:none;stroke-opacity:1"
           id="path354" /><path
           d="m 823.477,395.73 6.183,8.602 -10.199,-2.871 z"
           style="fill:#000000;fill-opacity:1;fill-rule:nonzero;stroke:#000000;stroke-width:1;stroke-linecap:butt;stroke-linejoin:miter;stroke-miterlimit:10;stroke-dasharray:none;stroke-opacity:1"
           id="path356" /><path
           d="m 758,516 c 0,0 -96,0 -96,0 -6,0 -12,6 -12,12 0,0 0,44 0,44 0,6 6,12 12,12 0,0 96,0 96,0 6,0 12,-6 12,-12 0,0 0,-44 0,-44 0,-6 -6,-12 -12,-12"
           style="fill:#39e581;fill-opacity:1;fill-rule:nonzero;stroke:none"
           id="path358" /><path
           d="m 758,516 c 0,0 -96,0 -96,0 -6,0 -12,6 -12,12 0,0 0,44 0,44 0,6 6,12 12,12 0,0 96,0 96,0 6,0 12,-6 12,-12 0,0 0,-44 0,-44 0,-6 -6,-12 -12,-12"
           style="fill:none;stroke:#000000;stroke-width:1;stroke-linecap:butt;stroke-linejoin:miter;stroke-miterlimit:10;stroke-dasharray:none;stroke-opacity:1"
           id="path360" /><text
           transform="translate(670,531.19922)"
           style="font-variant:normal;font-weight:normal;font-size:14.0002px;font-family:Helvetica;-inkscape-font-specification:Helvetica;writing-mode:lr-tb;fill:#000000;fill-opacity:1;fill-rule:nonzero;stroke:none"
           id="text370"><tspan
             x="0 7.5062637 14.998527 18.748241 23.25643 30.748692 38.254955 45.003075 48.752789 56.998711 60.748425 68.254692 72.004402"
             y="0"
             id="tspan362">entropy = 0.0</tspan><tspan
             x="2.4999955 9.2481136 16.754377 28.752695 36.244957 39.243362 46.749626 53.497746 57.247459 65.493385 69.243095"
             y="15.000001"
             id="tspan364">samples = 1</tspan><tspan
             x="-7.00001 -0.25189239 7.2543712 10.252775 17.745039 25.251303 29.001017 37.246941 40.996655 44.746368 52.252632 56.002346 59.75206 67.244324 70.994034 74.743752 82.250015"
             y="30.000004"
             id="tspan366">value = [0, 1, 0]</tspan><tspan
             x="-12.000015 -5.2518973 -2.2534938 5.2527699 12.000888 18.749004 22.498718 30.744644"
             y="45.000004"
             id="tspan368">class = </tspan></text><text
           transform="translate(704.49436,576.19922)"
           style="font-variant:normal;font-weight:normal;font-size:14.0002px;font-family:'Noto Sans CJK SC';-inkscape-font-specification:NotoSansCJKsc-Regular;writing-mode:lr-tb;fill:#000000;fill-opacity:1;fill-rule:nonzero;stroke:none"
           id="text374"><tspan
             x="0 14.252249 28.504498 42.756744"
             y="0"
             id="tspan372">杂色鸢尾</tspan></text><path
           d="m 710,480.273 c 0,8.211 0,16.868 0,25.168"
           style="fill:none;stroke:#000000;stroke-width:1;stroke-linecap:butt;stroke-linejoin:miter;stroke-miterlimit:10;stroke-dasharray:none;stroke-opacity:1"
           id="path376" /><path
           d="m 713.5,505.699 -3.5,10 -3.5,-10 z"
           style="fill:#000000;fill-opacity:1;fill-rule:nonzero;stroke:#000000;stroke-width:1;stroke-linecap:butt;stroke-linejoin:miter;stroke-miterlimit:10;stroke-dasharray:none;stroke-opacity:1"
           id="path378" /><path
           d="m 925.5,516 c 0,0 -125,0 -125,0 -6,0 -12,6 -12,12 0,0 0,44 0,44 0,6 6,12 12,12 0,0 125,0 125,0 6,0 12,-6 12,-12 0,0 0,-44 0,-44 0,-6 -6,-12 -12,-12"
           style="fill:#8139e5;fill-opacity:1;fill-rule:nonzero;stroke:none"
           id="path380" /><path
           d="m 925.5,516 c 0,0 -125,0 -125,0 -6,0 -12,6 -12,12 0,0 0,44 0,44 0,6 6,12 12,12 0,0 125,0 125,0 6,0 12,-6 12,-12 0,0 0,-44 0,-44 0,-6 -6,-12 -12,-12"
           style="fill:none;stroke:#000000;stroke-width:1;stroke-linecap:butt;stroke-linejoin:miter;stroke-miterlimit:10;stroke-dasharray:none;stroke-opacity:1"
           id="path382" /><text
           transform="translate(823,531.19922)"
           style="font-variant:normal;font-weight:normal;font-size:14.0002px;font-family:Helvetica;-inkscape-font-specification:Helvetica;writing-mode:lr-tb;fill:#000000;fill-opacity:1;fill-rule:nonzero;stroke:none"
           id="text392"><tspan
             x="0 7.5062637 14.998527 18.748241 23.25643 30.748692 38.254955 45.003075 48.752789 56.998711 60.748425 68.254692 72.004402"
             y="0"
             id="tspan384">entropy = 0.0</tspan><tspan
             x="2.4999955 9.2481136 16.754377 28.752695 36.244957 39.243362 46.749626 53.497746 57.247459 65.493385 69.243095"
             y="15.000001"
             id="tspan386">samples = 2</tspan><tspan
             x="-7.00001 -0.25189239 7.2543712 10.252775 17.745039 25.251303 29.001017 37.246941 40.996655 44.746368 52.252632 56.002346 59.75206 67.244324 70.994034 74.743752 82.250015"
             y="30.000004"
             id="tspan388">value = [0, 0, 2]</tspan><tspan
             x="-26.500011 -19.751894 -16.75349 -9.2472267 -2.4991093 4.2490087 7.9987221 16.244648"
             y="45.000004"
             id="tspan390">class = </tspan></text><text
           transform="translate(842.99436,576.19922)"
           style="font-variant:normal;font-weight:normal;font-size:14.0002px;font-family:'Noto Sans CJK SC';-inkscape-font-specification:NotoSansCJKsc-Regular;writing-mode:lr-tb;fill:#000000;fill-opacity:1;fill-rule:nonzero;stroke:none"
           id="text396"><tspan
             x="0 14.252249 28.504498 42.756744 57.008995 71.261246"
             y="0"
             id="tspan394">维吉尼亚鸢尾</tspan></text><path
           d="m 766.973,480.273 c 13.507,9.668 27.886,19.961 41.293,29.555"
           style="fill:none;stroke:#000000;stroke-width:1;stroke-linecap:butt;stroke-linejoin:miter;stroke-miterlimit:10;stroke-dasharray:none;stroke-opacity:1"
           id="path398" /><path
           d="m 810.375,507.035 6.098,8.664 -10.168,-2.972 z"
           style="fill:#000000;fill-opacity:1;fill-rule:nonzero;stroke:#000000;stroke-width:1;stroke-linecap:butt;stroke-linejoin:miter;stroke-miterlimit:10;stroke-dasharray:none;stroke-opacity:1"
           id="path400" /></g></g></g></svg>
