<?xml version="1.0" encoding="UTF-8" standalone="no"?>
<svg
   width="260.71133pt"
   height="295.43204pt"
   viewBox="0 0 260.71133 295.43204"
   version="1.1"
   id="svg440"
   sodipodi:docname="overfitting-sample.svg"
   inkscape:version="1.1.2 (0a00cf5339, 2022-02-04, custom)"
   xmlns:inkscape="http://www.inkscape.org/namespaces/inkscape"
   xmlns:sodipodi="http://sodipodi.sourceforge.net/DTD/sodipodi-0.dtd"
   xmlns:xlink="http://www.w3.org/1999/xlink"
   xmlns="http://www.w3.org/2000/svg"
   xmlns:svg="http://www.w3.org/2000/svg"
   xmlns:rdf="http://www.w3.org/1999/02/22-rdf-syntax-ns#"
   xmlns:cc="http://creativecommons.org/ns#"
   xmlns:dc="http://purl.org/dc/elements/1.1/">
  <sodipodi:namedview
     id="namedview442"
     pagecolor="#ffffff"
     bordercolor="#666666"
     borderopacity="1.0"
     inkscape:pageshadow="2"
     inkscape:pageopacity="0.0"
     inkscape:pagecheckerboard="0"
     inkscape:document-units="pt"
     showgrid="false"
     inkscape:zoom="1.4979167"
     inkscape:cx="183.92211"
     inkscape:cy="186.92629"
     inkscape:window-width="3840"
     inkscape:window-height="2346"
     inkscape:window-x="0"
     inkscape:window-y="54"
     inkscape:window-maximized="1"
     inkscape:current-layer="svg440" />
  <metadata
     id="metadata2">
    <rdf:RDF>
      <cc:Work>
        <dc:type
           rdf:resource="http://purl.org/dc/dcmitype/StillImage" />
        <dc:date>2022-05-05T05:11:44.018750</dc:date>
        <dc:format>image/svg+xml</dc:format>
        <dc:creator>
          <cc:Agent>
            <dc:title>Matplotlib v3.5.1, https://matplotlib.org/</dc:title>
          </cc:Agent>
        </dc:creator>
      </cc:Work>
    </rdf:RDF>
  </metadata>
  <defs
     id="defs6">
    <style
       type="text/css"
       id="style4">*{stroke-linejoin: round; stroke-linecap: butt}</style>
  </defs>
  <g
     id="g1857"
     transform="translate(-5.776562,-39.708594)">
    <g
       id="axes_1">
      <g
         id="patch_2">
        <path
           d="M 36,320.4 H 259.2 V 43.2 H 36 Z"
           style="fill:#eee8d5"
           id="path11" />
      </g>
      <g
         id="matplotlib.axis_1">
        <g
           id="xtick_1">
          <g
             id="line2d_1">
            <path
               d="M 36,320.4 V 43.2"
               clip-path="url(#pc5b0b627f0)"
               style="fill:none;stroke:#fdf6e3"
               id="path14" />
          </g>
          <g
             id="line2d_2">
            <defs
               id="defs18">
              <path
                 id="m2001fd3415"
                 d="M 0,0 V 3.5"
                 style="stroke:#657b83;stroke-width:0.8" />
            </defs>
            <g
               id="g22">
              <use
                 xlink:href="#m2001fd3415"
                 x="36"
                 y="320.39999"
                 style="fill:#657b83;stroke:#657b83;stroke-width:0.8"
                 id="use20"
                 width="100%"
                 height="100%" />
            </g>
          </g>
          <g
             id="text_1">
            <!-- 0.0 -->
            <g
               style="fill:#657b83"
               transform="matrix(0.1,0,0,-0.1,28.048437,334.99844)"
               id="g35">
              <defs
                 id="defs27">
                <path
                   id="DejaVuSans-30"
                   d="m 2034,4250 q -487,0 -733,-480 -245,-479 -245,-1442 0,-959 245,-1439 246,-480 733,-480 491,0 736,480 246,480 246,1439 0,963 -246,1442 -245,480 -736,480 z m 0,500 q 785,0 1199,-621 414,-620 414,-1801 0,-1178 -414,-1799 -414,-620 -1199,-620 -784,0 -1198,620 -414,621 -414,1799 0,1181 414,1801 414,621 1198,621 z"
                   transform="scale(0.015625)" />
                <path
                   id="DejaVuSans-2e"
                   d="m 684,794 h 660 V 0 H 684 Z"
                   transform="scale(0.015625)" />
              </defs>
              <use
                 xlink:href="#DejaVuSans-30"
                 id="use29"
                 x="0"
                 y="0"
                 width="100%"
                 height="100%" />
              <use
                 xlink:href="#DejaVuSans-2e"
                 x="63.623047"
                 id="use31"
                 y="0"
                 width="100%"
                 height="100%" />
              <use
                 xlink:href="#DejaVuSans-30"
                 x="95.410156"
                 id="use33"
                 y="0"
                 width="100%"
                 height="100%" />
            </g>
          </g>
        </g>
        <g
           id="xtick_2">
          <g
             id="line2d_3">
            <path
               d="M 80.64,320.4 V 43.2"
               clip-path="url(#pc5b0b627f0)"
               style="fill:none;stroke:#fdf6e3"
               id="path39" />
          </g>
          <g
             id="line2d_4">
            <g
               id="g44">
              <use
                 xlink:href="#m2001fd3415"
                 x="80.639999"
                 y="320.39999"
                 style="fill:#657b83;stroke:#657b83;stroke-width:0.8"
                 id="use42"
                 width="100%"
                 height="100%" />
            </g>
          </g>
          <g
             id="text_2">
            <!-- 0.2 -->
            <g
               style="fill:#657b83"
               transform="matrix(0.1,0,0,-0.1,72.688438,334.99844)"
               id="g56">
              <defs
                 id="defs48">
                <path
                   id="DejaVuSans-32"
                   d="M 1228,531 H 3431 V 0 H 469 v 531 q 359,372 979,998 621,627 780,809 303,340 423,576 121,236 121,464 0,372 -261,606 -261,235 -680,235 -297,0 -627,-103 -329,-103 -704,-313 v 638 q 381,153 712,231 332,78 607,78 725,0 1156,-363 431,-362 431,-968 0,-288 -108,-546 -107,-257 -392,-607 -78,-91 -497,-524 Q 1991,1309 1228,531 Z"
                   transform="scale(0.015625)" />
              </defs>
              <use
                 xlink:href="#DejaVuSans-30"
                 id="use50"
                 x="0"
                 y="0"
                 width="100%"
                 height="100%" />
              <use
                 xlink:href="#DejaVuSans-2e"
                 x="63.623047"
                 id="use52"
                 y="0"
                 width="100%"
                 height="100%" />
              <use
                 xlink:href="#DejaVuSans-32"
                 x="95.410156"
                 id="use54"
                 y="0"
                 width="100%"
                 height="100%" />
            </g>
          </g>
        </g>
        <g
           id="xtick_3">
          <g
             id="line2d_5">
            <path
               d="M 125.28,320.4 V 43.2"
               clip-path="url(#pc5b0b627f0)"
               style="fill:none;stroke:#fdf6e3"
               id="path60" />
          </g>
          <g
             id="line2d_6">
            <g
               id="g65">
              <use
                 xlink:href="#m2001fd3415"
                 x="125.28"
                 y="320.39999"
                 style="fill:#657b83;stroke:#657b83;stroke-width:0.8"
                 id="use63"
                 width="100%"
                 height="100%" />
            </g>
          </g>
          <g
             id="text_3">
            <!-- 0.4 -->
            <g
               style="fill:#657b83"
               transform="matrix(0.1,0,0,-0.1,117.32844,334.99844)"
               id="g77">
              <defs
                 id="defs69">
                <path
                   id="DejaVuSans-34"
                   d="M 2419,4116 825,1625 h 1594 z m -166,550 h 794 V 1625 h 666 V 1100 H 3047 V 0 H 2419 V 1100 H 313 v 609 z"
                   transform="scale(0.015625)" />
              </defs>
              <use
                 xlink:href="#DejaVuSans-30"
                 id="use71"
                 x="0"
                 y="0"
                 width="100%"
                 height="100%" />
              <use
                 xlink:href="#DejaVuSans-2e"
                 x="63.623047"
                 id="use73"
                 y="0"
                 width="100%"
                 height="100%" />
              <use
                 xlink:href="#DejaVuSans-34"
                 x="95.410156"
                 id="use75"
                 y="0"
                 width="100%"
                 height="100%" />
            </g>
          </g>
        </g>
        <g
           id="xtick_4">
          <g
             id="line2d_7">
            <path
               d="M 169.92,320.4 V 43.2"
               clip-path="url(#pc5b0b627f0)"
               style="fill:none;stroke:#fdf6e3"
               id="path81" />
          </g>
          <g
             id="line2d_8">
            <g
               id="g86">
              <use
                 xlink:href="#m2001fd3415"
                 x="169.92"
                 y="320.39999"
                 style="fill:#657b83;stroke:#657b83;stroke-width:0.8"
                 id="use84"
                 width="100%"
                 height="100%" />
            </g>
          </g>
          <g
             id="text_4">
            <!-- 0.6 -->
            <g
               style="fill:#657b83"
               transform="matrix(0.1,0,0,-0.1,161.96844,334.99844)"
               id="g98">
              <defs
                 id="defs90">
                <path
                   id="DejaVuSans-36"
                   d="m 2113,2584 q -425,0 -674,-291 -248,-290 -248,-796 0,-503 248,-796 249,-292 674,-292 425,0 673,292 248,293 248,796 0,506 -248,796 -248,291 -673,291 z m 1253,1979 v -575 q -238,112 -480,171 -242,60 -480,60 -625,0 -955,-422 -329,-422 -376,-1275 184,272 462,417 279,145 613,145 703,0 1111,-427 408,-426 408,-1160 0,-719 -425,-1154 -425,-434 -1131,-434 -810,0 -1238,620 -428,621 -428,1799 0,1106 525,1764 525,658 1409,658 238,0 480,-47 242,-47 505,-140 z"
                   transform="scale(0.015625)" />
              </defs>
              <use
                 xlink:href="#DejaVuSans-30"
                 id="use92"
                 x="0"
                 y="0"
                 width="100%"
                 height="100%" />
              <use
                 xlink:href="#DejaVuSans-2e"
                 x="63.623047"
                 id="use94"
                 y="0"
                 width="100%"
                 height="100%" />
              <use
                 xlink:href="#DejaVuSans-36"
                 x="95.410156"
                 id="use96"
                 y="0"
                 width="100%"
                 height="100%" />
            </g>
          </g>
        </g>
        <g
           id="xtick_5">
          <g
             id="line2d_9">
            <path
               d="M 214.56,320.4 V 43.2"
               clip-path="url(#pc5b0b627f0)"
               style="fill:none;stroke:#fdf6e3"
               id="path102" />
          </g>
          <g
             id="line2d_10">
            <g
               id="g107">
              <use
                 xlink:href="#m2001fd3415"
                 x="214.56"
                 y="320.39999"
                 style="fill:#657b83;stroke:#657b83;stroke-width:0.8"
                 id="use105"
                 width="100%"
                 height="100%" />
            </g>
          </g>
          <g
             id="text_5">
            <!-- 0.8 -->
            <g
               style="fill:#657b83"
               transform="matrix(0.1,0,0,-0.1,206.60844,334.99844)"
               id="g119">
              <defs
                 id="defs111">
                <path
                   id="DejaVuSans-38"
                   d="m 2034,2216 q -450,0 -708,-241 -257,-241 -257,-662 0,-422 257,-663 258,-241 708,-241 450,0 709,242 260,243 260,662 0,421 -258,662 -257,241 -711,241 z m -631,268 q -406,100 -633,378 -226,279 -226,679 0,559 398,884 399,325 1092,325 697,0 1094,-325 397,-325 397,-884 0,-400 -227,-679 -226,-278 -629,-378 456,-106 710,-416 255,-309 255,-755 Q 3634,634 3220,271 2806,-91 2034,-91 1263,-91 848,271 434,634 434,1313 q 0,446 256,755 257,310 713,416 z m -231,997 q 0,-362 226,-565 227,-203 636,-203 407,0 636,203 230,203 230,565 0,363 -230,566 -229,203 -636,203 -409,0 -636,-203 -226,-203 -226,-566 z"
                   transform="scale(0.015625)" />
              </defs>
              <use
                 xlink:href="#DejaVuSans-30"
                 id="use113"
                 x="0"
                 y="0"
                 width="100%"
                 height="100%" />
              <use
                 xlink:href="#DejaVuSans-2e"
                 x="63.623047"
                 id="use115"
                 y="0"
                 width="100%"
                 height="100%" />
              <use
                 xlink:href="#DejaVuSans-38"
                 x="95.410156"
                 id="use117"
                 y="0"
                 width="100%"
                 height="100%" />
            </g>
          </g>
        </g>
        <g
           id="xtick_6">
          <g
             id="line2d_11">
            <path
               d="M 259.2,320.4 V 43.2"
               clip-path="url(#pc5b0b627f0)"
               style="fill:none;stroke:#fdf6e3"
               id="path123" />
          </g>
          <g
             id="line2d_12">
            <g
               id="g128">
              <use
                 xlink:href="#m2001fd3415"
                 x="259.20001"
                 y="320.39999"
                 style="fill:#657b83;stroke:#657b83;stroke-width:0.8"
                 id="use126"
                 width="100%"
                 height="100%" />
            </g>
          </g>
          <g
             id="text_6">
            <!-- 1.0 -->
            <g
               style="fill:#657b83"
               transform="matrix(0.1,0,0,-0.1,251.24844,334.99844)"
               id="g140">
              <defs
                 id="defs132">
                <path
                   id="DejaVuSans-31"
                   d="M 794,531 H 1825 V 4091 L 703,3866 v 575 l 1116,225 h 631 V 531 H 3481 V 0 H 794 Z"
                   transform="scale(0.015625)" />
              </defs>
              <use
                 xlink:href="#DejaVuSans-31"
                 id="use134"
                 x="0"
                 y="0"
                 width="100%"
                 height="100%" />
              <use
                 xlink:href="#DejaVuSans-2e"
                 x="63.623047"
                 id="use136"
                 y="0"
                 width="100%"
                 height="100%" />
              <use
                 xlink:href="#DejaVuSans-30"
                 x="95.410156"
                 id="use138"
                 y="0"
                 width="100%"
                 height="100%" />
            </g>
          </g>
        </g>
      </g>
      <g
         id="matplotlib.axis_2">
        <g
           id="ytick_1">
          <g
             id="line2d_13">
            <path
               d="M 36,320.4 H 259.2"
               clip-path="url(#pc5b0b627f0)"
               style="fill:none;stroke:#fdf6e3"
               id="path145" />
          </g>
          <g
             id="line2d_14">
            <defs
               id="defs149">
              <path
                 id="m4ccbdb7992"
                 d="M 0,0 H -3.5"
                 style="stroke:#657b83;stroke-width:0.8" />
            </defs>
            <g
               id="g153">
              <use
                 xlink:href="#m4ccbdb7992"
                 x="36"
                 y="320.39999"
                 style="fill:#657b83;stroke:#657b83;stroke-width:0.8"
                 id="use151"
                 width="100%"
                 height="100%" />
            </g>
          </g>
          <g
             id="text_7">
            <!-- −1.5 -->
            <g
               style="fill:#657b83"
               transform="matrix(0.1,0,0,-0.1,4.717187,324.19922)"
               id="g168">
              <defs
                 id="defs158">
                <path
                   id="DejaVuSans-2212"
                   d="M 678,2272 H 4684 V 1741 H 678 Z"
                   transform="scale(0.015625)" />
                <path
                   id="DejaVuSans-35"
                   d="M 691,4666 H 3169 V 4134 H 1269 V 2991 q 137,47 274,70 138,23 276,23 781,0 1237,-428 457,-428 457,-1159 Q 3513,744 3044,326 2575,-91 1722,-91 1428,-91 1123,-41 819,9 494,109 v 635 q 281,-153 581,-228 300,-75 634,-75 541,0 856,284 316,284 316,772 0,487 -316,771 -315,285 -856,285 -253,0 -505,-56 -251,-56 -513,-175 z"
                   transform="scale(0.015625)" />
              </defs>
              <use
                 xlink:href="#DejaVuSans-2212"
                 id="use160"
                 x="0"
                 y="0"
                 width="100%"
                 height="100%" />
              <use
                 xlink:href="#DejaVuSans-31"
                 x="83.789062"
                 id="use162"
                 y="0"
                 width="100%"
                 height="100%" />
              <use
                 xlink:href="#DejaVuSans-2e"
                 x="147.41211"
                 id="use164"
                 y="0"
                 width="100%"
                 height="100%" />
              <use
                 xlink:href="#DejaVuSans-35"
                 x="179.19922"
                 id="use166"
                 y="0"
                 width="100%"
                 height="100%" />
            </g>
          </g>
        </g>
        <g
           id="ytick_2">
          <g
             id="line2d_15">
            <path
               d="M 36,274.2 H 259.2"
               clip-path="url(#pc5b0b627f0)"
               style="fill:none;stroke:#fdf6e3"
               id="path172" />
          </g>
          <g
             id="line2d_16">
            <g
               id="g177">
              <use
                 xlink:href="#m4ccbdb7992"
                 x="36"
                 y="274.20001"
                 style="fill:#657b83;stroke:#657b83;stroke-width:0.8"
                 id="use175"
                 width="100%"
                 height="100%" />
            </g>
          </g>
          <g
             id="text_8">
            <!-- −1.0 -->
            <g
               style="fill:#657b83"
               transform="matrix(0.1,0,0,-0.1,4.717187,277.99922)"
               id="g188">
              <use
                 xlink:href="#DejaVuSans-2212"
                 id="use180"
                 x="0"
                 y="0"
                 width="100%"
                 height="100%" />
              <use
                 xlink:href="#DejaVuSans-31"
                 x="83.789062"
                 id="use182"
                 y="0"
                 width="100%"
                 height="100%" />
              <use
                 xlink:href="#DejaVuSans-2e"
                 x="147.41211"
                 id="use184"
                 y="0"
                 width="100%"
                 height="100%" />
              <use
                 xlink:href="#DejaVuSans-30"
                 x="179.19922"
                 id="use186"
                 y="0"
                 width="100%"
                 height="100%" />
            </g>
          </g>
        </g>
        <g
           id="ytick_3">
          <g
             id="line2d_17">
            <path
               d="M 36,228 H 259.2"
               clip-path="url(#pc5b0b627f0)"
               style="fill:none;stroke:#fdf6e3"
               id="path192" />
          </g>
          <g
             id="line2d_18">
            <g
               id="g197">
              <use
                 xlink:href="#m4ccbdb7992"
                 x="36"
                 y="228"
                 style="fill:#657b83;stroke:#657b83;stroke-width:0.8"
                 id="use195"
                 width="100%"
                 height="100%" />
            </g>
          </g>
          <g
             id="text_9">
            <!-- −0.5 -->
            <g
               style="fill:#657b83"
               transform="matrix(0.1,0,0,-0.1,4.717187,231.79922)"
               id="g208">
              <use
                 xlink:href="#DejaVuSans-2212"
                 id="use200"
                 x="0"
                 y="0"
                 width="100%"
                 height="100%" />
              <use
                 xlink:href="#DejaVuSans-30"
                 x="83.789062"
                 id="use202"
                 y="0"
                 width="100%"
                 height="100%" />
              <use
                 xlink:href="#DejaVuSans-2e"
                 x="147.41211"
                 id="use204"
                 y="0"
                 width="100%"
                 height="100%" />
              <use
                 xlink:href="#DejaVuSans-35"
                 x="179.19922"
                 id="use206"
                 y="0"
                 width="100%"
                 height="100%" />
            </g>
          </g>
        </g>
        <g
           id="ytick_4">
          <g
             id="line2d_19">
            <path
               d="M 36,181.8 H 259.2"
               clip-path="url(#pc5b0b627f0)"
               style="fill:none;stroke:#fdf6e3"
               id="path212" />
          </g>
          <g
             id="line2d_20">
            <g
               id="g217">
              <use
                 xlink:href="#m4ccbdb7992"
                 x="36"
                 y="181.8"
                 style="fill:#657b83;stroke:#657b83;stroke-width:0.8"
                 id="use215"
                 width="100%"
                 height="100%" />
            </g>
          </g>
          <g
             id="text_10">
            <!-- 0.0 -->
            <g
               style="fill:#657b83"
               transform="matrix(0.1,0,0,-0.1,13.096875,185.59922)"
               id="g226">
              <use
                 xlink:href="#DejaVuSans-30"
                 id="use220"
                 x="0"
                 y="0"
                 width="100%"
                 height="100%" />
              <use
                 xlink:href="#DejaVuSans-2e"
                 x="63.623047"
                 id="use222"
                 y="0"
                 width="100%"
                 height="100%" />
              <use
                 xlink:href="#DejaVuSans-30"
                 x="95.410156"
                 id="use224"
                 y="0"
                 width="100%"
                 height="100%" />
            </g>
          </g>
        </g>
        <g
           id="ytick_5">
          <g
             id="line2d_21">
            <path
               d="M 36,135.6 H 259.2"
               clip-path="url(#pc5b0b627f0)"
               style="fill:none;stroke:#fdf6e3"
               id="path230" />
          </g>
          <g
             id="line2d_22">
            <g
               id="g235">
              <use
                 xlink:href="#m4ccbdb7992"
                 x="36"
                 y="135.60001"
                 style="fill:#657b83;stroke:#657b83;stroke-width:0.8"
                 id="use233"
                 width="100%"
                 height="100%" />
            </g>
          </g>
          <g
             id="text_11">
            <!-- 0.5 -->
            <g
               style="fill:#657b83"
               transform="matrix(0.1,0,0,-0.1,13.096875,139.39922)"
               id="g244">
              <use
                 xlink:href="#DejaVuSans-30"
                 id="use238"
                 x="0"
                 y="0"
                 width="100%"
                 height="100%" />
              <use
                 xlink:href="#DejaVuSans-2e"
                 x="63.623047"
                 id="use240"
                 y="0"
                 width="100%"
                 height="100%" />
              <use
                 xlink:href="#DejaVuSans-35"
                 x="95.410156"
                 id="use242"
                 y="0"
                 width="100%"
                 height="100%" />
            </g>
          </g>
        </g>
        <g
           id="ytick_6">
          <g
             id="line2d_23">
            <path
               d="M 36,89.4 H 259.2"
               clip-path="url(#pc5b0b627f0)"
               style="fill:none;stroke:#fdf6e3"
               id="path248" />
          </g>
          <g
             id="line2d_24">
            <g
               id="g253">
              <use
                 xlink:href="#m4ccbdb7992"
                 x="36"
                 y="89.400002"
                 style="fill:#657b83;stroke:#657b83;stroke-width:0.8"
                 id="use251"
                 width="100%"
                 height="100%" />
            </g>
          </g>
          <g
             id="text_12">
            <!-- 1.0 -->
            <g
               style="fill:#657b83"
               transform="matrix(0.1,0,0,-0.1,13.096875,93.199219)"
               id="g262">
              <use
                 xlink:href="#DejaVuSans-31"
                 id="use256"
                 x="0"
                 y="0"
                 width="100%"
                 height="100%" />
              <use
                 xlink:href="#DejaVuSans-2e"
                 x="63.623047"
                 id="use258"
                 y="0"
                 width="100%"
                 height="100%" />
              <use
                 xlink:href="#DejaVuSans-30"
                 x="95.410156"
                 id="use260"
                 y="0"
                 width="100%"
                 height="100%" />
            </g>
          </g>
        </g>
        <g
           id="ytick_7">
          <g
             id="line2d_25">
            <path
               d="M 36,43.2 H 259.2"
               clip-path="url(#pc5b0b627f0)"
               style="fill:none;stroke:#fdf6e3"
               id="path266" />
          </g>
          <g
             id="line2d_26">
            <g
               id="g271">
              <use
                 xlink:href="#m4ccbdb7992"
                 x="36"
                 y="43.200001"
                 style="fill:#657b83;stroke:#657b83;stroke-width:0.8"
                 id="use269"
                 width="100%"
                 height="100%" />
            </g>
          </g>
          <g
             id="text_13">
            <!-- 1.5 -->
            <g
               style="fill:#657b83"
               transform="matrix(0.1,0,0,-0.1,13.096875,46.999219)"
               id="g280">
              <use
                 xlink:href="#DejaVuSans-31"
                 id="use274"
                 x="0"
                 y="0"
                 width="100%"
                 height="100%" />
              <use
                 xlink:href="#DejaVuSans-2e"
                 x="63.623047"
                 id="use276"
                 y="0"
                 width="100%"
                 height="100%" />
              <use
                 xlink:href="#DejaVuSans-35"
                 x="95.410156"
                 id="use278"
                 y="0"
                 width="100%"
                 height="100%" />
            </g>
          </g>
        </g>
      </g>
      <g
         id="PathCollection_1">
        <defs
           id="defs286">
          <path
             id="m13db199ca9"
             d="m 0,2.236068 c 0.593012,0 1.161816,-0.235606 1.581139,-0.654929 C 2.000462,1.161816 2.236068,0.593012 2.236068,0 c 0,-0.593012 -0.235606,-1.161816 -0.654929,-1.581139 C 1.161816,-2.000462 0.593012,-2.236068 0,-2.236068 c -0.593012,0 -1.161816,0.235606 -1.581139,0.654929 C -2.000462,-1.161816 -2.236068,-0.593012 -2.236068,0 c 0,0.593012 0.235606,1.161816 0.654929,1.581139 C -1.161816,2.000462 -0.593012,2.236068 0,2.236068 Z"
             style="stroke:#268bd2" />
        </defs>
        <g
           clip-path="url(#pc5b0b627f0)"
           id="g348">
          <use
             xlink:href="#m13db199ca9"
             x="40.512745"
             y="81.83168"
             style="fill:#268bd2;stroke:#268bd2"
             id="use288"
             width="100%"
             height="100%" />
          <use
             xlink:href="#m13db199ca9"
             x="51.855247"
             y="101.38648"
             style="fill:#268bd2;stroke:#268bd2"
             id="use290"
             width="100%"
             height="100%" />
          <use
             xlink:href="#m13db199ca9"
             x="55.447262"
             y="76.107147"
             style="fill:#268bd2;stroke:#268bd2"
             id="use292"
             width="100%"
             height="100%" />
          <use
             xlink:href="#m13db199ca9"
             x="62.398853"
             y="116.82243"
             style="fill:#268bd2;stroke:#268bd2"
             id="use294"
             width="100%"
             height="100%" />
          <use
             xlink:href="#m13db199ca9"
             x="67.996452"
             y="109.27085"
             style="fill:#268bd2;stroke:#268bd2"
             id="use296"
             width="100%"
             height="100%" />
          <use
             xlink:href="#m13db199ca9"
             x="121.58414"
             y="205.14574"
             style="fill:#268bd2;stroke:#268bd2"
             id="use298"
             width="100%"
             height="100%" />
          <use
             xlink:href="#m13db199ca9"
             x="128.55255"
             y="202.18904"
             style="fill:#268bd2;stroke:#268bd2"
             id="use300"
             width="100%"
             height="100%" />
          <use
             xlink:href="#m13db199ca9"
             x="130.55975"
             y="206.37459"
             style="fill:#268bd2;stroke:#268bd2"
             id="use302"
             width="100%"
             height="100%" />
          <use
             xlink:href="#m13db199ca9"
             x="133.66946"
             y="223.95883"
             style="fill:#268bd2;stroke:#268bd2"
             id="use304"
             width="100%"
             height="100%" />
          <use
             xlink:href="#m13db199ca9"
             x="139.0022"
             y="230.77379"
             style="fill:#268bd2;stroke:#268bd2"
             id="use306"
             width="100%"
             height="100%" />
          <use
             xlink:href="#m13db199ca9"
             x="152.47655"
             y="261.70886"
             style="fill:#268bd2;stroke:#268bd2"
             id="use308"
             width="100%"
             height="100%" />
          <use
             xlink:href="#m13db199ca9"
             x="154.04935"
             y="273.70352"
             style="fill:#268bd2;stroke:#268bd2"
             id="use310"
             width="100%"
             height="100%" />
          <use
             xlink:href="#m13db199ca9"
             x="157.61792"
             y="262.61176"
             style="fill:#268bd2;stroke:#268bd2"
             id="use312"
             width="100%"
             height="100%" />
          <use
             xlink:href="#m13db199ca9"
             x="158.49518"
             y="258.8681"
             style="fill:#268bd2;stroke:#268bd2"
             id="use314"
             width="100%"
             height="100%" />
          <use
             xlink:href="#m13db199ca9"
             x="162.78755"
             y="253.03175"
             style="fill:#268bd2;stroke:#268bd2"
             id="use316"
             width="100%"
             height="100%" />
          <use
             xlink:href="#m13db199ca9"
             x="170.53679"
             y="258.93201"
             style="fill:#268bd2;stroke:#268bd2"
             id="use318"
             width="100%"
             height="100%" />
          <use
             xlink:href="#m13db199ca9"
             x="178.83037"
             y="277.04599"
             style="fill:#268bd2;stroke:#268bd2"
             id="use320"
             width="100%"
             height="100%" />
          <use
             xlink:href="#m13db199ca9"
             x="180.16356"
             y="276.55093"
             style="fill:#268bd2;stroke:#268bd2"
             id="use322"
             width="100%"
             height="100%" />
          <use
             xlink:href="#m13db199ca9"
             x="195.63026"
             y="281.48358"
             style="fill:#268bd2;stroke:#268bd2"
             id="use324"
             width="100%"
             height="100%" />
          <use
             xlink:href="#m13db199ca9"
             x="209.68459"
             y="274.85907"
             style="fill:#268bd2;stroke:#268bd2"
             id="use326"
             width="100%"
             height="100%" />
          <use
             xlink:href="#m13db199ca9"
             x="210.21411"
             y="276.98096"
             style="fill:#268bd2;stroke:#268bd2"
             id="use328"
             width="100%"
             height="100%" />
          <use
             xlink:href="#m13db199ca9"
             x="212.71303"
             y="240.5885"
             style="fill:#268bd2;stroke:#268bd2"
             id="use330"
             width="100%"
             height="100%" />
          <use
             xlink:href="#m13db199ca9"
             x="214.37219"
             y="261.47711"
             style="fill:#268bd2;stroke:#268bd2"
             id="use332"
             width="100%"
             height="100%" />
          <use
             xlink:href="#m13db199ca9"
             x="221.84074"
             y="251.40378"
             style="fill:#268bd2;stroke:#268bd2"
             id="use334"
             width="100%"
             height="100%" />
          <use
             xlink:href="#m13db199ca9"
             x="230.18671"
             y="246.50198"
             style="fill:#268bd2;stroke:#268bd2"
             id="use336"
             width="100%"
             height="100%" />
          <use
             xlink:href="#m13db199ca9"
             x="235.04373"
             y="219.72418"
             style="fill:#268bd2;stroke:#268bd2"
             id="use338"
             width="100%"
             height="100%" />
          <use
             xlink:href="#m13db199ca9"
             x="242.59317"
             y="228.44977"
             style="fill:#268bd2;stroke:#268bd2"
             id="use340"
             width="100%"
             height="100%" />
          <use
             xlink:href="#m13db199ca9"
             x="246.8501"
             y="207.58618"
             style="fill:#268bd2;stroke:#268bd2"
             id="use342"
             width="100%"
             height="100%" />
          <use
             xlink:href="#m13db199ca9"
             x="251.08952"
             y="205.81903"
             style="fill:#268bd2;stroke:#268bd2"
             id="use344"
             width="100%"
             height="100%" />
          <use
             xlink:href="#m13db199ca9"
             x="254.42761"
             y="187.51938"
             style="fill:#268bd2;stroke:#268bd2"
             id="use346"
             width="100%"
             height="100%" />
        </g>
      </g>
      <g
         id="line2d_27">
        <path
           d="m 36,89.4 2.232,0.102576 2.232,0.307498 2.232,0.51174 2.232,0.714844 2.232,0.916361 2.232,1.115844 2.232,1.31285 2.232,1.50694 2.232,1.697684 2.232,1.88466 2.232,2.067453 2.232,2.24565 2.232,2.41887 2.232,2.58671 2.232,2.74881 2.232,2.90481 2.232,3.05436 2.232,3.19712 2.232,3.3328 2.232,3.46106 2.232,3.58165 2.232,3.69428 2.232,3.79871 2.232,3.89471 2.232,3.98206 2.232,4.06057 2.232,4.13005 2.232,4.19038 2.232,4.2414 2.232,4.283 2.232,4.3151 2.232,4.33761 2.232,4.35048 2.232,4.35371 2.232,4.34727 2.232,4.33117 2.232,4.30546 2.232,4.27019 2.232,4.22543 2.232,4.1713 2.232,4.10791 2.232,4.03538 2.232,3.95392 2.232,3.86366 2.232,3.76483 2.232,3.65763 2.232,3.54233 2.232,3.41915 2.232,3.28838 2.232,3.15031 2.232,3.00524 2.232,2.85351 2.232,2.69544 2.232,2.53138 2.232,2.36171 2.232,2.18679 2.232,2.00701 2.232,1.82278 2.232,1.6345 2.232,1.44259 2.232,1.24748 2.232,1.04961 2.232,0.84939 2.232,0.6473 2.232,0.44376 2.232,0.23925 2.232,0.0342 2.232,-0.17093 2.232,-0.37568 2.232,-0.57959 2.232,-0.78221 2.232,-0.98311 2.232,-1.18181 2.232,-1.37789 2.232,-1.57091 2.232,-1.76045 2.232,-1.94608 2.232,-2.12738 2.232,-2.30396 2.232,-2.47543 2.232,-2.6414 2.232,-2.80151 2.232,-2.95539 2.232,-3.10272 2.232,-3.24315 2.232,-3.37639 2.232,-3.50213 2.232,-3.62008 2.232,-3.73002 2.232,-3.83166 2.232,-3.92479 2.232,-4.00922 2.232,-4.08474 2.232,-4.15119 2.232,-4.20843 2.232,-4.25632 2.232,-4.29476 2.232,-4.32366 2.232,-4.34297"
           clip-path="url(#pc5b0b627f0)"
           style="fill:none;stroke:#268bd2;stroke-width:2"
           id="path351" />
      </g>
      <g
         id="patch_3">
        <path
           d="M 36,320.4 V 43.2"
           style="fill:none;stroke:#eee8d5;stroke-width:0.8;stroke-linecap:square;stroke-linejoin:miter"
           id="path354" />
      </g>
      <g
         id="patch_4">
        <path
           d="M 259.2,320.4 V 43.2"
           style="fill:none;stroke:#eee8d5;stroke-width:0.8;stroke-linecap:square;stroke-linejoin:miter"
           id="path357" />
      </g>
      <g
         id="patch_5">
        <path
           d="M 36,320.4 H 259.2"
           style="fill:none;stroke:#eee8d5;stroke-width:0.8;stroke-linecap:square;stroke-linejoin:miter"
           id="path360" />
      </g>
      <g
         id="patch_6">
        <path
           d="M 36,43.2 H 259.2"
           style="fill:none;stroke:#eee8d5;stroke-width:0.8;stroke-linecap:square;stroke-linejoin:miter"
           id="path363" />
      </g>
      <g
         id="legend_1">
        <g
           id="patch_7">
          <path
             d="M 174.80625,80.55625 H 252.2 q 2,0 2,-2 V 50.2 q 0,-2 -2,-2 h -77.39375 q -2,0 -2,2 v 28.35625 q 0,2 2,2 z"
             style="opacity:0.8;fill:#eee8d5;stroke:#cccccc;stroke-linejoin:miter"
             id="path366" />
        </g>
        <g
           id="line2d_28">
          <path
             d="m 176.80625,56.298437 h 10 10"
             style="fill:none;stroke:#268bd2;stroke-width:2"
             id="path369" />
        </g>
        <g
           id="text_14">
          <!-- true func -->
          <g
             style="fill:#073642"
             transform="matrix(0.1,0,0,-0.1,204.80625,59.798437)"
             id="g400">
            <defs
               id="defs380">
              <path
                 id="DejaVuSans-74"
                 d="M 1172,4494 V 3500 H 2356 V 3053 H 1172 V 1153 q 0,-428 117,-550 117,-122 477,-122 h 590 V 0 H 1766 Q 1100,0 847,248 594,497 594,1153 V 3053 H 172 v 447 h 422 v 994 z"
                 transform="scale(0.015625)" />
              <path
                 id="DejaVuSans-72"
                 d="m 2631,2963 q -97,56 -211,82 -114,27 -251,27 -488,0 -749,-317 -261,-317 -261,-911 V 0 H 581 v 3500 h 578 v -544 q 182,319 472,473 291,155 707,155 59,0 131,-8 72,-7 159,-23 z"
                 transform="scale(0.015625)" />
              <path
                 id="DejaVuSans-75"
                 d="m 544,1381 v 2119 h 575 V 1403 q 0,-497 193,-746 194,-248 582,-248 465,0 735,297 271,297 271,810 v 1984 h 575 V 0 H 2900 V 538 Q 2691,219 2414,64 2138,-91 1772,-91 1169,-91 856,284 544,659 544,1381 Z m 1447,2203 z"
                 transform="scale(0.015625)" />
              <path
                 id="DejaVuSans-65"
                 d="M 3597,1894 V 1613 H 953 q 38,-594 358,-905 320,-311 892,-311 331,0 642,81 311,81 618,244 V 178 Q 3153,47 2828,-22 2503,-91 2169,-91 1331,-91 842,396 353,884 353,1716 q 0,859 464,1363 464,505 1252,505 706,0 1117,-455 411,-454 411,-1235 z m -575,169 q -6,471 -264,752 -258,282 -683,282 -481,0 -770,-272 -289,-272 -333,-766 z"
                 transform="scale(0.015625)" />
              <path
                 id="DejaVuSans-20"
                 transform="scale(0.015625)"
                 d="" />
              <path
                 id="DejaVuSans-66"
                 d="m 2375,4863 v -479 h -550 q -309,0 -430,-125 -120,-125 -120,-450 v -309 h 947 V 3053 H 1275 V 0 H 697 V 3053 H 147 v 447 h 550 v 244 q 0,584 272,851 272,268 862,268 z"
                 transform="scale(0.015625)" />
              <path
                 id="DejaVuSans-6e"
                 d="M 3513,2113 V 0 h -575 v 2094 q 0,497 -194,743 -194,247 -581,247 -466,0 -735,-297 -269,-296 -269,-809 V 0 H 581 v 3500 h 578 v -544 q 207,316 486,472 280,156 646,156 603,0 912,-373 310,-373 310,-1098 z"
                 transform="scale(0.015625)" />
              <path
                 id="DejaVuSans-63"
                 d="m 3122,3366 v -538 q -244,135 -489,202 -245,67 -495,67 -560,0 -870,-355 -309,-354 -309,-995 0,-641 309,-996 310,-354 870,-354 250,0 495,67 245,67 489,202 V 134 Q 2881,22 2623,-34 2366,-91 2075,-91 1284,-91 818,406 353,903 353,1747 q 0,856 470,1346 471,491 1290,491 265,0 518,-55 253,-54 491,-163 z"
                 transform="scale(0.015625)" />
            </defs>
            <use
               xlink:href="#DejaVuSans-74"
               id="use382"
               x="0"
               y="0"
               width="100%"
               height="100%" />
            <use
               xlink:href="#DejaVuSans-72"
               x="39.208984"
               id="use384"
               y="0"
               width="100%"
               height="100%" />
            <use
               xlink:href="#DejaVuSans-75"
               x="80.322266"
               id="use386"
               y="0"
               width="100%"
               height="100%" />
            <use
               xlink:href="#DejaVuSans-65"
               x="143.70117"
               id="use388"
               y="0"
               width="100%"
               height="100%" />
            <use
               xlink:href="#DejaVuSans-20"
               x="205.22461"
               id="use390"
               y="0"
               width="100%"
               height="100%" />
            <use
               xlink:href="#DejaVuSans-66"
               x="237.01172"
               id="use392"
               y="0"
               width="100%"
               height="100%" />
            <use
               xlink:href="#DejaVuSans-75"
               x="272.2168"
               id="use394"
               y="0"
               width="100%"
               height="100%" />
            <use
               xlink:href="#DejaVuSans-6e"
               x="335.5957"
               id="use396"
               y="0"
               width="100%"
               height="100%" />
            <use
               xlink:href="#DejaVuSans-63"
               x="398.97461"
               id="use398"
               y="0"
               width="100%"
               height="100%" />
          </g>
        </g>
        <g
           id="PathCollection_2">
          <g
             id="g405">
            <use
               xlink:href="#m13db199ca9"
               x="186.80624"
               y="71.851562"
               style="fill:#268bd2;stroke:#268bd2"
               id="use403"
               width="100%"
               height="100%" />
          </g>
        </g>
        <g
           id="text_15">
          <!-- samples -->
          <g
             style="fill:#073642"
             transform="matrix(0.1,0,0,-0.1,204.80625,74.476562)"
             id="g429">
            <defs
               id="defs413">
              <path
                 id="DejaVuSans-73"
                 d="m 2834,3397 v -544 q -243,125 -506,187 -262,63 -544,63 -428,0 -642,-131 -214,-131 -214,-394 0,-200 153,-314 153,-114 616,-217 l 197,-44 q 612,-131 870,-370 258,-239 258,-667 0,-488 -386,-773 Q 2250,-91 1575,-91 1294,-91 989,-36 684,19 347,128 v 594 q 319,-166 628,-249 309,-82 613,-82 406,0 624,139 219,139 219,392 0,234 -158,359 -157,125 -692,241 l -200,47 q -534,112 -772,345 -237,233 -237,639 0,494 350,762 350,269 994,269 318,0 599,-47 282,-46 519,-140 z"
                 transform="scale(0.015625)" />
              <path
                 id="DejaVuSans-61"
                 d="m 2194,1759 q -697,0 -966,-159 -269,-159 -269,-544 0,-306 202,-486 202,-179 548,-179 479,0 768,339 289,339 289,901 v 128 z m 1147,238 V 0 H 2766 V 531 Q 2569,213 2275,61 1981,-91 1556,-91 q -537,0 -855,302 -317,302 -317,808 0,590 395,890 396,300 1180,300 h 807 v 57 q 0,397 -261,614 -261,217 -733,217 -300,0 -585,-72 -284,-72 -546,-216 v 532 q 315,122 612,182 297,61 578,61 760,0 1135,-394 375,-393 375,-1193 z"
                 transform="scale(0.015625)" />
              <path
                 id="DejaVuSans-6d"
                 d="m 3328,2828 q 216,388 516,572 300,184 706,184 547,0 844,-383 297,-382 297,-1088 V 0 h -578 v 2094 q 0,503 -179,746 -178,244 -543,244 -447,0 -707,-297 -259,-296 -259,-809 V 0 h -578 v 2094 q 0,506 -178,748 -178,242 -550,242 -441,0 -701,-298 -259,-298 -259,-808 V 0 H 581 v 3500 h 578 v -544 q 197,322 472,475 275,153 653,153 382,0 649,-194 267,-193 395,-562 z"
                 transform="scale(0.015625)" />
              <path
                 id="DejaVuSans-70"
                 d="M 1159,525 V -1331 H 581 v 4831 h 578 v -531 q 182,312 458,463 277,152 661,152 638,0 1036,-506 399,-506 399,-1331 0,-825 -399,-1332 -398,-506 -1036,-506 -384,0 -661,152 -276,152 -458,464 z m 1957,1222 q 0,634 -261,995 -261,361 -717,361 -457,0 -718,-361 -261,-361 -261,-995 0,-634 261,-995 261,-361 718,-361 456,0 717,361 261,361 261,995 z"
                 transform="scale(0.015625)" />
              <path
                 id="DejaVuSans-6c"
                 d="m 603,4863 h 575 V 0 H 603 Z"
                 transform="scale(0.015625)" />
            </defs>
            <use
               xlink:href="#DejaVuSans-73"
               id="use415"
               x="0"
               y="0"
               width="100%"
               height="100%" />
            <use
               xlink:href="#DejaVuSans-61"
               x="52.099609"
               id="use417"
               y="0"
               width="100%"
               height="100%" />
            <use
               xlink:href="#DejaVuSans-6d"
               x="113.37891"
               id="use419"
               y="0"
               width="100%"
               height="100%" />
            <use
               xlink:href="#DejaVuSans-70"
               x="210.79102"
               id="use421"
               y="0"
               width="100%"
               height="100%" />
            <use
               xlink:href="#DejaVuSans-6c"
               x="274.26758"
               id="use423"
               y="0"
               width="100%"
               height="100%" />
            <use
               xlink:href="#DejaVuSans-65"
               x="302.05078"
               id="use425"
               y="0"
               width="100%"
               height="100%" />
            <use
               xlink:href="#DejaVuSans-73"
               x="363.57422"
               id="use427"
               y="0"
               width="100%"
               height="100%" />
          </g>
        </g>
      </g>
    </g>
  </g>
  <defs
     id="defs438">
    <clipPath
       id="pc5b0b627f0">
      <rect
         x="36"
         y="43.200001"
         width="223.2"
         height="277.20001"
         id="rect435" />
    </clipPath>
  </defs>
</svg>
