<?xml version="1.0" encoding="UTF-8" standalone="no"?>
<svg
   width="767.70001pt"
   height="261.06pt"
   viewBox="0 0 767.70001 261.06"
   version="1.1"
   id="svg719"
   sodipodi:docname="perceptron-logic.svg"
   inkscape:version="1.2 (dc2aedaf03, 2022-05-15)"
   xmlns:inkscape="http://www.inkscape.org/namespaces/inkscape"
   xmlns:sodipodi="http://sodipodi.sourceforge.net/DTD/sodipodi-0.dtd"
   xmlns:xlink="http://www.w3.org/1999/xlink"
   xmlns="http://www.w3.org/2000/svg"
   xmlns:svg="http://www.w3.org/2000/svg"
   xmlns:rdf="http://www.w3.org/1999/02/22-rdf-syntax-ns#"
   xmlns:cc="http://creativecommons.org/ns#"
   xmlns:dc="http://purl.org/dc/elements/1.1/">
  <sodipodi:namedview
     id="namedview721"
     pagecolor="#ffffff"
     bordercolor="#666666"
     borderopacity="1.0"
     inkscape:showpageshadow="2"
     inkscape:pageopacity="0.0"
     inkscape:pagecheckerboard="0"
     inkscape:deskcolor="#d1d1d1"
     inkscape:document-units="pt"
     showgrid="false"
     inkscape:zoom="1.7383042"
     inkscape:cx="550.53656"
     inkscape:cy="139.79142"
     inkscape:window-width="3840"
     inkscape:window-height="2346"
     inkscape:window-x="0"
     inkscape:window-y="54"
     inkscape:window-maximized="1"
     inkscape:current-layer="svg719" />
  <metadata
     id="metadata2">
    <rdf:RDF>
      <cc:Work>
        <dc:type
           rdf:resource="http://purl.org/dc/dcmitype/StillImage" />
        <dc:date>2022-05-25T23:25:24.261919</dc:date>
        <dc:format>image/svg+xml</dc:format>
        <dc:creator>
          <cc:Agent>
            <dc:title>Matplotlib v3.5.2, https://matplotlib.org/</dc:title>
          </cc:Agent>
        </dc:creator>
      </cc:Work>
    </rdf:RDF>
  </metadata>
  <defs
     id="defs6">
    <style
       type="text/css"
       id="style4">*{stroke-linejoin: round; stroke-linecap: butt}</style>
  </defs>
  <g
     id="g1691"
     transform="translate(-13.9,-13.04)">
    <g
       id="axes_1">
      <g
         id="patch_2">
        <path
           d="M 14.3,273.7 H 260.4 V 31.2 H 14.3 Z"
           style="fill:#eee8d5"
           id="path11" />
      </g>
      <g
         id="matplotlib.axis_1" />
      <g
         id="matplotlib.axis_2" />
      <g
         id="PathCollection_1">
        <defs
           id="defs17">
          <path
             id="C0_0_a965ec905b"
             d="M 0,3.535534 C 0.937635,3.535534 1.836992,3.163008 2.5,2.5 3.163008,1.836992 3.535534,0.937635 3.535534,0 3.535534,-0.937635 3.163008,-1.836992 2.5,-2.5 1.836992,-3.163008 0.937635,-3.535534 0,-3.535534 c -0.937635,0 -1.836992,0.372526 -2.5,1.035534 -0.663008,0.663008 -1.035534,1.562365 -1.035534,2.5 0,0.937635 0.372526,1.836992 1.035534,2.5 0.663008,0.663008 1.562365,1.035534 2.5,1.035534 z" />
        </defs>
        <g
           clip-path="url(#p3ccb959d55)"
           id="g21">
          <use
             xlink:href="#C0_0_a965ec905b"
             x="228.3"
             y="62.830437"
             style="fill:#fde725;stroke:#002b36"
             id="use19" />
        </g>
        <g
           clip-path="url(#p3ccb959d55)"
           id="g25">
          <use
             xlink:href="#C0_0_a965ec905b"
             x="228.3"
             y="238.55507"
             style="fill:#440154;stroke:#002b36"
             id="use23" />
        </g>
        <g
           clip-path="url(#p3ccb959d55)"
           id="g29">
          <use
             xlink:href="#C0_0_a965ec905b"
             x="49.966667"
             y="62.830437"
             style="fill:#440154;stroke:#002b36"
             id="use27" />
        </g>
        <g
           clip-path="url(#p3ccb959d55)"
           id="g33">
          <use
             xlink:href="#C0_0_a965ec905b"
             x="49.966667"
             y="238.55507"
             style="fill:#440154;stroke:#002b36"
             id="use31" />
        </g>
      </g>
      <g
         id="PathCollection_2" />
      <g
         id="PathCollection_3">
        <path
           d="m 14.3,238.55507 3.566667,3.51449 0.711667,0.70126"
           clip-path="url(#p3ccb959d55)"
           style="fill:none;stroke:#482475;stroke-width:2;stroke-opacity:0.8"
           id="path37" />
        <path
           d="M 45.688333,269.48425 46.4,270.18551 49.966667,273.7"
           clip-path="url(#p3ccb959d55)"
           style="fill:none;stroke:#482475;stroke-width:2;stroke-opacity:0.8"
           id="path39" />
      </g>
      <g
         id="PathCollection_4">
        <path
           d="m 14.3,185.83768 v 0 l 3.566667,3.51449 v 0 l 3.566666,3.5145 v 0 L 25,196.38116 v 0 l 3.566667,3.51449 v 0 l 0.711667,0.70126"
           clip-path="url(#p3ccb959d55)"
           style="fill:none;stroke:#414487;stroke-width:2;stroke-opacity:0.8"
           id="path42" />
        <path
           d="M 56.388333,227.31034 57.1,228.01159 v 0 l 3.566667,3.5145 v 0 l 3.566666,3.51449 v 0 L 67.8,238.55507 v 0 l 3.566667,3.51449 v 0 l 3.566666,3.5145 v 0 L 78.5,249.09855 v 0 l 3.566667,3.51449 v 0 l 3.566666,3.5145 v 0 L 89.2,259.64203 v 0 l 3.566667,3.51449 v 0 l 3.566666,3.51449 v 0 L 99.9,270.18551 v 0 l 3.56667,3.51449 v 0"
           clip-path="url(#p3ccb959d55)"
           style="fill:none;stroke:#414487;stroke-width:2;stroke-opacity:0.8"
           id="path44" />
      </g>
      <g
         id="PathCollection_5">
        <path
           d="m 14.3,133.12029 v 0 l 3.566667,3.51449 v 0 l 3.566666,3.51449 v 0 L 25,143.66377 v 0 l 3.566667,3.51449 v 0 l 0.711667,0.70126"
           clip-path="url(#p3ccb959d55)"
           style="fill:none;stroke:#355f8d;stroke-width:2;stroke-opacity:0.8"
           id="path47" />
        <path
           d="M 56.388333,174.59295 57.1,175.2942 v 0 l 3.566667,3.5145 v 0 l 3.566666,3.51449 v 0 L 67.8,185.83768 v 0 l 3.566667,3.51449 v 0 l 3.566666,3.5145 v 0 L 78.5,196.38116 v 0 l 3.566667,3.51449 v 0 l 3.566666,3.51449 v 0 L 89.2,206.92464 v 0 l 3.566667,3.51449 v 0 l 3.566666,3.51449 v 0 L 99.9,217.46812 v 0 l 3.56667,3.51449 v 0 l 3.56666,3.51449 v 0 l 3.56667,3.51449 v 0 l 3.56667,3.5145 v 0 l 3.56666,3.51449 v 0 l 3.56667,3.51449 v 0 l 3.56667,3.51449 v 0 l 3.56666,3.5145 v 0 L 132,249.09855 v 0 l 3.56667,3.51449 v 0 l 3.56666,3.5145 v 0 l 3.56667,3.51449 v 0 l 3.56667,3.51449 v 0 l 3.56666,3.51449 v 0 l 3.56667,3.5145 v 0 l 3.56667,3.51449 v 0"
           clip-path="url(#p3ccb959d55)"
           style="fill:none;stroke:#355f8d;stroke-width:2;stroke-opacity:0.8"
           id="path49" />
      </g>
      <g
         id="PathCollection_6">
        <path
           d="m 14.3,80.402899 v 0 l 3.566667,3.514492 v 0 l 3.566666,3.514493 v 0 L 25,90.946377 v 0 l 3.566667,3.514493 v 0 l 3.566666,3.514492 v 0 L 35.7,101.48986 v 0 l 3.566667,3.51449 v 0 l 3.566666,3.51449 v 0 L 46.4,112.03333 v 0 l 3.566667,3.5145 v 0 l 3.566666,3.51449 v 0 L 57.1,122.57681 v 0 l 3.566667,3.51449 v 0 l 3.566666,3.5145 v 0 L 67.8,133.12029 v 0 l 3.566667,3.51449 v 0 l 3.566666,3.51449 v 0 L 78.5,143.66377 v 0 l 3.566667,3.51449 v 0 l 3.566666,3.51449 v 0 l 0.711667,0.70126"
           clip-path="url(#p3ccb959d55)"
           style="fill:none;stroke:#2a788e;stroke-width:2;stroke-opacity:0.8"
           id="path52" />
        <path
           d="m 113.455,178.10744 0.71167,0.70126 v 0 l 3.56666,3.51449 v 0 l 3.56667,3.51449 v 0 l 3.56667,3.51449 v 0 l 3.56666,3.5145 v 0 L 132,196.38116 v 0 l 3.56667,3.51449 v 0 l 3.56666,3.51449 v 0 l 3.56667,3.5145 v 0 l 3.56667,3.51449 v 0 l 3.56666,3.51449 v 0 l 3.56667,3.5145 v 0 l 3.56667,3.51449 v 0 l 3.56666,3.51449 v 0 l 3.56667,3.51449 v 0 l 3.56667,3.5145 v 0 l 3.56666,3.51449 v 0 l 3.56667,3.51449 v 0 l 3.56667,3.51449 v 0 l 3.56666,3.5145 v 0 l 3.56667,3.51449 v 0 l 3.56667,3.51449 v 0 l 3.56666,3.5145 v 0 l 3.56667,3.51449 v 0 l 3.56667,3.51449 v 0 l 3.56666,3.51449 v 0 l 3.56667,3.5145 v 0 l 3.56667,3.51449 v 0"
           clip-path="url(#p3ccb959d55)"
           style="fill:none;stroke:#2a788e;stroke-width:2;stroke-opacity:0.8"
           id="path54" />
      </g>
      <g
         id="PathCollection_7">
        <path
           d="m 17.866667,31.2 3.566666,3.514493 v 0 L 25,38.228986 v 0 l 3.566667,3.514492 v 0 l 3.566666,3.514493 v 0 L 35.7,48.772464 v 0 l 3.566667,3.514493 v 0 l 3.566666,3.514492 v 0 L 46.4,59.315942 v 0 l 3.566667,3.514493 v 0 l 3.566666,3.514493 v 0 L 57.1,69.85942 v 0 l 3.566667,3.514493 v 0 l 3.566666,3.514493 v 0 L 67.8,80.402899 v 0 l 3.566667,3.514492 v 0 l 3.566666,3.514493 v 0 L 78.5,90.946377 v 0 l 3.566667,3.514493 v 0 l 3.566666,3.514492 v 0 L 89.2,101.48986 v 0 l 3.566667,3.51449 v 0 l 3.566666,3.51449 v 0 L 99.9,112.03333 v 0 l 3.56667,3.5145 v 0 l 3.56666,3.51449 v 0 l 3.56667,3.51449 v 0 l 3.56667,3.51449 v 0 l 3.56666,3.5145 v 0 l 3.56667,3.51449 v 0 l 3.56667,3.51449 v 0 l 3.56666,3.51449 v 0 L 132,143.66377 v 0 l 3.56667,3.51449 v 0 l 3.56666,3.51449 v 0 l 3.56667,3.5145 v 0 l 3.56667,3.51449 v 0 l 0.74675,0.73583"
           clip-path="url(#p3ccb959d55)"
           style="fill:none;stroke:#21918c;stroke-width:2;stroke-opacity:0.8"
           id="path57" />
        <path
           d="m 166.91991,178.07286 0.74676,0.73584 v 0 l 3.56666,3.51449 v 0 l 3.56667,3.51449 v 0 l 3.56667,3.51449 v 0 l 3.56666,3.5145 v 0 l 3.56667,3.51449 v 0 l 3.56667,3.51449 v 0 l 3.56666,3.51449 v 0 l 3.56667,3.5145 v 0 l 3.56667,3.51449 v 0 l 3.56666,3.51449 v 0 l 3.56667,3.5145 v 0 l 3.56667,3.51449 v 0 l 3.56666,3.51449 v 0 l 3.56667,3.51449 v 0 l 3.56667,3.5145 v 0 l 3.56666,3.51449 v 0 l 3.56667,3.51449 v 0 l 3.56667,3.51449 v 0 l 3.56666,3.5145 v 0 L 239,249.09855 v 0 l 3.56667,3.51449 v 0 l 3.56666,3.5145 v 0 l 3.56667,3.51449 v 0 l 3.56667,3.51449 v 0 l 3.56666,3.51449 v 0 l 3.56667,3.5145"
           clip-path="url(#p3ccb959d55)"
           style="fill:none;stroke:#21918c;stroke-width:2;stroke-opacity:0.8"
           id="path59" />
      </g>
      <g
         id="PathCollection_8">
        <path
           d="m 71.366667,31.2 3.566666,3.514493 v 0 L 78.5,38.228986 v 0 l 3.566667,3.514492 v 0 l 0.746757,0.735834"
           clip-path="url(#p3ccb959d55)"
           style="fill:none;stroke:#22a884;stroke-width:2;stroke-opacity:0.8"
           id="path62" />
        <path
           d="m 102.71991,62.094601 0.74676,0.735834 v 0 l 3.56666,3.514493 v 0 L 110.6,69.85942 v 0 l 3.56667,3.514493 v 0 l 3.56666,3.514493 v 0 L 121.3,80.402899 v 0 l 3.56667,3.514492 v 0 l 3.56666,3.514493 v 0 L 132,90.946377 v 0 l 3.56667,3.514493 v 0 l 3.56666,3.514492 v 0 L 142.7,101.48986 v 0 l 3.56667,3.51449 v 0 l 3.56666,3.51449 v 0 l 3.56667,3.51449 v 0 l 3.56667,3.5145 v 0 l 3.56666,3.51449 v 0 l 3.56667,3.51449 v 0 l 3.56667,3.51449 v 0 l 3.56666,3.5145 v 0 l 3.56667,3.51449 v 0 l 3.56667,3.51449 v 0 l 3.56666,3.51449 v 0 l 3.56667,3.5145 v 0 l 3.56667,3.51449 v 0 l 3.56666,3.51449 v 0 l 3.56667,3.5145 v 0 l 3.56667,3.51449 v 0 l 3.56666,3.51449 v 0 l 3.56667,3.51449 v 0 l 3.56667,3.5145 v 0 l 3.56666,3.51449 v 0 L 217.6,175.2942 v 0 l 3.56667,3.5145 v 0 l 3.56666,3.51449 v 0 l 3.56667,3.51449 v 0 l 3.56667,3.51449 v 0 l 3.56666,3.5145 v 0 L 239,196.38116 v 0 l 3.56667,3.51449 v 0 l 3.56666,3.51449 v 0 l 3.56667,3.5145 v 0 l 3.56667,3.51449 v 0 l 3.56666,3.51449 v 0 l 3.56667,3.5145"
           clip-path="url(#p3ccb959d55)"
           style="fill:none;stroke:#22a884;stroke-width:2;stroke-opacity:0.8"
           id="path64" />
      </g>
      <g
         id="PathCollection_9">
        <path
           d="m 124.86667,31.2 3.56666,3.514493 v 0 L 132,38.228986 v 0 l 3.56667,3.514492 v 0 l 0.74675,0.735834"
           clip-path="url(#p3ccb959d55)"
           style="fill:none;stroke:#44bf70;stroke-width:2;stroke-opacity:0.8"
           id="path67" />
        <path
           d="m 156.21991,62.094601 0.74676,0.735834 v 0 l 3.56666,3.514493 v 0 L 164.1,69.85942 v 0 l 3.56667,3.514493 v 0 l 3.56666,3.514493 v 0 L 174.8,80.402899 v 0 l 3.56667,3.514492 v 0 l 3.56666,3.514493 v 0 L 185.5,90.946377 v 0 l 3.56667,3.514493 v 0 l 3.56666,3.514492 v 0 L 196.2,101.48986 v 0 l 3.56667,3.51449 v 0 l 3.56666,3.51449 v 0 l 3.56667,3.51449 v 0 l 3.56667,3.5145 v 0 l 3.56666,3.51449 v 0 l 3.56667,3.51449 v 0 l 3.56667,3.51449 v 0 l 3.56666,3.5145 v 0 l 3.56667,3.51449 v 0 l 3.56667,3.51449 v 0 l 3.56666,3.51449 v 0 L 239,143.66377 v 0 l 3.56667,3.51449 v 0 l 3.56666,3.51449 v 0 l 3.56667,3.5145 v 0 l 3.56667,3.51449 v 0 l 3.56666,3.51449 v 0 l 3.56667,3.51449"
           clip-path="url(#p3ccb959d55)"
           style="fill:none;stroke:#44bf70;stroke-width:2;stroke-opacity:0.8"
           id="path69" />
      </g>
      <g
         id="PathCollection_10">
        <path
           d="m 178.36667,31.2 3.56666,3.514493 v 0 L 185.5,38.228986 v 0 l 3.56667,3.514492 v 0 l 0.74675,0.735834"
           clip-path="url(#p3ccb959d55)"
           style="fill:none;stroke:#7ad151;stroke-width:2;stroke-opacity:0.8"
           id="path72" />
        <path
           d="m 209.71991,62.094601 0.74676,0.735834 v 0 l 3.56666,3.514493 v 0 L 217.6,69.85942 v 0 l 3.56667,3.514493 v 0 l 3.56666,3.514493 v 0 L 228.3,80.402899 v 0 l 3.56667,3.514492 v 0 l 3.56666,3.514493 v 0 L 239,90.946377 v 0 l 3.56667,3.514493 v 0 l 3.56666,3.514492 v 0 L 249.7,101.48986 v 0 l 3.56667,3.51449 v 0 l 3.56666,3.51449 v 0 l 3.56667,3.51449"
           clip-path="url(#p3ccb959d55)"
           style="fill:none;stroke:#7ad151;stroke-width:2;stroke-opacity:0.8"
           id="path74" />
      </g>
      <g
         id="PathCollection_11">
        <path
           d="m 231.86667,31.2 3.56666,3.514493 v 0 l 0.74676,0.735833"
           clip-path="url(#p3ccb959d55)"
           style="fill:none;stroke:#bddf26;stroke-width:2;stroke-opacity:0.8"
           id="path77" />
        <path
           d="m 256.08658,55.065616 0.74675,0.735833 v 0 L 260.4,59.315942"
           clip-path="url(#p3ccb959d55)"
           style="fill:none;stroke:#bddf26;stroke-width:2;stroke-opacity:0.8"
           id="path79" />
      </g>
      <g
         id="PathCollection_12" />
      <g
         id="patch_3">
        <path
           d="M 14.3,273.7 V 31.2"
           style="fill:none;stroke:#eee8d5;stroke-width:0.8;stroke-linecap:square;stroke-linejoin:miter"
           id="path83" />
      </g>
      <g
         id="patch_4">
        <path
           d="M 260.4,273.7 V 31.2"
           style="fill:none;stroke:#eee8d5;stroke-width:0.8;stroke-linecap:square;stroke-linejoin:miter"
           id="path86" />
      </g>
      <g
         id="patch_5">
        <path
           d="M 14.3,273.7 H 260.4"
           style="fill:none;stroke:#eee8d5;stroke-width:0.8;stroke-linecap:square;stroke-linejoin:miter"
           id="path89" />
      </g>
      <g
         id="patch_6">
        <path
           d="M 14.3,31.2 H 260.4"
           style="fill:none;stroke:#eee8d5;stroke-width:0.8;stroke-linecap:square;stroke-linejoin:miter"
           id="path92" />
      </g>
      <g
         id="text_1">
        <!-- and: $2 \cdot x_1 + 2 \cdot x_2 -2$ -->
        <g
           transform="matrix(0.16,0,0,-0.16,53.75,25.2)"
           id="g140">
          <defs
             id="defs106">
            <path
               id="DejaVuSans-61"
               d="m 2194,1759 q -697,0 -966,-159 -269,-159 -269,-544 0,-306 202,-486 202,-179 548,-179 479,0 768,339 289,339 289,901 v 128 z m 1147,238 V 0 H 2766 V 531 Q 2569,213 2275,61 1981,-91 1556,-91 q -537,0 -855,302 -317,302 -317,808 0,590 395,890 396,300 1180,300 h 807 v 57 q 0,397 -261,614 -261,217 -733,217 -300,0 -585,-72 -284,-72 -546,-216 v 532 q 315,122 612,182 297,61 578,61 760,0 1135,-394 375,-393 375,-1193 z"
               transform="scale(0.015625)" />
            <path
               id="DejaVuSans-6e"
               d="M 3513,2113 V 0 h -575 v 2094 q 0,497 -194,743 -194,247 -581,247 -466,0 -735,-297 -269,-296 -269,-809 V 0 H 581 v 3500 h 578 v -544 q 207,316 486,472 280,156 646,156 603,0 912,-373 310,-373 310,-1098 z"
               transform="scale(0.015625)" />
            <path
               id="DejaVuSans-64"
               d="m 2906,2969 v 1894 h 575 V 0 H 2906 V 525 Q 2725,213 2448,61 2172,-91 1784,-91 1150,-91 751,415 353,922 353,1747 q 0,825 398,1331 399,506 1033,506 388,0 664,-152 277,-151 458,-463 z M 947,1747 q 0,-634 261,-995 261,-361 717,-361 456,0 718,361 263,361 263,995 0,634 -263,995 -262,361 -718,361 -456,0 -717,-361 -261,-361 -261,-995 z"
               transform="scale(0.015625)" />
            <path
               id="DejaVuSans-3a"
               d="m 750,794 h 659 V 0 H 750 Z m 0,2515 h 659 V 2516 H 750 Z"
               transform="scale(0.015625)" />
            <path
               id="DejaVuSans-20"
               transform="scale(0.015625)"
               d="" />
            <path
               id="DejaVuSans-32"
               d="M 1228,531 H 3431 V 0 H 469 v 531 q 359,372 979,998 621,627 780,809 303,340 423,576 121,236 121,464 0,372 -261,606 -261,235 -680,235 -297,0 -627,-103 -329,-103 -704,-313 v 638 q 381,153 712,231 332,78 607,78 725,0 1156,-363 431,-362 431,-968 0,-288 -108,-546 -107,-257 -392,-607 -78,-91 -497,-524 Q 1991,1309 1228,531 Z"
               transform="scale(0.015625)" />
            <path
               id="DejaVuSans-22c5"
               d="m 684,2619 h 660 V 1825 H 684 Z"
               transform="scale(0.015625)" />
            <path
               id="DejaVuSans-Oblique-78"
               d="M 3841,3500 2234,1784 3219,0 H 2559 L 1819,1388 531,0 H -166 L 1556,1844 641,3500 h 659 l 672,-1266 1172,1266 z"
               transform="scale(0.015625)" />
            <path
               id="DejaVuSans-31"
               d="M 794,531 H 1825 V 4091 L 703,3866 v 575 l 1116,225 h 631 V 531 H 3481 V 0 H 794 Z"
               transform="scale(0.015625)" />
            <path
               id="DejaVuSans-2b"
               d="M 2944,4013 V 2272 H 4684 V 1741 H 2944 V 0 H 2419 V 1741 H 678 v 531 h 1741 v 1741 z"
               transform="scale(0.015625)" />
            <path
               id="DejaVuSans-2212"
               d="M 678,2272 H 4684 V 1741 H 678 Z"
               transform="scale(0.015625)" />
          </defs>
          <use
             xlink:href="#DejaVuSans-61"
             transform="translate(0,0.015625)"
             id="use108" />
          <use
             xlink:href="#DejaVuSans-6e"
             transform="translate(61.279297,0.015625)"
             id="use110" />
          <use
             xlink:href="#DejaVuSans-64"
             transform="translate(124.6582,0.015625)"
             id="use112" />
          <use
             xlink:href="#DejaVuSans-3a"
             transform="translate(188.13477,0.015625)"
             id="use114" />
          <use
             xlink:href="#DejaVuSans-20"
             transform="translate(221.82617,0.015625)"
             id="use116" />
          <use
             xlink:href="#DejaVuSans-32"
             transform="translate(253.61328,0.015625)"
             id="use118" />
          <use
             xlink:href="#DejaVuSans-22c5"
             transform="translate(336.71875,0.015625)"
             id="use120" />
          <use
             xlink:href="#DejaVuSans-Oblique-78"
             transform="translate(387.98828,0.015625)"
             id="use122" />
          <use
             xlink:href="#DejaVuSans-31"
             transform="matrix(0.7,0,0,0.7,447.16797,-16.390625)"
             id="use124" />
          <use
             xlink:href="#DejaVuSans-2b"
             transform="translate(513.9209,0.015625)"
             id="use126" />
          <use
             xlink:href="#DejaVuSans-32"
             transform="translate(617.19238,0.015625)"
             id="use128" />
          <use
             xlink:href="#DejaVuSans-22c5"
             transform="translate(700.29785,0.015625)"
             id="use130" />
          <use
             xlink:href="#DejaVuSans-Oblique-78"
             transform="translate(751.56738,0.015625)"
             id="use132" />
          <use
             xlink:href="#DejaVuSans-32"
             transform="matrix(0.7,0,0,0.7,810.74707,-16.390625)"
             id="use134" />
          <use
             xlink:href="#DejaVuSans-2212"
             transform="translate(877.5,0.015625)"
             id="use136" />
          <use
             xlink:href="#DejaVuSans-32"
             transform="translate(980.77148,0.015625)"
             id="use138" />
        </g>
      </g>
      <g
         id="text_2">
        <g
           clip-path="url(#p3ccb959d55)"
           id="g157">
          <!-- −2.4 -->
          <g
             style="opacity:0.8;fill:#482475"
             transform="matrix(0.06313284,0.07755156,0.07755156,-0.06313284,22.328181,248.45376)"
             id="g155">
            <defs
               id="defs145">
              <path
                 id="DejaVuSans-2e"
                 d="m 684,794 h 660 V 0 H 684 Z"
                 transform="scale(0.015625)" />
              <path
                 id="DejaVuSans-34"
                 d="M 2419,4116 825,1625 h 1594 z m -166,550 h 794 V 1625 h 666 V 1100 H 3047 V 0 H 2419 V 1100 H 313 v 609 z"
                 transform="scale(0.015625)" />
            </defs>
            <use
               xlink:href="#DejaVuSans-2212"
               id="use147" />
            <use
               xlink:href="#DejaVuSans-32"
               x="83.789062"
               id="use149" />
            <use
               xlink:href="#DejaVuSans-2e"
               x="147.41211"
               id="use151" />
            <use
               xlink:href="#DejaVuSans-34"
               x="179.19922"
               id="use153" />
          </g>
        </g>
      </g>
      <g
         id="text_3">
        <g
           clip-path="url(#p3ccb959d55)"
           id="g173">
          <!-- −1.8 -->
          <g
             style="opacity:0.8;fill:#414487"
             transform="matrix(0.06313284,0.07755156,0.07755156,-0.06313284,33.028181,206.27984)"
             id="g171">
            <defs
               id="defs161">
              <path
                 id="DejaVuSans-38"
                 d="m 2034,2216 q -450,0 -708,-241 -257,-241 -257,-662 0,-422 257,-663 258,-241 708,-241 450,0 709,242 260,243 260,662 0,421 -258,662 -257,241 -711,241 z m -631,268 q -406,100 -633,378 -226,279 -226,679 0,559 398,884 399,325 1092,325 697,0 1094,-325 397,-325 397,-884 0,-400 -227,-679 -226,-278 -629,-378 456,-106 710,-416 255,-309 255,-755 Q 3634,634 3220,271 2806,-91 2034,-91 1263,-91 848,271 434,634 434,1313 q 0,446 256,755 257,310 713,416 z m -231,997 q 0,-362 226,-565 227,-203 636,-203 407,0 636,203 230,203 230,565 0,363 -230,566 -229,203 -636,203 -409,0 -636,-203 -226,-203 -226,-566 z"
                 transform="scale(0.015625)" />
            </defs>
            <use
               xlink:href="#DejaVuSans-2212"
               id="use163" />
            <use
               xlink:href="#DejaVuSans-31"
               x="83.789062"
               id="use165" />
            <use
               xlink:href="#DejaVuSans-2e"
               x="147.41211"
               id="use167" />
            <use
               xlink:href="#DejaVuSans-38"
               x="179.19922"
               id="use169" />
          </g>
        </g>
      </g>
      <g
         id="text_4">
        <g
           clip-path="url(#p3ccb959d55)"
           id="g186">
          <!-- −1.2 -->
          <g
             style="opacity:0.8;fill:#355f8d"
             transform="matrix(0.06313284,0.07755156,0.07755156,-0.06313284,33.028181,153.56245)"
             id="g184">
            <use
               xlink:href="#DejaVuSans-2212"
               id="use176" />
            <use
               xlink:href="#DejaVuSans-31"
               x="83.789062"
               id="use178" />
            <use
               xlink:href="#DejaVuSans-2e"
               x="147.41211"
               id="use180" />
            <use
               xlink:href="#DejaVuSans-32"
               x="179.19922"
               id="use182" />
          </g>
        </g>
      </g>
      <g
         id="text_5">
        <g
           clip-path="url(#p3ccb959d55)"
           id="g203">
          <!-- −0.6 -->
          <g
             style="opacity:0.8;fill:#2a788e"
             transform="matrix(0.06313284,0.07755156,0.07755156,-0.06313284,90.094847,157.07695)"
             id="g201">
            <defs
               id="defs191">
              <path
                 id="DejaVuSans-30"
                 d="m 2034,4250 q -487,0 -733,-480 -245,-479 -245,-1442 0,-959 245,-1439 246,-480 733,-480 491,0 736,480 246,480 246,1439 0,963 -246,1442 -245,480 -736,480 z m 0,500 q 785,0 1199,-621 414,-620 414,-1801 0,-1178 -414,-1799 -414,-620 -1199,-620 -784,0 -1198,620 -414,621 -414,1799 0,1181 414,1801 414,621 1198,621 z"
                 transform="scale(0.015625)" />
              <path
                 id="DejaVuSans-36"
                 d="m 2113,2584 q -425,0 -674,-291 -248,-290 -248,-796 0,-503 248,-796 249,-292 674,-292 425,0 673,292 248,293 248,796 0,506 -248,796 -248,291 -673,291 z m 1253,1979 v -575 q -238,112 -480,171 -242,60 -480,60 -625,0 -955,-422 -329,-422 -376,-1275 184,272 462,417 279,145 613,145 703,0 1111,-427 408,-426 408,-1160 0,-719 -425,-1154 -425,-434 -1131,-434 -810,0 -1238,620 -428,621 -428,1799 0,1106 525,1764 525,658 1409,658 238,0 480,-47 242,-47 505,-140 z"
                 transform="scale(0.015625)" />
            </defs>
            <use
               xlink:href="#DejaVuSans-2212"
               id="use193" />
            <use
               xlink:href="#DejaVuSans-30"
               x="83.789062"
               id="use195" />
            <use
               xlink:href="#DejaVuSans-2e"
               x="147.41211"
               id="use197" />
            <use
               xlink:href="#DejaVuSans-36"
               x="179.19922"
               id="use199" />
          </g>
        </g>
      </g>
      <g
         id="text_6">
        <g
           clip-path="url(#p3ccb959d55)"
           id="g214">
          <!-- 0.0 -->
          <g
             style="opacity:0.8;fill:#21918c"
             transform="matrix(0.06313284,0.07755156,0.07755156,-0.06313284,149.80668,163.84073)"
             id="g212">
            <use
               xlink:href="#DejaVuSans-30"
               id="use206" />
            <use
               xlink:href="#DejaVuSans-2e"
               x="63.623047"
               id="use208" />
            <use
               xlink:href="#DejaVuSans-30"
               x="95.410156"
               id="use210" />
          </g>
        </g>
      </g>
      <g
         id="text_7">
        <g
           clip-path="url(#p3ccb959d55)"
           id="g225">
          <!-- 0.6 -->
          <g
             style="opacity:0.8;fill:#22a884"
             transform="matrix(0.06313284,0.07755156,0.07755156,-0.06313284,85.606681,47.862467)"
             id="g223">
            <use
               xlink:href="#DejaVuSans-30"
               id="use217" />
            <use
               xlink:href="#DejaVuSans-2e"
               x="63.623047"
               id="use219" />
            <use
               xlink:href="#DejaVuSans-36"
               x="95.410156"
               id="use221" />
          </g>
        </g>
      </g>
      <g
         id="text_8">
        <g
           clip-path="url(#p3ccb959d55)"
           id="g236">
          <!-- 1.2 -->
          <g
             style="opacity:0.8;fill:#44bf70"
             transform="matrix(0.06313284,0.07755156,0.07755156,-0.06313284,139.10668,47.862467)"
             id="g234">
            <use
               xlink:href="#DejaVuSans-31"
               id="use228" />
            <use
               xlink:href="#DejaVuSans-2e"
               x="63.623047"
               id="use230" />
            <use
               xlink:href="#DejaVuSans-32"
               x="95.410156"
               id="use232" />
          </g>
        </g>
      </g>
      <g
         id="text_9">
        <g
           clip-path="url(#p3ccb959d55)"
           id="g247">
          <!-- 1.8 -->
          <g
             style="opacity:0.8;fill:#7ad151"
             transform="matrix(0.06313284,0.07755156,0.07755156,-0.06313284,192.60668,47.862467)"
             id="g245">
            <use
               xlink:href="#DejaVuSans-31"
               id="use239" />
            <use
               xlink:href="#DejaVuSans-2e"
               x="63.623047"
               id="use241" />
            <use
               xlink:href="#DejaVuSans-38"
               x="95.410156"
               id="use243" />
          </g>
        </g>
      </g>
      <g
         id="text_10">
        <g
           clip-path="url(#p3ccb959d55)"
           id="g258">
          <!-- 2.4 -->
          <g
             style="opacity:0.8;fill:#bddf26"
             transform="matrix(0.06313284,0.07755156,0.07755156,-0.06313284,238.97335,40.833482)"
             id="g256">
            <use
               xlink:href="#DejaVuSans-32"
               id="use250" />
            <use
               xlink:href="#DejaVuSans-2e"
               x="63.623047"
               id="use252" />
            <use
               xlink:href="#DejaVuSans-34"
               x="95.410156"
               id="use254" />
          </g>
        </g>
      </g>
    </g>
    <g
       id="axes_2">
      <g
         id="patch_7">
        <path
           d="M 274.7,273.7 H 520.8 V 31.2 H 274.7 Z"
           style="fill:#eee8d5"
           id="path262" />
      </g>
      <g
         id="matplotlib.axis_3" />
      <g
         id="matplotlib.axis_4" />
      <g
         id="PathCollection_13">
        <defs
           id="defs268">
          <path
             id="C1_0_40e438a82c"
             d="M 0,3.535534 C 0.937635,3.535534 1.836992,3.163008 2.5,2.5 3.163008,1.836992 3.535534,0.937635 3.535534,0 3.535534,-0.937635 3.163008,-1.836992 2.5,-2.5 1.836992,-3.163008 0.937635,-3.535534 0,-3.535534 c -0.937635,0 -1.836992,0.372526 -2.5,1.035534 -0.663008,0.663008 -1.035534,1.562365 -1.035534,2.5 0,0.937635 0.372526,1.836992 1.035534,2.5 0.663008,0.663008 1.562365,1.035534 2.5,1.035534 z" />
        </defs>
        <g
           clip-path="url(#pd42963e644)"
           id="g272">
          <use
             xlink:href="#C1_0_40e438a82c"
             x="488.70001"
             y="62.830437"
             style="fill:#fde725;stroke:#002b36"
             id="use270" />
        </g>
        <g
           clip-path="url(#pd42963e644)"
           id="g276">
          <use
             xlink:href="#C1_0_40e438a82c"
             x="488.70001"
             y="238.55507"
             style="fill:#fde725;stroke:#002b36"
             id="use274" />
        </g>
        <g
           clip-path="url(#pd42963e644)"
           id="g280">
          <use
             xlink:href="#C1_0_40e438a82c"
             x="310.36667"
             y="62.830437"
             style="fill:#fde725;stroke:#002b36"
             id="use278" />
        </g>
        <g
           clip-path="url(#pd42963e644)"
           id="g284">
          <use
             xlink:href="#C1_0_40e438a82c"
             x="310.36667"
             y="238.55507"
             style="fill:#440154;stroke:#002b36"
             id="use282" />
        </g>
      </g>
      <g
         id="PathCollection_14" />
      <g
         id="PathCollection_15">
        <path
           d="m 274.7,220.98261 v 0 l 3.56667,3.51449 v 0 l 3.56666,3.51449 3.56667,3.5145 v 0 l 3.56667,3.51449 v 0 l 0.71166,0.70126"
           clip-path="url(#pd42963e644)"
           style="fill:none;stroke:#482475;stroke-width:2;stroke-opacity:0.8"
           id="path288" />
        <path
           d="m 316.78833,262.45526 0.71167,0.70126 v 0 l 3.56667,3.51449 3.56666,3.5145 v 0 L 328.2,273.7 v 0"
           clip-path="url(#pd42963e644)"
           style="fill:none;stroke:#482475;stroke-width:2;stroke-opacity:0.8"
           id="path290" />
      </g>
      <g
         id="PathCollection_16">
        <path
           d="m 274.7,168.26522 v 0 l 3.56667,3.51449 v 0 l 3.56666,3.51449 v 0 l 3.56667,3.5145 v 0 l 3.56667,3.51449 v 0 l 0.71166,0.70125"
           clip-path="url(#pd42963e644)"
           style="fill:none;stroke:#414487;stroke-width:2;stroke-opacity:0.8"
           id="path293" />
        <path
           d="m 316.78833,209.73787 0.71167,0.70126 v 0 l 3.56667,3.51449 v 0 l 3.56666,3.5145 v 0 l 3.56667,3.51449 v 0 l 3.56667,3.51449 v 0 l 3.56666,3.51449 v 0 l 3.56667,3.5145 v 0 l 3.56667,3.51449 v 0 l 3.56666,3.51449 v 0 l 3.56667,3.51449 v 0 l 3.56667,3.5145 v 0 l 3.56666,3.51449 v 0 l 3.56667,3.51449 v 0 l 3.56667,3.5145 v 0 l 3.56666,3.51449 v 0 L 371,263.15652 v 0 l 3.56667,3.51449 v 0 l 3.56666,3.5145 v 0 L 381.7,273.7 v 0"
           clip-path="url(#pd42963e644)"
           style="fill:none;stroke:#414487;stroke-width:2;stroke-opacity:0.8"
           id="path295" />
      </g>
      <g
         id="PathCollection_17">
        <path
           d="m 274.7,115.54783 v 0 l 0.74676,0.73583"
           clip-path="url(#pd42963e644)"
           style="fill:none;stroke:#355f8d;stroke-width:2;stroke-opacity:0.8"
           id="path298" />
        <path
           d="m 295.35324,135.89895 0.74676,0.73583 v 0 l 3.56667,3.51449 v 0 l 3.56666,3.5145 v 0 l 3.56667,3.51449 v 0 l 3.56667,3.51449 v 0 l 3.56666,3.5145 v 0 l 3.56667,3.51449 v 0 l 3.56667,3.51449 v 0 l 3.56666,3.51449 v 0 l 3.56667,3.5145 v 0 l 3.56667,3.51449 v 0 l 3.56666,3.51449 v 0 l 3.56667,3.5145 v 0 l 3.56667,3.51449 v 0 l 3.56666,3.51449 v 0 l 3.56667,3.51449 v 0 l 3.56667,3.5145 v 0 l 3.56666,3.51449 v 0 l 3.56667,3.51449 v 0 l 3.56667,3.51449 v 0 l 3.56666,3.5145 v 0 L 371,210.43913 v 0 l 3.56667,3.51449 v 0 l 3.56666,3.5145 v 0 l 3.56667,3.51449 v 0 l 3.56667,3.51449 v 0 l 3.56666,3.51449 v 0 l 3.56667,3.5145 v 0 l 3.56667,3.51449 v 0 l 3.56666,3.51449 v 0 l 3.56667,3.51449 v 0 l 3.56667,3.5145 v 0 l 3.56666,3.51449 v 0 l 3.56667,3.51449 v 0 l 3.56667,3.5145 v 0 l 3.56666,3.51449 v 0 l 3.56667,3.51449 v 0 l 3.56667,3.51449 v 0 l 3.56666,3.5145 v 0 L 435.2,273.7 v 0"
           clip-path="url(#pd42963e644)"
           style="fill:none;stroke:#355f8d;stroke-width:2;stroke-opacity:0.8"
           id="path300" />
      </g>
      <g
         id="PathCollection_18">
        <path
           d="m 274.7,62.830435 v 0 l 3.56667,3.514493 v 0 l 3.56666,3.514492 v 0 L 285.4,73.373913 v 0 l 3.56667,3.514493 v 0 l 3.56666,3.514493 v 0 L 296.1,83.917391 v 0 l 3.56667,3.514493 v 0 l 3.56666,3.514493 v 0 L 306.8,94.46087 v 0 l 3.56667,3.514492 v 0 l 3.56666,3.514498 v 0 l 3.56667,3.51449 v 0 l 3.56667,3.51449 v 0 l 3.56666,3.51449 v 0 l 3.56667,3.5145 v 0 l 3.56667,3.51449 v 0 l 3.56666,3.51449 v 0 L 338.9,126.0913 v 0 l 3.56667,3.5145 v 0 l 3.56666,3.51449 v 0 l 3.56667,3.51449 v 0 l 3.56667,3.51449 v 0 l 3.56666,3.5145 v 0 l 3.56667,3.51449 v 0 l 0.74676,0.73583"
           clip-path="url(#pd42963e644)"
           style="fill:none;stroke:#2a788e;stroke-width:2;stroke-opacity:0.8"
           id="path303" />
        <path
           d="m 380.95324,167.52938 0.74676,0.73584 v 0 l 3.56667,3.51449 v 0 l 3.56666,3.51449 v 0 l 3.56667,3.5145 v 0 l 3.56667,3.51449 v 0 l 3.56666,3.51449 v 0 l 3.56667,3.51449 v 0 l 3.56667,3.5145 v 0 l 3.56666,3.51449 v 0 l 3.56667,3.51449 v 0 l 3.56667,3.51449 v 0 l 3.56666,3.5145 v 0 l 3.56667,3.51449 v 0 l 3.56667,3.51449 v 0 l 3.56666,3.5145 v 0 l 3.56667,3.51449 v 0 l 3.56667,3.51449 v 0 l 3.56666,3.51449 v 0 l 3.56667,3.5145 v 0 l 3.56667,3.51449 v 0 l 3.56666,3.51449 v 0 l 3.56667,3.51449 v 0 l 3.56667,3.5145 v 0 l 3.56666,3.51449 v 0 l 3.56667,3.51449 v 0 l 3.56667,3.5145 v 0 l 3.56666,3.51449 v 0 L 478,263.15652 v 0 l 3.56667,3.51449 v 0 l 3.56666,3.5145 v 0 L 488.7,273.7 v 0"
           clip-path="url(#pd42963e644)"
           style="fill:none;stroke:#2a788e;stroke-width:2;stroke-opacity:0.8"
           id="path305" />
      </g>
      <g
         id="PathCollection_19">
        <path
           d="m 296.1,31.2 3.56667,3.514493 v 0 l 3.56666,3.514493 v 0 L 306.8,41.743478 v 0 l 3.56667,3.514493 v 0 l 3.56666,3.514493 v 0 L 317.5,52.286957 v 0 l 3.56667,3.514492 v 0 l 3.56666,3.514493 v 0 L 328.2,62.830435 v 0 l 3.56667,3.514493 v 0 l 3.56666,3.514492 v 0 L 338.9,73.373913 v 0 l 3.56667,3.514493 v 0 l 3.56666,3.514493 v 0 L 349.6,83.917391 v 0 l 3.56667,3.514493 v 0 l 3.56666,3.514493 v 0 L 360.3,94.46087 v 0 l 3.56667,3.514492 v 0 l 3.56666,3.514498 v 0 L 371,105.00435 v 0 l 3.56667,3.51449 v 0 l 3.56666,3.51449 v 0 l 3.56667,3.5145 v 0 l 3.56667,3.51449 v 0 l 3.56666,3.51449 v 0 L 392.4,126.0913 v 0 l 3.56667,3.5145 v 0 l 3.56666,3.51449 v 0 l 3.56667,3.51449 v 0 l 3.56667,3.51449 v 0 l 3.56666,3.5145 v 0 l 3.56667,3.51449 v 0 l 3.56667,3.51449 v 0 l 3.56666,3.5145 v 0 l 3.56667,3.51449 v 0 l 3.56667,3.51449 v 0 l 3.56666,3.51449 v 0 l 3.56667,3.5145 v 0 l 3.56667,3.51449 v 0 l 3.56666,3.51449 v 0 l 3.56667,3.5145 v 0 l 3.56667,3.51449 v 0 l 3.56666,3.51449 v 0 l 3.56667,3.51449 v 0 l 3.56667,3.5145 v 0 l 3.56666,3.51449 v 0 l 3.56667,3.51449 v 0 l 3.56667,3.51449 v 0 l 3.56666,3.5145 v 0 L 478,210.43913 v 0 l 3.56667,3.51449 v 0 l 3.56666,3.5145 v 0 l 3.56667,3.51449 v 0 l 3.56667,3.51449 v 0 l 3.56666,3.51449 v 0 l 3.56667,3.5145 v 0 l 3.56667,3.51449 v 0 l 0.74675,0.73583"
           clip-path="url(#pd42963e644)"
           style="fill:none;stroke:#21908d;stroke-width:2;stroke-opacity:0.8"
           id="path308" />
      </g>
      <g
         id="PathCollection_20">
        <path
           d="m 349.6,31.2 3.56667,3.514493 v 0 l 3.56666,3.514493 v 0 L 360.3,41.743478 v 0 l 3.56667,3.514493 v 0 l 3.56666,3.514493 v 0 L 371,52.286957 v 0 l 3.56667,3.514492 v 0 l 3.56666,3.514493 v 0 L 381.7,62.830435 v 0 l 3.56667,3.514493 v 0 l 3.56666,3.514492 v 0 L 392.4,73.373913 v 0 l 3.56667,3.514493 v 0 l 3.56666,3.514493 v 0 L 403.1,83.917391 v 0 l 3.56667,3.514493 v 0 l 3.56666,3.514493 v 0 L 413.8,94.46087 v 0 l 3.56667,3.514492 v 0 l 3.56666,3.514498 v 0 l 3.56667,3.51449 v 0 l 3.56667,3.51449 v 0 l 3.56666,3.51449 v 0 l 3.56667,3.5145 v 0 l 3.56667,3.51449 v 0 l 3.56666,3.51449 v 0 L 445.9,126.0913 v 0 l 3.56667,3.5145 v 0 l 3.56666,3.51449 v 0 l 3.56667,3.51449 v 0 l 3.56667,3.51449 v 0 l 3.56666,3.5145 v 0 l 3.56667,3.51449 v 0 l 3.56667,3.51449 v 0 l 3.56666,3.5145 v 0 L 478,157.72174 v 0 l 0.74676,0.73583"
           clip-path="url(#pd42963e644)"
           style="fill:none;stroke:#22a884;stroke-width:2;stroke-opacity:0.8"
           id="path311" />
        <path
           d="M 498.65324,178.07286 499.4,178.8087 v 0 l 3.56667,3.51449 v 0 l 3.56666,3.51449 v 0 l 3.56667,3.51449 v 0 l 3.56667,3.5145 v 0 l 3.56666,3.51449 v 0 l 3.56667,3.51449"
           clip-path="url(#pd42963e644)"
           style="fill:none;stroke:#22a884;stroke-width:2;stroke-opacity:0.8"
           id="path313" />
      </g>
      <g
         id="PathCollection_21">
        <path
           d="m 403.1,31.2 3.56667,3.514493 v 0 l 3.56666,3.514493 v 0 L 413.8,41.743478 v 0 l 3.56667,3.514493 v 0 l 3.56666,3.514493 v 0 L 424.5,52.286957 v 0 l 3.56667,3.514492 v 0 l 3.56666,3.514493 v 0 L 435.2,62.830435 v 0 l 3.56667,3.514493 v 0 l 3.56666,3.514492 v 0 L 445.9,73.373913 v 0 l 3.56667,3.514493 v 0 l 3.56666,3.514493 v 0 l 0.74676,0.735833"
           clip-path="url(#pd42963e644)"
           style="fill:none;stroke:#44bf70;stroke-width:2;stroke-opacity:0.8"
           id="path316" />
        <path
           d="m 473.68658,100.75402 0.74675,0.73584 v 0 L 478,105.00435 v 0 l 3.56667,3.51449 v 0 l 3.56666,3.51449 v 0 l 3.56667,3.5145 v 0 l 3.56667,3.51449 v 0 l 3.56666,3.51449 v 0 L 499.4,126.0913 v 0 l 3.56667,3.5145 v 0 l 3.56666,3.51449 v 0 l 3.56667,3.51449 v 0 l 3.56667,3.51449 v 0 l 3.56666,3.5145 v 0 l 3.56667,3.51449"
           clip-path="url(#pd42963e644)"
           style="fill:none;stroke:#44bf70;stroke-width:2;stroke-opacity:0.8"
           id="path318" />
      </g>
      <g
         id="PathCollection_22">
        <path
           d="m 456.6,31.2 3.56667,3.514493 v 0 l 3.56666,3.514493 v 0 L 467.3,41.743478 v 0 l 0.74676,0.735834"
           clip-path="url(#pd42963e644)"
           style="fill:none;stroke:#7ad151;stroke-width:2;stroke-opacity:0.8"
           id="path321" />
        <path
           d="M 487.95324,62.094601 488.7,62.830435 v 0 l 3.56667,3.514493 v 0 l 3.56666,3.514492 v 0 L 499.4,73.373913 v 0 l 3.56667,3.514493 v 0 l 3.56666,3.514493 v 0 L 510.1,83.917391 v 0 l 3.56667,3.514493 v 0 l 3.56666,3.514493 v 0 L 520.8,94.46087"
           clip-path="url(#pd42963e644)"
           style="fill:none;stroke:#7ad151;stroke-width:2;stroke-opacity:0.8"
           id="path323" />
      </g>
      <g
         id="PathCollection_23">
        <path
           d="m 510.1,31.2 3.56667,3.514493 v 0 l 3.56666,3.514493 v 0 L 520.8,41.743478"
           clip-path="url(#pd42963e644)"
           style="fill:none;stroke:#bddf26;stroke-width:2;stroke-opacity:0.8"
           id="path326" />
      </g>
      <g
         id="PathCollection_24" />
      <g
         id="patch_8">
        <path
           d="M 274.7,273.7 V 31.2"
           style="fill:none;stroke:#eee8d5;stroke-width:0.8;stroke-linecap:square;stroke-linejoin:miter"
           id="path330" />
      </g>
      <g
         id="patch_9">
        <path
           d="M 520.8,273.7 V 31.2"
           style="fill:none;stroke:#eee8d5;stroke-width:0.8;stroke-linecap:square;stroke-linejoin:miter"
           id="path333" />
      </g>
      <g
         id="patch_10">
        <path
           d="M 274.7,273.7 H 520.8"
           style="fill:none;stroke:#eee8d5;stroke-width:0.8;stroke-linecap:square;stroke-linejoin:miter"
           id="path336" />
      </g>
      <g
         id="patch_11">
        <path
           d="M 274.7,31.2 H 520.8"
           style="fill:none;stroke:#eee8d5;stroke-width:0.8;stroke-linecap:square;stroke-linejoin:miter"
           id="path339" />
      </g>
      <g
         id="text_11">
        <!-- or: $2 \cdot x_1 + 2 \cdot x_2 -1$ -->
        <g
           transform="matrix(0.16,0,0,-0.16,321.03,25.2)"
           id="g376">
          <defs
             id="defs344">
            <path
               id="DejaVuSans-6f"
               d="m 1959,3097 q -462,0 -731,-361 -269,-361 -269,-989 0,-628 267,-989 268,-361 733,-361 460,0 728,362 269,363 269,988 0,622 -269,986 -268,364 -728,364 z m 0,487 q 750,0 1178,-488 429,-487 429,-1349 Q 3566,888 3137,398 2709,-91 1959,-91 1206,-91 779,398 353,888 353,1747 q 0,862 426,1349 427,488 1180,488 z"
               transform="scale(0.015625)" />
            <path
               id="DejaVuSans-72"
               d="m 2631,2963 q -97,56 -211,82 -114,27 -251,27 -488,0 -749,-317 -261,-317 -261,-911 V 0 H 581 v 3500 h 578 v -544 q 182,319 472,473 291,155 707,155 59,0 131,-8 72,-7 159,-23 z"
               transform="scale(0.015625)" />
          </defs>
          <use
             xlink:href="#DejaVuSans-6f"
             transform="translate(0,0.78125)"
             id="use346" />
          <use
             xlink:href="#DejaVuSans-72"
             transform="translate(61.181641,0.78125)"
             id="use348" />
          <use
             xlink:href="#DejaVuSans-3a"
             transform="translate(102.29492,0.78125)"
             id="use350" />
          <use
             xlink:href="#DejaVuSans-20"
             transform="translate(135.98633,0.78125)"
             id="use352" />
          <use
             xlink:href="#DejaVuSans-32"
             transform="translate(167.77344,0.78125)"
             id="use354" />
          <use
             xlink:href="#DejaVuSans-22c5"
             transform="translate(250.87891,0.78125)"
             id="use356" />
          <use
             xlink:href="#DejaVuSans-Oblique-78"
             transform="translate(302.14844,0.78125)"
             id="use358" />
          <use
             xlink:href="#DejaVuSans-31"
             transform="matrix(0.7,0,0,0.7,361.32812,-15.625)"
             id="use360" />
          <use
             xlink:href="#DejaVuSans-2b"
             transform="translate(428.08105,0.78125)"
             id="use362" />
          <use
             xlink:href="#DejaVuSans-32"
             transform="translate(531.35254,0.78125)"
             id="use364" />
          <use
             xlink:href="#DejaVuSans-22c5"
             transform="translate(614.45801,0.78125)"
             id="use366" />
          <use
             xlink:href="#DejaVuSans-Oblique-78"
             transform="translate(665.72754,0.78125)"
             id="use368" />
          <use
             xlink:href="#DejaVuSans-32"
             transform="matrix(0.7,0,0,0.7,724.90723,-15.625)"
             id="use370" />
          <use
             xlink:href="#DejaVuSans-2212"
             transform="translate(791.66016,0.78125)"
             id="use372" />
          <use
             xlink:href="#DejaVuSans-31"
             transform="translate(894.93164,0.78125)"
             id="use374" />
        </g>
      </g>
      <g
         id="text_12">
        <g
           clip-path="url(#pd42963e644)"
           id="g389">
          <!-- −1.2 -->
          <g
             style="opacity:0.8;fill:#482475"
             transform="matrix(0.06313284,0.07755156,0.07755156,-0.06313284,293.42818,241.42477)"
             id="g387">
            <use
               xlink:href="#DejaVuSans-2212"
               id="use379" />
            <use
               xlink:href="#DejaVuSans-31"
               x="83.789062"
               id="use381" />
            <use
               xlink:href="#DejaVuSans-2e"
               x="147.41211"
               id="use383" />
            <use
               xlink:href="#DejaVuSans-32"
               x="179.19922"
               id="use385" />
          </g>
        </g>
      </g>
      <g
         id="text_13">
        <g
           clip-path="url(#pd42963e644)"
           id="g402">
          <!-- −0.6 -->
          <g
             style="opacity:0.8;fill:#414487"
             transform="matrix(0.06313284,0.07755156,0.07755156,-0.06313284,293.42818,188.70738)"
             id="g400">
            <use
               xlink:href="#DejaVuSans-2212"
               id="use392" />
            <use
               xlink:href="#DejaVuSans-30"
               x="83.789062"
               id="use394" />
            <use
               xlink:href="#DejaVuSans-2e"
               x="147.41211"
               id="use396" />
            <use
               xlink:href="#DejaVuSans-36"
               x="179.19922"
               id="use398" />
          </g>
        </g>
      </g>
      <g
         id="text_14">
        <g
           clip-path="url(#pd42963e644)"
           id="g413">
          <!-- 0.0 -->
          <g
             style="opacity:0.8;fill:#355f8d"
             transform="matrix(0.06313284,0.07755156,0.07755156,-0.06313284,278.24002,121.66682)"
             id="g411">
            <use
               xlink:href="#DejaVuSans-30"
               id="use405" />
            <use
               xlink:href="#DejaVuSans-2e"
               x="63.623047"
               id="use407" />
            <use
               xlink:href="#DejaVuSans-30"
               x="95.410156"
               id="use409" />
          </g>
        </g>
      </g>
      <g
         id="text_15">
        <g
           clip-path="url(#pd42963e644)"
           id="g424">
          <!-- 0.6 -->
          <g
             style="opacity:0.8;fill:#2a788e"
             transform="matrix(0.06313284,0.07755156,0.07755156,-0.06313284,363.84001,153.29725)"
             id="g422">
            <use
               xlink:href="#DejaVuSans-30"
               id="use416" />
            <use
               xlink:href="#DejaVuSans-2e"
               x="63.623047"
               id="use418" />
            <use
               xlink:href="#DejaVuSans-36"
               x="95.410156"
               id="use420" />
          </g>
        </g>
      </g>
      <g
         id="text_16">
        <g
           clip-path="url(#pd42963e644)"
           id="g435">
          <!-- 1.2 -->
          <g
             style="opacity:0.8;fill:#21908d"
             transform="matrix(0.06313284,0.07755156,0.07755156,-0.06313284,506.50668,241.15957)"
             id="g433">
            <use
               xlink:href="#DejaVuSans-31"
               id="use427" />
            <use
               xlink:href="#DejaVuSans-2e"
               x="63.623047"
               id="use429" />
            <use
               xlink:href="#DejaVuSans-32"
               x="95.410156"
               id="use431" />
          </g>
        </g>
      </g>
      <g
         id="text_17">
        <g
           clip-path="url(#pd42963e644)"
           id="g446">
          <!-- 1.8 -->
          <g
             style="opacity:0.8;fill:#22a884"
             transform="matrix(0.06313284,0.07755156,0.07755156,-0.06313284,481.54001,163.84073)"
             id="g444">
            <use
               xlink:href="#DejaVuSans-31"
               id="use438" />
            <use
               xlink:href="#DejaVuSans-2e"
               x="63.623047"
               id="use440" />
            <use
               xlink:href="#DejaVuSans-38"
               x="95.410156"
               id="use442" />
          </g>
        </g>
      </g>
      <g
         id="text_18">
        <g
           clip-path="url(#pd42963e644)"
           id="g457">
          <!-- 2.4 -->
          <g
             style="opacity:0.8;fill:#44bf70"
             transform="matrix(0.06313284,0.07755156,0.07755156,-0.06313284,456.57335,86.521888)"
             id="g455">
            <use
               xlink:href="#DejaVuSans-32"
               id="use449" />
            <use
               xlink:href="#DejaVuSans-2e"
               x="63.623047"
               id="use451" />
            <use
               xlink:href="#DejaVuSans-34"
               x="95.410156"
               id="use453" />
          </g>
        </g>
      </g>
      <g
         id="text_19">
        <g
           clip-path="url(#pd42963e644)"
           id="g471">
          <!-- 3.0 -->
          <g
             style="opacity:0.8;fill:#7ad151"
             transform="matrix(0.06313284,0.07755156,0.07755156,-0.06313284,470.84001,47.862467)"
             id="g469">
            <defs
               id="defs461">
              <path
                 id="DejaVuSans-33"
                 d="m 2597,2516 q 453,-97 707,-404 255,-306 255,-756 0,-690 -475,-1069 -475,-378 -1350,-378 -293,0 -604,58 -311,58 -642,174 v 609 q 262,-153 574,-231 313,-78 654,-78 593,0 904,234 311,234 311,681 0,413 -289,645 -289,233 -804,233 h -544 v 519 h 569 q 465,0 712,186 247,186 247,536 0,359 -255,551 -254,193 -729,193 -260,0 -557,-57 -297,-56 -653,-174 v 562 q 360,100 674,150 314,50 592,50 719,0 1137,-327 419,-326 419,-882 0,-388 -222,-655 -222,-267 -631,-370 z"
                 transform="scale(0.015625)" />
            </defs>
            <use
               xlink:href="#DejaVuSans-33"
               id="use463" />
            <use
               xlink:href="#DejaVuSans-2e"
               x="63.623047"
               id="use465" />
            <use
               xlink:href="#DejaVuSans-30"
               x="95.410156"
               id="use467" />
          </g>
        </g>
      </g>
    </g>
    <g
       id="axes_3">
      <g
         id="patch_12">
        <path
           d="M 535.1,273.7 H 781.2 V 31.2 H 535.1 Z"
           style="fill:#eee8d5"
           id="path475" />
      </g>
      <g
         id="matplotlib.axis_5" />
      <g
         id="matplotlib.axis_6" />
      <g
         id="PathCollection_25">
        <defs
           id="defs481">
          <path
             id="C2_0_4acc0370e1"
             d="M 0,3.535534 C 0.937635,3.535534 1.836992,3.163008 2.5,2.5 3.163008,1.836992 3.535534,0.937635 3.535534,0 3.535534,-0.937635 3.163008,-1.836992 2.5,-2.5 1.836992,-3.163008 0.937635,-3.535534 0,-3.535534 c -0.937635,0 -1.836992,0.372526 -2.5,1.035534 -0.663008,0.663008 -1.035534,1.562365 -1.035534,2.5 0,0.937635 0.372526,1.836992 1.035534,2.5 0.663008,0.663008 1.562365,1.035534 2.5,1.035534 z" />
        </defs>
        <g
           clip-path="url(#pfba89e59d1)"
           id="g485">
          <use
             xlink:href="#C2_0_4acc0370e1"
             x="749.09998"
             y="62.830437"
             style="fill:#440154;stroke:#002b36"
             id="use483" />
        </g>
        <g
           clip-path="url(#pfba89e59d1)"
           id="g489">
          <use
             xlink:href="#C2_0_4acc0370e1"
             x="749.09998"
             y="238.55507"
             style="fill:#440154;stroke:#002b36"
             id="use487" />
        </g>
        <g
           clip-path="url(#pfba89e59d1)"
           id="g493">
          <use
             xlink:href="#C2_0_4acc0370e1"
             x="570.76666"
             y="62.830437"
             style="fill:#fde725;stroke:#002b36"
             id="use491" />
        </g>
        <g
           clip-path="url(#pfba89e59d1)"
           id="g497">
          <use
             xlink:href="#C2_0_4acc0370e1"
             x="570.76666"
             y="238.55507"
             style="fill:#fde725;stroke:#002b36"
             id="use495" />
        </g>
      </g>
      <g
         id="PathCollection_26" />
      <g
         id="PathCollection_27">
        <path
           d="m 760.98889,273.7 1.18889,-3.51449 1.18889,-3.5145 v 0 l 1.18889,-3.51449 0.32155,-0.95056"
           clip-path="url(#pfba89e59d1)"
           style="fill:none;stroke:#482475;stroke-width:2;stroke-opacity:0.8"
           id="path501" />
        <path
           d="m 776.12289,228.96216 0.32155,-0.95057 1.18889,-3.51449 v 0 l 1.18889,-3.51449 1.18889,-3.51449 1.18889,-3.5145"
           clip-path="url(#pfba89e59d1)"
           style="fill:none;stroke:#482475;stroke-width:2;stroke-opacity:0.8"
           id="path503" />
      </g>
      <g
         id="PathCollection_28">
        <path
           d="m 725.32222,273.7 1.18889,-3.51449 1.18889,-3.5145 v 0 l 1.18889,-3.51449 1.18889,-3.51449 1.18889,-3.51449 v 0 l 1.18889,-3.5145 1.18888,-3.51449 1.18889,-3.51449 v 0 l 1.18889,-3.5145 1.18889,-3.51449 1.18889,-3.51449 v 0 l 1.18889,-3.51449 1.18889,-3.5145 1.18889,-3.51449 v 0 l 1.18889,-3.51449 1.18888,-3.51449 1.18889,-3.5145 v 0 l 1.18889,-3.51449 1.18889,-3.51449 1.18889,-3.5145 v 0 l 1.18889,-3.51449 1.18889,-3.51449 1.18889,-3.51449 v 0 l 1.18889,-3.5145 1.18888,-3.51449 1.18889,-3.51449 v 0 l 1.18889,-3.51449 1.18889,-3.5145 1.18889,-3.51449 v 0 l 1.18889,-3.51449 1.18889,-3.5145 1.18889,-3.51449 v 0 l 0.32155,-0.95056"
           clip-path="url(#pfba89e59d1)"
           style="fill:none;stroke:#414487;stroke-width:2;stroke-opacity:0.8"
           id="path506" />
        <path
           d="m 774.934,127.04187 0.32156,-0.95057 1.18888,-3.51449 1.18889,-3.51449 v 0 l 1.18889,-3.51449 1.18889,-3.5145 1.18889,-3.51449"
           clip-path="url(#pfba89e59d1)"
           style="fill:none;stroke:#414487;stroke-width:2;stroke-opacity:0.8"
           id="path508" />
      </g>
      <g
         id="PathCollection_29">
        <path
           d="m 689.65556,273.7 1.18888,-3.51449 1.18889,-3.5145 v 0 l 1.18889,-3.51449 1.18889,-3.51449 1.18889,-3.51449 v 0 l 1.18889,-3.5145 1.18889,-3.51449 1.18889,-3.51449 v 0 l 1.18889,-3.5145 1.18888,-3.51449 1.18889,-3.51449 v 0 l 1.18889,-3.51449 1.18889,-3.5145 1.18889,-3.51449 v 0 l 1.18889,-3.51449 1.18889,-3.51449 1.18889,-3.5145 v 0 l 1.18889,-3.51449 1.18888,-3.51449 1.18889,-3.5145 v 0 l 1.18889,-3.51449 1.18889,-3.51449 L 717,192.86667 v 0 l 1.18889,-3.5145 1.18889,-3.51449 1.18889,-3.51449 v 0 l 1.18889,-3.51449 1.18888,-3.5145 1.18889,-3.51449 v 0 l 1.18889,-3.51449 1.18889,-3.5145 1.18889,-3.51449 v 0 l 1.18889,-3.51449 1.18889,-3.51449 1.18889,-3.5145 v 0 l 1.18889,-3.51449 1.18888,-3.51449 1.18889,-3.5145 v 0 l 1.18889,-3.51449 1.18889,-3.51449 1.18889,-3.51449 v 0 l 1.18889,-3.5145 1.18889,-3.51449 1.18889,-3.51449 v 0 l 1.18889,-3.51449 1.18888,-3.5145 1.18889,-3.51449 v 0 l 1.18889,-3.51449 1.18889,-3.51449 1.18889,-3.514498 v 0 l 1.18889,-3.514492 1.18889,-3.514493 1.18889,-3.514493 v 0 l 1.18889,-3.514493 1.18888,-3.514492 1.18889,-3.514493 v 0 l 1.18889,-3.514493 0.32156,-0.950564"
           clip-path="url(#pfba89e59d1)"
           style="fill:none;stroke:#355f8d;stroke-width:2;stroke-opacity:0.8"
           id="path511" />
        <path
           d="m 768.98955,39.179549 0.32156,-0.950563 1.18889,-3.514493 v 0 L 771.68889,31.2"
           clip-path="url(#pfba89e59d1)"
           style="fill:none;stroke:#355f8d;stroke-width:2;stroke-opacity:0.8"
           id="path513" />
      </g>
      <g
         id="PathCollection_30">
        <path
           d="m 653.98889,273.7 1.18889,-3.51449 1.18889,-3.5145 v 0 l 1.18889,-3.51449 1.18888,-3.51449 1.18889,-3.51449 v 0 l 1.18889,-3.5145 1.18889,-3.51449 0.32156,-0.95056"
           clip-path="url(#pfba89e59d1)"
           style="fill:none;stroke:#2a788e;stroke-width:2;stroke-opacity:0.8"
           id="path516" />
        <path
           d="M 673.87844,214.90419 674.2,213.95362 v 0 l 1.18889,-3.51449 1.18889,-3.51449 1.18889,-3.5145 v 0 l 1.18889,-3.51449 1.18888,-3.51449 1.18889,-3.51449 v 0 l 1.18889,-3.5145 1.18889,-3.51449 1.18889,-3.51449 v 0 l 1.18889,-3.51449 1.18889,-3.5145 1.18889,-3.51449 v 0 l 1.18889,-3.51449 1.18888,-3.5145 1.18889,-3.51449 v 0 l 1.18889,-3.51449 1.18889,-3.51449 1.18889,-3.5145 v 0 l 1.18889,-3.51449 1.18889,-3.51449 1.18889,-3.5145 v 0 l 1.18889,-3.51449 1.18888,-3.51449 1.18889,-3.51449 v 0 l 1.18889,-3.5145 1.18889,-3.51449 1.18889,-3.51449 v 0 l 1.18889,-3.51449 1.18889,-3.5145 1.18889,-3.51449 v 0 l 1.18889,-3.51449 1.18888,-3.51449 1.18889,-3.514498 v 0 l 1.18889,-3.514492 1.18889,-3.514493 L 717,87.431884 v 0 l 1.18889,-3.514493 1.18889,-3.514492 1.18889,-3.514493 v 0 l 1.18889,-3.514493 1.18888,-3.514493 1.18889,-3.514492 v 0 l 1.18889,-3.514493 1.18889,-3.514493 1.18889,-3.514493 v 0 l 1.18889,-3.514492 1.18889,-3.514493 1.18889,-3.514493 v 0 l 1.18889,-3.514493 1.18888,-3.514492 1.18889,-3.514493 v 0 L 736.02222,31.2"
           clip-path="url(#pfba89e59d1)"
           style="fill:none;stroke:#2a788e;stroke-width:2;stroke-opacity:0.8"
           id="path518" />
      </g>
      <g
         id="PathCollection_31">
        <path
           d="m 618.32222,273.7 1.18889,-3.51449 1.18889,-3.5145 v 0 l 1.18889,-3.51449 1.18889,-3.51449 1.18889,-3.51449 v 0 l 1.18889,-3.5145 1.18888,-3.51449 1.18889,-3.51449 v 0 l 1.18889,-3.5145 1.18889,-3.51449 1.18889,-3.51449 v 0 l 1.18889,-3.51449 1.18889,-3.5145 1.18889,-3.51449 v 0 l 1.18889,-3.51449 1.18888,-3.51449 1.18889,-3.5145 v 0 l 1.18889,-3.51449 1.18889,-3.51449 1.18889,-3.5145 v 0 l 1.18889,-3.51449 1.18889,-3.51449 1.18889,-3.51449 v 0 l 1.18889,-3.5145 1.18888,-3.51449 1.18889,-3.51449 v 0 l 1.18889,-3.51449 1.18889,-3.5145 1.18889,-3.51449 v 0 l 1.18889,-3.51449 1.18889,-3.5145 1.18889,-3.51449 v 0 l 1.18889,-3.51449 1.18888,-3.51449 1.18889,-3.5145 v 0 l 1.18889,-3.51449 1.18889,-3.51449 0.62675,-1.85275"
           clip-path="url(#pfba89e59d1)"
           style="fill:none;stroke:#21918c;stroke-width:2;stroke-opacity:0.8"
           id="path521" />
        <path
           d="m 671.19547,117.40057 0.62675,-1.85274 1.18889,-3.5145 1.18889,-3.51449 v 0 l 1.18889,-3.51449 1.18889,-3.51449 1.18889,-3.514498 v 0 l 1.18889,-3.514492 1.18888,-3.514493 1.18889,-3.514493 v 0 l 1.18889,-3.514493 1.18889,-3.514492 1.18889,-3.514493 v 0 l 1.18889,-3.514493 1.18889,-3.514493 1.18889,-3.514492 v 0 l 1.18889,-3.514493 1.18888,-3.514493 1.18889,-3.514493 v 0 l 1.18889,-3.514492 1.18889,-3.514493 1.18889,-3.514493 v 0 l 1.18889,-3.514493 1.18889,-3.514492 1.18889,-3.514493 v 0 L 700.35556,31.2"
           clip-path="url(#pfba89e59d1)"
           style="fill:none;stroke:#21918c;stroke-width:2;stroke-opacity:0.8"
           id="path523" />
      </g>
      <g
         id="PathCollection_32">
        <path
           d="m 582.65556,273.7 1.18888,-3.51449 1.18889,-3.5145 v 0 l 1.18889,-3.51449 1.18889,-3.51449 0.62675,-1.85275"
           clip-path="url(#pfba89e59d1)"
           style="fill:none;stroke:#22a884;stroke-width:2;stroke-opacity:0.8"
           id="path526" />
        <path
           d="m 596.29547,233.37883 0.62675,-1.85274 1.18889,-3.5145 1.18889,-3.51449 v 0 l 1.18889,-3.51449 1.18889,-3.51449 1.18889,-3.5145 v 0 l 1.18889,-3.51449 1.18888,-3.51449 1.18889,-3.5145 v 0 l 1.18889,-3.51449 1.18889,-3.51449 L 610,192.86667 v 0 l 1.18889,-3.5145 1.18889,-3.51449 1.18889,-3.51449 v 0 l 1.18889,-3.51449 1.18888,-3.5145 1.18889,-3.51449 v 0 l 1.18889,-3.51449 1.18889,-3.5145 1.18889,-3.51449 v 0 l 1.18889,-3.51449 1.18889,-3.51449 1.18889,-3.5145 v 0 l 1.18889,-3.51449 1.18888,-3.51449 1.18889,-3.5145 v 0 l 1.18889,-3.51449 1.18889,-3.51449 1.18889,-3.51449 v 0 l 1.18889,-3.5145 1.18889,-3.51449 1.18889,-3.51449 v 0 l 1.18889,-3.51449 1.18888,-3.5145 1.18889,-3.51449 v 0 l 1.18889,-3.51449 1.18889,-3.51449 1.18889,-3.514498 v 0 l 1.18889,-3.514492 1.18889,-3.514493 1.18889,-3.514493 v 0 l 1.18889,-3.514493 1.18888,-3.514492 1.18889,-3.514493 v 0 l 1.18889,-3.514493 1.18889,-3.514493 1.18889,-3.514492 v 0 l 1.18889,-3.514493 1.18889,-3.514493 1.18889,-3.514493 v 0 l 1.18889,-3.514492 1.18888,-3.514493 1.18889,-3.514493 v 0 l 1.18889,-3.514493 1.18889,-3.514492 1.18889,-3.514493 v 0 L 664.68889,31.2"
           clip-path="url(#pfba89e59d1)"
           style="fill:none;stroke:#22a884;stroke-width:2;stroke-opacity:0.8"
           id="path528" />
      </g>
      <g
         id="PathCollection_33">
        <path
           d="m 546.98889,273.7 1.18889,-3.51449 1.18889,-3.5145 v 0 l 1.18889,-3.51449 1.18888,-3.51449 1.18889,-3.51449 v 0 l 1.18889,-3.5145 1.18889,-3.51449 1.18889,-3.51449 v 0 l 1.18889,-3.5145 1.18889,-3.51449 1.18889,-3.51449 v 0 l 1.18889,-3.51449 1.18888,-3.5145 1.18889,-3.51449 v 0 l 1.18889,-3.51449 1.18889,-3.51449 1.18889,-3.5145 v 0 l 1.18889,-3.51449 1.18889,-3.51449 1.18889,-3.5145 v 0 l 1.18889,-3.51449 1.18888,-3.51449 1.18889,-3.51449 v 0 l 1.18889,-3.5145 1.18889,-3.51449 1.18889,-3.51449 v 0 l 1.18889,-3.51449 1.18889,-3.5145 1.18889,-3.51449 v 0 l 1.18889,-3.51449 1.18888,-3.5145 1.18889,-3.51449 v 0 l 1.18889,-3.51449 1.18889,-3.51449 1.18889,-3.5145 v 0 l 1.18889,-3.51449 1.18889,-3.51449 0.62675,-1.85275"
           clip-path="url(#pfba89e59d1)"
           style="fill:none;stroke:#44bf70;stroke-width:2;stroke-opacity:0.8"
           id="path531" />
        <path
           d="m 599.86214,117.40057 0.62675,-1.85274 1.18889,-3.5145 1.18889,-3.51449 v 0 l 1.18889,-3.51449 1.18888,-3.51449 1.18889,-3.514498 v 0 l 1.18889,-3.514492 1.18889,-3.514493 L 610,87.431884 v 0 l 1.18889,-3.514493 1.18889,-3.514492 1.18889,-3.514493 v 0 l 1.18889,-3.514493 1.18888,-3.514493 1.18889,-3.514492 v 0 l 1.18889,-3.514493 1.18889,-3.514493 1.18889,-3.514493 v 0 l 1.18889,-3.514492 1.18889,-3.514493 1.18889,-3.514493 v 0 l 1.18889,-3.514493 1.18888,-3.514492 1.18889,-3.514493 v 0 L 629.02222,31.2"
           clip-path="url(#pfba89e59d1)"
           style="fill:none;stroke:#44bf70;stroke-width:2;stroke-opacity:0.8"
           id="path533" />
      </g>
      <g
         id="PathCollection_34">
        <path
           d="m 535.1,203.41014 1.18889,-3.51449 1.18889,-3.51449 1.18889,-3.51449 v 0 l 1.18889,-3.5145 1.18888,-3.51449 0.62675,-1.85275"
           clip-path="url(#pfba89e59d1)"
           style="fill:none;stroke:#7ad151;stroke-width:2;stroke-opacity:0.8"
           id="path536" />
        <path
           d="m 549.9288,159.57449 0.62676,-1.85275 1.18888,-3.51449 1.18889,-3.5145 v 0 l 1.18889,-3.51449 1.18889,-3.51449 1.18889,-3.5145 v 0 l 1.18889,-3.51449 1.18889,-3.51449 1.18889,-3.51449 v 0 l 1.18889,-3.5145 1.18888,-3.51449 1.18889,-3.51449 v 0 l 1.18889,-3.51449 1.18889,-3.5145 1.18889,-3.51449 v 0 l 1.18889,-3.51449 1.18889,-3.51449 1.18889,-3.514498 v 0 l 1.18889,-3.514492 1.18888,-3.514493 1.18889,-3.514493 v 0 l 1.18889,-3.514493 1.18889,-3.514492 1.18889,-3.514493 v 0 l 1.18889,-3.514493 1.18889,-3.514493 1.18889,-3.514492 v 0 l 1.18889,-3.514493 1.18888,-3.514493 1.18889,-3.514493 v 0 l 1.18889,-3.514492 1.18889,-3.514493 1.18889,-3.514493 v 0 l 1.18889,-3.514493 1.18889,-3.514492 1.18889,-3.514493 v 0 L 593.35556,31.2"
           clip-path="url(#pfba89e59d1)"
           style="fill:none;stroke:#7ad151;stroke-width:2;stroke-opacity:0.8"
           id="path538" />
      </g>
      <g
         id="PathCollection_35">
        <path
           d="m 535.1,97.975362 1.18889,-3.514492 1.18889,-3.514493 1.18889,-3.514493 v 0 l 1.18889,-3.514493 1.18888,-3.514492 0.62675,-1.852748"
           clip-path="url(#pfba89e59d1)"
           style="fill:none;stroke:#bddf26;stroke-width:2;stroke-opacity:0.8"
           id="path541" />
        <path
           d="m 549.9288,54.139704 0.62676,-1.852747 1.18888,-3.514493 1.18889,-3.514493 v 0 l 1.18889,-3.514493 1.18889,-3.514492 1.18889,-3.514493 v 0 L 557.68889,31.2"
           clip-path="url(#pfba89e59d1)"
           style="fill:none;stroke:#bddf26;stroke-width:2;stroke-opacity:0.8"
           id="path543" />
      </g>
      <g
         id="PathCollection_36" />
      <g
         id="patch_13">
        <path
           d="M 535.1,273.7 V 31.2"
           style="fill:none;stroke:#eee8d5;stroke-width:0.8;stroke-linecap:square;stroke-linejoin:miter"
           id="path547" />
      </g>
      <g
         id="patch_14">
        <path
           d="M 781.2,273.7 V 31.2"
           style="fill:none;stroke:#eee8d5;stroke-width:0.8;stroke-linecap:square;stroke-linejoin:miter"
           id="path550" />
      </g>
      <g
         id="patch_15">
        <path
           d="M 535.1,273.7 H 781.2"
           style="fill:none;stroke:#eee8d5;stroke-width:0.8;stroke-linecap:square;stroke-linejoin:miter"
           id="path553" />
      </g>
      <g
         id="patch_16">
        <path
           d="M 535.1,31.2 H 781.2"
           style="fill:none;stroke:#eee8d5;stroke-width:0.8;stroke-linecap:square;stroke-linejoin:miter"
           id="path556" />
      </g>
      <g
         id="text_20">
        <!-- not: $-3 \cdot x_1 + 1 \cdot x_2 + 1$ -->
        <g
           transform="matrix(0.16,0,0,-0.16,569.83,25.2)"
           id="g596">
          <defs
             id="defs560">
            <path
               id="DejaVuSans-74"
               d="M 1172,4494 V 3500 H 2356 V 3053 H 1172 V 1153 q 0,-428 117,-550 117,-122 477,-122 h 590 V 0 H 1766 Q 1100,0 847,248 594,497 594,1153 V 3053 H 172 v 447 h 422 v 994 z"
               transform="scale(0.015625)" />
          </defs>
          <use
             xlink:href="#DejaVuSans-6e"
             transform="translate(0,0.78125)"
             id="use562" />
          <use
             xlink:href="#DejaVuSans-6f"
             transform="translate(63.378906,0.78125)"
             id="use564" />
          <use
             xlink:href="#DejaVuSans-74"
             transform="translate(124.56055,0.78125)"
             id="use566" />
          <use
             xlink:href="#DejaVuSans-3a"
             transform="translate(163.76953,0.78125)"
             id="use568" />
          <use
             xlink:href="#DejaVuSans-20"
             transform="translate(197.46094,0.78125)"
             id="use570" />
          <use
             xlink:href="#DejaVuSans-2212"
             transform="translate(229.24805,0.78125)"
             id="use572" />
          <use
             xlink:href="#DejaVuSans-33"
             transform="translate(313.03711,0.78125)"
             id="use574" />
          <use
             xlink:href="#DejaVuSans-22c5"
             transform="translate(396.14258,0.78125)"
             id="use576" />
          <use
             xlink:href="#DejaVuSans-Oblique-78"
             transform="translate(447.41211,0.78125)"
             id="use578" />
          <use
             xlink:href="#DejaVuSans-31"
             transform="matrix(0.7,0,0,0.7,506.5918,-15.625)"
             id="use580" />
          <use
             xlink:href="#DejaVuSans-2b"
             transform="translate(573.34473,0.78125)"
             id="use582" />
          <use
             xlink:href="#DejaVuSans-31"
             transform="translate(676.61621,0.78125)"
             id="use584" />
          <use
             xlink:href="#DejaVuSans-22c5"
             transform="translate(759.72168,0.78125)"
             id="use586" />
          <use
             xlink:href="#DejaVuSans-Oblique-78"
             transform="translate(810.99121,0.78125)"
             id="use588" />
          <use
             xlink:href="#DejaVuSans-32"
             transform="matrix(0.7,0,0,0.7,870.1709,-15.625)"
             id="use590" />
          <use
             xlink:href="#DejaVuSans-2b"
             transform="translate(936.92383,0.78125)"
             id="use592" />
          <use
             xlink:href="#DejaVuSans-31"
             transform="translate(1040.1953,0.78125)"
             id="use594" />
        </g>
      </g>
      <g
         id="text_21">
        <g
           clip-path="url(#pfba89e59d1)"
           id="g609">
          <!-- −2.4 -->
          <g
             style="opacity:0.8;fill:#482475"
             transform="matrix(0.02618877,-0.09650984,-0.09650984,-0.02618877,769.98338,258.02436)"
             id="g607">
            <use
               xlink:href="#DejaVuSans-2212"
               id="use599" />
            <use
               xlink:href="#DejaVuSans-32"
               x="83.789062"
               id="use601" />
            <use
               xlink:href="#DejaVuSans-2e"
               x="147.41211"
               id="use603" />
            <use
               xlink:href="#DejaVuSans-34"
               x="179.19922"
               id="use605" />
          </g>
        </g>
      </g>
      <g
         id="text_22">
        <g
           clip-path="url(#pfba89e59d1)"
           id="g622">
          <!-- −1.8 -->
          <g
             style="opacity:0.8;fill:#414487"
             transform="matrix(0.02618877,-0.09650984,-0.09650984,-0.02618877,768.79449,156.10407)"
             id="g620">
            <use
               xlink:href="#DejaVuSans-2212"
               id="use612" />
            <use
               xlink:href="#DejaVuSans-31"
               x="83.789062"
               id="use614" />
            <use
               xlink:href="#DejaVuSans-2e"
               x="147.41211"
               id="use616" />
            <use
               xlink:href="#DejaVuSans-38"
               x="179.19922"
               id="use618" />
          </g>
        </g>
      </g>
      <g
         id="text_23">
        <g
           clip-path="url(#pfba89e59d1)"
           id="g635">
          <!-- −1.2 -->
          <g
             style="opacity:0.8;fill:#355f8d"
             transform="matrix(0.02618877,-0.09650984,-0.09650984,-0.02618877,762.85005,68.241747)"
             id="g633">
            <use
               xlink:href="#DejaVuSans-2212"
               id="use625" />
            <use
               xlink:href="#DejaVuSans-31"
               x="83.789062"
               id="use627" />
            <use
               xlink:href="#DejaVuSans-2e"
               x="147.41211"
               id="use629" />
            <use
               xlink:href="#DejaVuSans-32"
               x="179.19922"
               id="use631" />
          </g>
        </g>
      </g>
      <g
         id="text_24">
        <g
           clip-path="url(#pfba89e59d1)"
           id="g648">
          <!-- −0.6 -->
          <g
             style="opacity:0.8;fill:#2a788e"
             transform="matrix(0.02618877,-0.09650984,-0.09650984,-0.02618877,667.73894,243.96638)"
             id="g646">
            <use
               xlink:href="#DejaVuSans-2212"
               id="use638" />
            <use
               xlink:href="#DejaVuSans-30"
               x="83.789062"
               id="use640" />
            <use
               xlink:href="#DejaVuSans-2e"
               x="147.41211"
               id="use642" />
            <use
               xlink:href="#DejaVuSans-36"
               x="179.19922"
               id="use644" />
          </g>
        </g>
      </g>
      <g
         id="text_25">
        <g
           clip-path="url(#pfba89e59d1)"
           id="g659">
          <!-- 0.0 -->
          <g
             style="opacity:0.8;fill:#21918c"
             transform="matrix(0.02618877,-0.09650984,-0.09650984,-0.02618877,667.64732,138.00248)"
             id="g657">
            <use
               xlink:href="#DejaVuSans-30"
               id="use651" />
            <use
               xlink:href="#DejaVuSans-2e"
               x="63.623047"
               id="use653" />
            <use
               xlink:href="#DejaVuSans-30"
               x="95.410156"
               id="use655" />
          </g>
        </g>
      </g>
      <g
         id="text_26">
        <g
           clip-path="url(#pfba89e59d1)"
           id="g670">
          <!-- 0.6 -->
          <g
             style="opacity:0.8;fill:#22a884"
             transform="matrix(0.02618877,-0.09650984,-0.09650984,-0.02618877,592.74732,253.98074)"
             id="g668">
            <use
               xlink:href="#DejaVuSans-30"
               id="use662" />
            <use
               xlink:href="#DejaVuSans-2e"
               x="63.623047"
               id="use664" />
            <use
               xlink:href="#DejaVuSans-36"
               x="95.410156"
               id="use666" />
          </g>
        </g>
      </g>
      <g
         id="text_27">
        <g
           clip-path="url(#pfba89e59d1)"
           id="g681">
          <!-- 1.2 -->
          <g
             style="opacity:0.8;fill:#44bf70"
             transform="matrix(0.02618877,-0.09650984,-0.09650984,-0.02618877,596.31398,138.00248)"
             id="g679">
            <use
               xlink:href="#DejaVuSans-31"
               id="use673" />
            <use
               xlink:href="#DejaVuSans-2e"
               x="63.623047"
               id="use675" />
            <use
               xlink:href="#DejaVuSans-32"
               x="95.410156"
               id="use677" />
          </g>
        </g>
      </g>
      <g
         id="text_28">
        <g
           clip-path="url(#pfba89e59d1)"
           id="g692">
          <!-- 1.8 -->
          <g
             style="opacity:0.8;fill:#7ad151"
             transform="matrix(0.02618877,-0.09650984,-0.09650984,-0.02618877,546.38065,180.1764)"
             id="g690">
            <use
               xlink:href="#DejaVuSans-31"
               id="use684" />
            <use
               xlink:href="#DejaVuSans-2e"
               x="63.623047"
               id="use686" />
            <use
               xlink:href="#DejaVuSans-38"
               x="95.410156"
               id="use688" />
          </g>
        </g>
      </g>
      <g
         id="text_29">
        <g
           clip-path="url(#pfba89e59d1)"
           id="g703">
          <!-- 2.4 -->
          <g
             style="opacity:0.8;fill:#bddf26"
             transform="matrix(0.02618877,-0.09650984,-0.09650984,-0.02618877,546.38065,74.741614)"
             id="g701">
            <use
               xlink:href="#DejaVuSans-32"
               id="use695" />
            <use
               xlink:href="#DejaVuSans-2e"
               x="63.623047"
               id="use697" />
            <use
               xlink:href="#DejaVuSans-34"
               x="95.410156"
               id="use699" />
          </g>
        </g>
      </g>
    </g>
  </g>
  <defs
     id="defs717">
    <clipPath
       id="p3ccb959d55">
      <rect
         x="14.3"
         y="31.200001"
         width="246.10001"
         height="242.5"
         id="rect708" />
    </clipPath>
    <clipPath
       id="pd42963e644">
      <rect
         x="274.70001"
         y="31.200001"
         width="246.10001"
         height="242.5"
         id="rect711" />
    </clipPath>
    <clipPath
       id="pfba89e59d1">
      <rect
         x="535.09998"
         y="31.200001"
         width="246.10001"
         height="242.5"
         id="rect714" />
    </clipPath>
  </defs>
</svg>
