<?xml version="1.0" encoding="UTF-8" standalone="no"?>
<svg
   width="767.70001pt"
   height="261.06pt"
   viewBox="0 0 767.70001 261.06"
   version="1.1"
   id="svg410"
   xmlns:xlink="http://www.w3.org/1999/xlink"
   xmlns="http://www.w3.org/2000/svg"
   xmlns:svg="http://www.w3.org/2000/svg"
   xmlns:rdf="http://www.w3.org/1999/02/22-rdf-syntax-ns#"
   xmlns:cc="http://creativecommons.org/ns#"
   xmlns:dc="http://purl.org/dc/elements/1.1/">
  <metadata
     id="metadata2">
    <rdf:RDF>
      <cc:Work>
        <dc:type
           rdf:resource="http://purl.org/dc/dcmitype/StillImage" />
        <dc:date>2022-05-18T10:03:23.374855</dc:date>
        <dc:format>image/svg+xml</dc:format>
        <dc:creator>
          <cc:Agent>
            <dc:title>Matplotlib v3.5.2, https://matplotlib.org/</dc:title>
          </cc:Agent>
        </dc:creator>
      </cc:Work>
    </rdf:RDF>
  </metadata>
  <defs
     id="defs6">
    <style
       type="text/css"
       id="style4">*{stroke-linejoin: round; stroke-linecap: butt}</style>
  </defs>
  <g
     id="g962"
     transform="translate(-13.9,-13.04)">
    <g
       id="axes_1">
      <g
         id="patch_2">
        <path
           d="M 14.3,273.7 H 260.4 V 31.2 H 14.3 Z"
           style="fill:#eee8d5"
           id="path11" />
      </g>
      <g
         id="matplotlib.axis_1" />
      <g
         id="matplotlib.axis_2" />
      <g
         id="PathCollection_1">
        <path
           d="M 17.866667,273.7 H 21.433333 25 28.566667 32.133333 35.7 39.266667 42.833333 46.4 49.966667 L 46.4,270.18551 42.833333,266.67101 39.266667,263.15652 35.7,259.64203 32.133333,256.12754 28.566667,252.61304 25,249.09855 21.433333,245.58406 17.866667,242.06956 14.3,238.55507 v 3.51449 3.5145 3.51449 3.51449 3.5145 3.51449 3.51449 3.51449 3.5145 3.51449 z"
           clip-path="url(#p16612c5a62)"
           style="fill:#481769;fill-opacity:0.8"
           id="path16" />
      </g>
      <g
         id="PathCollection_2">
        <path
           d="M 49.966667,273.7 H 53.533333 57.1 60.666667 64.233333 67.8 71.366667 74.933333 78.5 82.066667 85.633333 89.2 92.766667 96.333333 99.9 h 3.56667 3.56666 3.56667 3.56667 3.56666 3.56667 v 0 0 l -3.56667,-3.51449 v 0 l -3.56666,-3.5145 v 0 L 110.6,263.15652 v 0 l -3.56667,-3.51449 v 0 l -3.56666,-3.51449 v 0 L 99.9,252.61304 v 0 l -3.566667,-3.51449 v 0 l -3.566666,-3.51449 v 0 L 89.2,242.06956 v 0 l -3.566667,-3.51449 v 0 l -3.566666,-3.51449 v 0 L 78.5,231.52609 v 0 l -3.566667,-3.5145 v 0 l -3.566666,-3.51449 v 0 L 67.8,220.98261 v 0 l -3.566667,-3.51449 v 0 l -3.566666,-3.5145 v 0 L 57.1,210.43913 v 0 l -3.566667,-3.51449 v 0 l -3.566666,-3.5145 v 0 L 46.4,199.89565 v 0 l -3.566667,-3.51449 v 0 l -3.566666,-3.51449 v 0 L 35.7,189.35217 v 0 l -3.566667,-3.51449 v 0 l -3.566666,-3.51449 v 0 L 25,178.8087 v 0 l -3.566667,-3.5145 v 0 l -3.566666,-3.51449 v 0 L 14.3,168.26522 v 0 0 3.51449 3.51449 3.5145 3.51449 3.51449 3.51449 3.5145 3.51449 3.51449 3.51449 3.5145 3.51449 3.51449 3.5145 3.51449 3.51449 3.51449 3.5145 3.51449 3.51449 l 3.566667,3.51449 3.566666,3.5145 3.566667,3.51449 3.566667,3.51449 3.566666,3.5145 3.566667,3.51449 3.566667,3.51449 3.566666,3.51449 3.566667,3.5145 z"
           clip-path="url(#p16612c5a62)"
           style="fill:#424086;fill-opacity:0.8"
           id="path19" />
      </g>
      <g
         id="PathCollection_3">
        <path
           d="m 121.3,273.7 v 0 h 3.56667 3.56666 3.56667 3.56667 3.56666 3.56667 3.56667 3.56666 3.56667 3.56667 3.56666 3.56667 3.56667 3.56666 3.56667 3.56667 3.56666 3.56667 3.56667 3.56666 v 0 0 l -3.56666,-3.51449 v 0 L 185.5,266.67101 v 0 l -3.56667,-3.51449 v 0 l -3.56666,-3.51449 v 0 L 174.8,256.12754 v 0 l -3.56667,-3.5145 v 0 l -3.56666,-3.51449 v 0 L 164.1,245.58406 v 0 l -3.56667,-3.5145 v 0 l -3.56666,-3.51449 v 0 L 153.4,235.04058 v 0 l -3.56667,-3.51449 v 0 l -3.56666,-3.5145 v 0 L 142.7,224.4971 v 0 l -3.56667,-3.51449 v 0 l -3.56666,-3.51449 v 0 L 132,213.95362 v 0 l -3.56667,-3.51449 v 0 l -3.56666,-3.51449 v 0 L 121.3,203.41014 v 0 l -3.56667,-3.51449 v 0 l -3.56666,-3.51449 v 0 L 110.6,192.86667 v 0 l -3.56667,-3.5145 v 0 l -3.56666,-3.51449 v 0 L 99.9,182.32319 v 0 l -3.566667,-3.51449 v 0 l -3.566666,-3.5145 v 0 L 89.2,171.77971 v 0 l -3.566667,-3.51449 v 0 l -3.566666,-3.5145 v 0 L 78.5,161.23623 v 0 l -3.566667,-3.51449 v 0 l -3.566666,-3.51449 v 0 L 67.8,150.69275 v 0 l -3.566667,-3.51449 v 0 l -3.566666,-3.51449 v 0 L 57.1,140.14927 v 0 l -3.566667,-3.51449 v 0 l -3.566666,-3.51449 v 0 L 46.4,129.6058 v 0 l -3.566667,-3.5145 v 0 l -3.566666,-3.51449 v 0 L 35.7,119.06232 v 0 l -3.566667,-3.51449 v 0 l -3.566666,-3.5145 v 0 L 25,108.51884 v 0 l -3.566667,-3.51449 v 0 l -3.566666,-3.51449 v 0 L 14.3,97.975362 v 0 0 3.514498 3.51449 3.51449 3.51449 3.5145 3.51449 3.51449 3.51449 3.5145 3.51449 3.51449 3.51449 3.5145 3.51449 3.51449 3.5145 3.51449 3.51449 3.51449 3.5145 0 l 3.566667,3.51449 v 0 l 3.566666,3.51449 v 0 L 25,178.8087 v 0 l 3.566667,3.51449 v 0 l 3.566666,3.51449 v 0 L 35.7,189.35217 v 0 l 3.566667,3.5145 v 0 l 3.566666,3.51449 v 0 L 46.4,199.89565 v 0 l 3.566667,3.51449 v 0 l 3.566666,3.5145 v 0 L 57.1,210.43913 v 0 l 3.566667,3.51449 v 0 l 3.566666,3.5145 v 0 L 67.8,220.98261 v 0 l 3.566667,3.51449 v 0 l 3.566666,3.51449 v 0 L 78.5,231.52609 v 0 l 3.566667,3.51449 v 0 l 3.566666,3.51449 v 0 L 89.2,242.06956 v 0 l 3.566667,3.5145 v 0 l 3.566666,3.51449 v 0 L 99.9,252.61304 v 0 l 3.56667,3.5145 v 0 l 3.56666,3.51449 v 0 l 3.56667,3.51449 v 0 l 3.56667,3.51449 v 0 l 3.56666,3.5145 v 0 z"
           clip-path="url(#p16612c5a62)"
           style="fill:#33638d;fill-opacity:0.8"
           id="path22" />
      </g>
      <g
         id="PathCollection_4">
        <path
           d="m 192.63333,273.7 v 0 h 3.56667 3.56667 3.56666 3.56667 3.56667 3.56666 3.56667 3.56667 3.56666 3.56667 3.56667 3.56666 3.56667 3.56667 3.56666 3.56667 3.56667 3.56666 3.56667 v -3.51449 0 l -3.56667,-3.5145 v 0 l -3.56666,-3.51449 v 0 L 249.7,259.64203 v 0 l -3.56667,-3.51449 v 0 l -3.56666,-3.5145 v 0 L 239,249.09855 v 0 l -3.56667,-3.51449 v 0 l -3.56666,-3.5145 v 0 L 228.3,238.55507 v 0 l -3.56667,-3.51449 v 0 l -3.56666,-3.51449 v 0 L 217.6,228.01159 v 0 l -3.56667,-3.51449 v 0 l -3.56666,-3.51449 v 0 L 206.9,217.46812 v 0 l -3.56667,-3.5145 v 0 l -3.56666,-3.51449 v 0 L 196.2,206.92464 v 0 l -3.56667,-3.5145 v 0 l -3.56666,-3.51449 v 0 L 185.5,196.38116 v 0 l -3.56667,-3.51449 v 0 l -3.56666,-3.5145 v 0 L 174.8,185.83768 v 0 l -3.56667,-3.51449 v 0 l -3.56666,-3.51449 v 0 L 164.1,175.2942 v 0 l -3.56667,-3.51449 v 0 l -3.56666,-3.51449 v 0 L 153.4,164.75072 v 0 l -3.56667,-3.51449 v 0 l -3.56666,-3.51449 v 0 L 142.7,154.20725 v 0 l -3.56667,-3.5145 v 0 l -3.56666,-3.51449 v 0 L 132,143.66377 v 0 l -3.56667,-3.5145 v 0 l -3.56666,-3.51449 v 0 L 121.3,133.12029 v 0 l -3.56667,-3.51449 v 0 l -3.56666,-3.5145 v 0 L 110.6,122.57681 v 0 l -3.56667,-3.51449 v 0 l -3.56666,-3.51449 v 0 L 99.9,112.03333 v 0 l -3.566667,-3.51449 v 0 l -3.566666,-3.51449 v 0 L 89.2,101.48986 v 0 l -3.566667,-3.514498 v 0 L 82.066667,94.46087 v 0 L 78.5,90.946377 v 0 l -3.566667,-3.514493 v 0 l -3.566666,-3.514493 v 0 L 67.8,80.402899 v 0 l -3.566667,-3.514493 v 0 l -3.566666,-3.514493 v 0 L 57.1,69.85942 v 0 l -3.566667,-3.514492 v 0 l -3.566666,-3.514493 v 0 L 46.4,59.315942 v 0 l -3.566667,-3.514493 v 0 l -3.566666,-3.514492 v 0 L 35.7,48.772464 v 0 l -3.566667,-3.514493 v 0 l -3.566666,-3.514493 v 0 L 25,38.228986 v 0 l -3.566667,-3.514493 v 0 L 17.866667,31.2 v 0 H 14.3 v 3.514493 3.514493 3.514492 3.514493 3.514493 3.514493 3.514492 3.514493 3.514493 3.514493 3.514492 3.514493 3.514493 3.514493 3.514492 3.514493 3.514493 3.514493 3.514492 0 l 3.566667,3.514498 v 0 l 3.566666,3.51449 v 0 L 25,108.51884 v 0 l 3.566667,3.51449 v 0 l 3.566666,3.5145 v 0 L 35.7,119.06232 v 0 l 3.566667,3.51449 v 0 l 3.566666,3.51449 v 0 L 46.4,129.6058 v 0 l 3.566667,3.51449 v 0 l 3.566666,3.51449 v 0 L 57.1,140.14927 v 0 l 3.566667,3.5145 v 0 l 3.566666,3.51449 v 0 L 67.8,150.69275 v 0 l 3.566667,3.5145 v 0 l 3.566666,3.51449 v 0 L 78.5,161.23623 v 0 l 3.566667,3.51449 v 0 l 3.566666,3.5145 v 0 L 89.2,171.77971 v 0 l 3.566667,3.51449 v 0 l 3.566666,3.5145 v 0 L 99.9,182.32319 v 0 l 3.56667,3.51449 v 0 l 3.56666,3.51449 v 0 l 3.56667,3.5145 v 0 l 3.56667,3.51449 v 0 l 3.56666,3.51449 v 0 l 3.56667,3.51449 v 0 l 3.56667,3.5145 v 0 l 3.56666,3.51449 v 0 L 132,213.95362 v 0 l 3.56667,3.5145 v 0 l 3.56666,3.51449 v 0 L 142.7,224.4971 v 0 l 3.56667,3.51449 v 0 l 3.56666,3.5145 v 0 l 3.56667,3.51449 v 0 l 3.56667,3.51449 v 0 l 3.56666,3.51449 v 0 l 3.56667,3.5145 v 0 l 3.56667,3.51449 v 0 l 3.56666,3.51449 v 0 l 3.56667,3.5145 v 0 l 3.56667,3.51449 v 0 l 3.56666,3.51449 v 0 l 3.56667,3.51449 v 0 l 3.56667,3.5145 v 0 z"
           clip-path="url(#p16612c5a62)"
           style="fill:#26828e;fill-opacity:0.8"
           id="path25" />
      </g>
      <g
         id="PathCollection_5">
        <path
           d="m 260.4,270.18551 v -3.5145 -3.51449 -3.51449 -3.51449 -3.5145 -3.51449 -3.51449 -3.5145 -3.51449 -3.51449 -3.51449 -3.5145 -3.51449 -3.51449 -3.51449 -3.5145 -3.51449 -3.51449 -3.5145 -3.51449 0 l -3.56667,-3.51449 v 0 l -3.56666,-3.51449 v 0 L 249.7,189.35217 v 0 l -3.56667,-3.51449 v 0 l -3.56666,-3.51449 v 0 L 239,178.8087 v 0 l -3.56667,-3.5145 v 0 l -3.56666,-3.51449 v 0 L 228.3,168.26522 v 0 l -3.56667,-3.5145 v 0 l -3.56666,-3.51449 v 0 L 217.6,157.72174 v 0 l -3.56667,-3.51449 v 0 l -3.56666,-3.5145 v 0 L 206.9,147.17826 v 0 l -3.56667,-3.51449 v 0 l -3.56666,-3.5145 v 0 L 196.2,136.63478 v 0 l -3.56667,-3.51449 v 0 l -3.56666,-3.51449 v 0 L 185.5,126.0913 v 0 l -3.56667,-3.51449 v 0 l -3.56666,-3.51449 v 0 L 174.8,115.54783 v 0 l -3.56667,-3.5145 v 0 l -3.56666,-3.51449 v 0 L 164.1,105.00435 v 0 l -3.56667,-3.51449 v 0 l -3.56666,-3.514498 v 0 L 153.4,94.46087 v 0 l -3.56667,-3.514493 v 0 l -3.56666,-3.514493 v 0 L 142.7,83.917391 v 0 l -3.56667,-3.514492 v 0 l -3.56666,-3.514493 v 0 L 132,73.373913 v 0 l -3.56667,-3.514493 v 0 l -3.56666,-3.514492 v 0 L 121.3,62.830435 v 0 l -3.56667,-3.514493 v 0 l -3.56666,-3.514493 v 0 L 110.6,52.286957 v 0 l -3.56667,-3.514493 v 0 l -3.56666,-3.514493 v 0 L 99.9,41.743478 v 0 l -3.566667,-3.514492 v 0 l -3.566666,-3.514493 v 0 L 89.2,31.2 v 0 H 85.633333 82.066667 78.5 74.933333 71.366667 67.8 64.233333 60.666667 57.1 53.533333 49.966667 46.4 42.833333 39.266667 35.7 32.133333 28.566667 25 21.433333 17.866667 l 3.566666,3.514493 v 0 L 25,38.228986 v 0 l 3.566667,3.514492 v 0 l 3.566666,3.514493 v 0 L 35.7,48.772464 v 0 l 3.566667,3.514493 v 0 l 3.566666,3.514492 v 0 L 46.4,59.315942 v 0 l 3.566667,3.514493 v 0 l 3.566666,3.514493 v 0 L 57.1,69.85942 v 0 l 3.566667,3.514493 v 0 l 3.566666,3.514493 v 0 L 67.8,80.402899 v 0 l 3.566667,3.514492 v 0 l 3.566666,3.514493 v 0 L 78.5,90.946377 v 0 l 3.566667,3.514493 v 0 l 3.566666,3.514492 v 0 L 89.2,101.48986 v 0 l 3.566667,3.51449 v 0 l 3.566666,3.51449 v 0 L 99.9,112.03333 v 0 l 3.56667,3.5145 v 0 l 3.56666,3.51449 v 0 l 3.56667,3.51449 v 0 l 3.56667,3.51449 v 0 l 3.56666,3.5145 v 0 l 3.56667,3.51449 v 0 l 3.56667,3.51449 v 0 l 3.56666,3.51449 v 0 L 132,143.66377 v 0 l 3.56667,3.51449 v 0 l 3.56666,3.51449 v 0 l 3.56667,3.5145 v 0 l 3.56667,3.51449 v 0 l 3.56666,3.51449 v 0 l 3.56667,3.51449 v 0 l 3.56667,3.5145 v 0 l 3.56666,3.51449 v 0 L 164.1,175.2942 v 0 l 3.56667,3.5145 v 0 l 3.56666,3.51449 v 0 l 3.56667,3.51449 v 0 l 3.56667,3.51449 v 0 l 3.56666,3.5145 v 0 l 3.56667,3.51449 v 0 l 3.56667,3.51449 v 0 l 3.56666,3.51449 v 0 l 3.56667,3.5145 v 0 l 3.56667,3.51449 v 0 l 3.56666,3.51449 v 0 l 3.56667,3.5145 v 0 l 3.56667,3.51449 v 0 l 3.56666,3.51449 v 0 l 3.56667,3.51449 v 0 l 3.56667,3.5145 v 0 l 3.56666,3.51449 v 0 l 3.56667,3.51449 v 0 l 3.56667,3.51449 v 0 l 3.56666,3.5145 v 0 L 239,249.09855 v 0 l 3.56667,3.51449 v 0 l 3.56666,3.5145 v 0 l 3.56667,3.51449 v 0 l 3.56667,3.51449 v 0 l 3.56666,3.51449 v 0 z"
           clip-path="url(#p16612c5a62)"
           style="fill:#1fa088;fill-opacity:0.8"
           id="path28" />
      </g>
      <g
         id="PathCollection_6">
        <path
           d="m 260.4,199.89565 v -3.51449 -3.51449 -3.5145 -3.51449 -3.51449 -3.51449 -3.5145 -3.51449 -3.51449 -3.5145 -3.51449 -3.51449 -3.51449 -3.5145 -3.51449 -3.51449 -3.5145 -3.51449 -3.51449 -3.51449 0 l -3.56667,-3.5145 v 0 l -3.56666,-3.51449 v 0 L 249.7,119.06232 v 0 l -3.56667,-3.51449 v 0 l -3.56666,-3.5145 v 0 L 239,108.51884 v 0 l -3.56667,-3.51449 v 0 l -3.56666,-3.51449 v 0 L 228.3,97.975362 v 0 l -3.56667,-3.514492 v 0 l -3.56666,-3.514493 v 0 L 217.6,87.431884 v 0 l -3.56667,-3.514493 v 0 l -3.56666,-3.514492 v 0 L 206.9,76.888406 v 0 l -3.56667,-3.514493 v 0 l -3.56666,-3.514493 v 0 L 196.2,66.344928 v 0 l -3.56667,-3.514493 v 0 l -3.56666,-3.514493 v 0 L 185.5,55.801449 v 0 l -3.56667,-3.514492 v 0 l -3.56666,-3.514493 v 0 L 174.8,45.257971 v 0 l -3.56667,-3.514493 v 0 l -3.56666,-3.514492 v 0 L 164.1,34.714493 v 0 L 160.53333,31.2 v 0 H 156.96667 153.4 149.83333 146.26667 142.7 139.13333 135.56667 132 128.43333 124.86667 121.3 117.73333 114.16667 110.6 107.03333 103.46667 99.9 96.333333 92.766667 89.2 l 3.566667,3.514493 v 0 l 3.566666,3.514493 v 0 L 99.9,41.743478 v 0 l 3.56667,3.514493 v 0 l 3.56666,3.514493 v 0 L 110.6,52.286957 v 0 l 3.56667,3.514492 v 0 l 3.56666,3.514493 v 0 L 121.3,62.830435 v 0 l 3.56667,3.514493 v 0 l 3.56666,3.514492 v 0 L 132,73.373913 v 0 l 3.56667,3.514493 v 0 l 3.56666,3.514493 v 0 L 142.7,83.917391 v 0 l 3.56667,3.514493 v 0 l 3.56666,3.514493 v 0 L 153.4,94.46087 v 0 l 3.56667,3.514492 v 0 l 3.56666,3.514498 v 0 l 3.56667,3.51449 v 0 l 3.56667,3.51449 v 0 l 3.56666,3.51449 v 0 l 3.56667,3.5145 v 0 l 3.56667,3.51449 v 0 l 3.56666,3.51449 v 0 L 185.5,126.0913 v 0 l 3.56667,3.5145 v 0 l 3.56666,3.51449 v 0 l 3.56667,3.51449 v 0 l 3.56667,3.51449 v 0 l 3.56666,3.5145 v 0 l 3.56667,3.51449 v 0 l 3.56667,3.51449 v 0 l 3.56666,3.5145 v 0 l 3.56667,3.51449 v 0 l 3.56667,3.51449 v 0 l 3.56666,3.51449 v 0 l 3.56667,3.5145 v 0 l 3.56667,3.51449 v 0 l 3.56666,3.51449 v 0 L 239,178.8087 v 0 l 3.56667,3.51449 v 0 l 3.56666,3.51449 v 0 l 3.56667,3.51449 v 0 l 3.56667,3.5145 v 0 l 3.56666,3.51449 v 0 z"
           clip-path="url(#p16612c5a62)"
           style="fill:#3fbc73;fill-opacity:0.8"
           id="path31" />
      </g>
      <g
         id="PathCollection_7">
        <path
           d="m 260.4,129.6058 v -3.5145 -3.51449 -3.51449 -3.51449 -3.5145 -3.51449 -3.51449 -3.51449 -3.514498 -3.514492 -3.514493 -3.514493 -3.514493 -3.514492 -3.514493 -3.514493 -3.514493 -3.514492 -3.514493 -3.514493 0 l -3.56667,-3.514493 v 0 l -3.56666,-3.514492 v 0 L 249.7,48.772464 v 0 l -3.56667,-3.514493 v 0 l -3.56666,-3.514493 v 0 L 239,38.228986 v 0 l -3.56667,-3.514493 v 0 L 231.86667,31.2 v 0 H 228.3 224.73333 221.16667 217.6 214.03333 210.46667 206.9 203.33333 199.76667 196.2 192.63333 189.06667 185.5 181.93333 178.36667 174.8 171.23333 167.66667 164.1 160.53333 L 164.1,34.714493 v 0 l 3.56667,3.514493 v 0 l 3.56666,3.514492 v 0 L 174.8,45.257971 v 0 l 3.56667,3.514493 v 0 l 3.56666,3.514493 v 0 L 185.5,55.801449 v 0 l 3.56667,3.514493 v 0 l 3.56666,3.514493 v 0 L 196.2,66.344928 v 0 l 3.56667,3.514492 v 0 l 3.56666,3.514493 v 0 L 206.9,76.888406 v 0 l 3.56667,3.514493 v 0 l 3.56666,3.514492 v 0 L 217.6,87.431884 v 0 l 3.56667,3.514493 v 0 l 3.56666,3.514493 v 0 L 228.3,97.975362 v 0 l 3.56667,3.514498 v 0 l 3.56666,3.51449 v 0 L 239,108.51884 v 0 l 3.56667,3.51449 v 0 l 3.56666,3.5145 v 0 l 3.56667,3.51449 v 0 l 3.56667,3.51449 v 0 l 3.56666,3.51449 v 0 z"
           clip-path="url(#p16612c5a62)"
           style="fill:#84d44b;fill-opacity:0.8"
           id="path34" />
      </g>
      <g
         id="PathCollection_8">
        <path
           d="M 260.4,59.315942 V 55.801449 52.286957 48.772464 45.257971 41.743478 38.228986 34.714493 31.2 H 256.83333 253.26667 249.7 246.13333 242.56667 239 h -3.56667 -3.56666 l 3.56666,3.514493 v 0 L 239,38.228986 v 0 l 3.56667,3.514492 v 0 l 3.56666,3.514493 v 0 L 249.7,48.772464 v 0 l 3.56667,3.514493 v 0 l 3.56666,3.514492 v 0 z"
           clip-path="url(#p16612c5a62)"
           style="fill:#d8e219;fill-opacity:0.8"
           id="path37" />
      </g>
      <g
         id="PathCollection_9">
        <defs
           id="defs41">
          <path
             id="C0_0_379e7e85ef"
             d="M 0,3 C 0.795609,3 1.55874,2.683901 2.12132,2.12132 2.683901,1.55874 3,0.795609 3,0 3,-0.795609 2.683901,-1.55874 2.12132,-2.12132 1.55874,-2.683901 0.795609,-3 0,-3 -0.795609,-3 -1.55874,-2.683901 -2.12132,-2.12132 -2.683901,-1.55874 -3,-0.795609 -3,0 -3,0.795609 -2.683901,1.55874 -2.12132,2.12132 -1.55874,2.683901 -0.795609,3 0,3 Z" />
        </defs>
        <g
           clip-path="url(#p16612c5a62)"
           id="g45">
          <use
             xlink:href="#C0_0_379e7e85ef"
             x="228.3"
             y="62.830437"
             style="fill:#fde725;stroke:#002b36"
             id="use43"
             width="100%"
             height="100%" />
        </g>
        <g
           clip-path="url(#p16612c5a62)"
           id="g49">
          <use
             xlink:href="#C0_0_379e7e85ef"
             x="228.3"
             y="238.55507"
             style="fill:#440154;stroke:#002b36"
             id="use47"
             width="100%"
             height="100%" />
        </g>
        <g
           clip-path="url(#p16612c5a62)"
           id="g53">
          <use
             xlink:href="#C0_0_379e7e85ef"
             x="49.966667"
             y="62.830437"
             style="fill:#440154;stroke:#002b36"
             id="use51"
             width="100%"
             height="100%" />
        </g>
        <g
           clip-path="url(#p16612c5a62)"
           id="g57">
          <use
             xlink:href="#C0_0_379e7e85ef"
             x="49.966667"
             y="238.55507"
             style="fill:#440154;stroke:#002b36"
             id="use55"
             width="100%"
             height="100%" />
        </g>
      </g>
      <g
         id="patch_3">
        <path
           d="M 14.3,273.7 V 31.2"
           style="fill:none;stroke:#eee8d5;stroke-width:0.8;stroke-linecap:square;stroke-linejoin:miter"
           id="path60" />
      </g>
      <g
         id="patch_4">
        <path
           d="M 260.4,273.7 V 31.2"
           style="fill:none;stroke:#eee8d5;stroke-width:0.8;stroke-linecap:square;stroke-linejoin:miter"
           id="path63" />
      </g>
      <g
         id="patch_5">
        <path
           d="M 14.3,273.7 H 260.4"
           style="fill:none;stroke:#eee8d5;stroke-width:0.8;stroke-linecap:square;stroke-linejoin:miter"
           id="path66" />
      </g>
      <g
         id="patch_6">
        <path
           d="M 14.3,31.2 H 260.4"
           style="fill:none;stroke:#eee8d5;stroke-width:0.8;stroke-linecap:square;stroke-linejoin:miter"
           id="path69" />
      </g>
      <g
         id="text_1">
        <!-- acc = 1.00 -->
        <g
           transform="matrix(0.14,0,0,-0.14,99.461406,264.91377)"
           id="g101">
          <defs
             id="defs79">
            <path
               id="DejaVuSans-61"
               d="m 2194,1759 q -697,0 -966,-159 -269,-159 -269,-544 0,-306 202,-486 202,-179 548,-179 479,0 768,339 289,339 289,901 v 128 z m 1147,238 V 0 H 2766 V 531 Q 2569,213 2275,61 1981,-91 1556,-91 q -537,0 -855,302 -317,302 -317,808 0,590 395,890 396,300 1180,300 h 807 v 57 q 0,397 -261,614 -261,217 -733,217 -300,0 -585,-72 -284,-72 -546,-216 v 532 q 315,122 612,182 297,61 578,61 760,0 1135,-394 375,-393 375,-1193 z"
               transform="scale(0.015625)" />
            <path
               id="DejaVuSans-63"
               d="m 3122,3366 v -538 q -244,135 -489,202 -245,67 -495,67 -560,0 -870,-355 -309,-354 -309,-995 0,-641 309,-996 310,-354 870,-354 250,0 495,67 245,67 489,202 V 134 Q 2881,22 2623,-34 2366,-91 2075,-91 1284,-91 818,406 353,903 353,1747 q 0,856 470,1346 471,491 1290,491 265,0 518,-55 253,-54 491,-163 z"
               transform="scale(0.015625)" />
            <path
               id="DejaVuSans-20"
               transform="scale(0.015625)"
               d="" />
            <path
               id="DejaVuSans-3d"
               d="M 678,2906 H 4684 V 2381 H 678 Z m 0,-1275 H 4684 V 1100 H 678 Z"
               transform="scale(0.015625)" />
            <path
               id="DejaVuSans-31"
               d="M 794,531 H 1825 V 4091 L 703,3866 v 575 l 1116,225 h 631 V 531 H 3481 V 0 H 794 Z"
               transform="scale(0.015625)" />
            <path
               id="DejaVuSans-2e"
               d="m 684,794 h 660 V 0 H 684 Z"
               transform="scale(0.015625)" />
            <path
               id="DejaVuSans-30"
               d="m 2034,4250 q -487,0 -733,-480 -245,-479 -245,-1442 0,-959 245,-1439 246,-480 733,-480 491,0 736,480 246,480 246,1439 0,963 -246,1442 -245,480 -736,480 z m 0,500 q 785,0 1199,-621 414,-620 414,-1801 0,-1178 -414,-1799 -414,-620 -1199,-620 -784,0 -1198,620 -414,621 -414,1799 0,1181 414,1801 414,621 1198,621 z"
               transform="scale(0.015625)" />
          </defs>
          <use
             xlink:href="#DejaVuSans-61"
             id="use81"
             x="0"
             y="0"
             width="100%"
             height="100%" />
          <use
             xlink:href="#DejaVuSans-63"
             x="61.279297"
             id="use83"
             y="0"
             width="100%"
             height="100%" />
          <use
             xlink:href="#DejaVuSans-63"
             x="116.25977"
             id="use85"
             y="0"
             width="100%"
             height="100%" />
          <use
             xlink:href="#DejaVuSans-20"
             x="171.24023"
             id="use87"
             y="0"
             width="100%"
             height="100%" />
          <use
             xlink:href="#DejaVuSans-3d"
             x="203.02734"
             id="use89"
             y="0"
             width="100%"
             height="100%" />
          <use
             xlink:href="#DejaVuSans-20"
             x="286.81641"
             id="use91"
             y="0"
             width="100%"
             height="100%" />
          <use
             xlink:href="#DejaVuSans-31"
             x="318.60352"
             id="use93"
             y="0"
             width="100%"
             height="100%" />
          <use
             xlink:href="#DejaVuSans-2e"
             x="382.22656"
             id="use95"
             y="0"
             width="100%"
             height="100%" />
          <use
             xlink:href="#DejaVuSans-30"
             x="414.01367"
             id="use97"
             y="0"
             width="100%"
             height="100%" />
          <use
             xlink:href="#DejaVuSans-30"
             x="477.63672"
             id="use99"
             y="0"
             width="100%"
             height="100%" />
        </g>
      </g>
      <g
         id="text_2">
        <!-- and: $2 \cdot x_1 + 2 \cdot x_2 -2$ -->
        <g
           transform="matrix(0.16,0,0,-0.16,53.75,25.2)"
           id="g146">
          <defs
             id="defs112">
            <path
               id="DejaVuSans-6e"
               d="M 3513,2113 V 0 h -575 v 2094 q 0,497 -194,743 -194,247 -581,247 -466,0 -735,-297 -269,-296 -269,-809 V 0 H 581 v 3500 h 578 v -544 q 207,316 486,472 280,156 646,156 603,0 912,-373 310,-373 310,-1098 z"
               transform="scale(0.015625)" />
            <path
               id="DejaVuSans-64"
               d="m 2906,2969 v 1894 h 575 V 0 H 2906 V 525 Q 2725,213 2448,61 2172,-91 1784,-91 1150,-91 751,415 353,922 353,1747 q 0,825 398,1331 399,506 1033,506 388,0 664,-152 277,-151 458,-463 z M 947,1747 q 0,-634 261,-995 261,-361 717,-361 456,0 718,361 263,361 263,995 0,634 -263,995 -262,361 -718,361 -456,0 -717,-361 -261,-361 -261,-995 z"
               transform="scale(0.015625)" />
            <path
               id="DejaVuSans-3a"
               d="m 750,794 h 659 V 0 H 750 Z m 0,2515 h 659 V 2516 H 750 Z"
               transform="scale(0.015625)" />
            <path
               id="DejaVuSans-32"
               d="M 1228,531 H 3431 V 0 H 469 v 531 q 359,372 979,998 621,627 780,809 303,340 423,576 121,236 121,464 0,372 -261,606 -261,235 -680,235 -297,0 -627,-103 -329,-103 -704,-313 v 638 q 381,153 712,231 332,78 607,78 725,0 1156,-363 431,-362 431,-968 0,-288 -108,-546 -107,-257 -392,-607 -78,-91 -497,-524 Q 1991,1309 1228,531 Z"
               transform="scale(0.015625)" />
            <path
               id="DejaVuSans-22c5"
               d="m 684,2619 h 660 V 1825 H 684 Z"
               transform="scale(0.015625)" />
            <path
               id="DejaVuSans-Oblique-78"
               d="M 3841,3500 2234,1784 3219,0 H 2559 L 1819,1388 531,0 H -166 L 1556,1844 641,3500 h 659 l 672,-1266 1172,1266 z"
               transform="scale(0.015625)" />
            <path
               id="DejaVuSans-2b"
               d="M 2944,4013 V 2272 H 4684 V 1741 H 2944 V 0 H 2419 V 1741 H 678 v 531 h 1741 v 1741 z"
               transform="scale(0.015625)" />
            <path
               id="DejaVuSans-2212"
               d="M 678,2272 H 4684 V 1741 H 678 Z"
               transform="scale(0.015625)" />
          </defs>
          <use
             xlink:href="#DejaVuSans-61"
             transform="translate(0,0.015625)"
             id="use114"
             x="0"
             y="0"
             width="100%"
             height="100%" />
          <use
             xlink:href="#DejaVuSans-6e"
             transform="translate(61.279297,0.015625)"
             id="use116"
             x="0"
             y="0"
             width="100%"
             height="100%" />
          <use
             xlink:href="#DejaVuSans-64"
             transform="translate(124.6582,0.015625)"
             id="use118"
             x="0"
             y="0"
             width="100%"
             height="100%" />
          <use
             xlink:href="#DejaVuSans-3a"
             transform="translate(188.13477,0.015625)"
             id="use120"
             x="0"
             y="0"
             width="100%"
             height="100%" />
          <use
             xlink:href="#DejaVuSans-20"
             transform="translate(221.82617,0.015625)"
             id="use122"
             x="0"
             y="0"
             width="100%"
             height="100%" />
          <use
             xlink:href="#DejaVuSans-32"
             transform="translate(253.61328,0.015625)"
             id="use124"
             x="0"
             y="0"
             width="100%"
             height="100%" />
          <use
             xlink:href="#DejaVuSans-22c5"
             transform="translate(336.71875,0.015625)"
             id="use126"
             x="0"
             y="0"
             width="100%"
             height="100%" />
          <use
             xlink:href="#DejaVuSans-Oblique-78"
             transform="translate(387.98828,0.015625)"
             id="use128"
             x="0"
             y="0"
             width="100%"
             height="100%" />
          <use
             xlink:href="#DejaVuSans-31"
             transform="matrix(0.7,0,0,0.7,447.16797,-16.390625)"
             id="use130"
             x="0"
             y="0"
             width="100%"
             height="100%" />
          <use
             xlink:href="#DejaVuSans-2b"
             transform="translate(513.9209,0.015625)"
             id="use132"
             x="0"
             y="0"
             width="100%"
             height="100%" />
          <use
             xlink:href="#DejaVuSans-32"
             transform="translate(617.19238,0.015625)"
             id="use134"
             x="0"
             y="0"
             width="100%"
             height="100%" />
          <use
             xlink:href="#DejaVuSans-22c5"
             transform="translate(700.29785,0.015625)"
             id="use136"
             x="0"
             y="0"
             width="100%"
             height="100%" />
          <use
             xlink:href="#DejaVuSans-Oblique-78"
             transform="translate(751.56738,0.015625)"
             id="use138"
             x="0"
             y="0"
             width="100%"
             height="100%" />
          <use
             xlink:href="#DejaVuSans-32"
             transform="matrix(0.7,0,0,0.7,810.74707,-16.390625)"
             id="use140"
             x="0"
             y="0"
             width="100%"
             height="100%" />
          <use
             xlink:href="#DejaVuSans-2212"
             transform="translate(877.5,0.015625)"
             id="use142"
             x="0"
             y="0"
             width="100%"
             height="100%" />
          <use
             xlink:href="#DejaVuSans-32"
             transform="translate(980.77148,0.015625)"
             id="use144"
             x="0"
             y="0"
             width="100%"
             height="100%" />
        </g>
      </g>
    </g>
    <g
       id="axes_2">
      <g
         id="patch_7">
        <path
           d="M 274.7,273.7 H 520.8 V 31.2 H 274.7 Z"
           style="fill:#eee8d5"
           id="path150" />
      </g>
      <g
         id="matplotlib.axis_3" />
      <g
         id="matplotlib.axis_4" />
      <g
         id="PathCollection_10">
        <path
           d="m 278.26667,273.7 h 3.56666 3.56667 3.56667 3.56666 l -3.56666,-3.51449 v 0 L 285.4,266.67101 v 0 l -3.56667,-3.51449 v 0 l -3.56666,-3.51449 v 0 L 274.7,256.12754 v 3.51449 3.51449 3.51449 3.5145 3.51449 z"
           clip-path="url(#p703849f99d)"
           style="fill:#481769;fill-opacity:0.8"
           id="path155" />
      </g>
      <g
         id="PathCollection_11">
        <path
           d="m 288.96667,270.18551 3.56666,3.51449 v 0 h 3.56667 3.56667 3.56666 3.56667 3.56667 3.56666 3.56667 3.56667 3.56666 3.56667 3.56667 3.56666 3.56667 3.56667 3.56666 3.56667 3.56667 3.56666 3.56667 3.56667 v 0 0 L 360.3,270.18551 v 0 l -3.56667,-3.5145 v 0 l -3.56666,-3.51449 v 0 L 349.6,259.64203 v 0 l -3.56667,-3.51449 v 0 l -3.56666,-3.5145 v 0 L 338.9,249.09855 v 0 l -3.56667,-3.51449 v 0 l -3.56666,-3.5145 v 0 L 328.2,238.55507 v 0 l -3.56667,-3.51449 v 0 l -3.56666,-3.51449 v 0 L 317.5,228.01159 v 0 l -3.56667,-3.51449 v 0 l -3.56666,-3.51449 v 0 L 306.8,217.46812 v 0 l -3.56667,-3.5145 v 0 l -3.56666,-3.51449 v 0 L 296.1,206.92464 v 0 l -3.56667,-3.5145 v 0 l -3.56666,-3.51449 v 0 L 285.4,196.38116 v 0 l -3.56667,-3.51449 v 0 l -3.56666,-3.5145 v 0 L 274.7,185.83768 v 0 0 3.51449 3.5145 3.51449 3.51449 3.51449 3.5145 3.51449 3.51449 3.5145 3.51449 3.51449 3.51449 3.5145 3.51449 3.51449 3.51449 3.5145 3.51449 3.51449 3.5145 0 l 3.56667,3.51449 v 0 l 3.56666,3.51449 v 0 l 3.56667,3.51449 v 0 z"
           clip-path="url(#p703849f99d)"
           style="fill:#424086;fill-opacity:0.8"
           id="path158" />
      </g>
      <g
         id="PathCollection_12">
        <path
           d="m 363.86667,273.7 v 0 h 3.56666 3.56667 3.56667 3.56666 3.56667 3.56667 3.56666 3.56667 3.56667 3.56666 3.56667 3.56667 3.56666 3.56667 3.56667 3.56666 3.56667 3.56667 3.56666 3.56667 v 0 0 l -3.56667,-3.51449 v 0 l -3.56666,-3.5145 v 0 L 424.5,263.15652 v 0 l -3.56667,-3.51449 v 0 l -3.56666,-3.51449 v 0 L 413.8,252.61304 v 0 l -3.56667,-3.51449 v 0 l -3.56666,-3.51449 v 0 L 403.1,242.06956 v 0 l -3.56667,-3.51449 v 0 l -3.56666,-3.51449 v 0 L 392.4,231.52609 v 0 l -3.56667,-3.5145 v 0 l -3.56666,-3.51449 v 0 L 381.7,220.98261 v 0 l -3.56667,-3.51449 v 0 l -3.56666,-3.5145 v 0 L 371,210.43913 v 0 l -3.56667,-3.51449 v 0 l -3.56666,-3.5145 v 0 L 360.3,199.89565 v 0 l -3.56667,-3.51449 v 0 l -3.56666,-3.51449 v 0 L 349.6,189.35217 v 0 l -3.56667,-3.51449 v 0 l -3.56666,-3.51449 v 0 L 338.9,178.8087 v 0 l -3.56667,-3.5145 v 0 l -3.56666,-3.51449 v 0 L 328.2,168.26522 v 0 l -3.56667,-3.5145 v 0 l -3.56666,-3.51449 v 0 L 317.5,157.72174 v 0 l -3.56667,-3.51449 v 0 l -3.56666,-3.5145 v 0 L 306.8,147.17826 v 0 l -3.56667,-3.51449 v 0 l -3.56666,-3.5145 v 0 L 296.1,136.63478 v 0 l -3.56667,-3.51449 v 0 l -3.56666,-3.51449 v 0 L 285.4,126.0913 v 0 l -3.56667,-3.51449 v 0 l -3.56666,-3.51449 v 0 L 274.7,115.54783 v 0 0 3.51449 3.51449 3.51449 3.5145 3.51449 3.51449 3.51449 3.5145 3.51449 3.51449 3.5145 3.51449 3.51449 3.51449 3.5145 3.51449 3.51449 3.5145 3.51449 3.51449 0 l 3.56667,3.51449 v 0 l 3.56666,3.5145 v 0 l 3.56667,3.51449 v 0 l 3.56667,3.51449 v 0 l 3.56666,3.51449 v 0 l 3.56667,3.5145 v 0 l 3.56667,3.51449 v 0 l 3.56666,3.51449 v 0 l 3.56667,3.5145 v 0 l 3.56667,3.51449 v 0 l 3.56666,3.51449 v 0 l 3.56667,3.51449 v 0 l 3.56667,3.5145 v 0 l 3.56666,3.51449 v 0 l 3.56667,3.51449 v 0 l 3.56667,3.51449 v 0 l 3.56666,3.5145 v 0 l 3.56667,3.51449 v 0 l 3.56667,3.51449 v 0 l 3.56666,3.5145 v 0 l 3.56667,3.51449 v 0 l 3.56667,3.51449 v 0 l 3.56666,3.51449 v 0 l 3.56667,3.5145 v 0 z"
           clip-path="url(#p703849f99d)"
           style="fill:#33638d;fill-opacity:0.8"
           id="path161" />
      </g>
      <g
         id="PathCollection_13">
        <path
           d="m 435.2,273.7 v 0 h 3.56667 3.56666 3.56667 3.56667 3.56666 3.56667 3.56667 3.56666 3.56667 3.56667 3.56666 3.56667 3.56667 3.56666 3.56667 3.56667 3.56666 3.56667 3.56667 3.56666 v 0 0 l -3.56666,-3.51449 v 0 L 499.4,266.67101 v 0 l -3.56667,-3.51449 v 0 l -3.56666,-3.51449 v 0 L 488.7,256.12754 v 0 l -3.56667,-3.5145 v 0 l -3.56666,-3.51449 v 0 L 478,245.58406 v 0 l -3.56667,-3.5145 v 0 l -3.56666,-3.51449 v 0 L 467.3,235.04058 v 0 l -3.56667,-3.51449 v 0 l -3.56666,-3.5145 v 0 L 456.6,224.4971 v 0 l -3.56667,-3.51449 v 0 l -3.56666,-3.51449 v 0 L 445.9,213.95362 v 0 l -3.56667,-3.51449 v 0 l -3.56666,-3.51449 v 0 L 435.2,203.41014 v 0 l -3.56667,-3.51449 v 0 l -3.56666,-3.51449 v 0 L 424.5,192.86667 v 0 l -3.56667,-3.5145 v 0 l -3.56666,-3.51449 v 0 L 413.8,182.32319 v 0 l -3.56667,-3.51449 v 0 l -3.56666,-3.5145 v 0 L 403.1,171.77971 v 0 l -3.56667,-3.51449 v 0 l -3.56666,-3.5145 v 0 L 392.4,161.23623 v 0 l -3.56667,-3.51449 v 0 l -3.56666,-3.51449 v 0 L 381.7,150.69275 v 0 l -3.56667,-3.51449 v 0 l -3.56666,-3.51449 v 0 L 371,140.14927 v 0 l -3.56667,-3.51449 v 0 l -3.56666,-3.51449 v 0 L 360.3,129.6058 v 0 l -3.56667,-3.5145 v 0 l -3.56666,-3.51449 v 0 L 349.6,119.06232 v 0 l -3.56667,-3.51449 v 0 l -3.56666,-3.5145 v 0 L 338.9,108.51884 v 0 l -3.56667,-3.51449 v 0 l -3.56666,-3.51449 v 0 L 328.2,97.975362 v 0 l -3.56667,-3.514492 v 0 l -3.56666,-3.514493 v 0 L 317.5,87.431884 v 0 l -3.56667,-3.514493 v 0 l -3.56666,-3.514492 v 0 L 306.8,76.888406 v 0 l -3.56667,-3.514493 v 0 l -3.56666,-3.514493 v 0 L 296.1,66.344928 v 0 l -3.56667,-3.514493 v 0 l -3.56666,-3.514493 v 0 L 285.4,55.801449 v 0 l -3.56667,-3.514492 v 0 l -3.56666,-3.514493 v 0 L 274.7,45.257971 v 0 0 3.514493 3.514493 3.514492 3.514493 3.514493 3.514493 3.514492 3.514493 3.514493 3.514493 3.514492 3.514493 3.514493 3.514493 3.514492 3.514498 3.51449 3.51449 3.51449 3.5145 0 l 3.56667,3.51449 v 0 l 3.56666,3.51449 v 0 L 285.4,126.0913 v 0 l 3.56667,3.5145 v 0 l 3.56666,3.51449 v 0 l 3.56667,3.51449 v 0 l 3.56667,3.51449 v 0 l 3.56666,3.5145 v 0 l 3.56667,3.51449 v 0 l 3.56667,3.51449 v 0 l 3.56666,3.5145 v 0 l 3.56667,3.51449 v 0 l 3.56667,3.51449 v 0 l 3.56666,3.51449 v 0 l 3.56667,3.5145 v 0 l 3.56667,3.51449 v 0 l 3.56666,3.51449 v 0 l 3.56667,3.5145 v 0 l 3.56667,3.51449 v 0 l 3.56666,3.51449 v 0 l 3.56667,3.51449 v 0 l 3.56667,3.5145 v 0 l 3.56666,3.51449 v 0 l 3.56667,3.51449 v 0 l 3.56667,3.51449 v 0 l 3.56666,3.5145 v 0 L 371,210.43913 v 0 l 3.56667,3.51449 v 0 l 3.56666,3.5145 v 0 l 3.56667,3.51449 v 0 l 3.56667,3.51449 v 0 l 3.56666,3.51449 v 0 l 3.56667,3.5145 v 0 l 3.56667,3.51449 v 0 l 3.56666,3.51449 v 0 l 3.56667,3.51449 v 0 l 3.56667,3.5145 v 0 l 3.56666,3.51449 v 0 l 3.56667,3.51449 v 0 l 3.56667,3.5145 v 0 l 3.56666,3.51449 v 0 l 3.56667,3.51449 v 0 l 3.56667,3.51449 v 0 l 3.56666,3.5145 v 0 z"
           clip-path="url(#p703849f99d)"
           style="fill:#26828e;fill-opacity:0.8"
           id="path164" />
      </g>
      <g
         id="PathCollection_14">
        <path
           d="m 506.53333,273.7 v 0 h 3.56667 3.56667 3.56666 3.56667 v -3.51449 -3.5145 -3.51449 -3.51449 -3.51449 -3.5145 -3.51449 -3.51449 -3.5145 -3.51449 -3.51449 -3.51449 -3.5145 -3.51449 -3.51449 -3.51449 0 l -3.56667,-3.5145 v 0 l -3.56666,-3.51449 v 0 L 510.1,206.92464 v 0 l -3.56667,-3.5145 v 0 l -3.56666,-3.51449 v 0 L 499.4,196.38116 v 0 l -3.56667,-3.51449 v 0 l -3.56666,-3.5145 v 0 L 488.7,185.83768 v 0 l -3.56667,-3.51449 v 0 l -3.56666,-3.51449 v 0 L 478,175.2942 v 0 l -3.56667,-3.51449 v 0 l -3.56666,-3.51449 v 0 L 467.3,164.75072 v 0 l -3.56667,-3.51449 v 0 l -3.56666,-3.51449 v 0 L 456.6,154.20725 v 0 l -3.56667,-3.5145 v 0 l -3.56666,-3.51449 v 0 L 445.9,143.66377 v 0 l -3.56667,-3.5145 v 0 l -3.56666,-3.51449 v 0 L 435.2,133.12029 v 0 l -3.56667,-3.51449 v 0 l -3.56666,-3.5145 v 0 L 424.5,122.57681 v 0 l -3.56667,-3.51449 v 0 l -3.56666,-3.51449 v 0 L 413.8,112.03333 v 0 l -3.56667,-3.51449 v 0 l -3.56666,-3.51449 v 0 L 403.1,101.48986 v 0 l -3.56667,-3.514498 v 0 l -3.56666,-3.514492 v 0 L 392.4,90.946377 v 0 l -3.56667,-3.514493 v 0 l -3.56666,-3.514493 v 0 L 381.7,80.402899 v 0 l -3.56667,-3.514493 v 0 l -3.56666,-3.514493 v 0 L 371,69.85942 v 0 l -3.56667,-3.514492 v 0 l -3.56666,-3.514493 v 0 L 360.3,59.315942 v 0 l -3.56667,-3.514493 v 0 l -3.56666,-3.514492 v 0 L 349.6,48.772464 v 0 l -3.56667,-3.514493 v 0 l -3.56666,-3.514493 v 0 L 338.9,38.228986 v 0 l -3.56667,-3.514493 v 0 L 331.76667,31.2 v 0 H 328.2 324.63333 321.06667 317.5 313.93333 310.36667 306.8 303.23333 299.66667 296.1 292.53333 288.96667 285.4 281.83333 278.26667 274.7 v 3.514493 3.514493 3.514492 3.514493 0 l 3.56667,3.514493 v 0 l 3.56666,3.514493 v 0 L 285.4,55.801449 v 0 l 3.56667,3.514493 v 0 l 3.56666,3.514493 v 0 L 296.1,66.344928 v 0 l 3.56667,3.514492 v 0 l 3.56666,3.514493 v 0 L 306.8,76.888406 v 0 l 3.56667,3.514493 v 0 l 3.56666,3.514492 v 0 L 317.5,87.431884 v 0 l 3.56667,3.514493 v 0 l 3.56666,3.514493 v 0 L 328.2,97.975362 v 0 l 3.56667,3.514498 v 0 l 3.56666,3.51449 v 0 l 3.56667,3.51449 v 0 l 3.56667,3.51449 v 0 l 3.56666,3.5145 v 0 l 3.56667,3.51449 v 0 l 3.56667,3.51449 v 0 l 3.56666,3.51449 v 0 l 3.56667,3.5145 v 0 l 3.56667,3.51449 v 0 l 3.56666,3.51449 v 0 L 371,140.14927 v 0 l 3.56667,3.5145 v 0 l 3.56666,3.51449 v 0 l 3.56667,3.51449 v 0 l 3.56667,3.5145 v 0 l 3.56666,3.51449 v 0 l 3.56667,3.51449 v 0 l 3.56667,3.51449 v 0 l 3.56666,3.5145 v 0 l 3.56667,3.51449 v 0 l 3.56667,3.51449 v 0 l 3.56666,3.5145 v 0 l 3.56667,3.51449 v 0 l 3.56667,3.51449 v 0 l 3.56666,3.51449 v 0 l 3.56667,3.5145 v 0 l 3.56667,3.51449 v 0 l 3.56666,3.51449 v 0 l 3.56667,3.51449 v 0 l 3.56667,3.5145 v 0 l 3.56666,3.51449 v 0 l 3.56667,3.51449 v 0 l 3.56667,3.5145 v 0 l 3.56666,3.51449 v 0 L 456.6,224.4971 v 0 l 3.56667,3.51449 v 0 l 3.56666,3.5145 v 0 l 3.56667,3.51449 v 0 l 3.56667,3.51449 v 0 l 3.56666,3.51449 v 0 L 478,245.58406 v 0 l 3.56667,3.51449 v 0 l 3.56666,3.51449 v 0 l 3.56667,3.5145 v 0 l 3.56667,3.51449 v 0 l 3.56666,3.51449 v 0 l 3.56667,3.51449 v 0 l 3.56667,3.5145 v 0 z"
           clip-path="url(#p703849f99d)"
           style="fill:#1fa088;fill-opacity:0.8"
           id="path167" />
      </g>
      <g
         id="PathCollection_15">
        <path
           d="m 520.8,217.46812 v -3.5145 -3.51449 -3.51449 -3.5145 -3.51449 -3.51449 -3.51449 -3.5145 -3.51449 -3.51449 -3.51449 -3.5145 -3.51449 -3.51449 -3.5145 -3.51449 -3.51449 -3.51449 -3.5145 -3.51449 0 l -3.56667,-3.51449 v 0 l -3.56666,-3.5145 v 0 L 510.1,136.63478 v 0 l -3.56667,-3.51449 v 0 l -3.56666,-3.51449 v 0 L 499.4,126.0913 v 0 l -3.56667,-3.51449 v 0 l -3.56666,-3.51449 v 0 L 488.7,115.54783 v 0 l -3.56667,-3.5145 v 0 l -3.56666,-3.51449 v 0 L 478,105.00435 v 0 l -3.56667,-3.51449 v 0 l -3.56666,-3.514498 v 0 L 467.3,94.46087 v 0 l -3.56667,-3.514493 v 0 l -3.56666,-3.514493 v 0 L 456.6,83.917391 v 0 l -3.56667,-3.514492 v 0 l -3.56666,-3.514493 v 0 L 445.9,73.373913 v 0 l -3.56667,-3.514493 v 0 l -3.56666,-3.514492 v 0 L 435.2,62.830435 v 0 l -3.56667,-3.514493 v 0 l -3.56666,-3.514493 v 0 L 424.5,52.286957 v 0 l -3.56667,-3.514493 v 0 l -3.56666,-3.514493 v 0 L 413.8,41.743478 v 0 l -3.56667,-3.514492 v 0 l -3.56666,-3.514493 v 0 L 403.1,31.2 v 0 H 399.53333 395.96667 392.4 388.83333 385.26667 381.7 378.13333 374.56667 371 367.43333 363.86667 360.3 356.73333 353.16667 349.6 346.03333 342.46667 338.9 h -3.56667 -3.56666 l 3.56666,3.514493 v 0 L 338.9,38.228986 v 0 l 3.56667,3.514492 v 0 l 3.56666,3.514493 v 0 L 349.6,48.772464 v 0 l 3.56667,3.514493 v 0 l 3.56666,3.514492 v 0 L 360.3,59.315942 v 0 l 3.56667,3.514493 v 0 l 3.56666,3.514493 v 0 L 371,69.85942 v 0 l 3.56667,3.514493 v 0 l 3.56666,3.514493 v 0 L 381.7,80.402899 v 0 l 3.56667,3.514492 v 0 l 3.56666,3.514493 v 0 L 392.4,90.946377 v 0 l 3.56667,3.514493 v 0 l 3.56666,3.514492 v 0 L 403.1,101.48986 v 0 l 3.56667,3.51449 v 0 l 3.56666,3.51449 v 0 l 3.56667,3.51449 v 0 l 3.56667,3.5145 v 0 l 3.56666,3.51449 v 0 l 3.56667,3.51449 v 0 l 3.56667,3.51449 v 0 l 3.56666,3.5145 v 0 l 3.56667,3.51449 v 0 l 3.56667,3.51449 v 0 l 3.56666,3.51449 v 0 l 3.56667,3.5145 v 0 l 3.56667,3.51449 v 0 l 3.56666,3.51449 v 0 l 3.56667,3.5145 v 0 l 3.56667,3.51449 v 0 l 3.56666,3.51449 v 0 l 3.56667,3.51449 v 0 l 3.56667,3.5145 v 0 l 3.56666,3.51449 v 0 L 478,175.2942 v 0 l 3.56667,3.5145 v 0 l 3.56666,3.51449 v 0 l 3.56667,3.51449 v 0 l 3.56667,3.51449 v 0 l 3.56666,3.5145 v 0 l 3.56667,3.51449 v 0 l 3.56667,3.51449 v 0 l 3.56666,3.51449 v 0 l 3.56667,3.5145 v 0 l 3.56667,3.51449 v 0 l 3.56666,3.51449 v 0 z"
           clip-path="url(#p703849f99d)"
           style="fill:#3fbc73;fill-opacity:0.8"
           id="path170" />
      </g>
      <g
         id="PathCollection_16">
        <path
           d="m 520.8,147.17826 v -3.51449 -3.5145 -3.51449 -3.51449 -3.51449 -3.5145 -3.51449 -3.51449 -3.51449 -3.5145 -3.51449 -3.51449 -3.51449 -3.514498 -3.514492 -3.514493 -3.514493 -3.514493 -3.514492 -3.514493 0 l -3.56667,-3.514493 v 0 l -3.56666,-3.514493 v 0 L 510.1,66.344928 v 0 l -3.56667,-3.514493 v 0 l -3.56666,-3.514493 v 0 L 499.4,55.801449 v 0 l -3.56667,-3.514492 v 0 l -3.56666,-3.514493 v 0 L 488.7,45.257971 v 0 l -3.56667,-3.514493 v 0 l -3.56666,-3.514492 v 0 L 478,34.714493 v 0 L 474.43333,31.2 v 0 H 470.86667 467.3 463.73333 460.16667 456.6 453.03333 449.46667 445.9 442.33333 438.76667 435.2 431.63333 428.06667 424.5 420.93333 417.36667 413.8 410.23333 406.66667 403.1 l 3.56667,3.514493 v 0 l 3.56666,3.514493 v 0 L 413.8,41.743478 v 0 l 3.56667,3.514493 v 0 l 3.56666,3.514493 v 0 L 424.5,52.286957 v 0 l 3.56667,3.514492 v 0 l 3.56666,3.514493 v 0 L 435.2,62.830435 v 0 l 3.56667,3.514493 v 0 l 3.56666,3.514492 v 0 L 445.9,73.373913 v 0 l 3.56667,3.514493 v 0 l 3.56666,3.514493 v 0 L 456.6,83.917391 v 0 l 3.56667,3.514493 v 0 l 3.56666,3.514493 v 0 L 467.3,94.46087 v 0 l 3.56667,3.514492 v 0 l 3.56666,3.514498 v 0 L 478,105.00435 v 0 l 3.56667,3.51449 v 0 l 3.56666,3.51449 v 0 l 3.56667,3.5145 v 0 l 3.56667,3.51449 v 0 l 3.56666,3.51449 v 0 L 499.4,126.0913 v 0 l 3.56667,3.5145 v 0 l 3.56666,3.51449 v 0 l 3.56667,3.51449 v 0 l 3.56667,3.51449 v 0 l 3.56666,3.5145 v 0 z"
           clip-path="url(#p703849f99d)"
           style="fill:#84d44b;fill-opacity:0.8"
           id="path173" />
      </g>
      <g
         id="PathCollection_17">
        <path
           d="M 520.8,76.888406 V 73.373913 69.85942 66.344928 62.830435 59.315942 55.801449 52.286957 48.772464 45.257971 41.743478 38.228986 34.714493 31.2 H 517.23333 513.66667 510.1 506.53333 502.96667 499.4 495.83333 492.26667 488.7 485.13333 481.56667 478 474.43333 L 478,34.714493 v 0 l 3.56667,3.514493 v 0 l 3.56666,3.514492 v 0 L 488.7,45.257971 v 0 l 3.56667,3.514493 v 0 l 3.56666,3.514493 v 0 L 499.4,55.801449 v 0 l 3.56667,3.514493 v 0 l 3.56666,3.514493 v 0 L 510.1,66.344928 v 0 l 3.56667,3.514492 v 0 l 3.56666,3.514493 v 0 z"
           clip-path="url(#p703849f99d)"
           style="fill:#d8e219;fill-opacity:0.8"
           id="path176" />
      </g>
      <g
         id="PathCollection_18">
        <defs
           id="defs180">
          <path
             id="C1_0_9d0177b6c1"
             d="M 0,3 C 0.795609,3 1.55874,2.683901 2.12132,2.12132 2.683901,1.55874 3,0.795609 3,0 3,-0.795609 2.683901,-1.55874 2.12132,-2.12132 1.55874,-2.683901 0.795609,-3 0,-3 -0.795609,-3 -1.55874,-2.683901 -2.12132,-2.12132 -2.683901,-1.55874 -3,-0.795609 -3,0 -3,0.795609 -2.683901,1.55874 -2.12132,2.12132 -1.55874,2.683901 -0.795609,3 0,3 Z" />
        </defs>
        <g
           clip-path="url(#p703849f99d)"
           id="g184">
          <use
             xlink:href="#C1_0_9d0177b6c1"
             x="488.70001"
             y="62.830437"
             style="fill:#fde725;stroke:#002b36"
             id="use182"
             width="100%"
             height="100%" />
        </g>
        <g
           clip-path="url(#p703849f99d)"
           id="g188">
          <use
             xlink:href="#C1_0_9d0177b6c1"
             x="488.70001"
             y="238.55507"
             style="fill:#fde725;stroke:#002b36"
             id="use186"
             width="100%"
             height="100%" />
        </g>
        <g
           clip-path="url(#p703849f99d)"
           id="g192">
          <use
             xlink:href="#C1_0_9d0177b6c1"
             x="310.36667"
             y="62.830437"
             style="fill:#fde725;stroke:#002b36"
             id="use190"
             width="100%"
             height="100%" />
        </g>
        <g
           clip-path="url(#p703849f99d)"
           id="g196">
          <use
             xlink:href="#C1_0_9d0177b6c1"
             x="310.36667"
             y="238.55507"
             style="fill:#440154;stroke:#002b36"
             id="use194"
             width="100%"
             height="100%" />
        </g>
      </g>
      <g
         id="patch_8">
        <path
           d="M 274.7,273.7 V 31.2"
           style="fill:none;stroke:#eee8d5;stroke-width:0.8;stroke-linecap:square;stroke-linejoin:miter"
           id="path199" />
      </g>
      <g
         id="patch_9">
        <path
           d="M 520.8,273.7 V 31.2"
           style="fill:none;stroke:#eee8d5;stroke-width:0.8;stroke-linecap:square;stroke-linejoin:miter"
           id="path202" />
      </g>
      <g
         id="patch_10">
        <path
           d="M 274.7,273.7 H 520.8"
           style="fill:none;stroke:#eee8d5;stroke-width:0.8;stroke-linecap:square;stroke-linejoin:miter"
           id="path205" />
      </g>
      <g
         id="patch_11">
        <path
           d="M 274.7,31.2 H 520.8"
           style="fill:none;stroke:#eee8d5;stroke-width:0.8;stroke-linecap:square;stroke-linejoin:miter"
           id="path208" />
      </g>
      <g
         id="text_3">
        <!-- acc = 1.00 -->
        <g
           transform="matrix(0.14,0,0,-0.14,359.86141,264.91377)"
           id="g231">
          <use
             xlink:href="#DejaVuSans-61"
             id="use211"
             x="0"
             y="0"
             width="100%"
             height="100%" />
          <use
             xlink:href="#DejaVuSans-63"
             x="61.279297"
             id="use213"
             y="0"
             width="100%"
             height="100%" />
          <use
             xlink:href="#DejaVuSans-63"
             x="116.25977"
             id="use215"
             y="0"
             width="100%"
             height="100%" />
          <use
             xlink:href="#DejaVuSans-20"
             x="171.24023"
             id="use217"
             y="0"
             width="100%"
             height="100%" />
          <use
             xlink:href="#DejaVuSans-3d"
             x="203.02734"
             id="use219"
             y="0"
             width="100%"
             height="100%" />
          <use
             xlink:href="#DejaVuSans-20"
             x="286.81641"
             id="use221"
             y="0"
             width="100%"
             height="100%" />
          <use
             xlink:href="#DejaVuSans-31"
             x="318.60352"
             id="use223"
             y="0"
             width="100%"
             height="100%" />
          <use
             xlink:href="#DejaVuSans-2e"
             x="382.22656"
             id="use225"
             y="0"
             width="100%"
             height="100%" />
          <use
             xlink:href="#DejaVuSans-30"
             x="414.01367"
             id="use227"
             y="0"
             width="100%"
             height="100%" />
          <use
             xlink:href="#DejaVuSans-30"
             x="477.63672"
             id="use229"
             y="0"
             width="100%"
             height="100%" />
        </g>
      </g>
      <g
         id="text_4">
        <!-- or: $2 \cdot x_1 + 2 \cdot x_2 -1$ -->
        <g
           transform="matrix(0.16,0,0,-0.16,321.03,25.2)"
           id="g268">
          <defs
             id="defs236">
            <path
               id="DejaVuSans-6f"
               d="m 1959,3097 q -462,0 -731,-361 -269,-361 -269,-989 0,-628 267,-989 268,-361 733,-361 460,0 728,362 269,363 269,988 0,622 -269,986 -268,364 -728,364 z m 0,487 q 750,0 1178,-488 429,-487 429,-1349 Q 3566,888 3137,398 2709,-91 1959,-91 1206,-91 779,398 353,888 353,1747 q 0,862 426,1349 427,488 1180,488 z"
               transform="scale(0.015625)" />
            <path
               id="DejaVuSans-72"
               d="m 2631,2963 q -97,56 -211,82 -114,27 -251,27 -488,0 -749,-317 -261,-317 -261,-911 V 0 H 581 v 3500 h 578 v -544 q 182,319 472,473 291,155 707,155 59,0 131,-8 72,-7 159,-23 z"
               transform="scale(0.015625)" />
          </defs>
          <use
             xlink:href="#DejaVuSans-6f"
             transform="translate(0,0.78125)"
             id="use238"
             x="0"
             y="0"
             width="100%"
             height="100%" />
          <use
             xlink:href="#DejaVuSans-72"
             transform="translate(61.181641,0.78125)"
             id="use240"
             x="0"
             y="0"
             width="100%"
             height="100%" />
          <use
             xlink:href="#DejaVuSans-3a"
             transform="translate(102.29492,0.78125)"
             id="use242"
             x="0"
             y="0"
             width="100%"
             height="100%" />
          <use
             xlink:href="#DejaVuSans-20"
             transform="translate(135.98633,0.78125)"
             id="use244"
             x="0"
             y="0"
             width="100%"
             height="100%" />
          <use
             xlink:href="#DejaVuSans-32"
             transform="translate(167.77344,0.78125)"
             id="use246"
             x="0"
             y="0"
             width="100%"
             height="100%" />
          <use
             xlink:href="#DejaVuSans-22c5"
             transform="translate(250.87891,0.78125)"
             id="use248"
             x="0"
             y="0"
             width="100%"
             height="100%" />
          <use
             xlink:href="#DejaVuSans-Oblique-78"
             transform="translate(302.14844,0.78125)"
             id="use250"
             x="0"
             y="0"
             width="100%"
             height="100%" />
          <use
             xlink:href="#DejaVuSans-31"
             transform="matrix(0.7,0,0,0.7,361.32812,-15.625)"
             id="use252"
             x="0"
             y="0"
             width="100%"
             height="100%" />
          <use
             xlink:href="#DejaVuSans-2b"
             transform="translate(428.08105,0.78125)"
             id="use254"
             x="0"
             y="0"
             width="100%"
             height="100%" />
          <use
             xlink:href="#DejaVuSans-32"
             transform="translate(531.35254,0.78125)"
             id="use256"
             x="0"
             y="0"
             width="100%"
             height="100%" />
          <use
             xlink:href="#DejaVuSans-22c5"
             transform="translate(614.45801,0.78125)"
             id="use258"
             x="0"
             y="0"
             width="100%"
             height="100%" />
          <use
             xlink:href="#DejaVuSans-Oblique-78"
             transform="translate(665.72754,0.78125)"
             id="use260"
             x="0"
             y="0"
             width="100%"
             height="100%" />
          <use
             xlink:href="#DejaVuSans-32"
             transform="matrix(0.7,0,0,0.7,724.90723,-15.625)"
             id="use262"
             x="0"
             y="0"
             width="100%"
             height="100%" />
          <use
             xlink:href="#DejaVuSans-2212"
             transform="translate(791.66016,0.78125)"
             id="use264"
             x="0"
             y="0"
             width="100%"
             height="100%" />
          <use
             xlink:href="#DejaVuSans-31"
             transform="translate(894.93164,0.78125)"
             id="use266"
             x="0"
             y="0"
             width="100%"
             height="100%" />
        </g>
      </g>
    </g>
    <g
       id="axes_3">
      <g
         id="patch_12">
        <path
           d="M 535.1,273.7 H 781.2 V 31.2 H 535.1 Z"
           style="fill:#eee8d5"
           id="path272" />
      </g>
      <g
         id="matplotlib.axis_5" />
      <g
         id="matplotlib.axis_6" />
      <g
         id="PathCollection_19">
        <path
           d="m 763.36667,273.7 h 3.56666 3.56667 3.56667 3.56666 3.56667 v -3.51449 -3.5145 -3.51449 -3.51449 -3.51449 -3.5145 -3.51449 -3.51449 -3.5145 -3.51449 -3.51449 -3.51449 -3.5145 -3.51449 -3.51449 -3.51449 -3.5145 l -1.18889,3.5145 -1.18889,3.51449 -1.18889,3.51449 v 0 l -1.18889,3.51449 -1.18888,3.5145 -1.18889,3.51449 v 0 l -1.18889,3.51449 -1.18889,3.51449 -1.18889,3.5145 v 0 l -1.18889,3.51449 -1.18889,3.51449 -1.18889,3.5145 v 0 l -1.18889,3.51449 -1.18888,3.51449 -1.18889,3.51449 v 0 l -1.18889,3.5145 -1.18889,3.51449 z"
           clip-path="url(#pa408ab6bad)"
           style="fill:#481769;fill-opacity:0.8"
           id="path277" />
      </g>
      <g
         id="PathCollection_20">
        <path
           d="m 717,273.7 h 3.56667 3.56666 3.56667 3.56667 3.56666 3.56667 3.56667 3.56666 3.56667 3.56667 3.56666 3.56667 1.18889 l 1.18889,-3.51449 1.18889,-3.5145 v 0 l 1.18889,-3.51449 1.18888,-3.51449 1.18889,-3.51449 v 0 l 1.18889,-3.5145 1.18889,-3.51449 1.18889,-3.51449 v 0 l 1.18889,-3.5145 1.18889,-3.51449 1.18889,-3.51449 v 0 l 1.18889,-3.51449 1.18888,-3.5145 1.18889,-3.51449 v 0 l 1.18889,-3.51449 1.18889,-3.51449 1.18889,-3.5145 v 0 -3.51449 -3.51449 -3.5145 -3.51449 -3.51449 -3.51449 -3.5145 -3.51449 -3.51449 -3.51449 -3.5145 -3.51449 -3.51449 -3.5145 -3.51449 -3.51449 -3.51449 -3.5145 -3.51449 -3.51449 -3.5145 -3.51449 -3.51449 -3.51449 -3.5145 -3.51449 -3.51449 -3.51449 -3.5145 -3.51449 -3.51449 -3.51449 -3.514498 -3.514492 -3.514493 -3.514493 -3.514493 -3.514492 -3.514493 -3.514493 l -1.18889,3.514493 -1.18889,3.514493 -1.18889,3.514492 v 0 l -1.18889,3.514493 -1.18888,3.514493 -1.18889,3.514493 v 0 l -1.18889,3.514492 -1.18889,3.514498 -1.18889,3.51449 v 0 l -1.18889,3.51449 -1.18889,3.51449 -1.18889,3.5145 v 0 l -1.18889,3.51449 -1.18888,3.51449 -1.18889,3.51449 v 0 l -1.18889,3.5145 -1.18889,3.51449 -1.18889,3.51449 v 0 l -1.18889,3.51449 -1.18889,3.5145 -1.18889,3.51449 v 0 l -1.18889,3.51449 -1.18888,3.5145 -1.18889,3.51449 v 0 l -1.18889,3.51449 -1.18889,3.51449 -1.18889,3.5145 v 0 l -1.18889,3.51449 -1.18889,3.51449 -1.18889,3.5145 v 0 l -1.18889,3.51449 -1.18888,3.51449 -1.18889,3.51449 v 0 l -1.18889,3.5145 -1.18889,3.51449 -1.18889,3.51449 v 0 l -1.18889,3.51449 -1.18889,3.5145 -1.18889,3.51449 v 0 l -1.18889,3.51449 -1.18888,3.5145 -1.18889,3.51449 v 0 l -1.18889,3.51449 -1.18889,3.51449 -1.18889,3.5145 v 0 l -1.18889,3.51449 -1.18889,3.51449 -1.18889,3.51449 v 0 l -1.18889,3.5145 -1.18888,3.51449 -1.18889,3.51449 v 0 l -1.18889,3.5145 -1.18889,3.51449 L 717,263.15652 v 0 l -1.18889,3.51449 -1.18889,3.5145 -1.18889,3.51449 z"
           clip-path="url(#pa408ab6bad)"
           style="fill:#424086;fill-opacity:0.8"
           id="path280" />
      </g>
      <g
         id="PathCollection_21">
        <path
           d="m 667.06667,273.7 h 3.56666 3.56667 3.56667 3.56666 3.56667 3.56667 3.56666 3.56667 3.56667 3.56666 3.56667 3.56667 3.56666 v 0 l 1.18889,-3.51449 1.18889,-3.5145 L 717,263.15652 v 0 l 1.18889,-3.51449 1.18889,-3.51449 1.18889,-3.5145 v 0 l 1.18889,-3.51449 1.18888,-3.51449 1.18889,-3.5145 v 0 l 1.18889,-3.51449 1.18889,-3.51449 1.18889,-3.51449 v 0 l 1.18889,-3.5145 1.18889,-3.51449 1.18889,-3.51449 v 0 l 1.18889,-3.51449 1.18888,-3.5145 1.18889,-3.51449 v 0 l 1.18889,-3.51449 1.18889,-3.5145 1.18889,-3.51449 v 0 l 1.18889,-3.51449 1.18889,-3.51449 1.18889,-3.5145 v 0 l 1.18889,-3.51449 1.18888,-3.51449 1.18889,-3.51449 v 0 l 1.18889,-3.5145 1.18889,-3.51449 1.18889,-3.51449 v 0 l 1.18889,-3.5145 1.18889,-3.51449 1.18889,-3.51449 v 0 l 1.18889,-3.51449 1.18888,-3.5145 1.18889,-3.51449 v 0 l 1.18889,-3.51449 1.18889,-3.5145 1.18889,-3.51449 v 0 l 1.18889,-3.51449 1.18889,-3.51449 1.18889,-3.5145 v 0 l 1.18889,-3.51449 1.18888,-3.51449 1.18889,-3.51449 v 0 l 1.18889,-3.5145 1.18889,-3.51449 1.18889,-3.51449 v 0 l 1.18889,-3.51449 1.18889,-3.514498 1.18889,-3.514492 v 0 l 1.18889,-3.514493 1.18888,-3.514493 1.18889,-3.514493 v 0 l 1.18889,-3.514492 1.18889,-3.514493 1.18889,-3.514493 v 0 V 69.85942 66.344928 62.830435 59.315942 55.801449 52.286957 48.772464 45.257971 41.743478 38.228986 34.714493 31.2 H 777.63333 774.06667 770.5 766.93333 763.36667 759.8 756.23333 752.66667 749.1 747.91111 l -1.18889,3.514493 -1.18889,3.514493 v 0 l -1.18889,3.514492 -1.18888,3.514493 -1.18889,3.514493 v 0 l -1.18889,3.514493 -1.18889,3.514492 -1.18889,3.514493 v 0 l -1.18889,3.514493 -1.18889,3.514493 -1.18889,3.514492 v 0 l -1.18889,3.514493 -1.18888,3.514493 -1.18889,3.514493 v 0 l -1.18889,3.514492 -1.18889,3.514493 -1.18889,3.514493 v 0 l -1.18889,3.514493 -1.18889,3.514492 -1.18889,3.514498 v 0 l -1.18889,3.51449 -1.18888,3.51449 -1.18889,3.51449 v 0 l -1.18889,3.5145 -1.18889,3.51449 L 717,122.57681 v 0 l -1.18889,3.51449 -1.18889,3.5145 -1.18889,3.51449 v 0 l -1.18889,3.51449 -1.18888,3.51449 -1.18889,3.5145 v 0 l -1.18889,3.51449 -1.18889,3.51449 -1.18889,3.5145 v 0 l -1.18889,3.51449 -1.18889,3.51449 -1.18889,3.51449 v 0 l -1.18889,3.5145 -1.18888,3.51449 -1.18889,3.51449 v 0 l -1.18889,3.5145 -1.18889,3.51449 -1.18889,3.51449 v 0 l -1.18889,3.51449 -1.18889,3.5145 -1.18889,3.51449 v 0 l -1.18889,3.51449 -1.18888,3.51449 -1.18889,3.5145 v 0 l -1.18889,3.51449 -1.18889,3.51449 -1.18889,3.5145 v 0 l -1.18889,3.51449 -1.18889,3.51449 -1.18889,3.51449 v 0 l -1.18889,3.5145 -1.18888,3.51449 -1.18889,3.51449 v 0 l -1.18889,3.51449 -1.18889,3.5145 -1.18889,3.51449 v 0 l -1.18889,3.51449 -1.18889,3.5145 -1.18889,3.51449 v 0 l -1.18889,3.51449 -1.18888,3.51449 -1.18889,3.5145 v 0 L 665.87778,273.7 Z"
           clip-path="url(#pa408ab6bad)"
           style="fill:#33638d;fill-opacity:0.8"
           id="path283" />
      </g>
      <g
         id="PathCollection_22">
        <path
           d="m 620.7,273.7 h 3.56667 3.56666 3.56667 3.56667 3.56666 3.56667 3.56667 3.56666 3.56667 3.56667 3.56666 3.56667 2.37778 l 1.18889,-3.51449 v 0 l 1.18889,-3.5145 1.18888,-3.51449 1.18889,-3.51449 v 0 l 1.18889,-3.51449 1.18889,-3.5145 1.18889,-3.51449 v 0 l 1.18889,-3.51449 1.18889,-3.5145 1.18889,-3.51449 v 0 l 1.18889,-3.51449 1.18888,-3.51449 1.18889,-3.5145 v 0 l 1.18889,-3.51449 1.18889,-3.51449 1.18889,-3.51449 v 0 l 1.18889,-3.5145 1.18889,-3.51449 1.18889,-3.51449 v 0 l 1.18889,-3.5145 1.18888,-3.51449 1.18889,-3.51449 v 0 l 1.18889,-3.51449 1.18889,-3.5145 1.18889,-3.51449 v 0 l 1.18889,-3.51449 1.18889,-3.51449 1.18889,-3.5145 v 0 l 1.18889,-3.51449 1.18888,-3.51449 1.18889,-3.5145 v 0 l 1.18889,-3.51449 1.18889,-3.51449 1.18889,-3.51449 v 0 l 1.18889,-3.5145 1.18889,-3.51449 1.18889,-3.51449 v 0 l 1.18889,-3.5145 1.18888,-3.51449 1.18889,-3.51449 v 0 l 1.18889,-3.51449 1.18889,-3.5145 L 717,122.57681 v 0 l 1.18889,-3.51449 1.18889,-3.51449 1.18889,-3.5145 v 0 l 1.18889,-3.51449 1.18888,-3.51449 1.18889,-3.51449 v 0 l 1.18889,-3.514498 1.18889,-3.514492 1.18889,-3.514493 v 0 l 1.18889,-3.514493 1.18889,-3.514493 1.18889,-3.514492 v 0 l 1.18889,-3.514493 1.18888,-3.514493 1.18889,-3.514493 v 0 l 1.18889,-3.514492 1.18889,-3.514493 1.18889,-3.514493 v 0 l 1.18889,-3.514493 1.18889,-3.514492 1.18889,-3.514493 v 0 l 1.18889,-3.514493 1.18888,-3.514493 1.18889,-3.514492 v 0 L 746.72222,34.714493 747.91111,31.2 H 745.53333 741.96667 738.4 734.83333 731.26667 727.7 724.13333 720.56667 717 713.43333 709.86667 706.3 h -3.56667 -2.37777 l -1.18889,3.514493 v 0 l -1.18889,3.514493 -1.18889,3.514492 -1.18889,3.514493 v 0 l -1.18889,3.514493 -1.18889,3.514493 -1.18889,3.514492 v 0 l -1.18889,3.514493 -1.18888,3.514493 -1.18889,3.514493 v 0 l -1.18889,3.514492 -1.18889,3.514493 -1.18889,3.514493 v 0 l -1.18889,3.514493 -1.18889,3.514492 -1.18889,3.514493 v 0 l -1.18889,3.514493 -1.18888,3.514493 -1.18889,3.514492 v 0 l -1.18889,3.514498 -1.18889,3.51449 -1.18889,3.51449 v 0 l -1.18889,3.51449 -1.18889,3.5145 -1.18889,3.51449 v 0 l -1.18889,3.51449 -1.18888,3.51449 -1.18889,3.5145 v 0 l -1.18889,3.51449 -1.18889,3.51449 -1.18889,3.51449 v 0 l -1.18889,3.5145 -1.18889,3.51449 -1.18889,3.51449 v 0 l -1.18889,3.5145 -1.18888,3.51449 -1.18889,3.51449 v 0 l -1.18889,3.51449 -1.18889,3.5145 -1.18889,3.51449 v 0 l -1.18889,3.51449 -1.18889,3.5145 -1.18889,3.51449 v 0 l -1.18889,3.51449 -1.18888,3.51449 -1.18889,3.5145 v 0 l -1.18889,3.51449 -1.18889,3.51449 -1.18889,3.51449 v 0 l -1.18889,3.5145 -1.18889,3.51449 -1.18889,3.51449 v 0 l -1.18889,3.5145 -1.18888,3.51449 -1.18889,3.51449 v 0 l -1.18889,3.51449 -1.18889,3.5145 -1.18889,3.51449 v 0 l -1.18889,3.51449 -1.18889,3.51449 -1.18889,3.5145 v 0 l -1.18889,3.51449 -1.18888,3.51449 -1.18889,3.5145 v 0 l -1.18889,3.51449 -1.18889,3.51449 -1.18889,3.51449 v 0 l -1.18889,3.5145 -1.18889,3.51449 z"
           clip-path="url(#pa408ab6bad)"
           style="fill:#26828e;fill-opacity:0.8"
           id="path286" />
      </g>
      <g
         id="PathCollection_23">
        <path
           d="m 574.33333,273.7 h 3.56667 3.56667 3.56666 3.56667 3.56667 3.56666 3.56667 3.56667 3.56666 3.56667 3.56667 3.56666 1.18889 l 1.18889,-3.51449 1.18889,-3.5145 v 0 l 1.18889,-3.51449 1.18889,-3.51449 1.18889,-3.51449 v 0 l 1.18889,-3.5145 1.18888,-3.51449 1.18889,-3.51449 v 0 l 1.18889,-3.5145 1.18889,-3.51449 1.18889,-3.51449 v 0 l 1.18889,-3.51449 1.18889,-3.5145 1.18889,-3.51449 v 0 l 1.18889,-3.51449 1.18888,-3.51449 1.18889,-3.5145 v 0 l 1.18889,-3.51449 1.18889,-3.51449 1.18889,-3.5145 v 0 l 1.18889,-3.51449 1.18889,-3.51449 1.18889,-3.51449 v 0 l 1.18889,-3.5145 1.18888,-3.51449 1.18889,-3.51449 v 0 l 1.18889,-3.51449 1.18889,-3.5145 1.18889,-3.51449 v 0 l 1.18889,-3.51449 1.18889,-3.5145 1.18889,-3.51449 v 0 l 1.18889,-3.51449 1.18888,-3.51449 1.18889,-3.5145 v 0 l 1.18889,-3.51449 1.18889,-3.51449 1.18889,-3.5145 v 0 l 1.18889,-3.51449 1.18889,-3.51449 1.18889,-3.51449 v 0 l 1.18889,-3.5145 1.18888,-3.51449 1.18889,-3.51449 v 0 l 1.18889,-3.51449 1.18889,-3.5145 1.18889,-3.51449 v 0 l 1.18889,-3.51449 1.18889,-3.51449 1.18889,-3.514498 v 0 l 1.18889,-3.514492 1.18888,-3.514493 1.18889,-3.514493 v 0 l 1.18889,-3.514493 1.18889,-3.514492 1.18889,-3.514493 v 0 l 1.18889,-3.514493 1.18889,-3.514493 1.18889,-3.514492 v 0 l 1.18889,-3.514493 1.18888,-3.514493 1.18889,-3.514493 v 0 l 1.18889,-3.514492 1.18889,-3.514493 1.18889,-3.514493 v 0 l 1.18889,-3.514493 1.18889,-3.514492 1.18889,-3.514493 v 0 L 700.35556,31.2 H 699.16667 695.6 692.03333 688.46667 684.9 681.33333 677.76667 674.2 670.63333 667.06667 663.5 659.93333 656.36667 652.8 v 0 l -1.18889,3.514493 -1.18889,3.514493 -1.18889,3.514492 v 0 l -1.18889,3.514493 -1.18888,3.514493 -1.18889,3.514493 v 0 l -1.18889,3.514492 -1.18889,3.514493 -1.18889,3.514493 v 0 l -1.18889,3.514493 -1.18889,3.514492 -1.18889,3.514493 v 0 l -1.18889,3.514493 -1.18888,3.514493 -1.18889,3.514492 v 0 l -1.18889,3.514493 -1.18889,3.514493 L 631.4,94.46087 v 0 l -1.18889,3.514492 -1.18889,3.514498 -1.18889,3.51449 v 0 l -1.18889,3.51449 -1.18888,3.51449 -1.18889,3.5145 v 0 l -1.18889,3.51449 -1.18889,3.51449 -1.18889,3.51449 v 0 l -1.18889,3.5145 -1.18889,3.51449 -1.18889,3.51449 v 0 l -1.18889,3.51449 -1.18888,3.5145 -1.18889,3.51449 v 0 l -1.18889,3.51449 -1.18889,3.5145 L 610,157.72174 v 0 l -1.18889,3.51449 -1.18889,3.51449 -1.18889,3.5145 v 0 l -1.18889,3.51449 -1.18888,3.51449 -1.18889,3.5145 v 0 l -1.18889,3.51449 -1.18889,3.51449 -1.18889,3.51449 v 0 l -1.18889,3.5145 -1.18889,3.51449 -1.18889,3.51449 v 0 l -1.18889,3.51449 -1.18888,3.5145 -1.18889,3.51449 v 0 l -1.18889,3.51449 -1.18889,3.5145 -1.18889,3.51449 v 0 l -1.18889,3.51449 -1.18889,3.51449 -1.18889,3.5145 v 0 l -1.18889,3.51449 -1.18888,3.51449 -1.18889,3.51449 v 0 l -1.18889,3.5145 -1.18889,3.51449 -1.18889,3.51449 v 0 l -1.18889,3.5145 -1.18889,3.51449 -1.18889,3.51449 v 0 l -1.18889,3.51449 -1.18888,3.5145 -1.18889,3.51449 z"
           clip-path="url(#pa408ab6bad)"
           style="fill:#1fa088;fill-opacity:0.8"
           id="path289" />
      </g>
      <g
         id="PathCollection_24">
        <path
           d="m 538.66667,273.7 h 3.56666 3.56667 3.56667 3.56666 3.56667 3.56667 3.56666 3.56667 3.56667 v 0 l 1.18889,-3.51449 1.18888,-3.5145 1.18889,-3.51449 v 0 l 1.18889,-3.51449 1.18889,-3.51449 1.18889,-3.5145 v 0 l 1.18889,-3.51449 1.18889,-3.51449 1.18889,-3.5145 v 0 l 1.18889,-3.51449 1.18888,-3.51449 1.18889,-3.51449 v 0 l 1.18889,-3.5145 1.18889,-3.51449 1.18889,-3.51449 v 0 l 1.18889,-3.51449 1.18889,-3.5145 1.18889,-3.51449 v 0 l 1.18889,-3.51449 1.18888,-3.5145 1.18889,-3.51449 v 0 l 1.18889,-3.51449 1.18889,-3.51449 1.18889,-3.5145 v 0 l 1.18889,-3.51449 1.18889,-3.51449 1.18889,-3.51449 v 0 l 1.18889,-3.5145 1.18888,-3.51449 1.18889,-3.51449 v 0 l 1.18889,-3.5145 1.18889,-3.51449 L 610,157.72174 v 0 l 1.18889,-3.51449 1.18889,-3.5145 1.18889,-3.51449 v 0 l 1.18889,-3.51449 1.18888,-3.5145 1.18889,-3.51449 v 0 l 1.18889,-3.51449 1.18889,-3.51449 1.18889,-3.5145 v 0 l 1.18889,-3.51449 1.18889,-3.51449 1.18889,-3.51449 v 0 l 1.18889,-3.5145 1.18888,-3.51449 1.18889,-3.51449 v 0 l 1.18889,-3.51449 1.18889,-3.514498 L 631.4,94.46087 v 0 l 1.18889,-3.514493 1.18889,-3.514493 1.18889,-3.514493 v 0 l 1.18889,-3.514492 1.18888,-3.514493 1.18889,-3.514493 v 0 l 1.18889,-3.514493 1.18889,-3.514492 1.18889,-3.514493 v 0 l 1.18889,-3.514493 1.18889,-3.514493 1.18889,-3.514492 v 0 l 1.18889,-3.514493 1.18888,-3.514493 1.18889,-3.514493 v 0 l 1.18889,-3.514492 1.18889,-3.514493 L 652.8,31.2 v 0 0 H 649.23333 645.66667 642.1 638.53333 634.96667 631.4 627.83333 624.26667 620.7 617.13333 613.56667 610 h -3.56667 -1.18889 l -1.18888,3.514493 -1.18889,3.514493 v 0 l -1.18889,3.514492 -1.18889,3.514493 -1.18889,3.514493 v 0 l -1.18889,3.514493 -1.18889,3.514492 -1.18889,3.514493 v 0 l -1.18889,3.514493 -1.18888,3.514493 -1.18889,3.514492 v 0 l -1.18889,3.514493 -1.18889,3.514493 -1.18889,3.514493 v 0 l -1.18889,3.514492 -1.18889,3.514493 -1.18889,3.514493 v 0 l -1.18889,3.514493 -1.18888,3.514492 -1.18889,3.514498 v 0 l -1.18889,3.51449 -1.18889,3.51449 -1.18889,3.51449 v 0 l -1.18889,3.5145 -1.18889,3.51449 -1.18889,3.51449 v 0 l -1.18889,3.51449 -1.18888,3.5145 -1.18889,3.51449 v 0 l -1.18889,3.51449 -1.18889,3.51449 -1.18889,3.5145 v 0 l -1.18889,3.51449 -1.18889,3.51449 -1.18889,3.5145 v 0 l -1.18889,3.51449 -1.18888,3.51449 -1.18889,3.51449 v 0 l -1.18889,3.5145 -1.18889,3.51449 -1.18889,3.51449 v 0 l -1.18889,3.5145 -1.18889,3.51449 -1.18889,3.51449 v 0 l -1.18889,3.51449 -1.18888,3.5145 -1.18889,3.51449 v 0 l -1.18889,3.51449 -1.18889,3.51449 -1.18889,3.5145 v 0 l -1.18889,3.51449 -1.18889,3.51449 -1.18889,3.5145 v 0 l -1.18889,3.51449 -1.18888,3.51449 -1.18889,3.51449 v 0 l -1.18889,3.5145 -1.18889,3.51449 -1.18889,3.51449 v 0 3.51449 3.5145 3.51449 3.51449 3.5145 3.51449 3.51449 3.51449 3.5145 3.51449 z"
           clip-path="url(#pa408ab6bad)"
           style="fill:#3fbc73;fill-opacity:0.8"
           id="path292" />
      </g>
      <g
         id="PathCollection_25">
        <path
           d="m 536.28889,235.04058 1.18889,-3.51449 1.18889,-3.5145 v 0 l 1.18889,-3.51449 1.18888,-3.51449 1.18889,-3.51449 v 0 l 1.18889,-3.5145 1.18889,-3.51449 1.18889,-3.51449 v 0 l 1.18889,-3.5145 1.18889,-3.51449 1.18889,-3.51449 v 0 l 1.18889,-3.51449 1.18888,-3.5145 1.18889,-3.51449 v 0 l 1.18889,-3.51449 1.18889,-3.51449 1.18889,-3.5145 v 0 l 1.18889,-3.51449 1.18889,-3.51449 1.18889,-3.5145 v 0 l 1.18889,-3.51449 1.18888,-3.51449 1.18889,-3.51449 v 0 l 1.18889,-3.5145 1.18889,-3.51449 1.18889,-3.51449 v 0 l 1.18889,-3.5145 1.18889,-3.51449 1.18889,-3.51449 v 0 l 1.18889,-3.51449 1.18888,-3.5145 1.18889,-3.51449 v 0 l 1.18889,-3.51449 1.18889,-3.51449 1.18889,-3.5145 v 0 l 1.18889,-3.51449 1.18889,-3.51449 1.18889,-3.51449 v 0 l 1.18889,-3.514498 1.18888,-3.514492 1.18889,-3.514493 v 0 l 1.18889,-3.514493 1.18889,-3.514493 1.18889,-3.514492 v 0 l 1.18889,-3.514493 1.18889,-3.514493 1.18889,-3.514493 v 0 l 1.18889,-3.514492 1.18888,-3.514493 1.18889,-3.514493 v 0 l 1.18889,-3.514493 1.18889,-3.514492 1.18889,-3.514493 v 0 l 1.18889,-3.514493 1.18889,-3.514493 1.18889,-3.514492 v 0 L 604.05556,34.714493 605.24444,31.2 H 602.86667 599.3 595.73333 592.16667 588.6 585.03333 581.46667 577.9 574.33333 570.76667 567.2 h -3.56667 -3.56666 -2.37778 L 556.5,34.714493 v 0 l -1.18889,3.514493 -1.18889,3.514492 -1.18889,3.514493 v 0 l -1.18889,3.514493 -1.18888,3.514493 -1.18889,3.514492 v 0 l -1.18889,3.514493 -1.18889,3.514493 -1.18889,3.514493 v 0 l -1.18889,3.514492 -1.18889,3.514493 -1.18889,3.514493 v 0 l -1.18889,3.514493 -1.18888,3.514492 -1.18889,3.514493 v 0 l -1.18889,3.514493 -1.18889,3.514493 -1.18889,3.514492 v 0 3.514498 3.51449 3.51449 3.51449 3.5145 3.51449 3.51449 3.51449 3.5145 3.51449 3.51449 3.51449 3.5145 3.51449 3.51449 3.5145 3.51449 3.51449 3.51449 3.5145 3.51449 3.51449 3.5145 3.51449 3.51449 3.51449 3.5145 3.51449 3.51449 3.51449 3.5145 3.51449 3.51449 3.5145 3.51449 3.51449 3.51449 3.5145 3.51449 3.51449 z"
           clip-path="url(#pa408ab6bad)"
           style="fill:#84d44b;fill-opacity:0.8"
           id="path295" />
      </g>
      <g
         id="PathCollection_26">
        <path
           d="m 536.28889,94.46087 1.18889,-3.514493 1.18889,-3.514493 v 0 l 1.18889,-3.514493 1.18888,-3.514492 1.18889,-3.514493 v 0 l 1.18889,-3.514493 1.18889,-3.514493 1.18889,-3.514492 v 0 l 1.18889,-3.514493 1.18889,-3.514493 1.18889,-3.514493 v 0 l 1.18889,-3.514492 1.18888,-3.514493 1.18889,-3.514493 v 0 l 1.18889,-3.514493 1.18889,-3.514492 1.18889,-3.514493 v 0 L 557.68889,31.2 H 556.5 552.93333 549.36667 545.8 542.23333 538.66667 535.1 v 3.514493 3.514493 3.514492 3.514493 3.514493 3.514493 3.514492 3.514493 3.514493 3.514493 3.514492 3.514493 3.514493 3.514493 3.514492 3.514493 3.514493 3.514493 3.514492 z"
           clip-path="url(#pa408ab6bad)"
           style="fill:#d8e219;fill-opacity:0.8"
           id="path298" />
      </g>
      <g
         id="PathCollection_27">
        <defs
           id="defs302">
          <path
             id="C2_0_78c9266115"
             d="M 0,3 C 0.795609,3 1.55874,2.683901 2.12132,2.12132 2.683901,1.55874 3,0.795609 3,0 3,-0.795609 2.683901,-1.55874 2.12132,-2.12132 1.55874,-2.683901 0.795609,-3 0,-3 -0.795609,-3 -1.55874,-2.683901 -2.12132,-2.12132 -2.683901,-1.55874 -3,-0.795609 -3,0 -3,0.795609 -2.683901,1.55874 -2.12132,2.12132 -1.55874,2.683901 -0.795609,3 0,3 Z" />
        </defs>
        <g
           clip-path="url(#pa408ab6bad)"
           id="g306">
          <use
             xlink:href="#C2_0_78c9266115"
             x="749.09998"
             y="62.830437"
             style="fill:#440154;stroke:#002b36"
             id="use304"
             width="100%"
             height="100%" />
        </g>
        <g
           clip-path="url(#pa408ab6bad)"
           id="g310">
          <use
             xlink:href="#C2_0_78c9266115"
             x="749.09998"
             y="238.55507"
             style="fill:#440154;stroke:#002b36"
             id="use308"
             width="100%"
             height="100%" />
        </g>
        <g
           clip-path="url(#pa408ab6bad)"
           id="g314">
          <use
             xlink:href="#C2_0_78c9266115"
             x="570.76666"
             y="62.830437"
             style="fill:#fde725;stroke:#002b36"
             id="use312"
             width="100%"
             height="100%" />
        </g>
        <g
           clip-path="url(#pa408ab6bad)"
           id="g318">
          <use
             xlink:href="#C2_0_78c9266115"
             x="570.76666"
             y="238.55507"
             style="fill:#fde725;stroke:#002b36"
             id="use316"
             width="100%"
             height="100%" />
        </g>
      </g>
      <g
         id="patch_13">
        <path
           d="M 535.1,273.7 V 31.2"
           style="fill:none;stroke:#eee8d5;stroke-width:0.8;stroke-linecap:square;stroke-linejoin:miter"
           id="path321" />
      </g>
      <g
         id="patch_14">
        <path
           d="M 781.2,273.7 V 31.2"
           style="fill:none;stroke:#eee8d5;stroke-width:0.8;stroke-linecap:square;stroke-linejoin:miter"
           id="path324" />
      </g>
      <g
         id="patch_15">
        <path
           d="M 535.1,273.7 H 781.2"
           style="fill:none;stroke:#eee8d5;stroke-width:0.8;stroke-linecap:square;stroke-linejoin:miter"
           id="path327" />
      </g>
      <g
         id="patch_16">
        <path
           d="M 535.1,31.2 H 781.2"
           style="fill:none;stroke:#eee8d5;stroke-width:0.8;stroke-linecap:square;stroke-linejoin:miter"
           id="path330" />
      </g>
      <g
         id="text_5">
        <!-- acc = 1.00 -->
        <g
           transform="matrix(0.14,0,0,-0.14,620.26141,264.91377)"
           id="g353">
          <use
             xlink:href="#DejaVuSans-61"
             id="use333"
             x="0"
             y="0"
             width="100%"
             height="100%" />
          <use
             xlink:href="#DejaVuSans-63"
             x="61.279297"
             id="use335"
             y="0"
             width="100%"
             height="100%" />
          <use
             xlink:href="#DejaVuSans-63"
             x="116.25977"
             id="use337"
             y="0"
             width="100%"
             height="100%" />
          <use
             xlink:href="#DejaVuSans-20"
             x="171.24023"
             id="use339"
             y="0"
             width="100%"
             height="100%" />
          <use
             xlink:href="#DejaVuSans-3d"
             x="203.02734"
             id="use341"
             y="0"
             width="100%"
             height="100%" />
          <use
             xlink:href="#DejaVuSans-20"
             x="286.81641"
             id="use343"
             y="0"
             width="100%"
             height="100%" />
          <use
             xlink:href="#DejaVuSans-31"
             x="318.60352"
             id="use345"
             y="0"
             width="100%"
             height="100%" />
          <use
             xlink:href="#DejaVuSans-2e"
             x="382.22656"
             id="use347"
             y="0"
             width="100%"
             height="100%" />
          <use
             xlink:href="#DejaVuSans-30"
             x="414.01367"
             id="use349"
             y="0"
             width="100%"
             height="100%" />
          <use
             xlink:href="#DejaVuSans-30"
             x="477.63672"
             id="use351"
             y="0"
             width="100%"
             height="100%" />
        </g>
      </g>
      <g
         id="text_6">
        <!-- not: $-3 \cdot x_1 + 1 \cdot x_2 + 1$ -->
        <g
           transform="matrix(0.16,0,0,-0.16,569.83,25.2)"
           id="g394">
          <defs
             id="defs358">
            <path
               id="DejaVuSans-74"
               d="M 1172,4494 V 3500 H 2356 V 3053 H 1172 V 1153 q 0,-428 117,-550 117,-122 477,-122 h 590 V 0 H 1766 Q 1100,0 847,248 594,497 594,1153 V 3053 H 172 v 447 h 422 v 994 z"
               transform="scale(0.015625)" />
            <path
               id="DejaVuSans-33"
               d="m 2597,2516 q 453,-97 707,-404 255,-306 255,-756 0,-690 -475,-1069 -475,-378 -1350,-378 -293,0 -604,58 -311,58 -642,174 v 609 q 262,-153 574,-231 313,-78 654,-78 593,0 904,234 311,234 311,681 0,413 -289,645 -289,233 -804,233 h -544 v 519 h 569 q 465,0 712,186 247,186 247,536 0,359 -255,551 -254,193 -729,193 -260,0 -557,-57 -297,-56 -653,-174 v 562 q 360,100 674,150 314,50 592,50 719,0 1137,-327 419,-326 419,-882 0,-388 -222,-655 -222,-267 -631,-370 z"
               transform="scale(0.015625)" />
          </defs>
          <use
             xlink:href="#DejaVuSans-6e"
             transform="translate(0,0.78125)"
             id="use360"
             x="0"
             y="0"
             width="100%"
             height="100%" />
          <use
             xlink:href="#DejaVuSans-6f"
             transform="translate(63.378906,0.78125)"
             id="use362"
             x="0"
             y="0"
             width="100%"
             height="100%" />
          <use
             xlink:href="#DejaVuSans-74"
             transform="translate(124.56055,0.78125)"
             id="use364"
             x="0"
             y="0"
             width="100%"
             height="100%" />
          <use
             xlink:href="#DejaVuSans-3a"
             transform="translate(163.76953,0.78125)"
             id="use366"
             x="0"
             y="0"
             width="100%"
             height="100%" />
          <use
             xlink:href="#DejaVuSans-20"
             transform="translate(197.46094,0.78125)"
             id="use368"
             x="0"
             y="0"
             width="100%"
             height="100%" />
          <use
             xlink:href="#DejaVuSans-2212"
             transform="translate(229.24805,0.78125)"
             id="use370"
             x="0"
             y="0"
             width="100%"
             height="100%" />
          <use
             xlink:href="#DejaVuSans-33"
             transform="translate(313.03711,0.78125)"
             id="use372"
             x="0"
             y="0"
             width="100%"
             height="100%" />
          <use
             xlink:href="#DejaVuSans-22c5"
             transform="translate(396.14258,0.78125)"
             id="use374"
             x="0"
             y="0"
             width="100%"
             height="100%" />
          <use
             xlink:href="#DejaVuSans-Oblique-78"
             transform="translate(447.41211,0.78125)"
             id="use376"
             x="0"
             y="0"
             width="100%"
             height="100%" />
          <use
             xlink:href="#DejaVuSans-31"
             transform="matrix(0.7,0,0,0.7,506.5918,-15.625)"
             id="use378"
             x="0"
             y="0"
             width="100%"
             height="100%" />
          <use
             xlink:href="#DejaVuSans-2b"
             transform="translate(573.34473,0.78125)"
             id="use380"
             x="0"
             y="0"
             width="100%"
             height="100%" />
          <use
             xlink:href="#DejaVuSans-31"
             transform="translate(676.61621,0.78125)"
             id="use382"
             x="0"
             y="0"
             width="100%"
             height="100%" />
          <use
             xlink:href="#DejaVuSans-22c5"
             transform="translate(759.72168,0.78125)"
             id="use384"
             x="0"
             y="0"
             width="100%"
             height="100%" />
          <use
             xlink:href="#DejaVuSans-Oblique-78"
             transform="translate(810.99121,0.78125)"
             id="use386"
             x="0"
             y="0"
             width="100%"
             height="100%" />
          <use
             xlink:href="#DejaVuSans-32"
             transform="matrix(0.7,0,0,0.7,870.1709,-15.625)"
             id="use388"
             x="0"
             y="0"
             width="100%"
             height="100%" />
          <use
             xlink:href="#DejaVuSans-2b"
             transform="translate(936.92383,0.78125)"
             id="use390"
             x="0"
             y="0"
             width="100%"
             height="100%" />
          <use
             xlink:href="#DejaVuSans-31"
             transform="translate(1040.1953,0.78125)"
             id="use392"
             x="0"
             y="0"
             width="100%"
             height="100%" />
        </g>
      </g>
    </g>
  </g>
  <defs
     id="defs408">
    <clipPath
       id="p16612c5a62">
      <rect
         x="14.3"
         y="31.200001"
         width="246.10001"
         height="242.5"
         id="rect399" />
    </clipPath>
    <clipPath
       id="p703849f99d">
      <rect
         x="274.70001"
         y="31.200001"
         width="246.10001"
         height="242.5"
         id="rect402" />
    </clipPath>
    <clipPath
       id="pa408ab6bad">
      <rect
         x="535.09998"
         y="31.200001"
         width="246.10001"
         height="242.5"
         id="rect405" />
    </clipPath>
  </defs>
</svg>
