<?xml version="1.0" encoding="UTF-8" standalone="no"?>
<svg
   width="670.40002pt"
   height="240.32001pt"
   viewBox="0 0 670.40002 240.32001"
   version="1.1"
   id="svg721"
   sodipodi:docname="perceptron-logic.svg"
   inkscape:version="1.2 (dc2aedaf03, 2022-05-15)"
   xmlns:inkscape="http://www.inkscape.org/namespaces/inkscape"
   xmlns:sodipodi="http://sodipodi.sourceforge.net/DTD/sodipodi-0.dtd"
   xmlns:xlink="http://www.w3.org/1999/xlink"
   xmlns="http://www.w3.org/2000/svg"
   xmlns:svg="http://www.w3.org/2000/svg"
   xmlns:rdf="http://www.w3.org/1999/02/22-rdf-syntax-ns#"
   xmlns:cc="http://creativecommons.org/ns#"
   xmlns:dc="http://purl.org/dc/elements/1.1/">
  <sodipodi:namedview
     id="namedview723"
     pagecolor="#ffffff"
     bordercolor="#666666"
     borderopacity="1.0"
     inkscape:showpageshadow="2"
     inkscape:pageopacity="0.0"
     inkscape:pagecheckerboard="0"
     inkscape:deskcolor="#d1d1d1"
     inkscape:document-units="pt"
     showgrid="false"
     inkscape:zoom="0.61458333"
     inkscape:cx="432.81356"
     inkscape:cy="170.84746"
     inkscape:window-width="3840"
     inkscape:window-height="2346"
     inkscape:window-x="0"
     inkscape:window-y="54"
     inkscape:window-maximized="1"
     inkscape:current-layer="svg721" />
  <metadata
     id="metadata2">
    <rdf:RDF>
      <cc:Work>
        <dc:type
           rdf:resource="http://purl.org/dc/dcmitype/StillImage" />
        <dc:date>2022-05-26T20:30:35.710230</dc:date>
        <dc:format>image/svg+xml</dc:format>
        <dc:creator>
          <cc:Agent>
            <dc:title>Matplotlib v3.5.2, https://matplotlib.org/</dc:title>
          </cc:Agent>
        </dc:creator>
      </cc:Work>
    </rdf:RDF>
  </metadata>
  <defs
     id="defs6">
    <style
       type="text/css"
       id="style4">*{stroke-linejoin: round; stroke-linecap: butt}</style>
  </defs>
  <g
     id="g1695"
     transform="translate(-107.6,-16.4)">
    <g
       id="axes_1">
      <g
         id="patch_2">
        <path
           d="M 108,256.32 H 324 V 34.56 H 108 Z"
           style="fill:#eee8d5"
           id="path11" />
      </g>
      <g
         id="matplotlib.axis_1" />
      <g
         id="matplotlib.axis_2" />
      <g
         id="PathCollection_1">
        <defs
           id="defs17">
          <path
             id="C0_0_d431ed8bb6"
             d="M 0,3.535534 C 0.937635,3.535534 1.836992,3.163008 2.5,2.5 3.163008,1.836992 3.535534,0.937635 3.535534,0 3.535534,-0.937635 3.163008,-1.836992 2.5,-2.5 1.836992,-3.163008 0.937635,-3.535534 0,-3.535534 c -0.937635,0 -1.836992,0.372526 -2.5,1.035534 -0.663008,0.663008 -1.035534,1.562365 -1.035534,2.5 0,0.937635 0.372526,1.836992 1.035534,2.5 0.663008,0.663008 1.562365,1.035534 2.5,1.035534 z" />
        </defs>
        <g
           clip-path="url(#p953fed956e)"
           id="g21">
          <use
             xlink:href="#C0_0_d431ed8bb6"
             x="295.82608"
             y="63.485218"
             style="fill:#fde725;stroke:#002b36"
             id="use19" />
        </g>
        <g
           clip-path="url(#p953fed956e)"
           id="g25">
          <use
             xlink:href="#C0_0_d431ed8bb6"
             x="295.82608"
             y="224.18086"
             style="fill:#440154;stroke:#002b36"
             id="use23" />
        </g>
        <g
           clip-path="url(#p953fed956e)"
           id="g29">
          <use
             xlink:href="#C0_0_d431ed8bb6"
             x="139.30435"
             y="63.485218"
             style="fill:#440154;stroke:#002b36"
             id="use27" />
        </g>
        <g
           clip-path="url(#p953fed956e)"
           id="g33">
          <use
             xlink:href="#C0_0_d431ed8bb6"
             x="139.30435"
             y="224.18086"
             style="fill:#440154;stroke:#002b36"
             id="use31" />
        </g>
      </g>
      <g
         id="PathCollection_2" />
      <g
         id="PathCollection_3">
        <path
           d="m 108,224.18087 3.13044,3.21391 1.0512,1.07924"
           clip-path="url(#p953fed956e)"
           style="fill:none;stroke:#482475;stroke-width:2;stroke-opacity:0.8"
           id="path37" />
        <path
           d="m 135.1227,252.02685 1.05121,1.07924 3.13044,3.21391"
           clip-path="url(#p953fed956e)"
           style="fill:none;stroke:#482475;stroke-width:2;stroke-opacity:0.8"
           id="path39" />
      </g>
      <g
         id="PathCollection_4">
        <path
           d="m 108,175.97217 v 0 l 3.13044,3.21392 v 0 l 3.13043,3.21391 v 0 l 3.13043,3.21391 v 0 l 3.13044,3.21392 v 0 l 1.05121,1.07924"
           clip-path="url(#p953fed956e)"
           style="fill:none;stroke:#414487;stroke-width:2;stroke-opacity:0.8"
           id="path42" />
        <path
           d="m 144.51401,213.45989 1.05121,1.07924 v 0 l 3.13043,3.21391 v 0 l 3.13044,3.21392 v 0 l 3.13043,3.21391 v 0 l 3.13044,3.21391 v 0 l 3.13043,3.21392 v 0 l 3.13044,3.21391 v 0 l 3.13043,3.21391 v 0 l 3.13044,3.21391 v 0 l 3.13043,3.21392 v 0 l 3.13043,3.21391 v 0 L 180,249.89217 v 0 l 3.13043,3.21392 v 0 l 3.13044,3.21391 v 0"
           clip-path="url(#p953fed956e)"
           style="fill:none;stroke:#414487;stroke-width:2;stroke-opacity:0.8"
           id="path44" />
      </g>
      <g
         id="PathCollection_5">
        <path
           d="m 108,127.76348 v 0 l 3.13044,3.21391 v 0 l 3.13043,3.21391 v 0 l 3.13043,3.21392 v 0 l 3.13044,3.21391 v 0 l 1.05121,1.07924"
           clip-path="url(#p953fed956e)"
           style="fill:none;stroke:#355f8d;stroke-width:2;stroke-opacity:0.8"
           id="path47" />
        <path
           d="m 144.51401,165.25119 1.05121,1.07924 v 0 l 3.13043,3.21392 v 0 l 3.13044,3.21391 v 0 l 3.13043,3.21391 v 0 l 3.13044,3.21392 v 0 l 3.13043,3.21391 v 0 l 3.13044,3.21391 v 0 l 3.13043,3.21392 v 0 l 3.13044,3.21391 v 0 l 3.13043,3.21391 v 0 l 3.13043,3.21391 v 0 L 180,201.68348 v 0 l 3.13043,3.21391 v 0 l 3.13044,3.21391 v 0 l 3.13043,3.21392 v 0 l 3.13044,3.21391 v 0 l 3.13043,3.21391 v 0 l 3.13044,3.21392 v 0 l 3.13043,3.21391 v 0 l 3.13044,3.21391 v 0 l 3.13043,3.21392 v 0 l 3.13044,3.21391 v 0 l 3.13043,3.21391 v 0 l 3.13044,3.21391 v 0 l 3.13043,3.21392 v 0 l 3.13044,3.21391 v 0 l 3.13043,3.21391 v 0 l 3.13044,3.21392 v 0 l 3.13043,3.21391 v 0"
           clip-path="url(#p953fed956e)"
           style="fill:none;stroke:#355f8d;stroke-width:2;stroke-opacity:0.8"
           id="path49" />
      </g>
      <g
         id="PathCollection_6">
        <path
           d="m 108,79.554783 v 0 l 3.13044,3.213913 v 0 l 3.13043,3.213913 v 0 l 3.13043,3.213913 v 0 l 3.13044,3.213913 v 0 l 3.13043,3.213913 v 0 l 3.13044,3.213913 v 0 l 3.13043,3.213909 v 0 l 3.13044,3.21392 v 0 l 3.13043,3.21391 v 0 l 3.13044,3.21391 v 0 l 3.13043,3.21392 v 0 l 3.13044,3.21391 v 0 l 3.13043,3.21391 v 0 l 3.13044,3.21392 v 0 l 3.13043,3.21391 v 0 l 3.13044,3.21391 v 0 l 3.13043,3.21391 v 0 l 3.13044,3.21392 v 0 l 3.13043,3.21391 v 0 l 3.13044,3.21391 v 0 l 1.0512,1.07924"
           clip-path="url(#p953fed956e)"
           style="fill:none;stroke:#2a788e;stroke-width:2;stroke-opacity:0.8"
           id="path52" />
        <path
           d="m 194.60096,168.46511 1.05121,1.07924 v 0 l 3.13044,3.21391 v 0 l 3.13043,3.21391 v 0 l 3.13044,3.21392 v 0 l 3.13043,3.21391 v 0 l 3.13044,3.21391 v 0 l 3.13043,3.21392 v 0 l 3.13044,3.21391 v 0 l 3.13043,3.21391 v 0 l 3.13044,3.21391 v 0 l 3.13043,3.21392 v 0 l 3.13044,3.21391 v 0 l 3.13043,3.21391 v 0 l 3.13044,3.21392 v 0 l 3.13043,3.21391 v 0 l 3.13044,3.21391 v 0 l 3.13043,3.21392 v 0 l 3.13043,3.21391 v 0 L 252,227.39478 v 0 l 3.13043,3.21392 v 0 l 3.13044,3.21391 v 0 l 3.13043,3.21391 v 0 l 3.13044,3.21391 v 0 l 3.13043,3.21392 v 0 l 3.13044,3.21391 v 0 l 3.13043,3.21391 v 0 l 3.13044,3.21392 v 0 l 3.13043,3.21391 v 0"
           clip-path="url(#p953fed956e)"
           style="fill:none;stroke:#2a788e;stroke-width:2;stroke-opacity:0.8"
           id="path54" />
      </g>
      <g
         id="PathCollection_7">
        <path
           d="m 111.13044,34.56 3.13043,3.213913 v 0 l 3.13043,3.213913 v 0 l 3.13044,3.213913 v 0 l 3.13043,3.213913 v 0 l 3.13044,3.213913 v 0 l 3.13043,3.213913 v 0 l 3.13044,3.213913 v 0 l 3.13043,3.213913 v 0 l 3.13044,3.213913 v 0 l 3.13043,3.213913 v 0 l 3.13044,3.213913 v 0 l 3.13043,3.213914 v 0 l 3.13044,3.213913 v 0 l 3.13043,3.213913 v 0 l 3.13044,3.213913 v 0 l 3.13043,3.213913 v 0 l 3.13044,3.213913 v 0 l 3.13043,3.213913 v 0 l 3.13044,3.213913 v 0 l 3.13043,3.213913 v 0 l 3.13043,3.213909 v 0 L 180,105.26609 v 0 l 3.13043,3.21391 v 0 l 3.13044,3.21391 v 0 l 3.13043,3.21392 v 0 l 0.96866,0.99449"
           clip-path="url(#p953fed956e)"
           style="fill:none;stroke:#21918c;stroke-width:2;stroke-opacity:0.8"
           id="path57" />
        <path
           d="m 207.20525,133.19682 0.96866,0.99448 v 0 l 3.13044,3.21392 v 0 l 3.13043,3.21391 v 0 l 3.13044,3.21391 v 0 l 3.13043,3.21392 v 0 l 3.13044,3.21391 v 0 l 3.13043,3.21391 v 0 l 3.13044,3.21392 v 0 l 3.13043,3.21391 v 0 l 3.13044,3.21391 v 0 l 3.13043,3.21391 v 0 l 3.13044,3.21392 v 0 l 3.13043,3.21391 v 0 l 3.13043,3.21391 v 0 L 252,179.18609 v 0 l 3.13043,3.21391 v 0 l 3.13044,3.21391 v 0 l 3.13043,3.21392 v 0 l 3.13044,3.21391 v 0 l 3.13043,3.21391 v 0 l 3.13044,3.21391 v 0 l 3.13043,3.21392 v 0 l 3.13044,3.21391 v 0 l 3.13043,3.21391 v 0 l 3.13044,3.21392 v 0 l 3.13043,3.21391 v 0 l 3.13044,3.21391 v 0 l 3.13043,3.21392 v 0 l 3.13044,3.21391 v 0 l 3.13043,3.21391 v 0 l 3.13044,3.21392 v 0 l 3.13043,3.21391 v 0 l 3.13044,3.21391 v 0 l 3.13043,3.21391 v 0 l 3.13044,3.21392 v 0 l 3.13043,3.21391 v 0 l 3.13044,3.21391 v 0 L 324,253.10609"
           clip-path="url(#p953fed956e)"
           style="fill:none;stroke:#21918c;stroke-width:2;stroke-opacity:0.8"
           id="path59" />
      </g>
      <g
         id="PathCollection_8">
        <path
           d="m 158.08696,34.56 3.13043,3.213913 v 0 l 3.13044,3.213913 v 0 l 3.13043,3.213913 v 0 l 3.13044,3.213913 v 0 l 3.13043,3.213913 v 0 l 3.13043,3.213913 v 0 L 180,57.057391 v 0 l 3.13043,3.213913 v 0 l 3.13044,3.213913 v 0 l 3.13043,3.213913 v 0 l 3.13044,3.213913 v 0 l 3.13043,3.213914 v 0 l 3.13044,3.213913 v 0 l 3.13043,3.213913 v 0 l 3.13044,3.213913 v 0 l 3.13043,3.213913 v 0 l 3.13044,3.213913 v 0 l 3.13043,3.213913 v 0 l 3.13044,3.213913 v 0 l 3.13043,3.213913 v 0 l 3.13044,3.213909 v 0 l 3.13043,3.21392 v 0 l 3.13044,3.21391 v 0 l 3.13043,3.21391 v 0 l 3.13044,3.21392 v 0 l 3.13043,3.21391 v 0 l 3.13044,3.21391 v 0 l 3.13043,3.21392 v 0 l 3.13043,3.21391 v 0 L 252,130.97739 v 0 l 3.13043,3.21391 v 0 l 3.13044,3.21392 v 0 l 3.13043,3.21391 v 0 l 3.13044,3.21391 v 0 l 3.13043,3.21392 v 0 l 3.13044,3.21391 v 0 l 0.96866,0.99449"
           clip-path="url(#p953fed956e)"
           style="fill:none;stroke:#22a884;stroke-width:2;stroke-opacity:0.8"
           id="path62" />
        <path
           d="m 288.59656,168.54986 0.96866,0.99449 v 0 l 3.13043,3.21391 v 0 l 3.13044,3.21391 v 0 l 3.13043,3.21392 v 0 l 3.13044,3.21391 v 0 l 3.13043,3.21391 v 0 l 3.13044,3.21392 v 0 l 3.13043,3.21391 v 0 l 3.13044,3.21391 v 0 l 3.13043,3.21391 v 0 l 3.13044,3.21392 v 0 L 324,204.89739"
           clip-path="url(#p953fed956e)"
           style="fill:none;stroke:#22a884;stroke-width:2;stroke-opacity:0.8"
           id="path64" />
      </g>
      <g
         id="PathCollection_9">
        <path
           d="m 205.04348,34.56 3.13043,3.213913 v 0 l 3.13044,3.213913 v 0 l 3.13043,3.213913 v 0 l 3.13044,3.213913 v 0 l 3.13043,3.213913 v 0 l 3.13044,3.213913 v 0 l 3.13043,3.213913 v 0 l 3.13044,3.213913 v 0 l 3.13043,3.213913 v 0 l 3.13044,3.213913 v 0 l 3.13043,3.213913 v 0 l 3.13044,3.213914 v 0 l 3.13043,3.213913 v 0 l 3.13043,3.213913 v 0 L 252,82.768696 v 0 l 3.13043,3.213913 v 0 l 3.13044,3.213913 v 0 l 3.13043,3.213913 v 0 l 3.13044,3.213913 v 0 l 3.13043,3.213913 v 0 l 3.13044,3.213909 v 0 l 3.13043,3.21392 v 0 l 3.13044,3.21391 v 0 l 3.13043,3.21391 v 0 l 3.13044,3.21392 v 0 l 0.96866,0.99449"
           clip-path="url(#p953fed956e)"
           style="fill:none;stroke:#44bf70;stroke-width:2;stroke-opacity:0.8"
           id="path67" />
        <path
           d="m 301.1183,133.19682 0.96866,0.99448 v 0 l 3.13043,3.21392 v 0 l 3.13044,3.21391 v 0 l 3.13043,3.21391 v 0 l 3.13044,3.21392 v 0 l 3.13043,3.21391 v 0 l 3.13044,3.21391 v 0 L 324,156.6887"
           clip-path="url(#p953fed956e)"
           style="fill:none;stroke:#44bf70;stroke-width:2;stroke-opacity:0.8"
           id="path69" />
      </g>
      <g
         id="PathCollection_10">
        <path
           d="m 252,34.56 3.13043,3.213913 v 0 l 3.13044,3.213913 v 0 l 3.13043,3.213913 v 0 l 3.13044,3.213913 v 0 l 3.13043,3.213913 v 0 l 3.13044,3.213913 v 0 l 3.13043,3.213913 v 0 l 3.13044,3.213913 v 0 l 3.13043,3.213913 v 0 l 3.13044,3.213913 v 0 l 3.13043,3.213913 v 0 l 3.13044,3.213914 v 0 l 3.13043,3.213913 v 0 l 3.13044,3.213913 v 0 l 0.96865,0.994488"
           clip-path="url(#p953fed956e)"
           style="fill:none;stroke:#7ad151;stroke-width:2;stroke-opacity:0.8"
           id="path72" />
        <path
           d="m 313.64004,97.843772 0.96866,0.994489 v 0 l 3.13043,3.213909 v 0 l 3.13044,3.21392 v 0 L 324,108.48"
           clip-path="url(#p953fed956e)"
           style="fill:none;stroke:#7ad151;stroke-width:2;stroke-opacity:0.8"
           id="path74" />
      </g>
      <g
         id="PathCollection_11">
        <path
           d="m 298.95652,34.56 3.13044,3.213913 v 0 l 0.96865,0.994489"
           clip-path="url(#p953fed956e)"
           style="fill:none;stroke:#bddf26;stroke-width:2;stroke-opacity:0.8"
           id="path77" />
        <path
           d="m 319.90091,56.062903 0.96866,0.994488 v 0 L 324,60.271304"
           clip-path="url(#p953fed956e)"
           style="fill:none;stroke:#bddf26;stroke-width:2;stroke-opacity:0.8"
           id="path79" />
      </g>
      <g
         id="PathCollection_12" />
      <g
         id="patch_3">
        <path
           d="M 108,256.32 V 34.56"
           style="fill:none;stroke:#eee8d5;stroke-width:0.8;stroke-linecap:square;stroke-linejoin:miter"
           id="path83" />
      </g>
      <g
         id="patch_4">
        <path
           d="M 324,256.32 V 34.56"
           style="fill:none;stroke:#eee8d5;stroke-width:0.8;stroke-linecap:square;stroke-linejoin:miter"
           id="path86" />
      </g>
      <g
         id="patch_5">
        <path
           d="M 108,256.32 H 324"
           style="fill:none;stroke:#eee8d5;stroke-width:0.8;stroke-linecap:square;stroke-linejoin:miter"
           id="path89" />
      </g>
      <g
         id="patch_6">
        <path
           d="M 108,34.56 H 324"
           style="fill:none;stroke:#eee8d5;stroke-width:0.8;stroke-linecap:square;stroke-linejoin:miter"
           id="path92" />
      </g>
      <g
         id="text_1">
        <!-- and: $2 \cdot x_1 + 2 \cdot x_2 -2$ -->
        <g
           style="fill:#586e75"
           transform="matrix(0.16,0,0,-0.16,132.4,28.56)"
           id="g140">
          <defs
             id="defs106">
            <path
               id="DejaVuSans-61"
               d="m 2194,1759 q -697,0 -966,-159 -269,-159 -269,-544 0,-306 202,-486 202,-179 548,-179 479,0 768,339 289,339 289,901 v 128 z m 1147,238 V 0 H 2766 V 531 Q 2569,213 2275,61 1981,-91 1556,-91 q -537,0 -855,302 -317,302 -317,808 0,590 395,890 396,300 1180,300 h 807 v 57 q 0,397 -261,614 -261,217 -733,217 -300,0 -585,-72 -284,-72 -546,-216 v 532 q 315,122 612,182 297,61 578,61 760,0 1135,-394 375,-393 375,-1193 z"
               transform="scale(0.015625)" />
            <path
               id="DejaVuSans-6e"
               d="M 3513,2113 V 0 h -575 v 2094 q 0,497 -194,743 -194,247 -581,247 -466,0 -735,-297 -269,-296 -269,-809 V 0 H 581 v 3500 h 578 v -544 q 207,316 486,472 280,156 646,156 603,0 912,-373 310,-373 310,-1098 z"
               transform="scale(0.015625)" />
            <path
               id="DejaVuSans-64"
               d="m 2906,2969 v 1894 h 575 V 0 H 2906 V 525 Q 2725,213 2448,61 2172,-91 1784,-91 1150,-91 751,415 353,922 353,1747 q 0,825 398,1331 399,506 1033,506 388,0 664,-152 277,-151 458,-463 z M 947,1747 q 0,-634 261,-995 261,-361 717,-361 456,0 718,361 263,361 263,995 0,634 -263,995 -262,361 -718,361 -456,0 -717,-361 -261,-361 -261,-995 z"
               transform="scale(0.015625)" />
            <path
               id="DejaVuSans-3a"
               d="m 750,794 h 659 V 0 H 750 Z m 0,2515 h 659 V 2516 H 750 Z"
               transform="scale(0.015625)" />
            <path
               id="DejaVuSans-20"
               transform="scale(0.015625)"
               d="" />
            <path
               id="DejaVuSans-32"
               d="M 1228,531 H 3431 V 0 H 469 v 531 q 359,372 979,998 621,627 780,809 303,340 423,576 121,236 121,464 0,372 -261,606 -261,235 -680,235 -297,0 -627,-103 -329,-103 -704,-313 v 638 q 381,153 712,231 332,78 607,78 725,0 1156,-363 431,-362 431,-968 0,-288 -108,-546 -107,-257 -392,-607 -78,-91 -497,-524 Q 1991,1309 1228,531 Z"
               transform="scale(0.015625)" />
            <path
               id="DejaVuSans-22c5"
               d="m 684,2619 h 660 V 1825 H 684 Z"
               transform="scale(0.015625)" />
            <path
               id="DejaVuSans-Oblique-78"
               d="M 3841,3500 2234,1784 3219,0 H 2559 L 1819,1388 531,0 H -166 L 1556,1844 641,3500 h 659 l 672,-1266 1172,1266 z"
               transform="scale(0.015625)" />
            <path
               id="DejaVuSans-31"
               d="M 794,531 H 1825 V 4091 L 703,3866 v 575 l 1116,225 h 631 V 531 H 3481 V 0 H 794 Z"
               transform="scale(0.015625)" />
            <path
               id="DejaVuSans-2b"
               d="M 2944,4013 V 2272 H 4684 V 1741 H 2944 V 0 H 2419 V 1741 H 678 v 531 h 1741 v 1741 z"
               transform="scale(0.015625)" />
            <path
               id="DejaVuSans-2212"
               d="M 678,2272 H 4684 V 1741 H 678 Z"
               transform="scale(0.015625)" />
          </defs>
          <use
             xlink:href="#DejaVuSans-61"
             transform="translate(0,0.015625)"
             id="use108" />
          <use
             xlink:href="#DejaVuSans-6e"
             transform="translate(61.279297,0.015625)"
             id="use110" />
          <use
             xlink:href="#DejaVuSans-64"
             transform="translate(124.6582,0.015625)"
             id="use112" />
          <use
             xlink:href="#DejaVuSans-3a"
             transform="translate(188.13477,0.015625)"
             id="use114" />
          <use
             xlink:href="#DejaVuSans-20"
             transform="translate(221.82617,0.015625)"
             id="use116" />
          <use
             xlink:href="#DejaVuSans-32"
             transform="translate(253.61328,0.015625)"
             id="use118" />
          <use
             xlink:href="#DejaVuSans-22c5"
             transform="translate(336.71875,0.015625)"
             id="use120" />
          <use
             xlink:href="#DejaVuSans-Oblique-78"
             transform="translate(387.98828,0.015625)"
             id="use122" />
          <use
             xlink:href="#DejaVuSans-31"
             transform="matrix(0.7,0,0,0.7,447.16797,-16.390625)"
             id="use124" />
          <use
             xlink:href="#DejaVuSans-2b"
             transform="translate(513.9209,0.015625)"
             id="use126" />
          <use
             xlink:href="#DejaVuSans-32"
             transform="translate(617.19238,0.015625)"
             id="use128" />
          <use
             xlink:href="#DejaVuSans-22c5"
             transform="translate(700.29785,0.015625)"
             id="use130" />
          <use
             xlink:href="#DejaVuSans-Oblique-78"
             transform="translate(751.56738,0.015625)"
             id="use132" />
          <use
             xlink:href="#DejaVuSans-32"
             transform="matrix(0.7,0,0,0.7,810.74707,-16.390625)"
             id="use134" />
          <use
             xlink:href="#DejaVuSans-2212"
             transform="translate(877.5,0.015625)"
             id="use136" />
          <use
             xlink:href="#DejaVuSans-32"
             transform="translate(980.77148,0.015625)"
             id="use138" />
        </g>
      </g>
      <g
         id="text_2">
        <g
           clip-path="url(#p953fed956e)"
           id="g157">
          <!-- −2.4 -->
          <g
             style="opacity:0.8;fill:#482475"
             transform="matrix(0.0664027,0.07477086,0.07477086,-0.0664027,113.52674,233.0045)"
             id="g155">
            <defs
               id="defs145">
              <path
                 id="DejaVuSans-2e"
                 d="m 684,794 h 660 V 0 H 684 Z"
                 transform="scale(0.015625)" />
              <path
                 id="DejaVuSans-34"
                 d="M 2419,4116 825,1625 h 1594 z m -166,550 h 794 V 1625 h 666 V 1100 H 3047 V 0 H 2419 V 1100 H 313 v 609 z"
                 transform="scale(0.015625)" />
            </defs>
            <use
               xlink:href="#DejaVuSans-2212"
               id="use147" />
            <use
               xlink:href="#DejaVuSans-32"
               x="83.789062"
               id="use149" />
            <use
               xlink:href="#DejaVuSans-2e"
               x="147.41211"
               id="use151" />
            <use
               xlink:href="#DejaVuSans-34"
               x="179.19922"
               id="use153" />
          </g>
        </g>
      </g>
      <g
         id="text_3">
        <g
           clip-path="url(#p953fed956e)"
           id="g173">
          <!-- −1.8 -->
          <g
             style="opacity:0.8;fill:#414487"
             transform="matrix(0.0664027,0.07477086,0.07477086,-0.0664027,122.91805,194.43754)"
             id="g171">
            <defs
               id="defs161">
              <path
                 id="DejaVuSans-38"
                 d="m 2034,2216 q -450,0 -708,-241 -257,-241 -257,-662 0,-422 257,-663 258,-241 708,-241 450,0 709,242 260,243 260,662 0,421 -258,662 -257,241 -711,241 z m -631,268 q -406,100 -633,378 -226,279 -226,679 0,559 398,884 399,325 1092,325 697,0 1094,-325 397,-325 397,-884 0,-400 -227,-679 -226,-278 -629,-378 456,-106 710,-416 255,-309 255,-755 Q 3634,634 3220,271 2806,-91 2034,-91 1263,-91 848,271 434,634 434,1313 q 0,446 256,755 257,310 713,416 z m -231,997 q 0,-362 226,-565 227,-203 636,-203 407,0 636,203 230,203 230,565 0,363 -230,566 -229,203 -636,203 -409,0 -636,-203 -226,-203 -226,-566 z"
                 transform="scale(0.015625)" />
            </defs>
            <use
               xlink:href="#DejaVuSans-2212"
               id="use163" />
            <use
               xlink:href="#DejaVuSans-31"
               x="83.789062"
               id="use165" />
            <use
               xlink:href="#DejaVuSans-2e"
               x="147.41211"
               id="use167" />
            <use
               xlink:href="#DejaVuSans-38"
               x="179.19922"
               id="use169" />
          </g>
        </g>
      </g>
      <g
         id="text_4">
        <g
           clip-path="url(#p953fed956e)"
           id="g186">
          <!-- −1.2 -->
          <g
             style="opacity:0.8;fill:#355f8d"
             transform="matrix(0.0664027,0.07477086,0.07477086,-0.0664027,122.91805,146.22885)"
             id="g184">
            <use
               xlink:href="#DejaVuSans-2212"
               id="use176" />
            <use
               xlink:href="#DejaVuSans-31"
               x="83.789062"
               id="use178" />
            <use
               xlink:href="#DejaVuSans-2e"
               x="147.41211"
               id="use180" />
            <use
               xlink:href="#DejaVuSans-32"
               x="179.19922"
               id="use182" />
          </g>
        </g>
      </g>
      <g
         id="text_5">
        <g
           clip-path="url(#p953fed956e)"
           id="g203">
          <!-- −0.6 -->
          <g
             style="opacity:0.8;fill:#2a788e"
             transform="matrix(0.0664027,0.07477086,0.07477086,-0.0664027,173.005,149.44276)"
             id="g201">
            <defs
               id="defs191">
              <path
                 id="DejaVuSans-30"
                 d="m 2034,4250 q -487,0 -733,-480 -245,-479 -245,-1442 0,-959 245,-1439 246,-480 733,-480 491,0 736,480 246,480 246,1439 0,963 -246,1442 -245,480 -736,480 z m 0,500 q 785,0 1199,-621 414,-620 414,-1801 0,-1178 -414,-1799 -414,-620 -1199,-620 -784,0 -1198,620 -414,621 -414,1799 0,1181 414,1801 414,621 1198,621 z"
                 transform="scale(0.015625)" />
              <path
                 id="DejaVuSans-36"
                 d="m 2113,2584 q -425,0 -674,-291 -248,-290 -248,-796 0,-503 248,-796 249,-292 674,-292 425,0 673,292 248,293 248,796 0,506 -248,796 -248,291 -673,291 z m 1253,1979 v -575 q -238,112 -480,171 -242,60 -480,60 -625,0 -955,-422 -329,-422 -376,-1275 184,272 462,417 279,145 613,145 703,0 1111,-427 408,-426 408,-1160 0,-719 -425,-1154 -425,-434 -1131,-434 -810,0 -1238,620 -428,621 -428,1799 0,1106 525,1764 525,658 1409,658 238,0 480,-47 242,-47 505,-140 z"
                 transform="scale(0.015625)" />
            </defs>
            <use
               xlink:href="#DejaVuSans-2212"
               id="use193" />
            <use
               xlink:href="#DejaVuSans-30"
               x="83.789062"
               id="use195" />
            <use
               xlink:href="#DejaVuSans-2e"
               x="147.41211"
               id="use197" />
            <use
               xlink:href="#DejaVuSans-36"
               x="179.19922"
               id="use199" />
          </g>
        </g>
      </g>
      <g
         id="text_6">
        <g
           clip-path="url(#p953fed956e)"
           id="g214">
          <!-- 0.0 -->
          <g
             style="opacity:0.8;fill:#21918c"
             transform="matrix(0.0664027,0.07477086,0.07477086,-0.0664027,191.43935,120.43641)"
             id="g212">
            <use
               xlink:href="#DejaVuSans-30"
               id="use206" />
            <use
               xlink:href="#DejaVuSans-2e"
               x="63.623047"
               id="use208" />
            <use
               xlink:href="#DejaVuSans-30"
               x="95.410156"
               id="use210" />
          </g>
        </g>
      </g>
      <g
         id="text_7">
        <g
           clip-path="url(#p953fed956e)"
           id="g225">
          <!-- 0.6 -->
          <g
             style="opacity:0.8;fill:#22a884"
             transform="matrix(0.0664027,0.07477086,0.07477086,-0.0664027,272.83065,155.78946)"
             id="g223">
            <use
               xlink:href="#DejaVuSans-30"
               id="use217" />
            <use
               xlink:href="#DejaVuSans-2e"
               x="63.623047"
               id="use219" />
            <use
               xlink:href="#DejaVuSans-36"
               x="95.410156"
               id="use221" />
          </g>
        </g>
      </g>
      <g
         id="text_8">
        <g
           clip-path="url(#p953fed956e)"
           id="g236">
          <!-- 1.2 -->
          <g
             style="opacity:0.8;fill:#44bf70"
             transform="matrix(0.0664027,0.07477086,0.07477086,-0.0664027,285.35239,120.43641)"
             id="g234">
            <use
               xlink:href="#DejaVuSans-31"
               id="use228" />
            <use
               xlink:href="#DejaVuSans-2e"
               x="63.623047"
               id="use230" />
            <use
               xlink:href="#DejaVuSans-32"
               x="95.410156"
               id="use232" />
          </g>
        </g>
      </g>
      <g
         id="text_9">
        <g
           clip-path="url(#p953fed956e)"
           id="g247">
          <!-- 1.8 -->
          <g
             style="opacity:0.8;fill:#7ad151"
             transform="matrix(0.0664027,0.07477086,0.07477086,-0.0664027,297.87413,85.083369)"
             id="g245">
            <use
               xlink:href="#DejaVuSans-31"
               id="use239" />
            <use
               xlink:href="#DejaVuSans-2e"
               x="63.623047"
               id="use241" />
            <use
               xlink:href="#DejaVuSans-38"
               x="95.410156"
               id="use243" />
          </g>
        </g>
      </g>
      <g
         id="text_10">
        <g
           clip-path="url(#p953fed956e)"
           id="g258">
          <!-- 2.4 -->
          <g
             style="opacity:0.8;fill:#bddf26"
             transform="matrix(0.0664027,0.07477086,0.07477086,-0.0664027,304.135,43.3025)"
             id="g256">
            <use
               xlink:href="#DejaVuSans-32"
               id="use250" />
            <use
               xlink:href="#DejaVuSans-2e"
               x="63.623047"
               id="use252" />
            <use
               xlink:href="#DejaVuSans-34"
               x="95.410156"
               id="use254" />
          </g>
        </g>
      </g>
    </g>
    <g
       id="axes_2">
      <g
         id="patch_7">
        <path
           d="m 334.8,256.32 h 216 V 34.56 h -216 z"
           style="fill:#eee8d5"
           id="path262" />
      </g>
      <g
         id="matplotlib.axis_3" />
      <g
         id="matplotlib.axis_4" />
      <g
         id="PathCollection_13">
        <defs
           id="defs268">
          <path
             id="C1_0_650382d7e6"
             d="M 0,3.535534 C 0.937635,3.535534 1.836992,3.163008 2.5,2.5 3.163008,1.836992 3.535534,0.937635 3.535534,0 3.535534,-0.937635 3.163008,-1.836992 2.5,-2.5 1.836992,-3.163008 0.937635,-3.535534 0,-3.535534 c -0.937635,0 -1.836992,0.372526 -2.5,1.035534 -0.663008,0.663008 -1.035534,1.562365 -1.035534,2.5 0,0.937635 0.372526,1.836992 1.035534,2.5 0.663008,0.663008 1.562365,1.035534 2.5,1.035534 z" />
        </defs>
        <g
           clip-path="url(#p83efee6484)"
           id="g272">
          <use
             xlink:href="#C1_0_650382d7e6"
             x="522.6261"
             y="63.485218"
             style="fill:#fde725;stroke:#002b36"
             id="use270" />
        </g>
        <g
           clip-path="url(#p83efee6484)"
           id="g276">
          <use
             xlink:href="#C1_0_650382d7e6"
             x="522.6261"
             y="224.18086"
             style="fill:#fde725;stroke:#002b36"
             id="use274" />
        </g>
        <g
           clip-path="url(#p83efee6484)"
           id="g280">
          <use
             xlink:href="#C1_0_650382d7e6"
             x="366.10434"
             y="63.485218"
             style="fill:#fde725;stroke:#002b36"
             id="use278" />
        </g>
        <g
           clip-path="url(#p83efee6484)"
           id="g284">
          <use
             xlink:href="#C1_0_650382d7e6"
             x="366.10434"
             y="224.18086"
             style="fill:#440154;stroke:#002b36"
             id="use282" />
        </g>
      </g>
      <g
         id="PathCollection_14" />
      <g
         id="PathCollection_15">
        <path
           d="m 334.8,208.1113 v 0 l 3.13043,3.21392 v 0 l 3.13044,3.21391 3.13043,3.21391 v 0 l 3.13044,3.21392 v 0 l 1.05121,1.07924"
           clip-path="url(#p83efee6484)"
           style="fill:none;stroke:#482475;stroke-width:2;stroke-opacity:0.8"
           id="path288" />
        <path
           d="m 371.31401,245.59902 1.05121,1.07924 v 0 l 3.13043,3.21391 3.13044,3.21392 v 0 l 3.13043,3.21391 v 0"
           clip-path="url(#p83efee6484)"
           style="fill:none;stroke:#482475;stroke-width:2;stroke-opacity:0.8"
           id="path290" />
      </g>
      <g
         id="PathCollection_16">
        <path
           d="m 334.8,159.90261 v 0 l 3.13043,3.21391 v 0 l 3.13044,3.21391 v 0 l 3.13043,3.21392 v 0 l 3.13044,3.21391 v 0 l 1.05121,1.07924"
           clip-path="url(#p83efee6484)"
           style="fill:none;stroke:#414487;stroke-width:2;stroke-opacity:0.8"
           id="path293" />
        <path
           d="m 371.31401,197.39032 1.05121,1.07924 v 0 l 3.13043,3.21392 v 0 l 3.13044,3.21391 v 0 l 3.13043,3.21391 v 0 l 3.13044,3.21392 v 0 l 3.13043,3.21391 v 0 l 3.13044,3.21391 v 0 l 3.13043,3.21392 v 0 l 3.13044,3.21391 v 0 l 3.13043,3.21391 v 0 l 3.13043,3.21392 v 0 l 3.13044,3.21391 v 0 l 3.13043,3.21391 v 0 l 3.13044,3.21391 v 0 l 3.13043,3.21392 v 0 l 3.13044,3.21391 v 0 l 3.13043,3.21391 v 0 l 3.13044,3.21392 v 0 l 3.13043,3.21391 v 0"
           clip-path="url(#p83efee6484)"
           style="fill:none;stroke:#414487;stroke-width:2;stroke-opacity:0.8"
           id="path295" />
      </g>
      <g
         id="PathCollection_17">
        <path
           d="m 334.8,111.69391 v 0 l 3.13043,3.21392 v 0 l 3.13044,3.21391 v 0 l 0.96866,0.99449"
           clip-path="url(#p83efee6484)"
           style="fill:none;stroke:#355f8d;stroke-width:2;stroke-opacity:0.8"
           id="path298" />
        <path
           d="m 358.87482,136.41073 0.96866,0.99449 v 0 l 3.13043,3.21391 v 0 l 3.13044,3.21391 v 0 l 3.13043,3.21392 v 0 l 3.13044,3.21391 v 0 l 3.13043,3.21391 v 0 l 3.13044,3.21392 v 0 l 3.13043,3.21391 v 0 l 3.13044,3.21391 v 0 l 3.13043,3.21391 v 0 l 3.13044,3.21392 v 0 l 3.13043,3.21391 v 0 l 3.13044,3.21391 v 0 l 3.13043,3.21392 v 0 l 3.13043,3.21391 v 0 l 3.13044,3.21391 v 0 l 3.13043,3.21392 v 0 l 3.13044,3.21391 v 0 l 3.13043,3.21391 v 0 l 3.13044,3.21391 v 0 l 3.13043,3.21392 v 0 l 3.13044,3.21391 v 0 l 3.13043,3.21391 v 0 l 3.13044,3.21392 v 0 l 3.13043,3.21391 v 0 l 3.13044,3.21391 v 0 l 3.13043,3.21392 v 0 l 3.13044,3.21391 v 0 l 3.13043,3.21391 v 0 l 3.13044,3.21392 v 0 l 3.13043,3.21391 v 0 l 3.13044,3.21391 v 0 l 3.13043,3.21391 v 0 l 3.13044,3.21392 v 0 l 3.13043,3.21391 v 0 l 3.13044,3.21391 v 0 l 3.13043,3.21392 v 0 l 3.13043,3.21391 v 0"
           clip-path="url(#p83efee6484)"
           style="fill:none;stroke:#355f8d;stroke-width:2;stroke-opacity:0.8"
           id="path300" />
      </g>
      <g
         id="PathCollection_18">
        <path
           d="m 334.8,63.485217 v 0 l 3.13043,3.213913 v 0 l 3.13044,3.213913 v 0 l 3.13043,3.213914 v 0 l 3.13044,3.213913 v 0 l 3.13043,3.213913 v 0 l 3.13044,3.213913 v 0 l 3.13043,3.213913 v 0 l 3.13044,3.213913 v 0 l 3.13043,3.213913 v 0 l 3.13044,3.213913 v 0 l 3.13043,3.213913 v 0 l 3.13044,3.213909 v 0 l 3.13043,3.21392 v 0 l 3.13044,3.21391 v 0 l 3.13043,3.21391 v 0 l 3.13044,3.21392 v 0 l 3.13043,3.21391 v 0 l 3.13044,3.21391 v 0 l 3.13043,3.21392 v 0 l 3.13044,3.21391 v 0 l 3.13043,3.21391 v 0 l 3.13043,3.21391 v 0 l 3.13044,3.21392 v 0 l 3.13043,3.21391 v 0 l 3.13044,3.21391 v 0 l 3.13043,3.21392 v 0 l 3.13044,3.21391 v 0 l 3.13043,3.21391 v 0 l 3.13044,3.21392 v 0 l 3.13043,3.21391 v 0 l 3.13044,3.21391 v 0 l 3.13043,3.21391 v 0 l 3.13044,3.21392 v 0 l 3.13043,3.21391 v 0 l 3.13044,3.21391 v 0 l 3.13043,3.21392 v 0 l 3.13044,3.21391 v 0 l 3.13043,3.21391 v 0 l 3.13044,3.21392 v 0 l 3.13043,3.21391 v 0 l 3.13044,3.21391 v 0 l 3.13043,3.21391 v 0 l 3.13044,3.21392 v 0 l 3.13043,3.21391 v 0 l 3.13043,3.21391 v 0 l 3.13044,3.21392 v 0 l 0.96866,0.99449"
           clip-path="url(#p83efee6484)"
           style="fill:none;stroke:#2a788e;stroke-width:2;stroke-opacity:0.8"
           id="path303" />
        <path
           d="m 496.61395,229.61421 0.96866,0.99449 v 0 l 3.13043,3.21391 v 0 l 3.13044,3.21391 v 0 l 3.13043,3.21391 v 0 l 3.13044,3.21392 v 0 l 3.13043,3.21391 v 0 l 3.13044,3.21391 v 0 l 3.13043,3.21392 v 0 l 3.13044,3.21391 v 0"
           clip-path="url(#p83efee6484)"
           style="fill:none;stroke:#2a788e;stroke-width:2;stroke-opacity:0.8"
           id="path305" />
      </g>
      <g
         id="PathCollection_19">
        <path
           d="m 353.58261,34.56 3.13043,3.213913 v 0 l 3.13044,3.213913 v 0 l 3.13043,3.213913 v 0 l 3.13044,3.213913 v 0 l 3.13043,3.213913 v 0 l 3.13044,3.213913 v 0 l 3.13043,3.213913 v 0 l 3.13044,3.213913 v 0 l 3.13043,3.213913 v 0 l 3.13044,3.213913 v 0 l 3.13043,3.213913 v 0 l 3.13044,3.213914 v 0 l 3.13043,3.213913 v 0 l 3.13044,3.213913 v 0 l 3.13043,3.213913 v 0 l 3.13043,3.213913 v 0 L 406.8,89.196522 v 0 l 3.13043,3.213913 v 0 l 3.13044,3.213913 v 0 l 3.13043,3.213913 v 0 l 3.13044,3.213909 v 0 l 3.13043,3.21392 v 0 l 3.13044,3.21391 v 0 l 3.13043,3.21391 v 0 l 3.13044,3.21392 v 0 l 3.13043,3.21391 v 0 l 3.13044,3.21391 v 0 l 3.13043,3.21392 v 0 l 3.13044,3.21391 v 0 l 3.13043,3.21391 v 0 l 3.13044,3.21391 v 0 l 3.13043,3.21392 v 0 l 3.13044,3.21391 v 0 l 3.13043,3.21391 v 0 l 3.13044,3.21392 v 0 l 3.13043,3.21391 v 0 l 3.13044,3.21391 v 0 l 3.13043,3.21392 v 0 l 3.13043,3.21391 v 0 l 3.13044,3.21391 v 0 l 3.13043,3.21391 v 0 l 3.13044,3.21392 v 0 l 3.13043,3.21391 v 0 l 3.13044,3.21391 v 0 l 3.13043,3.21392 v 0 l 3.13044,3.21391 v 0 l 3.13043,3.21391 v 0 l 0.96866,0.99449"
           clip-path="url(#p83efee6484)"
           style="fill:none;stroke:#21908d;stroke-width:2;stroke-opacity:0.8"
           id="path308" />
        <path
           d="m 518.52699,203.9029 0.96866,0.99449 v 0 l 3.13044,3.21391 v 0 l 3.13043,3.21392 v 0 l 3.13044,3.21391 v 0 l 3.13043,3.21391 v 0 l 3.13044,3.21392 v 0 l 3.13043,3.21391 v 0 l 3.13044,3.21391 v 0 l 3.13043,3.21392 v 0 l 3.13044,3.21391 v 0 l 3.13043,3.21391"
           clip-path="url(#p83efee6484)"
           style="fill:none;stroke:#21908d;stroke-width:2;stroke-opacity:0.8"
           id="path310" />
      </g>
      <g
         id="PathCollection_20">
        <path
           d="m 400.53913,34.56 3.13043,3.213913 v 0 L 406.8,40.987826 v 0 l 3.13043,3.213913 v 0 l 0.96866,0.994489"
           clip-path="url(#p83efee6484)"
           style="fill:none;stroke:#22a884;stroke-width:2;stroke-opacity:0.8"
           id="path313" />
        <path
           d="m 427.74439,62.490729 0.96865,0.994488 v 0 l 3.13044,3.213913 v 0 l 3.13043,3.213913 v 0 l 3.13044,3.213914 v 0 l 3.13043,3.213913 v 0 l 3.13044,3.213913 v 0 l 3.13043,3.213913 v 0 l 3.13044,3.213913 v 0 l 3.13043,3.213913 v 0 l 3.13044,3.213913 v 0 l 3.13043,3.213913 v 0 l 3.13044,3.213913 v 0 l 3.13043,3.213909 v 0 l 3.13044,3.21392 v 0 l 3.13043,3.21391 v 0 l 3.13043,3.21391 v 0 l 3.13044,3.21392 v 0 l 3.13043,3.21391 v 0 l 3.13044,3.21391 v 0 l 3.13043,3.21392 v 0 l 3.13044,3.21391 v 0 l 3.13043,3.21391 v 0 l 3.13044,3.21391 v 0 l 3.13043,3.21392 v 0 l 3.13044,3.21391 v 0 l 3.13043,3.21391 v 0 l 3.13044,3.21392 v 0 l 3.13043,3.21391 v 0 l 3.13044,3.21391 v 0 l 3.13043,3.21392 v 0 l 3.13044,3.21391 v 0 l 3.13043,3.21391 v 0 l 3.13044,3.21391 v 0 l 3.13043,3.21392 v 0 l 3.13044,3.21391 v 0 l 3.13043,3.21391 v 0 l 3.13044,3.21392 v 0 l 3.13043,3.21391 v 0 l 3.13044,3.21391 v 0 l 3.13043,3.21392"
           clip-path="url(#p83efee6484)"
           style="fill:none;stroke:#22a884;stroke-width:2;stroke-opacity:0.8"
           id="path315" />
      </g>
      <g
         id="PathCollection_21">
        <path
           d="m 447.49565,34.56 3.13044,3.213913 v 0 l 3.13043,3.213913 v 0 l 3.13044,3.213913 v 0 l 3.13043,3.213913 v 0 l 3.13044,3.213913 v 0 l 3.13043,3.213913 v 0 l 3.13044,3.213913 v 0 l 3.13043,3.213913 v 0 l 3.13043,3.213913 v 0 L 478.8,66.69913 v 0 l 3.13043,3.213913 v 0 l 3.13044,3.213914 v 0 l 3.13043,3.213913 v 0 l 3.13044,3.213913 v 0 l 3.13043,3.213913 v 0 l 3.13044,3.213913 v 0 l 3.13043,3.213913 v 0 l 3.13044,3.213913 v 0 l 3.13043,3.213913 v 0 l 3.13044,3.213913 v 0 l 3.13043,3.213909 v 0 l 3.13044,3.21392 v 0 l 3.13043,3.21391 v 0 l 3.13044,3.21391 v 0 l 3.13043,3.21392 v 0 l 0.96866,0.99449"
           clip-path="url(#p83efee6484)"
           style="fill:none;stroke:#44bf70;stroke-width:2;stroke-opacity:0.8"
           id="path318" />
        <path
           d="m 543.57047,133.19682 0.96866,0.99448 v 0 l 3.13044,3.21392 v 0 l 3.13043,3.21391"
           clip-path="url(#p83efee6484)"
           style="fill:none;stroke:#44bf70;stroke-width:2;stroke-opacity:0.8"
           id="path320" />
      </g>
      <g
         id="PathCollection_22">
        <path
           d="m 494.45217,34.56 3.13044,3.213913 v 0 l 3.13043,3.213913 v 0 l 3.13044,3.213913 v 0 l 0.96866,0.994489"
           clip-path="url(#p83efee6484)"
           style="fill:none;stroke:#7ad151;stroke-width:2;stroke-opacity:0.8"
           id="path323" />
        <path
           d="m 521.65743,62.490729 0.96866,0.994488 v 0 l 3.13043,3.213913 v 0 l 3.13044,3.213913 v 0 l 3.13043,3.213914 v 0 l 3.13044,3.213913 v 0 l 3.13043,3.213913 v 0 l 3.13044,3.213913 v 0 l 3.13043,3.213913 v 0 l 3.13044,3.213913 v 0 L 550.8,92.410435"
           clip-path="url(#p83efee6484)"
           style="fill:none;stroke:#7ad151;stroke-width:2;stroke-opacity:0.8"
           id="path325" />
      </g>
      <g
         id="PathCollection_23">
        <path
           d="m 541.4087,34.56 3.13043,3.213913 v 0 l 3.13044,3.213913 v 0 L 550.8,44.201739"
           clip-path="url(#p83efee6484)"
           style="fill:none;stroke:#bddf26;stroke-width:2;stroke-opacity:0.8"
           id="path328" />
      </g>
      <g
         id="PathCollection_24" />
      <g
         id="patch_8">
        <path
           d="M 334.8,256.32 V 34.56"
           style="fill:none;stroke:#eee8d5;stroke-width:0.8;stroke-linecap:square;stroke-linejoin:miter"
           id="path332" />
      </g>
      <g
         id="patch_9">
        <path
           d="M 550.8,256.32 V 34.56"
           style="fill:none;stroke:#eee8d5;stroke-width:0.8;stroke-linecap:square;stroke-linejoin:miter"
           id="path335" />
      </g>
      <g
         id="patch_10">
        <path
           d="m 334.8,256.32 h 216"
           style="fill:none;stroke:#eee8d5;stroke-width:0.8;stroke-linecap:square;stroke-linejoin:miter"
           id="path338" />
      </g>
      <g
         id="patch_11">
        <path
           d="m 334.8,34.56 h 216"
           style="fill:none;stroke:#eee8d5;stroke-width:0.8;stroke-linecap:square;stroke-linejoin:miter"
           id="path341" />
      </g>
      <g
         id="text_11">
        <!-- or: $2 \cdot x_1 + 2 \cdot x_2 -1$ -->
        <g
           style="fill:#586e75"
           transform="matrix(0.16,0,0,-0.16,366.08,28.56)"
           id="g378">
          <defs
             id="defs346">
            <path
               id="DejaVuSans-6f"
               d="m 1959,3097 q -462,0 -731,-361 -269,-361 -269,-989 0,-628 267,-989 268,-361 733,-361 460,0 728,362 269,363 269,988 0,622 -269,986 -268,364 -728,364 z m 0,487 q 750,0 1178,-488 429,-487 429,-1349 Q 3566,888 3137,398 2709,-91 1959,-91 1206,-91 779,398 353,888 353,1747 q 0,862 426,1349 427,488 1180,488 z"
               transform="scale(0.015625)" />
            <path
               id="DejaVuSans-72"
               d="m 2631,2963 q -97,56 -211,82 -114,27 -251,27 -488,0 -749,-317 -261,-317 -261,-911 V 0 H 581 v 3500 h 578 v -544 q 182,319 472,473 291,155 707,155 59,0 131,-8 72,-7 159,-23 z"
               transform="scale(0.015625)" />
          </defs>
          <use
             xlink:href="#DejaVuSans-6f"
             transform="translate(0,0.78125)"
             id="use348" />
          <use
             xlink:href="#DejaVuSans-72"
             transform="translate(61.181641,0.78125)"
             id="use350" />
          <use
             xlink:href="#DejaVuSans-3a"
             transform="translate(102.29492,0.78125)"
             id="use352" />
          <use
             xlink:href="#DejaVuSans-20"
             transform="translate(135.98633,0.78125)"
             id="use354" />
          <use
             xlink:href="#DejaVuSans-32"
             transform="translate(167.77344,0.78125)"
             id="use356" />
          <use
             xlink:href="#DejaVuSans-22c5"
             transform="translate(250.87891,0.78125)"
             id="use358" />
          <use
             xlink:href="#DejaVuSans-Oblique-78"
             transform="translate(302.14844,0.78125)"
             id="use360" />
          <use
             xlink:href="#DejaVuSans-31"
             transform="matrix(0.7,0,0,0.7,361.32812,-15.625)"
             id="use362" />
          <use
             xlink:href="#DejaVuSans-2b"
             transform="translate(428.08105,0.78125)"
             id="use364" />
          <use
             xlink:href="#DejaVuSans-32"
             transform="translate(531.35254,0.78125)"
             id="use366" />
          <use
             xlink:href="#DejaVuSans-22c5"
             transform="translate(614.45801,0.78125)"
             id="use368" />
          <use
             xlink:href="#DejaVuSans-Oblique-78"
             transform="translate(665.72754,0.78125)"
             id="use370" />
          <use
             xlink:href="#DejaVuSans-32"
             transform="matrix(0.7,0,0,0.7,724.90723,-15.625)"
             id="use372" />
          <use
             xlink:href="#DejaVuSans-2212"
             transform="translate(791.66016,0.78125)"
             id="use374" />
          <use
             xlink:href="#DejaVuSans-31"
             transform="translate(894.93164,0.78125)"
             id="use376" />
        </g>
      </g>
      <g
         id="text_12">
        <g
           clip-path="url(#p83efee6484)"
           id="g391">
          <!-- −1.2 -->
          <g
             style="opacity:0.8;fill:#482475"
             transform="matrix(0.0664027,0.07477086,0.07477086,-0.0664027,349.71805,226.57667)"
             id="g389">
            <use
               xlink:href="#DejaVuSans-2212"
               id="use381" />
            <use
               xlink:href="#DejaVuSans-31"
               x="83.789062"
               id="use383" />
            <use
               xlink:href="#DejaVuSans-2e"
               x="147.41211"
               id="use385" />
            <use
               xlink:href="#DejaVuSans-32"
               x="179.19922"
               id="use387" />
          </g>
        </g>
      </g>
      <g
         id="text_13">
        <g
           clip-path="url(#p83efee6484)"
           id="g404">
          <!-- −0.6 -->
          <g
             style="opacity:0.8;fill:#414487"
             transform="matrix(0.0664027,0.07477086,0.07477086,-0.0664027,349.71805,178.36798)"
             id="g402">
            <use
               xlink:href="#DejaVuSans-2212"
               id="use394" />
            <use
               xlink:href="#DejaVuSans-30"
               x="83.789062"
               id="use396" />
            <use
               xlink:href="#DejaVuSans-2e"
               x="147.41211"
               id="use398" />
            <use
               xlink:href="#DejaVuSans-36"
               x="179.19922"
               id="use400" />
          </g>
        </g>
      </g>
      <g
         id="text_14">
        <g
           clip-path="url(#p83efee6484)"
           id="g415">
          <!-- 0.0 -->
          <g
             style="opacity:0.8;fill:#355f8d"
             transform="matrix(0.0664027,0.07477086,0.07477086,-0.0664027,343.10891,123.65033)"
             id="g413">
            <use
               xlink:href="#DejaVuSans-30"
               id="use407" />
            <use
               xlink:href="#DejaVuSans-2e"
               x="63.623047"
               id="use409" />
            <use
               xlink:href="#DejaVuSans-30"
               x="95.410156"
               id="use411" />
          </g>
        </g>
      </g>
      <g
         id="text_15">
        <g
           clip-path="url(#p83efee6484)"
           id="g426">
          <!-- 0.6 -->
          <g
             style="opacity:0.8;fill:#2a788e"
             transform="matrix(0.0664027,0.07477086,0.07477086,-0.0664027,480.84804,216.8538)"
             id="g424">
            <use
               xlink:href="#DejaVuSans-30"
               id="use418" />
            <use
               xlink:href="#DejaVuSans-2e"
               x="63.623047"
               id="use420" />
            <use
               xlink:href="#DejaVuSans-36"
               x="95.410156"
               id="use422" />
          </g>
        </g>
      </g>
      <g
         id="text_16">
        <g
           clip-path="url(#p83efee6484)"
           id="g437">
          <!-- 1.2 -->
          <g
             style="opacity:0.8;fill:#21908d"
             transform="matrix(0.0664027,0.07477086,0.07477086,-0.0664027,502.76109,191.1425)"
             id="g435">
            <use
               xlink:href="#DejaVuSans-31"
               id="use429" />
            <use
               xlink:href="#DejaVuSans-2e"
               x="63.623047"
               id="use431" />
            <use
               xlink:href="#DejaVuSans-32"
               x="95.410156"
               id="use433" />
          </g>
        </g>
      </g>
      <g
         id="text_17">
        <g
           clip-path="url(#p83efee6484)"
           id="g448">
          <!-- 1.8 -->
          <g
             style="opacity:0.8;fill:#22a884"
             transform="matrix(0.0664027,0.07477086,0.07477086,-0.0664027,411.97848,49.730326)"
             id="g446">
            <use
               xlink:href="#DejaVuSans-31"
               id="use440" />
            <use
               xlink:href="#DejaVuSans-2e"
               x="63.623047"
               id="use442" />
            <use
               xlink:href="#DejaVuSans-38"
               x="95.410156"
               id="use444" />
          </g>
        </g>
      </g>
      <g
         id="text_18">
        <g
           clip-path="url(#p83efee6484)"
           id="g459">
          <!-- 2.4 -->
          <g
             style="opacity:0.8;fill:#44bf70"
             transform="matrix(0.0664027,0.07477086,0.07477086,-0.0664027,527.80457,120.43641)"
             id="g457">
            <use
               xlink:href="#DejaVuSans-32"
               id="use451" />
            <use
               xlink:href="#DejaVuSans-2e"
               x="63.623047"
               id="use453" />
            <use
               xlink:href="#DejaVuSans-34"
               x="95.410156"
               id="use455" />
          </g>
        </g>
      </g>
      <g
         id="text_19">
        <g
           clip-path="url(#p83efee6484)"
           id="g473">
          <!-- 3.0 -->
          <g
             style="opacity:0.8;fill:#7ad151"
             transform="matrix(0.0664027,0.07477086,0.07477086,-0.0664027,505.89152,49.730326)"
             id="g471">
            <defs
               id="defs463">
              <path
                 id="DejaVuSans-33"
                 d="m 2597,2516 q 453,-97 707,-404 255,-306 255,-756 0,-690 -475,-1069 -475,-378 -1350,-378 -293,0 -604,58 -311,58 -642,174 v 609 q 262,-153 574,-231 313,-78 654,-78 593,0 904,234 311,234 311,681 0,413 -289,645 -289,233 -804,233 h -544 v 519 h 569 q 465,0 712,186 247,186 247,536 0,359 -255,551 -254,193 -729,193 -260,0 -557,-57 -297,-56 -653,-174 v 562 q 360,100 674,150 314,50 592,50 719,0 1137,-327 419,-326 419,-882 0,-388 -222,-655 -222,-267 -631,-370 z"
                 transform="scale(0.015625)" />
            </defs>
            <use
               xlink:href="#DejaVuSans-33"
               id="use465" />
            <use
               xlink:href="#DejaVuSans-2e"
               x="63.623047"
               id="use467" />
            <use
               xlink:href="#DejaVuSans-30"
               x="95.410156"
               id="use469" />
          </g>
        </g>
      </g>
    </g>
    <g
       id="axes_3">
      <g
         id="patch_12">
        <path
           d="m 561.6,256.32 h 216 V 34.56 h -216 z"
           style="fill:#eee8d5"
           id="path477" />
      </g>
      <g
         id="matplotlib.axis_5" />
      <g
         id="matplotlib.axis_6" />
      <g
         id="PathCollection_25">
        <defs
           id="defs483">
          <path
             id="C2_0_d61ba68da5"
             d="M 0,3.535534 C 0.937635,3.535534 1.836992,3.163008 2.5,2.5 3.163008,1.836992 3.535534,0.937635 3.535534,0 3.535534,-0.937635 3.163008,-1.836992 2.5,-2.5 1.836992,-3.163008 0.937635,-3.535534 0,-3.535534 c -0.937635,0 -1.836992,0.372526 -2.5,1.035534 -0.663008,0.663008 -1.035534,1.562365 -1.035534,2.5 0,0.937635 0.372526,1.836992 1.035534,2.5 0.663008,0.663008 1.562365,1.035534 2.5,1.035534 z" />
        </defs>
        <g
           clip-path="url(#pe40e03f672)"
           id="g487">
          <use
             xlink:href="#C2_0_d61ba68da5"
             x="749.42609"
             y="63.485218"
             style="fill:#440154;stroke:#002b36"
             id="use485" />
        </g>
        <g
           clip-path="url(#pe40e03f672)"
           id="g491">
          <use
             xlink:href="#C2_0_d61ba68da5"
             x="749.42609"
             y="224.18086"
             style="fill:#440154;stroke:#002b36"
             id="use489" />
        </g>
        <g
           clip-path="url(#pe40e03f672)"
           id="g495">
          <use
             xlink:href="#C2_0_d61ba68da5"
             x="592.90436"
             y="63.485218"
             style="fill:#fde725;stroke:#002b36"
             id="use493" />
        </g>
        <g
           clip-path="url(#pe40e03f672)"
           id="g499">
          <use
             xlink:href="#C2_0_d61ba68da5"
             x="592.90436"
             y="224.18086"
             style="fill:#fde725;stroke:#002b36"
             id="use497" />
        </g>
      </g>
      <g
         id="PathCollection_26" />
      <g
         id="PathCollection_27">
        <path
           d="m 759.86087,256.32 1.04348,-3.21391 1.04348,-3.21392 v 0 l 1.04347,-3.21391 0.31409,-0.96739"
           clip-path="url(#pe40e03f672)"
           style="fill:none;stroke:#482475;stroke-width:2;stroke-opacity:0.8"
           id="path503" />
        <path
           d="m 773.112,215.50652 0.31409,-0.96739 1.04347,-3.21391 v 0 l 1.04348,-3.21392 1.04348,-3.21391 1.04348,-3.21391"
           clip-path="url(#pe40e03f672)"
           style="fill:none;stroke:#482475;stroke-width:2;stroke-opacity:0.8"
           id="path505" />
      </g>
      <g
         id="PathCollection_28">
        <path
           d="m 728.55652,256.32 1.04348,-3.21391 1.04348,-3.21392 v 0 l 1.04348,-3.21391 1.04348,-3.21391 1.04347,-3.21392 v 0 l 1.04348,-3.21391 1.04348,-3.21391 1.04348,-3.21391 v 0 l 1.04348,-3.21392 1.04347,-3.21391 1.04348,-3.21391 v 0 l 1.04348,-3.21392 1.04348,-3.21391 1.04348,-3.21391 v 0 l 1.04348,-3.21392 1.04347,-3.21391 1.04348,-3.21391 v 0 l 1.04348,-3.21392 1.04348,-3.21391 1.04348,-3.21391 v 0 l 1.04347,-3.21391 1.04348,-3.21392 1.04348,-3.21391 v 0 l 1.04348,-3.21391 1.04348,-3.21392 1.04348,-3.21391 v 0 l 1.04348,-3.21391 1.04347,-3.21392 1.04348,-3.21391 v 0 l 1.04348,-3.21391 1.04348,-3.21391 1.04348,-3.21392 v 0 l 0.31408,-0.96739"
           clip-path="url(#pe40e03f672)"
           style="fill:none;stroke:#414487;stroke-width:2;stroke-opacity:0.8"
           id="path508" />
        <path
           d="m 772.06852,122.30304 0.31409,-0.96739 1.04348,-3.21391 1.04347,-3.21391 v 0 l 1.04348,-3.21392 1.04348,-3.21391 1.04348,-3.21391"
           clip-path="url(#pe40e03f672)"
           style="fill:none;stroke:#414487;stroke-width:2;stroke-opacity:0.8"
           id="path510" />
      </g>
      <g
         id="PathCollection_29">
        <path
           d="m 697.25217,256.32 1.04348,-3.21391 1.04348,-3.21392 v 0 l 1.04348,-3.21391 1.04348,-3.21391 1.04347,-3.21392 v 0 l 1.04348,-3.21391 1.04348,-3.21391 0.31409,-0.96739"
           clip-path="url(#pe40e03f672)"
           style="fill:none;stroke:#355f8d;stroke-width:2;stroke-opacity:0.8"
           id="path513" />
        <path
           d="m 714.67722,202.65087 0.31408,-0.96739 v 0 l 1.04348,-3.21392 1.04348,-3.21391 1.04348,-3.21391 v 0 l 1.04348,-3.21391 1.04348,-3.21392 1.04347,-3.21391 v 0 l 1.04348,-3.21391 1.04348,-3.21392 1.04348,-3.21391 v 0 l 1.04348,-3.21391 1.04347,-3.21392 1.04348,-3.21391 v 0 l 1.04348,-3.21391 1.04348,-3.21391 1.04348,-3.21392 v 0 l 1.04348,-3.21391 1.04348,-3.21391 1.04347,-3.21392 v 0 l 1.04348,-3.21391 1.04348,-3.21391 1.04348,-3.21392 v 0 l 1.04348,-3.21391 1.04347,-3.21391 1.04348,-3.21391 v 0 l 1.04348,-3.21392 1.04348,-3.21391 1.04348,-3.21391 v 0 l 1.04348,-3.21392 1.04347,-3.21391 1.04348,-3.21391 v 0 l 1.04348,-3.21392 1.04348,-3.213909 1.04348,-3.213913 v 0 l 1.04347,-3.213913 1.04348,-3.213913 1.04348,-3.213913 v 0 l 1.04348,-3.213913 1.04348,-3.213913 1.04348,-3.213913 v 0 l 1.04348,-3.213913 1.04347,-3.213914 1.04348,-3.213913 v 0 l 1.04348,-3.213913 1.04348,-3.213913 1.04348,-3.213913 v 0 l 1.04347,-3.213913 1.04348,-3.213913 1.04348,-3.213913 v 0 l 1.04348,-3.213913 1.04348,-3.213913 1.04348,-3.213913 v 0 L 769.25217,34.56"
           clip-path="url(#pe40e03f672)"
           style="fill:none;stroke:#355f8d;stroke-width:2;stroke-opacity:0.8"
           id="path515" />
      </g>
      <g
         id="PathCollection_30">
        <path
           d="m 665.94783,256.32 1.04347,-3.21391 1.04348,-3.21392 v 0 l 1.04348,-3.21391 1.04348,-3.21391 1.04348,-3.21392 v 0 l 1.04348,-3.21391 1.04347,-3.21391 1.04348,-3.21391 v 0 l 1.04348,-3.21392 1.04348,-3.21391 1.04348,-3.21391 v 0 l 1.04347,-3.21392 1.04348,-3.21391 1.04348,-3.21391 v 0 l 1.04348,-3.21392 1.04348,-3.21391 1.04348,-3.21391 v 0 l 1.04348,-3.21392 1.04347,-3.21391 1.04348,-3.21391 v 0 l 1.04348,-3.21391 1.04348,-3.21392 1.04348,-3.21391 v 0 l 1.04347,-3.21391 1.04348,-3.21392 1.04348,-3.21391 v 0 l 1.04348,-3.21391 1.04348,-3.21392 1.04348,-3.21391 v 0 l 1.04347,-3.21391 1.04348,-3.21391 1.04348,-3.21392 v 0 l 1.04348,-3.21391 1.04348,-3.21391 1.04347,-3.21392 v 0 l 1.04348,-3.21391 1.04348,-3.21391 1.04348,-3.21392 v 0 l 1.04348,-3.21391 1.04348,-3.21391 1.04348,-3.21391 v 0 l 1.04347,-3.21392 1.04348,-3.21391 1.04348,-3.21391 v 0 l 1.04348,-3.21392 1.04348,-3.21391 1.04347,-3.21391 v 0 l 1.04348,-3.21392 1.04348,-3.213909 1.04348,-3.213913 v 0 l 1.04348,-3.213913 1.04348,-3.213913 1.04347,-3.213913 v 0 l 1.04348,-3.213913 1.04348,-3.213913 1.04348,-3.213913 v 0 l 1.04348,-3.213913 0.31409,-0.96739"
           clip-path="url(#pe40e03f672)"
           style="fill:none;stroke:#2a788e;stroke-width:2;stroke-opacity:0.8"
           id="path518" />
        <path
           d="m 735.54678,41.955216 0.31409,-0.96739 1.04348,-3.213913 v 0 L 737.94783,34.56"
           clip-path="url(#pe40e03f672)"
           style="fill:none;stroke:#2a788e;stroke-width:2;stroke-opacity:0.8"
           id="path520" />
      </g>
      <g
         id="PathCollection_31">
        <path
           d="m 634.64348,256.32 1.04348,-3.21391 1.04348,-3.21392 v 0 l 1.04347,-3.21391 1.04348,-3.21391 0.57349,-1.76634"
           clip-path="url(#pe40e03f672)"
           style="fill:none;stroke:#21918c;stroke-width:2;stroke-opacity:0.8"
           id="path523" />
        <path
           d="m 646.59173,219.51938 0.57349,-1.76634 1.04348,-3.21391 1.04347,-3.21391 v 0 l 1.04348,-3.21392 1.04348,-3.21391 1.04348,-3.21391 v 0 l 1.04348,-3.21392 1.04347,-3.21391 1.04348,-3.21391 v 0 l 1.04348,-3.21391 1.04348,-3.21392 1.04348,-3.21391 v 0 l 1.04348,-3.21391 1.04348,-3.21392 1.04347,-3.21391 v 0 l 1.04348,-3.21391 1.04348,-3.21392 1.04348,-3.21391 v 0 l 1.04348,-3.21391 1.04347,-3.21391 1.04348,-3.21392 v 0 l 1.04348,-3.21391 1.04348,-3.21391 1.04348,-3.21392 v 0 l 1.04348,-3.21391 1.04347,-3.21391 1.04348,-3.21392 v 0 l 1.04348,-3.21391 1.04348,-3.21391 1.04348,-3.21391 v 0 l 1.04347,-3.21392 1.04348,-3.21391 1.04348,-3.21391 v 0 l 1.04348,-3.21392 1.04348,-3.21391 1.04348,-3.21391 v 0 l 1.04348,-3.21392 1.04347,-3.213909 1.04348,-3.213913 v 0 l 1.04348,-3.213913 1.04348,-3.213913 1.04348,-3.213913 v 0 l 1.04347,-3.213913 1.04348,-3.213913 1.04348,-3.213913 v 0 l 1.04348,-3.213913 1.04348,-3.213914 1.04348,-3.213913 v 0 l 1.04347,-3.213913 1.04348,-3.213913 1.04348,-3.213913 v 0 l 1.04348,-3.213913 1.04348,-3.213913 1.04347,-3.213913 v 0 l 1.04348,-3.213913 1.04348,-3.213913 1.04348,-3.213913 v 0 L 706.64348,34.56"
           clip-path="url(#pe40e03f672)"
           style="fill:none;stroke:#21918c;stroke-width:2;stroke-opacity:0.8"
           id="path525" />
      </g>
      <g
         id="PathCollection_32">
        <path
           d="m 603.33913,256.32 1.04348,-3.21391 1.04348,-3.21392 v 0 l 1.04347,-3.21391 1.04348,-3.21391 1.04348,-3.21392 v 0 l 1.04348,-3.21391 1.04348,-3.21391 1.04348,-3.21391 v 0 l 1.04348,-3.21392 1.04347,-3.21391 1.04348,-3.21391 v 0 l 1.04348,-3.21392 1.04348,-3.21391 1.04348,-3.21391 v 0 l 1.04347,-3.21392 1.04348,-3.21391 1.04348,-3.21391 v 0 l 1.04348,-3.21392 1.04348,-3.21391 1.04348,-3.21391 v 0 l 1.04347,-3.21391 0.57349,-1.76634"
           clip-path="url(#pe40e03f672)"
           style="fill:none;stroke:#22a884;stroke-width:2;stroke-opacity:0.8"
           id="path528" />
        <path
           d="M 633.02651,164.88286 633.6,163.11652 v 0 l 1.04348,-3.21391 1.04348,-3.21391 1.04348,-3.21392 v 0 l 1.04347,-3.21391 1.04348,-3.21391 1.04348,-3.21392 v 0 l 1.04348,-3.21391 1.04348,-3.21391 1.04347,-3.21392 v 0 l 1.04348,-3.21391 1.04348,-3.21391 1.04348,-3.21391 v 0 l 1.04348,-3.21392 1.04348,-3.21391 1.04347,-3.21391 v 0 l 1.04348,-3.21392 1.04348,-3.21391 1.04348,-3.21391 v 0 l 1.04348,-3.21392 1.04347,-3.213909 1.04348,-3.213913 v 0 l 1.04348,-3.213913 1.04348,-3.213913 1.04348,-3.213913 v 0 l 1.04348,-3.213913 1.04348,-3.213913 1.04347,-3.213913 v 0 l 1.04348,-3.213913 1.04348,-3.213914 1.04348,-3.213913 v 0 l 1.04348,-3.213913 1.04347,-3.213913 1.04348,-3.213913 v 0 l 1.04348,-3.213913 1.04348,-3.213913 1.04348,-3.213913 v 0 l 1.04348,-3.213913 1.04347,-3.213913 1.04348,-3.213913 v 0 L 675.33913,34.56"
           clip-path="url(#pe40e03f672)"
           style="fill:none;stroke:#22a884;stroke-width:2;stroke-opacity:0.8"
           id="path530" />
      </g>
      <g
         id="PathCollection_33">
        <path
           d="m 572.03478,256.32 1.04348,-3.21391 1.04348,-3.21392 v 0 l 1.04348,-3.21391 1.04348,-3.21391 1.04347,-3.21392 v 0 l 1.04348,-3.21391 1.04348,-3.21391 1.04348,-3.21391 v 0 l 1.04348,-3.21392 1.04347,-3.21391 1.04348,-3.21391 v 0 l 1.04348,-3.21392 1.04348,-3.21391 1.04348,-3.21391 v 0 l 1.04348,-3.21392 1.04348,-3.21391 1.04347,-3.21391 v 0 l 1.04348,-3.21392 1.04348,-3.21391 1.04348,-3.21391 v 0 l 1.04348,-3.21391 1.04347,-3.21392 1.04348,-3.21391 v 0 l 1.04348,-3.21391 1.04348,-3.21392 1.04348,-3.21391 v 0 l 1.04348,-3.21391 1.04347,-3.21392 1.04348,-3.21391 v 0 l 1.04348,-3.21391 1.04348,-3.21391 1.04348,-3.21392 v 0 l 1.04347,-3.21391 1.04348,-3.21391 1.04348,-3.21392 v 0 l 1.04348,-3.21391 1.04348,-3.21391 0.57348,-1.76634"
           clip-path="url(#pe40e03f672)"
           style="fill:none;stroke:#44bf70;stroke-width:2;stroke-opacity:0.8"
           id="path533" />
        <path
           d="m 618.41782,113.46025 0.57348,-1.76634 1.04348,-3.21391 1.04348,-3.21391 v 0 l 1.04348,-3.21392 1.04348,-3.213909 1.04348,-3.213913 v 0 l 1.04347,-3.213913 1.04348,-3.213913 1.04348,-3.213913 v 0 l 1.04348,-3.213913 1.04348,-3.213913 1.04347,-3.213913 v 0 l 1.04348,-3.213913 1.04348,-3.213914 L 633.6,66.69913 v 0 l 1.04348,-3.213913 1.04348,-3.213913 1.04348,-3.213913 v 0 l 1.04347,-3.213913 1.04348,-3.213913 1.04348,-3.213913 v 0 l 1.04348,-3.213913 1.04348,-3.213913 1.04347,-3.213913 v 0 L 644.03478,34.56"
           clip-path="url(#pe40e03f672)"
           style="fill:none;stroke:#44bf70;stroke-width:2;stroke-opacity:0.8"
           id="path535" />
      </g>
      <g
         id="PathCollection_34">
        <path
           d="m 561.6,192.04174 1.04348,-3.21391 1.04348,-3.21392 1.04348,-3.21391 v 0 l 1.04347,-3.21391 1.04348,-3.21392 1.04348,-3.21391 v 0 l 1.04348,-3.21391 1.04348,-3.21392 1.04347,-3.21391 v 0 l 1.04348,-3.21391 1.04348,-3.21391 1.04348,-3.21392 v 0 l 1.04348,-3.21391 1.04348,-3.21391 1.04347,-3.21392 v 0 l 1.04348,-3.21391 1.04348,-3.21391 1.04348,-3.21392 v 0 l 1.04348,-3.21391 1.04347,-3.21391 1.04348,-3.21391 v 0 l 0.57349,-1.76634"
           clip-path="url(#pe40e03f672)"
           style="fill:none;stroke:#7ad151;stroke-width:2;stroke-opacity:0.8"
           id="path538" />
        <path
           d="m 591.28738,100.6046 0.57349,-1.766339 1.04348,-3.213913 v 0 l 1.04348,-3.213913 1.04347,-3.213913 1.04348,-3.213913 v 0 l 1.04348,-3.213913 1.04348,-3.213913 1.04348,-3.213913 v 0 l 1.04348,-3.213913 1.04347,-3.213914 1.04348,-3.213913 v 0 l 1.04348,-3.213913 1.04348,-3.213913 1.04348,-3.213913 v 0 l 1.04347,-3.213913 1.04348,-3.213913 1.04348,-3.213913 v 0 l 1.04348,-3.213913 1.04348,-3.213913 1.04348,-3.213913 v 0 L 612.73044,34.56"
           clip-path="url(#pe40e03f672)"
           style="fill:none;stroke:#7ad151;stroke-width:2;stroke-opacity:0.8"
           id="path540" />
      </g>
      <g
         id="PathCollection_35">
        <path
           d="m 561.6,95.624348 1.04348,-3.213913 1.04348,-3.213913 1.04348,-3.213913 v 0 l 1.04347,-3.213913 1.04348,-3.213913 0.57349,-1.766341"
           clip-path="url(#pe40e03f672)"
           style="fill:none;stroke:#bddf26;stroke-width:2;stroke-opacity:0.8"
           id="path543" />
        <path
           d="m 574.59173,55.609819 0.57349,-1.766341 1.04348,-3.213913 1.04347,-3.213913 v 0 l 1.04348,-3.213913 1.04348,-3.213913 1.04348,-3.213913 v 0 L 581.42609,34.56"
           clip-path="url(#pe40e03f672)"
           style="fill:none;stroke:#bddf26;stroke-width:2;stroke-opacity:0.8"
           id="path545" />
      </g>
      <g
         id="PathCollection_36" />
      <g
         id="patch_13">
        <path
           d="M 561.6,256.32 V 34.56"
           style="fill:none;stroke:#eee8d5;stroke-width:0.8;stroke-linecap:square;stroke-linejoin:miter"
           id="path549" />
      </g>
      <g
         id="patch_14">
        <path
           d="M 777.6,256.32 V 34.56"
           style="fill:none;stroke:#eee8d5;stroke-width:0.8;stroke-linecap:square;stroke-linejoin:miter"
           id="path552" />
      </g>
      <g
         id="patch_15">
        <path
           d="m 561.6,256.32 h 216"
           style="fill:none;stroke:#eee8d5;stroke-width:0.8;stroke-linecap:square;stroke-linejoin:miter"
           id="path555" />
      </g>
      <g
         id="patch_16">
        <path
           d="m 561.6,34.56 h 216"
           style="fill:none;stroke:#eee8d5;stroke-width:0.8;stroke-linecap:square;stroke-linejoin:miter"
           id="path558" />
      </g>
      <g
         id="text_20">
        <!-- not: $-3 \cdot x_1 + 1 \cdot x_2 + 1$ -->
        <g
           style="fill:#586e75"
           transform="matrix(0.16,0,0,-0.16,581.28,28.56)"
           id="g598">
          <defs
             id="defs562">
            <path
               id="DejaVuSans-74"
               d="M 1172,4494 V 3500 H 2356 V 3053 H 1172 V 1153 q 0,-428 117,-550 117,-122 477,-122 h 590 V 0 H 1766 Q 1100,0 847,248 594,497 594,1153 V 3053 H 172 v 447 h 422 v 994 z"
               transform="scale(0.015625)" />
          </defs>
          <use
             xlink:href="#DejaVuSans-6e"
             transform="translate(0,0.78125)"
             id="use564" />
          <use
             xlink:href="#DejaVuSans-6f"
             transform="translate(63.378906,0.78125)"
             id="use566" />
          <use
             xlink:href="#DejaVuSans-74"
             transform="translate(124.56055,0.78125)"
             id="use568" />
          <use
             xlink:href="#DejaVuSans-3a"
             transform="translate(163.76953,0.78125)"
             id="use570" />
          <use
             xlink:href="#DejaVuSans-20"
             transform="translate(197.46094,0.78125)"
             id="use572" />
          <use
             xlink:href="#DejaVuSans-2212"
             transform="translate(229.24805,0.78125)"
             id="use574" />
          <use
             xlink:href="#DejaVuSans-33"
             transform="translate(313.03711,0.78125)"
             id="use576" />
          <use
             xlink:href="#DejaVuSans-22c5"
             transform="translate(396.14258,0.78125)"
             id="use578" />
          <use
             xlink:href="#DejaVuSans-Oblique-78"
             transform="translate(447.41211,0.78125)"
             id="use580" />
          <use
             xlink:href="#DejaVuSans-31"
             transform="matrix(0.7,0,0,0.7,506.5918,-15.625)"
             id="use582" />
          <use
             xlink:href="#DejaVuSans-2b"
             transform="translate(573.34473,0.78125)"
             id="use584" />
          <use
             xlink:href="#DejaVuSans-31"
             transform="translate(676.61621,0.78125)"
             id="use586" />
          <use
             xlink:href="#DejaVuSans-22c5"
             transform="translate(759.72168,0.78125)"
             id="use588" />
          <use
             xlink:href="#DejaVuSans-Oblique-78"
             transform="translate(810.99121,0.78125)"
             id="use590" />
          <use
             xlink:href="#DejaVuSans-32"
             transform="matrix(0.7,0,0,0.7,870.1709,-15.625)"
             id="use592" />
          <use
             xlink:href="#DejaVuSans-2b"
             transform="translate(936.92383,0.78125)"
             id="use594" />
          <use
             xlink:href="#DejaVuSans-31"
             transform="translate(1040.1953,0.78125)"
             id="use596" />
        </g>
      </g>
      <g
         id="text_21">
        <g
           clip-path="url(#pe40e03f672)"
           id="g611">
          <!-- −2.4 -->
          <g
             style="opacity:0.8;fill:#482475"
             transform="matrix(0.02838514,-0.09588683,-0.09588683,-0.02838514,767.40822,243.03396)"
             id="g609">
            <use
               xlink:href="#DejaVuSans-2212"
               id="use601" />
            <use
               xlink:href="#DejaVuSans-32"
               x="83.789062"
               id="use603" />
            <use
               xlink:href="#DejaVuSans-2e"
               x="147.41211"
               id="use605" />
            <use
               xlink:href="#DejaVuSans-34"
               x="179.19922"
               id="use607" />
          </g>
        </g>
      </g>
      <g
         id="text_22">
        <g
           clip-path="url(#pe40e03f672)"
           id="g624">
          <!-- −1.8 -->
          <g
             style="opacity:0.8;fill:#414487"
             transform="matrix(0.02838514,-0.09588683,-0.09588683,-0.02838514,766.36474,149.83048)"
             id="g622">
            <use
               xlink:href="#DejaVuSans-2212"
               id="use614" />
            <use
               xlink:href="#DejaVuSans-31"
               x="83.789062"
               id="use616" />
            <use
               xlink:href="#DejaVuSans-2e"
               x="147.41211"
               id="use618" />
            <use
               xlink:href="#DejaVuSans-38"
               x="179.19922"
               id="use620" />
          </g>
        </g>
      </g>
      <g
         id="text_23">
        <g
           clip-path="url(#pe40e03f672)"
           id="g637">
          <!-- −1.2 -->
          <g
             style="opacity:0.8;fill:#355f8d"
             transform="matrix(0.02838514,-0.09588683,-0.09588683,-0.02838514,708.97343,230.1783)"
             id="g635">
            <use
               xlink:href="#DejaVuSans-2212"
               id="use627" />
            <use
               xlink:href="#DejaVuSans-31"
               x="83.789062"
               id="use629" />
            <use
               xlink:href="#DejaVuSans-2e"
               x="147.41211"
               id="use631" />
            <use
               xlink:href="#DejaVuSans-32"
               x="179.19922"
               id="use633" />
          </g>
        </g>
      </g>
      <g
         id="text_24">
        <g
           clip-path="url(#pe40e03f672)"
           id="g650">
          <!-- −0.6 -->
          <g
             style="opacity:0.8;fill:#2a788e"
             transform="matrix(0.02838514,-0.09588683,-0.09588683,-0.02838514,729.843,69.482653)"
             id="g648">
            <use
               xlink:href="#DejaVuSans-2212"
               id="use640" />
            <use
               xlink:href="#DejaVuSans-30"
               x="83.789062"
               id="use642" />
            <use
               xlink:href="#DejaVuSans-2e"
               x="147.41211"
               id="use644" />
            <use
               xlink:href="#DejaVuSans-36"
               x="179.19922"
               id="use646" />
          </g>
        </g>
      </g>
      <g
         id="text_25">
        <g
           clip-path="url(#pe40e03f672)"
           id="g661">
          <!-- 0.0 -->
          <g
             style="opacity:0.8;fill:#21918c"
             transform="matrix(0.02838514,-0.09588683,-0.09588683,-0.02838514,643.38012,239.01645)"
             id="g659">
            <use
               xlink:href="#DejaVuSans-30"
               id="use653" />
            <use
               xlink:href="#DejaVuSans-2e"
               x="63.623047"
               id="use655" />
            <use
               xlink:href="#DejaVuSans-30"
               x="95.410156"
               id="use657" />
          </g>
        </g>
      </g>
      <g
         id="text_26">
        <g
           clip-path="url(#pe40e03f672)"
           id="g672">
          <!-- 0.6 -->
          <g
             style="opacity:0.8;fill:#22a884"
             transform="matrix(0.02838514,-0.09588683,-0.09588683,-0.02838514,629.8149,184.37993)"
             id="g670">
            <use
               xlink:href="#DejaVuSans-30"
               id="use664" />
            <use
               xlink:href="#DejaVuSans-2e"
               x="63.623047"
               id="use666" />
            <use
               xlink:href="#DejaVuSans-36"
               x="95.410156"
               id="use668" />
          </g>
        </g>
      </g>
      <g
         id="text_27">
        <g
           clip-path="url(#pe40e03f672)"
           id="g683">
          <!-- 1.2 -->
          <g
             style="opacity:0.8;fill:#44bf70"
             transform="matrix(0.02838514,-0.09588683,-0.09588683,-0.02838514,615.20621,132.95732)"
             id="g681">
            <use
               xlink:href="#DejaVuSans-31"
               id="use675" />
            <use
               xlink:href="#DejaVuSans-2e"
               x="63.623047"
               id="use677" />
            <use
               xlink:href="#DejaVuSans-32"
               x="95.410156"
               id="use679" />
          </g>
        </g>
      </g>
      <g
         id="text_28">
        <g
           clip-path="url(#pe40e03f672)"
           id="g694">
          <!-- 1.8 -->
          <g
             style="opacity:0.8;fill:#7ad151"
             transform="matrix(0.02838514,-0.09588683,-0.09588683,-0.02838514,588.07577,120.10167)"
             id="g692">
            <use
               xlink:href="#DejaVuSans-31"
               id="use686" />
            <use
               xlink:href="#DejaVuSans-2e"
               x="63.623047"
               id="use688" />
            <use
               xlink:href="#DejaVuSans-38"
               x="95.410156"
               id="use690" />
          </g>
        </g>
      </g>
      <g
         id="text_29">
        <g
           clip-path="url(#pe40e03f672)"
           id="g705">
          <!-- 2.4 -->
          <g
             style="opacity:0.8;fill:#bddf26"
             transform="matrix(0.02838514,-0.09588683,-0.09588683,-0.02838514,571.38012,75.106884)"
             id="g703">
            <use
               xlink:href="#DejaVuSans-32"
               id="use697" />
            <use
               xlink:href="#DejaVuSans-2e"
               x="63.623047"
               id="use699" />
            <use
               xlink:href="#DejaVuSans-34"
               x="95.410156"
               id="use701" />
          </g>
        </g>
      </g>
    </g>
  </g>
  <defs
     id="defs719">
    <clipPath
       id="p953fed956e">
      <rect
         x="108"
         y="34.560001"
         width="216"
         height="221.75999"
         id="rect710" />
    </clipPath>
    <clipPath
       id="p83efee6484">
      <rect
         x="334.79999"
         y="34.560001"
         width="216"
         height="221.75999"
         id="rect713" />
    </clipPath>
    <clipPath
       id="pe40e03f672">
      <rect
         x="561.59998"
         y="34.560001"
         width="216"
         height="221.75999"
         id="rect716" />
    </clipPath>
  </defs>
</svg>
