<?xml version="1.0" encoding="UTF-8" standalone="no"?>
<svg
   width="357.92001pt"
   height="266.91199pt"
   viewBox="0 0 357.92002 266.91198"
   version="1.1"
   id="svg339"
   xmlns:xlink="http://www.w3.org/1999/xlink"
   xmlns="http://www.w3.org/2000/svg"
   xmlns:svg="http://www.w3.org/2000/svg"
   xmlns:rdf="http://www.w3.org/1999/02/22-rdf-syntax-ns#"
   xmlns:cc="http://creativecommons.org/ns#"
   xmlns:dc="http://purl.org/dc/elements/1.1/">
  <metadata
     id="metadata2">
    <rdf:RDF>
      <cc:Work>
        <dc:type
           rdf:resource="http://purl.org/dc/dcmitype/StillImage" />
        <dc:date>2022-05-27T17:23:35.811350</dc:date>
        <dc:format>image/svg+xml</dc:format>
        <dc:creator>
          <cc:Agent>
            <dc:title>Matplotlib v3.5.2, https://matplotlib.org/</dc:title>
          </cc:Agent>
        </dc:creator>
      </cc:Work>
    </rdf:RDF>
  </metadata>
  <defs
     id="defs6">
    <style
       type="text/css"
       id="style4">*{stroke-linejoin: round; stroke-linecap: butt}</style>
  </defs>
  <g
     id="g1986">
    <g
       id="matplotlib.axis_1"
       transform="translate(-57.2,-41.072)">
      <g
         id="xtick_1">
        <g
           id="line2d_1">
          <defs
             id="defs15">
            <path
               id="m3559327596"
               d="M 0,0 V -3.5"
               style="stroke:#657b83;stroke-width:0.8" />
          </defs>
          <g
             id="g19">
            <use
               xlink:href="#m3559327596"
               x="96.112938"
               y="174.528"
               style="fill:#657b83;stroke:#657b83;stroke-width:0.8"
               id="use17" />
          </g>
        </g>
        <g
           id="text_1">
          <!-- −4 -->
          <g
             style="fill:#657b83"
             transform="matrix(0.1,0,0,-0.1,88.741847,165.44831)"
             id="g30">
            <defs
               id="defs24">
              <path
                 id="DejaVuSans-2212"
                 d="M 678,2272 H 4684 V 1741 H 678 Z"
                 transform="scale(0.015625)" />
              <path
                 id="DejaVuSans-34"
                 d="M 2419,4116 825,1625 h 1594 z m -166,550 h 794 V 1625 h 666 V 1100 H 3047 V 0 H 2419 V 1100 H 313 v 609 z"
                 transform="scale(0.015625)" />
            </defs>
            <use
               xlink:href="#DejaVuSans-2212"
               id="use26" />
            <use
               xlink:href="#DejaVuSans-34"
               x="83.789062"
               id="use28" />
          </g>
        </g>
      </g>
      <g
         id="xtick_2">
        <g
           id="line2d_2">
          <g
             id="g36">
            <use
               xlink:href="#m3559327596"
               x="166.13647"
               y="174.528"
               style="fill:#657b83;stroke:#657b83;stroke-width:0.8"
               id="use34" />
          </g>
        </g>
        <g
           id="text_2">
          <!-- −2 -->
          <g
             style="fill:#657b83"
             transform="matrix(0.1,0,0,-0.1,158.76538,165.44831)"
             id="g46">
            <defs
               id="defs40">
              <path
                 id="DejaVuSans-32"
                 d="M 1228,531 H 3431 V 0 H 469 v 531 q 359,372 979,998 621,627 780,809 303,340 423,576 121,236 121,464 0,372 -261,606 -261,235 -680,235 -297,0 -627,-103 -329,-103 -704,-313 v 638 q 381,153 712,231 332,78 607,78 725,0 1156,-363 431,-362 431,-968 0,-288 -108,-546 -107,-257 -392,-607 -78,-91 -497,-524 Q 1991,1309 1228,531 Z"
                 transform="scale(0.015625)" />
            </defs>
            <use
               xlink:href="#DejaVuSans-2212"
               id="use42" />
            <use
               xlink:href="#DejaVuSans-32"
               x="83.789062"
               id="use44" />
          </g>
        </g>
      </g>
      <g
         id="xtick_3">
        <g
           id="line2d_3">
          <g
             id="g52">
            <use
               xlink:href="#m3559327596"
               x="236.16"
               y="174.528"
               style="fill:#657b83;stroke:#657b83;stroke-width:0.8"
               id="use50" />
          </g>
        </g>
        <g
           id="text_3">
          <!-- 0 -->
          <g
             style="fill:#657b83"
             transform="matrix(0.1,0,0,-0.1,232.97875,165.44831)"
             id="g60">
            <defs
               id="defs56">
              <path
                 id="DejaVuSans-30"
                 d="m 2034,4250 q -487,0 -733,-480 -245,-479 -245,-1442 0,-959 245,-1439 246,-480 733,-480 491,0 736,480 246,480 246,1439 0,963 -246,1442 -245,480 -736,480 z m 0,500 q 785,0 1199,-621 414,-620 414,-1801 0,-1178 -414,-1799 -414,-620 -1199,-620 -784,0 -1198,620 -414,621 -414,1799 0,1181 414,1801 414,621 1198,621 z"
                 transform="scale(0.015625)" />
            </defs>
            <use
               xlink:href="#DejaVuSans-30"
               id="use58" />
          </g>
        </g>
      </g>
      <g
         id="xtick_4">
        <g
           id="line2d_4">
          <g
             id="g66">
            <use
               xlink:href="#m3559327596"
               x="306.18353"
               y="174.528"
               style="fill:#657b83;stroke:#657b83;stroke-width:0.8"
               id="use64" />
          </g>
        </g>
        <g
           id="text_4">
          <!-- 2 -->
          <g
             style="fill:#657b83"
             transform="matrix(0.1,0,0,-0.1,303.00228,165.44831)"
             id="g71">
            <use
               xlink:href="#DejaVuSans-32"
               id="use69" />
          </g>
        </g>
      </g>
      <g
         id="xtick_5">
        <g
           id="line2d_5">
          <g
             id="g77">
            <use
               xlink:href="#m3559327596"
               x="376.20706"
               y="174.528"
               style="fill:#657b83;stroke:#657b83;stroke-width:0.8"
               id="use75" />
          </g>
        </g>
        <g
           id="text_5">
          <!-- 4 -->
          <g
             style="fill:#657b83"
             transform="matrix(0.1,0,0,-0.1,373.02581,165.44831)"
             id="g82">
            <use
               xlink:href="#DejaVuSans-34"
               id="use80" />
          </g>
        </g>
      </g>
    </g>
    <g
       id="matplotlib.axis_2"
       transform="translate(-57.2,-41.072)">
      <g
         id="ytick_1">
        <g
           id="line2d_6">
          <defs
             id="defs88">
            <path
               id="mfbf4dda853"
               d="M 0,0 H 3.5"
               style="stroke:#657b83;stroke-width:0.8" />
          </defs>
          <g
             id="g92">
            <use
               xlink:href="#mfbf4dda853"
               x="236.16"
               y="295.48801"
               style="fill:#657b83;stroke:#657b83;stroke-width:0.8"
               id="use90" />
          </g>
        </g>
        <g
           id="text_6">
          <!-- −1.00 -->
          <g
             style="fill:#657b83"
             transform="matrix(0.1,0,0,-0.1,243.16,299.28722)"
             id="g109">
            <defs
               id="defs97">
              <path
                 id="DejaVuSans-31"
                 d="M 794,531 H 1825 V 4091 L 703,3866 v 575 l 1116,225 h 631 V 531 H 3481 V 0 H 794 Z"
                 transform="scale(0.015625)" />
              <path
                 id="DejaVuSans-2e"
                 d="m 684,794 h 660 V 0 H 684 Z"
                 transform="scale(0.015625)" />
            </defs>
            <use
               xlink:href="#DejaVuSans-2212"
               id="use99" />
            <use
               xlink:href="#DejaVuSans-31"
               x="83.789062"
               id="use101" />
            <use
               xlink:href="#DejaVuSans-2e"
               x="147.41211"
               id="use103" />
            <use
               xlink:href="#DejaVuSans-30"
               x="179.19922"
               id="use105" />
            <use
               xlink:href="#DejaVuSans-30"
               x="242.82227"
               id="use107" />
          </g>
        </g>
      </g>
      <g
         id="ytick_2">
        <g
           id="line2d_7">
          <g
             id="g115">
            <use
               xlink:href="#mfbf4dda853"
               x="236.16"
               y="265.24799"
               style="fill:#657b83;stroke:#657b83;stroke-width:0.8"
               id="use113" />
          </g>
        </g>
        <g
           id="text_7">
          <!-- −0.75 -->
          <g
             style="fill:#657b83"
             transform="matrix(0.1,0,0,-0.1,243.16,269.04722)"
             id="g132">
            <defs
               id="defs120">
              <path
                 id="DejaVuSans-37"
                 d="M 525,4666 H 3525 V 4397 L 1831,0 H 1172 L 2766,4134 H 525 Z"
                 transform="scale(0.015625)" />
              <path
                 id="DejaVuSans-35"
                 d="M 691,4666 H 3169 V 4134 H 1269 V 2991 q 137,47 274,70 138,23 276,23 781,0 1237,-428 457,-428 457,-1159 Q 3513,744 3044,326 2575,-91 1722,-91 1428,-91 1123,-41 819,9 494,109 v 635 q 281,-153 581,-228 300,-75 634,-75 541,0 856,284 316,284 316,772 0,487 -316,771 -315,285 -856,285 -253,0 -505,-56 -251,-56 -513,-175 z"
                 transform="scale(0.015625)" />
            </defs>
            <use
               xlink:href="#DejaVuSans-2212"
               id="use122" />
            <use
               xlink:href="#DejaVuSans-30"
               x="83.789062"
               id="use124" />
            <use
               xlink:href="#DejaVuSans-2e"
               x="147.41211"
               id="use126" />
            <use
               xlink:href="#DejaVuSans-37"
               x="179.19922"
               id="use128" />
            <use
               xlink:href="#DejaVuSans-35"
               x="242.82227"
               id="use130" />
          </g>
        </g>
      </g>
      <g
         id="ytick_3">
        <g
           id="line2d_8">
          <g
             id="g138">
            <use
               xlink:href="#mfbf4dda853"
               x="236.16"
               y="235.008"
               style="fill:#657b83;stroke:#657b83;stroke-width:0.8"
               id="use136" />
          </g>
        </g>
        <g
           id="text_8">
          <!-- −0.50 -->
          <g
             style="fill:#657b83"
             transform="matrix(0.1,0,0,-0.1,243.16,238.80722)"
             id="g151">
            <use
               xlink:href="#DejaVuSans-2212"
               id="use141" />
            <use
               xlink:href="#DejaVuSans-30"
               x="83.789062"
               id="use143" />
            <use
               xlink:href="#DejaVuSans-2e"
               x="147.41211"
               id="use145" />
            <use
               xlink:href="#DejaVuSans-35"
               x="179.19922"
               id="use147" />
            <use
               xlink:href="#DejaVuSans-30"
               x="242.82227"
               id="use149" />
          </g>
        </g>
      </g>
      <g
         id="ytick_4">
        <g
           id="line2d_9">
          <g
             id="g157">
            <use
               xlink:href="#mfbf4dda853"
               x="236.16"
               y="204.76801"
               style="fill:#657b83;stroke:#657b83;stroke-width:0.8"
               id="use155" />
          </g>
        </g>
        <g
           id="text_9">
          <!-- −0.25 -->
          <g
             style="fill:#657b83"
             transform="matrix(0.1,0,0,-0.1,243.16,208.56722)"
             id="g170">
            <use
               xlink:href="#DejaVuSans-2212"
               id="use160" />
            <use
               xlink:href="#DejaVuSans-30"
               x="83.789062"
               id="use162" />
            <use
               xlink:href="#DejaVuSans-2e"
               x="147.41211"
               id="use164" />
            <use
               xlink:href="#DejaVuSans-32"
               x="179.19922"
               id="use166" />
            <use
               xlink:href="#DejaVuSans-35"
               x="242.82227"
               id="use168" />
          </g>
        </g>
      </g>
      <g
         id="ytick_5">
        <g
           id="line2d_10">
          <g
             id="g176">
            <use
               xlink:href="#mfbf4dda853"
               x="236.16"
               y="174.528"
               style="fill:#657b83;stroke:#657b83;stroke-width:0.8"
               id="use174" />
          </g>
        </g>
        <g
           id="text_10">
          <!-- 0.00 -->
          <g
             style="fill:#657b83"
             transform="matrix(0.1,0,0,-0.1,243.16,178.32722)"
             id="g187">
            <use
               xlink:href="#DejaVuSans-30"
               id="use179" />
            <use
               xlink:href="#DejaVuSans-2e"
               x="63.623047"
               id="use181" />
            <use
               xlink:href="#DejaVuSans-30"
               x="95.410156"
               id="use183" />
            <use
               xlink:href="#DejaVuSans-30"
               x="159.0332"
               id="use185" />
          </g>
        </g>
      </g>
      <g
         id="ytick_6">
        <g
           id="line2d_11">
          <g
             id="g193">
            <use
               xlink:href="#mfbf4dda853"
               x="236.16"
               y="144.28799"
               style="fill:#657b83;stroke:#657b83;stroke-width:0.8"
               id="use191" />
          </g>
        </g>
        <g
           id="text_11">
          <!-- 0.25 -->
          <g
             style="fill:#657b83"
             transform="matrix(0.1,0,0,-0.1,243.16,148.08722)"
             id="g204">
            <use
               xlink:href="#DejaVuSans-30"
               id="use196" />
            <use
               xlink:href="#DejaVuSans-2e"
               x="63.623047"
               id="use198" />
            <use
               xlink:href="#DejaVuSans-32"
               x="95.410156"
               id="use200" />
            <use
               xlink:href="#DejaVuSans-35"
               x="159.0332"
               id="use202" />
          </g>
        </g>
      </g>
      <g
         id="ytick_7">
        <g
           id="line2d_12">
          <g
             id="g210">
            <use
               xlink:href="#mfbf4dda853"
               x="236.16"
               y="114.048"
               style="fill:#657b83;stroke:#657b83;stroke-width:0.8"
               id="use208" />
          </g>
        </g>
        <g
           id="text_12">
          <!-- 0.50 -->
          <g
             style="fill:#657b83"
             transform="matrix(0.1,0,0,-0.1,243.16,117.84722)"
             id="g221">
            <use
               xlink:href="#DejaVuSans-30"
               id="use213" />
            <use
               xlink:href="#DejaVuSans-2e"
               x="63.623047"
               id="use215" />
            <use
               xlink:href="#DejaVuSans-35"
               x="95.410156"
               id="use217" />
            <use
               xlink:href="#DejaVuSans-30"
               x="159.0332"
               id="use219" />
          </g>
        </g>
      </g>
      <g
         id="ytick_8">
        <g
           id="line2d_13">
          <g
             id="g227">
            <use
               xlink:href="#mfbf4dda853"
               x="236.16"
               y="83.807999"
               style="fill:#657b83;stroke:#657b83;stroke-width:0.8"
               id="use225" />
          </g>
        </g>
        <g
           id="text_13">
          <!-- 0.75 -->
          <g
             style="fill:#657b83"
             transform="matrix(0.1,0,0,-0.1,243.16,87.607219)"
             id="g238">
            <use
               xlink:href="#DejaVuSans-30"
               id="use230" />
            <use
               xlink:href="#DejaVuSans-2e"
               x="63.623047"
               id="use232" />
            <use
               xlink:href="#DejaVuSans-37"
               x="95.410156"
               id="use234" />
            <use
               xlink:href="#DejaVuSans-35"
               x="159.0332"
               id="use236" />
          </g>
        </g>
      </g>
      <g
         id="ytick_9">
        <g
           id="line2d_14">
          <g
             id="g244">
            <use
               xlink:href="#mfbf4dda853"
               x="236.16"
               y="53.568001"
               style="fill:#657b83;stroke:#657b83;stroke-width:0.8"
               id="use242" />
          </g>
        </g>
        <g
           id="text_14">
          <!-- 1.00 -->
          <g
             style="fill:#657b83"
             transform="matrix(0.1,0,0,-0.1,243.16,57.367219)"
             id="g255">
            <use
               xlink:href="#DejaVuSans-31"
               id="use247" />
            <use
               xlink:href="#DejaVuSans-2e"
               x="63.623047"
               id="use249" />
            <use
               xlink:href="#DejaVuSans-30"
               x="95.410156"
               id="use251" />
            <use
               xlink:href="#DejaVuSans-30"
               x="159.0332"
               id="use253" />
          </g>
        </g>
      </g>
    </g>
    <g
       id="line2d_15"
       transform="translate(-57.2,-41.072)">
      <path
         d="m 61.101176,173.71843 16.805648,-0.49338 14.004705,-0.63058 11.203761,-0.71323 9.8033,-0.83066 9.10306,-0.99438 7.70258,-1.05017 7.00236,-1.15509 7.00235,-1.37985 6.30212,-1.46389 6.30212,-1.70344 5.60188,-1.73881 5.60188,-1.97152 5.60188,-2.22374 5.60189,-2.49346 4.90164,-2.41442 4.90165,-2.63872 4.90165,-2.86628 5.60188,-3.55296 5.60188,-3.8394 5.60188,-4.10703 6.30212,-4.90412 7.00235,-5.73497 9.8033,-8.35242 16.80565,-14.35517 7.00235,-5.681327 6.30212,-4.84128 5.60188,-4.042428 5.60188,-3.769167 5.60188,-3.479536 4.90165,-2.801165 4.90165,-2.57413 4.90164,-2.351439 5.60189,-2.424544 5.60188,-2.158939 5.60188,-1.911466 5.60188,-1.683811 6.30212,-1.647703 6.30212,-1.414543 7.00235,-1.332101 7.70259,-1.214907 8.40282,-1.0745 9.10306,-0.922582 9.8033,-0.769789 11.20376,-0.660316 13.30447,-0.559226 14.00471,-0.402031 v 0"
         clip-path="url(#p9d9dd5a495)"
         style="fill:none;stroke:#1f77b4;stroke-width:2"
         id="path260" />
    </g>
    <g
       id="line2d_16"
       transform="translate(-57.2,-41.072)">
      <path
         d="m 61.101176,295.47702 45.515294,-0.1368 17.50588,-0.25352 11.20377,-0.35862 8.40282,-0.4658 7.00235,-0.59829 5.60189,-0.68077 4.90164,-0.79831 4.20141,-0.88047 4.20142,-1.10996 3.50117,-1.14083 3.50118,-1.37857 3.50118,-1.66205 2.80094,-1.56896 2.80094,-1.81439 2.80094,-2.09318 2.80094,-2.40808 2.80094,-2.76156 2.80094,-3.15532 2.80094,-3.5902 2.80095,-4.06561 2.80094,-4.57925 2.80094,-5.12659 2.80094,-5.70054 2.80094,-6.2911 2.80094,-6.8853 2.80094,-7.46732 2.80094,-8.019 3.50118,-10.72146 4.20141,-13.69651 6.30212,-21.54066 7.00235,-23.87452 4.20141,-13.56344 3.50118,-10.57475 3.50118,-9.76988 2.80094,-7.17893 2.80094,-6.58867 2.80094,-5.994479 2.80094,-5.410795 2.80094,-4.849087 2.80094,-4.317878 2.80095,-3.822934 2.80094,-3.367621 2.80094,-2.953325 2.80094,-2.579875 2.80094,-2.245951 2.80094,-1.949433 2.80094,-1.68769 2.80094,-1.457824 3.50118,-1.542732 3.50118,-1.278367 3.50117,-1.057052 4.20142,-1.027712 4.90164,-0.932944 4.90165,-0.70997 6.30212,-0.668085 7.00235,-0.510784 9.10306,-0.422746 11.904,-0.306743 17.50588,-0.199517 31.51059,-0.09704 9.10306,-0.0078 v 0"
         clip-path="url(#p9d9dd5a495)"
         style="fill:none;stroke:#ff7f0e;stroke-width:2;stroke-dasharray:7.4, 3.2;stroke-dashoffset:0"
         id="path263" />
    </g>
    <g
       id="patch_3"
       transform="translate(-57.2,-41.072)">
      <path
         d="M 236.16,307.584 V 41.472"
         style="fill:none;stroke:#000000;stroke-width:0.8;stroke-linecap:square;stroke-linejoin:miter"
         id="path266" />
    </g>
    <g
       id="patch_4"
       transform="translate(-57.2,-41.072)">
      <path
         d="M 236.16,307.584 V 41.472"
         style="fill:none;stroke:#000000;stroke-width:0.8;stroke-linecap:square;stroke-linejoin:miter"
         id="path269" />
    </g>
    <g
       id="patch_5"
       transform="translate(-57.2,-41.072)">
      <path
         d="M 57.6,174.528 H 414.72"
         style="fill:none;stroke:#000000;stroke-width:0.8;stroke-linecap:square;stroke-linejoin:miter"
         id="path272" />
    </g>
    <g
       id="patch_6"
       transform="translate(-57.2,-41.072)">
      <path
         d="M 57.6,174.528 H 414.72"
         style="fill:none;stroke:#000000;stroke-width:0.8;stroke-linecap:square;stroke-linejoin:miter"
         id="path275" />
    </g>
    <g
       id="legend_1"
       transform="translate(-57.2,-41.072)">
      <g
         id="patch_7">
        <path
           d="m 68.1,98.247 h 88.56094 q 3,0 3,-3 V 51.972 q 0,-3 -3,-3 H 68.1 q -3,0 -3,3 v 43.275 q 0,3 3,3 z"
           style="opacity:0.8;fill:#eee8d5;stroke:#cccccc;stroke-linejoin:miter"
           id="path278" />
      </g>
      <g
         id="line2d_17">
        <path
           d="m 71.1,60.297 h 15 15"
           style="fill:none;stroke:#1f77b4;stroke-width:2"
           id="path281" />
      </g>
      <g
         id="text_15">
        <!-- logistic -->
        <g
           transform="matrix(0.15,0,0,-0.15,113.1,65.547)"
           id="g309">
          <defs
             id="defs291">
            <path
               id="EBGaramond-Regular-6c"
               d="m 250,-19 q -32,0 -80,10 -48,9 -48,47 0,52 48,74 48,22 99,42 96,32 185,73 90,42 90,170 v 3225 q 0,186 -67,311 -67,125 -227,157 -52,12 -52,83 0,64 45,77 167,38 288,79 122,42 227,87 106,45 208,83 26,13 39,13 13,0 22,-16 10,-16 10,-29 0,-57 -23,-246 -22,-189 -22,-624 V 397 q 0,-128 89,-170 90,-41 186,-73 51,-20 99,-42 48,-22 48,-74 0,-38 -48,-47 -48,-10 -80,-10 -121,0 -195,10 Q 1018,0 950,6 883,13 768,13 659,13 588,6 518,0 448,-9 378,-19 250,-19 Z"
               transform="scale(0.015625)" />
            <path
               id="EBGaramond-Regular-6f"
               d="M 1498,-90 Q 1139,-90 851,76 563,243 393,534 224,826 224,1197 q 0,269 105,525 106,256 298,467 192,211 448,336 256,125 551,125 371,0 668,-180 298,-179 474,-470 176,-291 176,-637 0,-371 -163,-704 Q 2618,326 2298,118 1978,-90 1498,-90 Z m 134,192 q 218,0 390,83 173,84 269,269 77,148 102,359 26,211 26,397 0,307 -112,591 -112,285 -314,467 -201,183 -476,183 -173,0 -311,-55 -137,-54 -252,-201 -128,-160 -167,-391 -38,-230 -38,-460 0,-314 115,-599 115,-284 313,-464 199,-179 455,-179 z"
               transform="scale(0.015625)" />
            <path
               id="EBGaramond-Regular-67"
               d="m 1248,-1856 q -544,0 -861,208 -317,208 -317,560 0,166 51,282 52,115 161,198 89,77 239,196 151,118 311,246 l 269,-13 Q 794,-378 672,-557 550,-736 550,-992 q 0,-256 227,-432 228,-176 561,-176 377,0 608,173 160,121 249,317 90,195 90,412 0,141 -100,234 -99,93 -310,151 -211,57 -550,76 -602,45 -836,160 -233,115 -233,359 0,64 35,118 35,54 112,118 147,116 217,170 71,54 106,92 36,39 68,97 L 1011,768 Q 870,717 774,630 678,544 678,474 q 0,-90 96,-157 96,-67 282,-106 186,-38 454,-57 589,-32 877,-192 288,-160 288,-455 0,-249 -125,-489 -124,-240 -329,-438 -205,-199 -458,-317 -253,-119 -515,-119 z m 77,2758 q 243,0 403,246 160,247 160,612 0,186 -87,349 -86,163 -224,262 -137,99 -297,99 -147,0 -279,-106 -131,-105 -211,-272 -80,-166 -80,-364 0,-224 83,-413 84,-189 224,-301 141,-112 308,-112 z m -39,-224 q -262,0 -499,134 -237,135 -387,356 -150,221 -150,483 0,301 156,528 157,227 413,355 256,128 544,128 186,0 323,-48 138,-48 272,-86 154,-45 243,-55 90,-9 186,-9 77,0 192,9 115,10 160,10 83,0 83,-96 0,-57 -64,-121 -32,-32 -51,-32 h -173 q -172,0 -192,-52 -6,-25 -16,-73 -9,-48 -16,-106 -6,-57 -6,-115 0,-326 -141,-602 Q 2022,1011 1792,844 1562,678 1286,678 Z"
               transform="scale(0.015625)" />
            <path
               id="EBGaramond-Regular-69"
               d="m 282,-19 q -58,0 -93,16 -35,16 -35,54 0,51 48,70 48,20 99,33 134,32 204,80 71,48 71,163 v 1389 q 0,172 -61,306 -61,135 -227,161 -32,6 -48,25 -16,20 -16,58 0,70 58,77 256,57 422,156 166,100 250,164 57,45 89,45 39,0 39,-32 0,-52 -16,-202 -16,-150 -29,-333 -13,-182 -13,-329 V 397 q 0,-109 73,-160 74,-51 202,-83 51,-13 99,-33 48,-19 48,-70 0,-70 -128,-70 -121,0 -195,10 Q 1050,0 982,6 915,13 800,13 691,13 620,6 550,0 480,-9 410,-19 282,-19 Z m 512,3321 q -135,0 -228,93 -92,93 -92,227 0,141 92,234 93,93 228,93 140,0 233,-93 93,-93 93,-234 0,-134 -93,-227 -93,-93 -233,-93 z"
               transform="scale(0.015625)" />
            <path
               id="EBGaramond-Regular-73"
               d="m 922,-90 q -199,0 -372,61 -172,61 -294,170 -32,70 -48,236 -16,167 -22,276 0,57 83,57 25,0 47,-10 23,-9 30,-34 Q 429,352 611,217 794,83 979,83 q 186,0 317,125 131,125 131,310 0,173 -115,298 -115,125 -403,304 -218,134 -353,256 -134,122 -195,250 -60,128 -60,288 0,204 96,370 96,167 288,266 192,100 480,100 192,0 320,-39 128,-38 192,-83 51,-70 86,-221 35,-150 35,-285 0,-44 -64,-44 -38,0 -73,16 -35,16 -48,41 -83,211 -208,323 -125,112 -311,112 -160,0 -285,-96 -124,-96 -124,-281 0,-147 92,-263 93,-115 349,-262 372,-211 554,-394 182,-182 182,-483 0,-345 -262,-563 Q 1338,-90 922,-90 Z"
               transform="scale(0.015625)" />
            <path
               id="EBGaramond-Regular-74"
               d="M 1210,-90 Q 896,-90 720,102 544,294 544,672 v 1485 q 0,51 -39,73 -38,23 -166,23 h -38 q -32,0 -55,41 -22,42 -22,87 0,13 19,38 19,26 26,32 128,90 233,179 106,90 192,176 87,87 144,157 32,32 54,54 23,23 55,23 32,0 61,-13 29,-13 22,-57 l -32,-288 q -6,-71 32,-97 39,-25 122,-25 h 730 q 25,0 44,-42 20,-41 20,-99 0,-57 -20,-112 -19,-54 -44,-54 h -634 q -160,0 -208,-26 -48,-25 -48,-153 V 813 q 0,-256 109,-404 109,-147 313,-147 186,0 288,29 103,29 186,87 13,12 26,12 25,0 34,-29 10,-28 10,-60 0,-32 -106,-128 Q 1747,77 1577,-6 1408,-90 1210,-90 Z"
               transform="scale(0.015625)" />
            <path
               id="EBGaramond-Regular-63"
               d="M 1363,-96 Q 1043,-96 784,67 525,230 374,515 224,800 224,1152 q 0,416 182,755 183,339 490,541 307,202 678,202 416,0 730,-224 77,-58 77,-122 0,-51 -45,-115 -45,-64 -109,-106 -64,-41 -121,-41 -32,0 -64,22 -32,22 -71,48 -141,109 -314,205 -172,96 -287,96 -314,0 -509,-292 -195,-291 -195,-764 0,-301 131,-544 131,-243 352,-384 221,-141 489,-141 186,0 320,61 135,61 288,214 13,13 32,22 20,10 32,10 71,0 71,-89 0,-39 -23,-87 -22,-48 -73,-112 Q 2182,179 2041,86 1901,-6 1731,-51 1562,-96 1363,-96 Z"
               transform="scale(0.015625)" />
          </defs>
          <use
             xlink:href="#EBGaramond-Regular-6c"
             id="use293" />
          <use
             xlink:href="#EBGaramond-Regular-6f"
             x="23.999985"
             id="use295" />
          <use
             xlink:href="#EBGaramond-Regular-67"
             x="73.499969"
             id="use297" />
          <use
             xlink:href="#EBGaramond-Regular-69"
             x="116.99995"
             id="use299" />
          <use
             xlink:href="#EBGaramond-Regular-73"
             x="141.49994"
             id="use301" />
          <use
             xlink:href="#EBGaramond-Regular-74"
             x="173.79993"
             id="use303" />
          <use
             xlink:href="#EBGaramond-Regular-69"
             x="205.19992"
             id="use305" />
          <use
             xlink:href="#EBGaramond-Regular-63"
             x="229.69991"
             id="use307" />
        </g>
      </g>
      <g
         id="line2d_18">
        <path
           d="m 71.1,82.722 h 15 15"
           style="fill:none;stroke:#ff7f0e;stroke-width:2;stroke-dasharray:7.4, 3.2;stroke-dashoffset:0"
           id="path312" />
      </g>
      <g
         id="text_16">
        <!-- tanh -->
        <g
           transform="matrix(0.15,0,0,-0.15,113.1,87.972)"
           id="g328">
          <defs
             id="defs318">
            <path
               id="EBGaramond-Regular-61"
               d="M 749,-90 Q 634,-90 515,0 397,90 317,218 q -80,128 -80,243 0,205 108,320 109,115 346,211 l 653,269 q 128,51 150,89 23,39 29,167 l 13,409 q 6,167 -93,288 -99,122 -285,122 -96,0 -192,-32 -96,-32 -160,-83 -38,-26 -51,-77 -13,-51 -13,-109 0,-25 3,-57 4,-32 4,-58 0,-32 -80,-87 -80,-54 -180,-96 -99,-41 -163,-41 -32,0 -51,16 -19,16 -19,42 0,102 67,220 67,119 189,221 147,135 320,237 173,102 339,160 167,58 295,58 230,0 380,-164 151,-163 144,-406 L 1958,544 q -6,-134 61,-218 67,-83 170,-83 160,0 237,71 32,32 51,32 32,0 51,-20 19,-19 19,-51 0,-70 -70,-141 -103,-102 -221,-163 -118,-61 -221,-61 -294,0 -467,333 h -19 Q 1338,70 1146,-10 954,-90 749,-90 Z m 301,308 q 128,0 217,41 90,42 160,112 32,32 54,86 23,55 29,177 l 13,313 q 7,71 -6,103 -13,32 -51,32 -13,0 -45,-7 -32,-6 -83,-25 Q 998,928 867,797 736,666 736,557 q 0,-167 99,-253 99,-86 215,-86 z"
               transform="scale(0.015625)" />
            <path
               id="EBGaramond-Regular-6e"
               d="m 282,-19 q -58,0 -93,16 -35,16 -35,54 0,51 38,67 38,16 109,36 96,25 185,70 90,45 90,173 v 1376 q 0,173 -35,294 -35,122 -202,167 -25,12 -45,28 -19,16 -19,55 0,70 58,77 224,57 364,140 141,84 276,186 19,13 35,22 16,10 35,10 13,0 22,-13 10,-13 10,-32 0,-45 -16,-183 -16,-137 -16,-226 0,-26 3,-49 4,-22 10,-28 224,211 477,320 253,109 553,109 314,0 519,-256 205,-256 205,-634 V 397 q 0,-128 89,-170 90,-41 186,-73 51,-20 99,-42 48,-22 48,-74 0,-38 -45,-47 -45,-10 -83,-10 -128,0 -199,10 -70,9 -134,15 -64,7 -179,7 -109,0 -180,-7 -70,-6 -144,-15 -73,-10 -201,-10 -32,0 -80,10 -48,9 -48,47 0,52 48,74 48,22 99,42 96,32 186,73 90,42 90,170 v 1344 q 0,281 -157,438 -157,157 -419,163 -231,0 -404,-74 -172,-73 -307,-182 -25,-25 -38,-67 -13,-41 -13,-80 V 397 q 0,-128 89,-173 90,-45 186,-70 147,-39 147,-103 0,-38 -32,-54 -32,-16 -96,-16 -128,0 -202,10 Q 1043,0 979,6 915,13 800,13 691,13 624,6 557,0 483,-9 410,-19 282,-19 Z"
               transform="scale(0.015625)" />
            <path
               id="EBGaramond-Regular-68"
               d="m 250,-19 q -128,0 -128,70 0,58 147,103 96,32 182,83 87,51 93,179 v 3206 q 0,173 -58,304 -57,132 -224,157 -57,13 -57,90 0,57 51,77 90,32 214,70 125,38 259,86 135,48 237,93 26,13 39,13 19,0 32,-13 13,-13 13,-32 0,-38 -16,-109 -16,-70 -29,-243 -13,-173 -13,-518 V 2483 q 0,-102 9,-147 10,-45 36,-90 102,77 252,170 151,93 336,163 186,71 385,71 313,0 521,-247 208,-246 208,-624 V 435 q 0,-128 83,-189 84,-60 180,-92 70,-20 108,-42 39,-22 39,-61 0,-70 -128,-70 -128,0 -196,10 -67,9 -128,15 -60,7 -175,7 -109,0 -173,-7 -64,-6 -132,-15 -67,-10 -195,-10 -128,0 -128,70 0,45 38,61 39,16 110,42 96,32 172,92 77,61 77,189 v 1306 q 0,160 -93,291 -92,131 -227,208 -134,77 -275,77 -122,0 -282,-36 -160,-35 -249,-105 -103,-83 -138,-173 -35,-89 -35,-288 V 416 q 6,-128 80,-179 74,-51 170,-83 70,-20 105,-42 35,-22 35,-61 0,-70 -128,-70 -128,0 -192,10 Q 998,0 940,6 883,13 768,13 659,13 592,6 525,0 451,-9 378,-19 250,-19 Z"
               transform="scale(0.015625)" />
          </defs>
          <use
             xlink:href="#EBGaramond-Regular-74"
             id="use320" />
          <use
             xlink:href="#EBGaramond-Regular-61"
             x="31.399994"
             id="use322" />
          <use
             xlink:href="#EBGaramond-Regular-6e"
             x="71.299988"
             id="use324" />
          <use
             xlink:href="#EBGaramond-Regular-68"
             x="124.09998"
             id="use326" />
        </g>
      </g>
    </g>
  </g>
  <defs
     id="defs337">
    <clipPath
       id="p9d9dd5a495">
      <rect
         x="57.599998"
         y="41.472"
         width="357.12"
         height="266.112"
         id="rect334" />
    </clipPath>
  </defs>
</svg>
